M48
; DRILL file {KiCad 9.0.7} date 2026-02-24T19:05:49-0500
; FORMAT={-:-/ absolute / metric / decimal}
; #@! TF.CreationDate,2026-02-24T19:05:49-05:00
; #@! TF.GenerationSoftware,Kicad,Pcbnew,9.0.7
; #@! TF.FileFunction,Plated,1,8,PTH
FMAT,2
METRIC
; #@! TA.AperFunction,Plated,PTH,ViaDrill
T1C0.200
; #@! TA.AperFunction,Plated,PTH,ComponentDrill
T2C0.200
; #@! TA.AperFunction,Plated,PTH,ComponentDrill
T3C0.330
; #@! TA.AperFunction,Plated,PTH,ComponentDrill
T4C0.500
; #@! TA.AperFunction,Plated,PTH,ComponentDrill
T5C0.700
; #@! TA.AperFunction,Plated,PTH,ComponentDrill
T6C0.890
; #@! TA.AperFunction,Plated,PTH,ComponentDrill
T7C0.900
; #@! TA.AperFunction,Plated,PTH,ComponentDrill
T8C1.020
; #@! TA.AperFunction,Plated,PTH,ComponentDrill
T9C1.100
; #@! TA.AperFunction,Plated,PTH,ComponentDrill
T10C1.570
; #@! TA.AperFunction,Plated,PTH,ComponentDrill
T11C2.300
; #@! TA.AperFunction,Plated,PTH,ComponentDrill
T12C3.000
; #@! TA.AperFunction,Plated,PTH,ComponentDrill
T13C3.800
%
G90
G05
T1
X68.23Y-100.211
X68.23Y-103.961
X68.37Y-56.21
X68.37Y-57.21
X68.37Y-58.21
X68.37Y-59.21
X68.37Y-60.21
X68.37Y-61.21
X68.37Y-62.21
X68.37Y-63.21
X68.37Y-64.21
X68.37Y-65.21
X68.37Y-66.21
X68.37Y-67.21
X68.37Y-68.21
X68.37Y-69.21
X68.37Y-73.21
X68.37Y-74.21
X68.37Y-75.21
X68.37Y-76.21
X68.37Y-77.21
X68.37Y-78.21
X68.37Y-79.21
X68.37Y-80.21
X68.37Y-81.21
X68.37Y-82.21
X68.37Y-83.21
X68.37Y-84.21
X68.37Y-85.21
X68.37Y-86.21
X68.37Y-87.21
X68.37Y-88.21
X68.37Y-89.21
X68.37Y-90.21
X68.37Y-91.21
X68.37Y-92.21
X68.37Y-93.21
X68.37Y-94.21
X68.37Y-95.21
X68.37Y-96.21
X68.37Y-97.21
X68.37Y-98.21
X68.37Y-99.21
X68.37Y-113.21
X68.37Y-114.21
X68.37Y-115.21
X68.37Y-116.21
X68.37Y-117.21
X68.37Y-118.21
X68.37Y-119.21
X68.37Y-120.21
X68.37Y-121.21
X68.37Y-122.21
X68.37Y-132.21
X68.37Y-133.21
X68.37Y-134.21
X68.37Y-135.21
X68.37Y-136.21
X68.37Y-137.21
X68.37Y-138.21
X69.37Y-138.21
X70.37Y-138.21
X70.67Y-97.86
X70.82Y-132.81
X71.37Y-138.21
X72.045Y-65.535
X72.12Y-59.76
X72.37Y-138.21
X72.67Y-137.46
X72.745Y-65.21
X72.75Y-60.11
X73.395Y-65.21
X73.4Y-60.11
X73.82Y-97.86
X73.925Y-106.96
X73.925Y-107.91
X73.97Y-104.31
X74.02Y-59.76
X74.095Y-64.885
X74.12Y-103.46
X74.57Y-70.56
X74.57Y-71.76
X75.17Y-65.56
X75.22Y-59.66
X75.57Y-104.81
X75.62Y-74.21
X75.625Y-109.585
X75.845Y-65.21
X75.85Y-60.11
X76.495Y-65.21
X76.5Y-60.11
X76.57Y-58.46
X76.62Y-69.66
X77.12Y-59.66
X77.17Y-64.86
X77.52Y-71.76
X77.77Y-58.46
X77.825Y-106.435
X78.12Y-74.16
X78.27Y-65.56
X78.42Y-59.56
X78.625Y-109.46
X78.945Y-65.21
X78.947Y-60.11
X79.57Y-69.11
X79.595Y-65.21
X79.597Y-60.11
X79.775Y-108.31
X80.07Y-59.56
X80.27Y-64.835
X80.27Y-69.16
X80.375Y-110.485
X81.02Y-74.16
X81.17Y-71.41
X81.67Y-70.01
X82.97Y-126.96
X83.02Y-130.21
X83.52Y-74.21
X84.72Y-64.11
X85.87Y-59.71
X85.97Y-57.005
X86.12Y-53.41
X86.92Y-74.46
X87.52Y-78.51
X87.67Y-118.51
X87.72Y-123.76
X87.82Y-77.435
X87.87Y-82.66
X87.92Y-74.46
X88.22Y-77.96
X88.47Y-72.66
X88.495Y-82.36
X88.57Y-76.435
X88.57Y-77.085
X88.67Y-123.76
X88.69Y-71.99
X88.92Y-75.792
X88.97Y-74.61
X89.145Y-82.36
X89.15Y-71.53
X89.27Y-95.16
X89.27Y-98.06
X89.37Y-92.61
X89.47Y-70.86
X89.47Y-119.31
X89.72Y-81.96
X90.02Y-71.36
X90.02Y-73.11
X90.07Y-125.46
X90.17Y-65.31
X90.22Y-82.36
X90.42Y-59.61
X90.42Y-120.76
X90.525Y-123.215
X90.57Y-126.71
X90.82Y-128.21
X90.945Y-65.31
X90.949Y-60.131
X91.22Y-83.31
X91.37Y-116.61
X91.595Y-65.31
X91.599Y-60.131
X91.62Y-69.66
X91.72Y-81.81
X91.92Y-80.01
X91.92Y-84.26
X91.97Y-69.11
X92.02Y-71.26
X92.02Y-132.96
X92.12Y-59.61
X92.17Y-73.06
X92.37Y-65.31
X92.487Y-68.593
X92.581Y-80.221
X92.77Y-84.91
X92.835Y-72.745
X92.92Y-117.61
X92.946Y-68.134
X93.041Y-80.681
X93.17Y-81.36
X93.27Y-65.26
X93.294Y-72.286
X93.32Y-124.46
X93.42Y-59.71
X93.42Y-71.56
X93.67Y-67.91
X94.045Y-60.081
X94.045Y-65.26
X94.37Y-58.51
X94.695Y-60.081
X94.695Y-65.26
X94.82Y-84.31
X94.87Y-85.31
X94.97Y-126.66
X95.22Y-129.71
X95.32Y-137.21
X95.37Y-59.61
X95.42Y-71.06
X95.47Y-65.26
X95.57Y-58.51
X95.615Y-70.365
X95.62Y-120.46
X95.72Y-88.66
X95.77Y-116.71
X95.97Y-69.26
X96.075Y-69.905
X96.17Y-68.46
X96.37Y-65.26
X96.67Y-59.51
X96.77Y-123.21
X96.97Y-89.76
X97.07Y-123.81
X97.125Y-115.71
X97.145Y-60.081
X97.145Y-65.26
X97.42Y-83.31
X97.57Y-84.16
X97.795Y-60.081
X97.795Y-65.26
X97.92Y-87.21
X98.07Y-83.66
X98.07Y-117.96
X98.47Y-99.71
X98.52Y-72.01
X98.52Y-81.36
X98.545Y-65.06
X98.545Y-80.635
X98.57Y-59.91
X98.57Y-96.81
X98.639Y-72.728
X98.67Y-84.21
X98.845Y-80.06
X98.92Y-88.81
X99.02Y-129.81
X99.098Y-73.188
X99.17Y-80.71
X99.495Y-80.01
X99.52Y-69.26
X99.57Y-67.96
X99.595Y-79.41
X99.87Y-73.26
X99.87Y-99.71
X100.32Y-70.06
X100.42Y-105.66
X100.47Y-106.66
X100.62Y-99.71
X100.62Y-128.66
X100.72Y-126.76
X100.77Y-74.91
X100.87Y-109.71
X100.92Y-70.86
X101.07Y-107.86
X101.37Y-77.46
X101.37Y-138.21
X101.47Y-68.21
X101.47Y-133.46
X101.47Y-134.46
X101.52Y-86.86
X101.52Y-87.56
X101.52Y-131.66
X101.62Y-88.56
X101.67Y-71.46
X101.67Y-81.76
X101.67Y-112.71
X101.72Y-89.41
X101.82Y-79.06
X101.87Y-76.96
X101.92Y-66.985
X101.92Y-67.635
X101.92Y-135.71
X102.32Y-66.36
X102.38Y-138.21
X102.52Y-79.46
X102.52Y-80.91
X102.62Y-76.71
X102.72Y-89.41
X102.77Y-85.06
X103.12Y-121.71
X103.32Y-72.96
X103.37Y-76.71
X103.37Y-138.21
X103.42Y-75.76
X103.62Y-79.46
X103.62Y-81.01
X103.77Y-97.26
X103.82Y-96.36
X103.92Y-124.96
X103.97Y-66.41
X104.02Y-62.41
X104.07Y-119.21
X104.12Y-59.705
X104.12Y-73.86
X104.12Y-77.21
X104.17Y-136.21
X104.22Y-57.005
X104.37Y-72.21
X104.37Y-73.21
X104.37Y-78.96
X104.37Y-138.21
X104.52Y-133.96
X104.57Y-129.316
X104.62Y-74.96
X104.645Y-131.035
X104.77Y-93.31
X104.775Y-92.615
X104.82Y-99.61
X104.82Y-132.16
X105.02Y-89.71
X105.12Y-77.21
X105.12Y-78.96
X105.27Y-96.46
X105.37Y-72.21
X105.37Y-138.21
X105.52Y-106.26
X105.525Y-79.865
X105.87Y-78.71
X105.87Y-130.76
X105.92Y-119.61
X106.12Y-92.36
X106.37Y-72.21
X106.37Y-138.21
X106.62Y-77.21
X106.62Y-77.96
X106.77Y-71.66
X106.92Y-112.71
X107.02Y-92.36
X107.37Y-72.21
X107.37Y-74.96
X107.37Y-138.21
X107.47Y-77.01
X107.62Y-73.21
X107.62Y-74.21
X108.02Y-71.71
X108.22Y-79.01
X108.22Y-79.66
X108.22Y-93.51
X108.22Y-94.66
X108.37Y-138.21
X108.47Y-99.61
X108.62Y-74.51
X108.67Y-77.61
X108.87Y-124.96
X109.02Y-79.01
X109.02Y-79.66
X109.02Y-105.51
X109.17Y-88.86
X109.38Y-138.21
X109.665Y-77.66
X109.67Y-74.41
X110.02Y-79.31
X110.07Y-72.46
X110.27Y-83.66
X110.37Y-138.21
X110.47Y-112.36
X110.495Y-71.61
X110.775Y-72.46
X111.17Y-117.76
X111.37Y-138.21
X111.425Y-72.46
X112.02Y-72.01
X112.02Y-72.86
X112.22Y-81.86
X112.37Y-138.21
X112.545Y-81.085
X112.645Y-72.46
X112.67Y-124.61
X112.72Y-130.11
X112.87Y-91.81
X113.295Y-72.46
X113.37Y-138.21
X113.67Y-115.06
X113.82Y-77.01
X114.02Y-72.46
X114.17Y-136.81
X114.37Y-138.21
X115.17Y-72.46
X115.37Y-138.21
X115.47Y-87.01
X115.72Y-78.01
X115.72Y-79.51
X115.87Y-91.46
X115.895Y-72.46
X116.38Y-138.21
X116.47Y-87.01
X116.545Y-72.46
X117.07Y-71.86
X117.07Y-72.96
X117.37Y-138.21
X117.575Y-72.46
X117.87Y-91.46
X118.225Y-72.46
X118.37Y-138.21
X118.495Y-71.585
X118.87Y-74.61
X118.92Y-72.46
X119.37Y-138.21
X119.57Y-83.36
X120.02Y-82.235
X120.02Y-82.885
X120.02Y-109.61
X120.17Y-105.41
X120.17Y-113.81
X120.37Y-138.21
X120.42Y-81.71
X120.72Y-75.16
X120.72Y-76.81
X120.77Y-78.21
X120.77Y-79.61
X121.32Y-87.26
X121.37Y-138.21
X121.42Y-83.76
X121.67Y-112.26
X121.67Y-113.21
X121.82Y-88.81
X122.27Y-71.96
X122.27Y-79.91
X122.37Y-85.01
X122.37Y-117.56
X122.37Y-121.81
X122.37Y-126.06
X122.37Y-138.21
X122.62Y-96.01
X122.67Y-97.86
X123.27Y-79.91
X123.37Y-138.21
X123.42Y-90.31
X123.42Y-91.31
X123.42Y-100.91
X123.87Y-129.71
X123.87Y-133.96
X124.07Y-124.26
X124.07Y-125.21
X124.12Y-84.56
X124.17Y-79.91
X124.17Y-98.21
X124.32Y-102.71
X124.37Y-138.21
X124.52Y-95.91
X124.57Y-64.16
X124.57Y-66.71
X125.12Y-96.16
X125.37Y-138.21
X125.47Y-136.26
X125.47Y-137.21
X125.62Y-54.01
X125.62Y-106.21
X125.87Y-93.36
X125.92Y-102.71
X126.22Y-109.06
X126.22Y-109.71
X126.62Y-78.21
X126.72Y-101.41
X126.92Y-109.06
X126.92Y-109.71
X126.97Y-106.46
X127.17Y-87.46
X127.22Y-112.31
X127.22Y-113.31
X127.32Y-60.56
X127.57Y-102.76
X127.62Y-109.06
X127.62Y-109.71
X127.87Y-72.56
X127.87Y-84.96
X128.02Y-118.21
X128.07Y-60.56
X128.12Y-106.46
X128.32Y-100.91
X128.32Y-109.06
X128.32Y-109.71
X128.37Y-123.61
X128.67Y-56.41
X128.67Y-121.66
X128.72Y-60.56
X129.02Y-109.06
X129.02Y-109.71
X129.02Y-121.06
X129.07Y-96.16
X129.12Y-79.71
X129.17Y-58.11
X129.32Y-60.06
X129.32Y-61.06
X129.37Y-118.41
X129.37Y-121.66
X129.47Y-130.11
X129.57Y-51.56
X129.72Y-121.06
X129.92Y-60.56
X130.07Y-91.56
X130.07Y-121.66
X130.07Y-90.91
X130.12Y-135.36
X130.27Y-133.61
X130.37Y-123.01
X130.37Y-138.21
X130.42Y-121.06
X130.57Y-60.56
X130.62Y-88.71
X130.62Y-133.01
X130.77Y-121.66
X130.87Y-130.46
X130.97Y-133.61
X131.07Y-51.56
X131.12Y-121.06
X131.17Y-60.06
X131.17Y-61.06
X131.32Y-133.01
X131.37Y-138.21
X131.47Y-121.66
X131.52Y-55.485
X131.62Y-85.56
X131.67Y-133.61
X131.77Y-60.56
X131.82Y-121.06
X132.02Y-133.01
X132.37Y-133.61
X132.37Y-138.21
X132.42Y-60.56
X132.57Y-51.56
X132.72Y-133.01
X133.02Y-60.06
X133.02Y-61.06
X133.07Y-133.61
X133.37Y-138.21
X133.42Y-133.01
X133.52Y-85.385
X133.62Y-60.56
X134.02Y-90.31
X134.07Y-51.56
X134.27Y-60.56
X134.37Y-138.21
X134.77Y-90.31
X134.87Y-108.71
X134.92Y-56.76
X134.97Y-58.06
X135.02Y-60.56
X135.57Y-90.31
X135.87Y-108.71
X136.12Y-87.51
X136.42Y-79.31
X136.47Y-85.61
X136.57Y-58.21
X136.57Y-80.06
X136.67Y-73.91
X136.72Y-72.86
X137.07Y-51.56
X137.07Y-55.46
X137.07Y-56.76
X137.07Y-60.41
X137.12Y-91.31
X137.22Y-106.16
X137.345Y-81.61
X137.47Y-58.11
X137.72Y-56.76
X137.87Y-83.71
X138.12Y-55.56
X138.27Y-106.16
X138.42Y-58.11
X139.12Y-87.26
X139.12Y-91.31
X139.57Y-84.21
X139.57Y-85.26
X139.77Y-87.26
X139.92Y-106.56
X139.975Y-83.51
X140.275Y-74.56
X140.37Y-117.26
X141.22Y-53.91
X141.37Y-99.56
X141.895Y-79.41
X141.92Y-80.16
X142.17Y-55.51
X142.27Y-70.71
X142.275Y-74.61
X142.72Y-94.96
X143.07Y-56.16
X143.295Y-79.86
X143.42Y-95.21
X143.47Y-102.66
X143.77Y-73.06
X143.87Y-98.96
X143.97Y-58.21
X144.37Y-39.21
X144.37Y-97.01
X144.47Y-45.06
X145.295Y-73.96
X145.37Y-39.21
X145.42Y-49.61
X145.57Y-95.16
X145.77Y-73.41
X145.87Y-98.96
X146.045Y-49.21
X146.37Y-39.21
X146.37Y-107.46
X146.57Y-44.96
X146.595Y-74.56
X146.595Y-80.21
X146.67Y-98.66
X146.695Y-49.21
X146.72Y-52.735
X147.07Y-50.01
X147.17Y-95.16
X147.27Y-48.81
X147.37Y-39.21
X147.42Y-98.66
X147.57Y-99.96
X147.72Y-53.06
X148.07Y-44.995
X148.07Y-98.01
X148.22Y-102.86
X148.37Y-39.21
X148.37Y-107.46
X148.62Y-83.21
X148.87Y-50.36
X148.87Y-102.86
X149.07Y-94.66
X149.07Y-96.46
X149.245Y-49.66
X149.37Y-39.21
X149.37Y-99.96
X149.37Y-138.21
X149.42Y-67.76
X149.52Y-62.515
X149.57Y-44.995
X149.57Y-48.26
X149.57Y-102.86
X149.895Y-49.66
X149.97Y-90.36
X150.22Y-102.91
X150.27Y-98.06
X150.37Y-39.21
X150.37Y-107.46
X150.37Y-138.21
X150.52Y-50.06
X150.52Y-51.31
X150.595Y-83.06
X150.92Y-90.36
X150.97Y-84.06
X151.07Y-44.995
X151.07Y-94.66
X151.07Y-96.46
X151.075Y-62.61
X151.145Y-49.61
X151.17Y-99.96
X151.22Y-74.91
X151.22Y-102.91
X151.37Y-39.21
X151.37Y-138.21
X151.795Y-49.61
X151.87Y-74.56
X152.07Y-98.06
X152.12Y-87.285
X152.17Y-56.56
X152.27Y-67.71
X152.37Y-39.21
X152.37Y-107.46
X152.37Y-138.21
X152.44Y-48.81
X152.57Y-44.995
X152.59Y-49.6
X152.72Y-74.71
X152.72Y-102.91
X152.965Y-70.705
X152.97Y-71.91
X153.02Y-90.96
X153.07Y-94.66
X153.07Y-96.46
X153.09Y-48.81
X153.27Y-50.31
X153.275Y-62.56
X153.37Y-39.21
X153.37Y-138.21
X153.72Y-56.51
X153.795Y-49.135
X153.843Y-84.31
X153.87Y-74.86
X153.87Y-87.26
X153.92Y-74.06
X153.97Y-90.96
X154.07Y-44.96
X154.22Y-102.91
X154.37Y-39.21
X154.37Y-138.21
X154.57Y-99.71
X154.87Y-44.96
X154.895Y-50.535
X155.195Y-80.96
X155.345Y-49.91
X155.37Y-39.21
X155.37Y-138.21
X155.415Y-91.955
X155.57Y-44.96
X155.62Y-48.66
X155.72Y-102.91
X155.77Y-78.56
X155.77Y-99.71
X155.995Y-49.91
X155.995Y-87.11
X156.02Y-50.66
X156.37Y-39.21
X156.37Y-107.46
X156.37Y-138.21
X156.62Y-48.51
X156.72Y-60.01
X156.77Y-75.16
X157.02Y-47.06
X157.07Y-57.01
X157.22Y-102.91
X157.37Y-39.21
X157.37Y-138.21
X157.62Y-85.01
X157.82Y-50.16
X158.17Y-99.76
X158.37Y-39.21
X158.37Y-57.01
X158.37Y-138.21
X158.72Y-102.91
X158.82Y-62.06
X158.82Y-62.76
X158.87Y-55.16
X159.02Y-56.51
X159.07Y-57.51
X159.07Y-88.31
X159.37Y-39.21
X159.37Y-99.76
X159.37Y-138.21
X159.495Y-83.56
X159.895Y-82.235
X159.895Y-82.885
X160.22Y-102.91
X160.27Y-45.81
X160.27Y-47.01
X160.295Y-81.61
X160.37Y-39.21
X160.37Y-107.46
X160.37Y-138.21
X161.17Y-48.56
X161.37Y-138.21
X161.52Y-62.86
X161.57Y-98.96
X161.72Y-49.96
X161.72Y-102.91
X161.77Y-51.06
X161.77Y-84.51
X162.22Y-90.21
X162.22Y-99.36
X162.37Y-138.21
X162.47Y-82.91
X162.57Y-91.21
X162.77Y-88.26
X163.27Y-102.61
X163.37Y-99.66
X163.37Y-138.21
X163.57Y-91.26
X164.22Y-102.61
X164.37Y-39.21
X164.37Y-107.46
X164.37Y-138.21
X164.57Y-99.66
X164.72Y-83.66
X164.87Y-57.01
X165.27Y-90.01
X165.37Y-39.21
X165.37Y-138.21
X165.935Y-81.21
X166.02Y-103.36
X166.07Y-120.16
X166.329Y-39.204
X166.37Y-138.21
X166.47Y-87.46
X166.795Y-84.16
X167.37Y-39.21
X167.37Y-103.46
X167.37Y-138.21
X167.82Y-85.81
X167.87Y-80.435
X168.37Y-39.21
X168.37Y-138.21
X168.72Y-74.61
X169.329Y-39.204
X169.37Y-138.21
X169.62Y-85.01
X169.87Y-59.96
X169.87Y-100.26
X170.02Y-56.41
X170.17Y-74.86
X170.32Y-77.71
X170.37Y-39.21
X170.37Y-88.96
X170.37Y-138.21
X170.42Y-86.86
X170.52Y-87.885
X170.745Y-85.56
X170.87Y-104.36
X170.92Y-77.01
X171.17Y-59.61
X171.17Y-86.11
X171.17Y-86.86
X171.17Y-87.61
X171.17Y-88.36
X171.17Y-89.11
X171.37Y-39.21
X171.37Y-138.21
X171.47Y-75.36
X171.77Y-114.835
X171.87Y-56.21
X171.97Y-90.16
X172.145Y-116.035
X172.27Y-74.41
X172.329Y-39.204
X172.37Y-138.21
X172.57Y-103.31
X172.87Y-81.91
X173.07Y-73.61
X173.07Y-86.61
X173.07Y-87.11
X173.07Y-87.61
X173.07Y-88.11
X173.07Y-88.61
X173.37Y-39.21
X173.37Y-103.81
X173.37Y-138.21
X173.72Y-81.66
X174.02Y-77.66
X174.07Y-86.66
X174.07Y-103.81
X174.22Y-114.06
X174.47Y-136.01
X174.72Y-86.66
X174.77Y-39.56
X174.77Y-40.41
X174.77Y-41.21
X174.82Y-77.66
X174.92Y-104.91
X174.97Y-100.21
X175.37Y-115.41
X175.57Y-104.06
X176.12Y-61.21
X176.17Y-90.41
X176.27Y-78.51
X176.67Y-60.035
X176.67Y-60.685
X176.77Y-86.31
X176.77Y-102.61
X177.12Y-89.51
X177.12Y-107.66
X177.22Y-59.51
X177.37Y-39.21
X177.57Y-90.51
X177.57Y-91.41
X177.92Y-108.16
X178.329Y-39.204
X178.52Y-56.11
X178.52Y-81.61
X178.52Y-82.86
X178.52Y-107.71
X178.67Y-103.41
X178.695Y-105.61
X178.92Y-98.71
X178.92Y-101.31
X179.12Y-108.16
X179.187Y-93.093
X180.27Y-86.96
X180.27Y-88.21
X180.27Y-89.41
X180.37Y-56.61
X180.37Y-138.21
X180.62Y-62.71
X180.87Y-60.11
X181.17Y-134.61
X181.345Y-62.76
X181.37Y-138.21
X181.77Y-131.01
X181.97Y-90.71
X181.97Y-96.91
X181.995Y-62.76
X182.17Y-118.86
X182.27Y-134.86
X182.37Y-138.21
X182.42Y-131.01
X182.568Y-105.019
X182.57Y-102.81
X182.57Y-107.26
X182.72Y-62.66
X182.82Y-59.66
X183.07Y-89.56
X183.17Y-95.61
X183.17Y-96.91
X183.17Y-99.96
X183.17Y-121.66
X183.32Y-134.86
X183.37Y-138.21
X183.47Y-129.71
X183.77Y-118.86
X183.97Y-123.56
X184.32Y-131.96
X184.329Y-39.204
X184.37Y-131.26
X184.37Y-137.31
X184.37Y-138.21
X184.615Y-61.465
X184.62Y-129.46
X184.62Y-130.06
X184.62Y-130.66
X184.87Y-119.66
X184.87Y-120.61
X185.07Y-116.81
X185.17Y-123.56
X185.37Y-39.21
X185.37Y-138.21
X185.57Y-137.31
X186.02Y-56.16
X186.17Y-93.81
X186.22Y-89.01
X186.27Y-94.96
X186.27Y-97.61
X186.27Y-98.56
X186.32Y-95.81
X186.37Y-39.21
X186.37Y-116.81
X186.37Y-123.56
X186.37Y-138.21
X186.67Y-41.61
X186.77Y-137.31
X186.92Y-120.26
X187.02Y-61.26
X187.329Y-39.204
X187.37Y-138.21
X187.77Y-110.36
X188.058Y-92.797
X188.065Y-90.805
X188.07Y-86.96
X188.12Y-96.06
X188.37Y-39.21
X188.37Y-138.21
X188.57Y-104.46
X188.57Y-109.66
X189.12Y-39.71
X189.12Y-42.26
X189.27Y-40.96
X189.37Y-138.21
X189.57Y-103.96
X189.87Y-109.71
X190.615Y-103.96
X190.72Y-107.11
X191.27Y-47.81
X191.27Y-48.46
X191.27Y-50.835
X191.27Y-51.485
X191.57Y-108.41
X191.77Y-89.86
X191.82Y-50.385
X191.845Y-47.335
X191.845Y-48.96
X191.87Y-51.935
X191.87Y-53.51
X192.37Y-138.21
X192.47Y-110.01
X192.495Y-46.285
X192.495Y-46.935
X192.495Y-49.385
X192.495Y-50.035
X192.495Y-52.385
X192.495Y-53.035
X192.72Y-89.86
X193.095Y-45.86
X193.22Y-85.11
X193.37Y-138.21
X193.52Y-90.86
X193.57Y-90.16
X194.02Y-102.51
X194.02Y-103.16
X194.02Y-103.96
X194.02Y-109.41
X194.095Y-70.035
X194.095Y-73.71
X194.095Y-75.06
X194.095Y-76.885
X194.095Y-78.685
X194.145Y-71.86
X194.17Y-113.06
X194.52Y-39.705
X194.57Y-75.635
X194.57Y-76.285
X194.595Y-70.585
X194.595Y-71.235
X194.595Y-72.485
X194.595Y-73.135
X194.595Y-77.51
X194.595Y-78.16
X194.62Y-89.91
X194.694Y-123.01
X194.695Y-121.51
X194.697Y-120.01
X194.72Y-130.51
X194.72Y-132.01
X194.728Y-124.51
X194.744Y-135.51
X194.745Y-127.51
X194.745Y-136.01
X194.745Y-136.51
X194.762Y-126.01
X194.769Y-118.51
X194.77Y-118.01
X194.77Y-129.01
X194.87Y-87.81
X195.07Y-71.86
X195.07Y-76.885
X195.07Y-109.36
X195.32Y-89.91
X195.72Y-104.41
X195.97Y-41.01
X196.02Y-103.36
X196.37Y-39.21
X196.47Y-79.61
X196.47Y-80.31
X196.47Y-81.06
X196.52Y-43.11
X196.52Y-91.56
X197.12Y-104.31
X197.22Y-89.66
X197.22Y-108.41
X197.329Y-39.204
X197.37Y-138.21
X197.395Y-43.085
X197.42Y-118.01
X197.42Y-118.56
X197.42Y-120.01
X197.42Y-121.51
X197.42Y-123.01
X197.42Y-124.51
X197.42Y-126.01
X197.42Y-127.51
X197.42Y-129.01
X197.42Y-130.51
X197.42Y-132.01
X197.42Y-135.51
X197.42Y-136.01
X197.42Y-136.51
X197.47Y-107.76
X197.67Y-107.11
X197.82Y-122.56
X198.02Y-87.81
X198.045Y-73.56
X198.05Y-77.984
X198.37Y-39.21
X198.37Y-138.21
X198.395Y-122.11
X198.445Y-41.96
X198.695Y-89.835
X198.87Y-59.46
X198.92Y-55.26
X199.01Y-97.86
X199.045Y-122.11
X199.17Y-91.71
X199.22Y-44.36
X199.245Y-41.3
X199.245Y-42.22
X199.245Y-75.325
X199.245Y-76.235
X199.27Y-93.86
X199.32Y-123.91
X199.37Y-39.21
X199.37Y-138.21
X199.47Y-121.51
X199.525Y-41.76
X199.525Y-54.91
X199.59Y-59.46
X199.67Y-102.56
X199.67Y-126.397
X199.945Y-123.46
X200.07Y-44.36
X200.175Y-41.76
X200.175Y-54.91
X200.24Y-59.46
X200.32Y-98.155
X200.329Y-39.204
X200.445Y-41.31
X200.445Y-42.22
X200.445Y-75.325
X200.445Y-76.235
X200.595Y-123.46
X200.725Y-41.76
X200.77Y-54.51
X200.82Y-107.21
X200.82Y-122.46
X200.87Y-69.01
X200.87Y-126.397
X200.97Y-59.41
X201.12Y-122.91
X201.37Y-39.21
X201.375Y-41.76
X201.495Y-122.11
X201.52Y-85.16
X201.62Y-65.71
X201.62Y-138.21
X201.645Y-41.31
X201.645Y-42.235
X201.72Y-97.36
X201.87Y-109.01
X201.925Y-41.76
X202.045Y-75.325
X202.07Y-85.81
X202.145Y-122.11
X202.22Y-78.31
X202.27Y-69.01
X202.32Y-106.31
X202.37Y-39.21
X202.37Y-138.21
X202.375Y-82.118
X202.445Y-76.235
X202.52Y-59.46
X202.575Y-41.76
X202.67Y-55.26
X202.67Y-121.56
X202.77Y-90.11
X202.845Y-41.31
X202.845Y-42.235
X203.125Y-41.76
X203.24Y-59.46
X203.27Y-87.56
X203.295Y-54.91
X203.32Y-69.01
X203.329Y-39.204
X203.37Y-138.21
X203.775Y-41.76
X203.82Y-92.51
X203.82Y-93.81
X203.82Y-97.11
X203.87Y-99.01
X203.87Y-100.01
X203.89Y-59.46
X203.92Y-79.435
X203.92Y-85.085
X203.945Y-54.91
X204.02Y-104.46
X204.045Y-41.31
X204.045Y-42.235
X204.045Y-75.325
X204.325Y-41.76
X204.37Y-39.21
X204.37Y-138.21
X204.42Y-73.06
X204.445Y-76.235
X204.52Y-54.46
X204.52Y-102.61
X204.52Y-103.66
X204.62Y-59.41
X204.62Y-65.26
X204.77Y-85.91
X204.975Y-41.76
X205.17Y-65.785
X205.17Y-66.435
X205.17Y-69.31
X205.175Y-71.86
X205.245Y-41.31
X205.245Y-42.235
X205.27Y-107.16
X205.37Y-39.21
X205.371Y-138.21
X205.52Y-46.61
X205.525Y-41.76
X205.62Y-96.31
X205.62Y-99.41
X205.67Y-67.01
X205.77Y-97.76
X205.97Y-79.51
X206.045Y-75.325
X206.07Y-59.41
X206.07Y-91.21
X206.12Y-55.26
X206.175Y-41.76
X206.27Y-46.61
X206.329Y-39.204
X206.37Y-69.06
X206.37Y-138.21
X206.445Y-41.31
X206.445Y-76.235
X206.47Y-78.36
X206.62Y-72.36
X206.745Y-54.91
X206.79Y-59.41
X206.92Y-46.61
X207.02Y-87.81
X207.17Y-82.985
X207.17Y-86.06
X207.17Y-86.86
X207.32Y-110.96
X207.32Y-111.61
X207.32Y-112.41
X207.32Y-113.16
X207.37Y-39.21
X207.37Y-138.21
X207.395Y-54.91
X207.44Y-59.41
X207.445Y-46.01
X207.445Y-47.21
X207.52Y-44.16
X207.645Y-41.31
X207.77Y-88.21
X207.97Y-46.61
X207.97Y-54.46
X208.045Y-75.325
X208.07Y-102.21
X208.17Y-59.36
X208.37Y-39.21
X208.37Y-65.26
X208.37Y-66.96
X208.37Y-138.21
X208.445Y-76.235
X208.45Y-44.16
X208.62Y-46.61
X208.765Y-72.365
X208.77Y-73.21
X208.845Y-41.31
X208.845Y-42.235
X208.92Y-65.785
X208.92Y-66.435
X209.145Y-46.01
X209.145Y-47.21
X209.329Y-39.204
X209.37Y-138.21
X209.52Y-55.31
X209.57Y-82.16
X209.62Y-109.01
X209.645Y-75.3
X209.645Y-76.235
X209.67Y-46.61
X209.67Y-133.66
X209.87Y-99.76
X209.92Y-119.26
X210.045Y-41.31
X210.045Y-42.235
X210.07Y-78.26
X210.12Y-78.96
X210.17Y-107.11
X210.27Y-75.785
X210.32Y-46.61
X210.37Y-39.21
X210.37Y-55.31
X210.37Y-138.21
X210.545Y-65.235
X210.57Y-72.01
X210.77Y-100.51
X210.845Y-75.3
X210.845Y-76.235
X210.87Y-78.66
X210.87Y-119.91
X210.895Y-65.91
X210.895Y-66.56
X211.02Y-68.71
X211.045Y-46.31
X211.17Y-107.01
X211.245Y-41.31
X211.245Y-42.235
X211.27Y-134.61
X211.295Y-67.185
X211.37Y-39.21
X211.37Y-138.21
X211.42Y-79.26
X211.52Y-61.035
X211.525Y-41.76
X211.62Y-99.71
X211.67Y-112.26
X211.895Y-84.535
X211.92Y-68.86
X211.97Y-67.91
X211.97Y-82.16
X212.045Y-76.235
X212.17Y-82.81
X212.175Y-41.76
X212.295Y-61.035
X212.329Y-39.204
X212.37Y-78.26
X212.37Y-138.21
X212.445Y-41.31
X212.445Y-42.235
X212.445Y-75.3
X212.52Y-100.46
X212.57Y-107.86
X212.725Y-41.76
X212.87Y-70.885
X212.87Y-130.61
X212.92Y-68.01
X212.945Y-61.035
X213.02Y-79.81
X213.02Y-81.01
X213.27Y-134.61
X213.37Y-39.21
X213.375Y-41.76
X213.42Y-104.01
X213.44Y-138.202
X213.645Y-41.31
X213.645Y-42.235
X213.67Y-61.035
X213.695Y-59.085
X213.77Y-130.61
X213.82Y-72.06
X213.925Y-41.76
X214.17Y-65.71
X214.29Y-89.589
X214.37Y-39.21
X214.37Y-138.21
X214.42Y-59.085
X214.575Y-41.76
X214.62Y-72.96
X214.67Y-86.46
X214.845Y-41.31
X214.845Y-42.235
X214.87Y-100.96
X215.07Y-59.085
X215.125Y-41.76
X215.329Y-39.204
X215.37Y-138.21
X215.47Y-86.46
X215.775Y-41.76
X215.845Y-57.31
X215.845Y-59.085
X216.045Y-41.31
X216.045Y-42.235
X216.27Y-86.46
X216.37Y-138.21
X216.57Y-57.31
X216.72Y-103.71
X217.22Y-57.31
X217.22Y-107.71
X217.245Y-41.31
X217.245Y-42.235
X217.27Y-109.06
X217.37Y-75.46
X217.37Y-138.21
X217.42Y-110.76
X217.47Y-113.51
X217.77Y-71.21
X217.77Y-76.01
X217.87Y-68.01
X217.92Y-79.01
X217.92Y-79.81
X217.92Y-81.01
X217.97Y-78.26
X217.97Y-104.96
X217.995Y-57.31
X218.02Y-55.535
X218.12Y-43.09
X218.145Y-41.985
X218.27Y-64.21
X218.37Y-98.21
X218.37Y-138.21
X218.47Y-103.21
X218.47Y-105.61
X218.52Y-83.61
X218.62Y-81.06
X218.62Y-84.81
X218.67Y-82.81
X218.67Y-99.16
X218.775Y-55.535
X218.97Y-69.61
X219.22Y-87.71
X219.22Y-88.91
X219.27Y-64.21
X219.295Y-83.61
X219.37Y-111.61
X219.37Y-138.21
X219.425Y-55.535
X219.62Y-116.96
X219.77Y-75.41
X219.87Y-79.31
X219.945Y-83.61
X220.07Y-111.61
X220.17Y-53.76
X220.17Y-55.535
X220.27Y-39.21
X220.37Y-138.21
X220.57Y-75.41
X220.67Y-65.36
X220.72Y-83.61
X220.87Y-123.96
X220.92Y-53.76
X220.97Y-95.86
X221.17Y-71.86
X221.17Y-121.76
X221.27Y-76.06
X221.329Y-39.204
X221.37Y-138.21
X221.42Y-119.36
X221.57Y-53.76
X221.725Y-78.105
X221.77Y-73.36
X221.77Y-77.11
X221.92Y-88.91
X222.02Y-81.96
X222.17Y-63.16
X222.32Y-53.76
X222.32Y-61.21
X222.37Y-39.21
X222.37Y-113.51
X222.37Y-120.71
X222.37Y-138.21
X222.42Y-130.61
X222.72Y-94.21
X222.77Y-109.06
X222.77Y-111.71
X222.87Y-91.06
X222.87Y-134.56
X223.22Y-103.66
X223.32Y-130.61
X223.37Y-39.21
X223.37Y-138.21
X223.57Y-72.11
X223.62Y-84.31
X223.67Y-85.61
X224.02Y-96.31
X224.02Y-97.31
X224.329Y-39.204
X224.37Y-138.21
X224.57Y-72.11
X224.87Y-134.56
X225.12Y-95.81
X225.12Y-97.41
X225.17Y-125.01
X225.17Y-127.51
X225.32Y-85.01
X225.37Y-39.21
X225.37Y-82.51
X225.37Y-88.01
X225.37Y-138.21
X226.37Y-138.21
X226.47Y-133.66
X227.17Y-106.61
X227.17Y-108.61
X227.37Y-138.21
X228.17Y-107.61
X228.37Y-138.21
X229.17Y-106.61
X229.17Y-108.61
X229.37Y-138.21
X230.37Y-138.21
X231.05Y-51.1
X231.17Y-96.61
X231.37Y-138.21
X231.52Y-91.56
X231.52Y-102.91
X231.87Y-101.61
X232.07Y-125.71
X232.37Y-45.21
X232.37Y-46.446
X232.37Y-47.51
X232.37Y-48.51
X232.37Y-49.51
X232.37Y-53.146
X232.37Y-54.21
X232.37Y-55.21
X232.37Y-56.21
X232.37Y-69.146
X232.37Y-70.21
X232.37Y-71.21
X232.37Y-72.21
X232.37Y-78.21
X232.37Y-79.21
X232.37Y-80.21
X232.37Y-81.21
X232.37Y-82.21
X232.37Y-83.21
X232.37Y-84.21
X232.37Y-85.21
X232.37Y-86.21
X232.37Y-87.21
X232.37Y-88.21
X232.37Y-89.21
X232.37Y-90.21
X232.37Y-91.21
X232.37Y-92.21
X232.37Y-93.21
X232.37Y-94.21
X232.37Y-104.21
X232.37Y-105.21
X232.37Y-106.21
X232.37Y-107.21
X232.37Y-108.21
X232.37Y-109.21
X232.37Y-110.21
X232.37Y-111.21
X232.37Y-112.21
X232.37Y-113.21
X232.37Y-114.21
X232.37Y-115.21
X232.37Y-116.21
X232.37Y-117.21
X232.37Y-118.21
X232.37Y-119.21
X232.37Y-120.21
X232.37Y-121.21
X232.37Y-122.21
X232.37Y-123.21
X232.37Y-124.21
X232.37Y-128.21
X232.37Y-129.21
X232.37Y-130.21
X232.37Y-131.21
X232.37Y-132.21
X232.37Y-133.21
X232.37Y-134.21
X232.37Y-135.21
X232.37Y-136.21
X232.37Y-137.21
X232.42Y-102.16
X232.42Y-103.16
T2
X78.915Y-72.785
X80.215Y-72.785
X93.37Y-76.71
X95.845Y-74.235
X95.845Y-76.71
X95.845Y-79.185
X98.32Y-76.71
X100.12Y-92.01
X100.12Y-93.72
X100.975Y-92.865
X101.83Y-92.01
X101.83Y-93.72
X105.62Y-84.685
X105.62Y-85.985
X106.92Y-84.685
X106.92Y-85.985
X107.12Y-108.96
X107.12Y-110.26
X108.42Y-108.96
X108.42Y-110.26
X109.32Y-121.21
X109.32Y-122.51
X110.62Y-121.21
X110.62Y-122.51
X110.82Y-133.41
X110.82Y-134.71
X112.12Y-133.41
X112.12Y-134.71
X171.945Y-101.21
X171.945Y-102.31
T3
X149.345Y-79.06
X149.345Y-78.06
X149.345Y-80.06
X150.895Y-78.06
X150.895Y-79.06
X150.895Y-80.06
X152.445Y-78.06
X152.445Y-80.06
X152.445Y-79.06
X191.37Y-94.71
X191.37Y-95.91
X191.37Y-97.11
X191.37Y-98.31
X191.37Y-99.51
X192.57Y-94.71
X192.57Y-95.91
X192.57Y-97.11
X192.57Y-98.31
X192.57Y-99.51
X193.77Y-94.71
X193.77Y-95.91
X193.77Y-97.11
X193.77Y-98.31
X193.77Y-99.51
X194.97Y-94.71
X194.97Y-95.91
X194.97Y-97.11
X194.97Y-98.36
X194.97Y-99.51
X196.17Y-94.71
X196.17Y-95.91
X196.17Y-97.11
X196.17Y-98.36
X196.17Y-99.51
T5
X73.125Y-54.01
X73.625Y-52.51
X75.125Y-54.01
X76.125Y-52.51
X77.125Y-54.01
X78.125Y-52.51
X79.125Y-54.01
X80.625Y-52.51
X81.125Y-54.01
X91.125Y-54.01
X91.625Y-52.51
X93.125Y-54.01
X94.125Y-52.51
X95.125Y-54.01
X96.125Y-52.51
X97.125Y-54.01
X98.625Y-52.51
X99.125Y-54.01
T6
X108.04Y-64.89
X109.06Y-62.35
X110.07Y-64.89
X111.09Y-62.35
X112.1Y-64.89
X113.12Y-62.35
X115.16Y-62.35
X116.18Y-64.89
X117.19Y-62.35
X118.21Y-64.89
X119.22Y-62.35
X120.24Y-64.89
T8
X108.04Y-67.43
X110.58Y-67.43
X117.7Y-67.43
X120.24Y-67.43
T9
X171.75Y-112.01
X174.29Y-112.01
X176.83Y-112.01
X179.37Y-112.01
X181.91Y-112.01
X184.45Y-112.01
X206.64Y-115.66
X206.64Y-118.2
X206.64Y-120.74
X206.64Y-123.28
X206.64Y-125.82
X206.64Y-128.36
X206.64Y-130.9
X206.64Y-133.44
X212.24Y-91.61
X212.246Y-94.438
X214.78Y-91.61
X214.786Y-94.438
X217.32Y-91.61
X217.326Y-94.438
X229.5Y-115.66
X229.5Y-118.2
X229.5Y-120.74
X229.5Y-123.28
X229.5Y-125.82
X229.5Y-128.36
X229.5Y-130.9
X229.5Y-133.44
T10
X106.08Y-43.94
X122.21Y-43.94
T11
X70.555Y-50.51
X83.695Y-50.51
X88.555Y-50.51
X101.695Y-50.51
T12
X63.22Y-51.11
X63.22Y-126.73
X132.545Y-127.26
X132.55Y-127.26
X150.55Y-127.26
X162.55Y-127.26
X237.12Y-51.11
X237.12Y-126.73
T13
X181.35Y-42.27
X181.35Y-75.27
X229.35Y-42.27
X229.35Y-75.27
T4
G00X225.022Y-80.87
M15
G01X224.422Y-80.87
M16
G05
G00X225.022Y-89.13
M15
G01X224.422Y-89.13
M16
G05
G00X230.972Y-80.51
M15
G01X230.373Y-80.51
M16
G05
G00X230.972Y-89.49
M15
G01X230.373Y-89.49
M16
G05
T5
G00X75.22Y-116.86
M15
G01X75.22Y-118.96
M16
G05
G00X79.12Y-122.71
M15
G01X77.02Y-122.71
M16
G05
G00X81.02Y-116.66
M15
G01X81.02Y-119.16
M16
G05
T7
G00X126.32Y-43.57
M15
G01X126.32Y-42.77
M16
G05
G00X126.32Y-50.03
M15
G01X126.32Y-48.23
M16
G05
G00X140.82Y-43.57
M15
G01X140.82Y-42.77
M16
G05
G00X140.82Y-50.03
M15
G01X140.82Y-48.23
M16
G05
M30
