%TF.GenerationSoftware,KiCad,Pcbnew,9.0.7*%
%TF.CreationDate,2026-02-20T17:15:32-05:00*%
%TF.ProjectId,rpi_cm4_cm5_CarrierBoard,7270695f-636d-4345-9f63-6d355f436172,2.00-0A*%
%TF.SameCoordinates,Original*%
%TF.FileFunction,Soldermask,Top*%
%TF.FilePolarity,Negative*%
%FSLAX46Y46*%
G04 Gerber Fmt 4.6, Leading zero omitted, Abs format (unit mm)*
G04 Created by KiCad (PCBNEW 9.0.7) date 2026-02-20 17:15:32*
%MOMM*%
%LPD*%
G01*
G04 APERTURE LIST*
G04 Aperture macros list*
%AMRoundRect*
0 Rectangle with rounded corners*
0 $1 Rounding radius*
0 $2 $3 $4 $5 $6 $7 $8 $9 X,Y pos of 4 corners*
0 Add a 4 corners polygon primitive as box body*
4,1,4,$2,$3,$4,$5,$6,$7,$8,$9,$2,$3,0*
0 Add four circle primitives for the rounded corners*
1,1,$1+$1,$2,$3*
1,1,$1+$1,$4,$5*
1,1,$1+$1,$6,$7*
1,1,$1+$1,$8,$9*
0 Add four rect primitives between the rounded corners*
20,1,$1+$1,$2,$3,$4,$5,0*
20,1,$1+$1,$4,$5,$6,$7,0*
20,1,$1+$1,$6,$7,$8,$9,0*
20,1,$1+$1,$8,$9,$2,$3,0*%
%AMFreePoly0*
4,1,14,1.160355,0.835355,1.175000,0.800000,1.175000,-0.800000,1.160355,-0.835355,1.125000,-0.850000,-0.805000,-0.850000,-0.840355,-0.835355,-1.160355,-0.515355,-1.175000,-0.480000,-1.175000,0.800000,-1.160355,0.835355,-1.125000,0.850000,1.125000,0.850000,1.160355,0.835355,1.160355,0.835355,$1*%
G04 Aperture macros list end*
%ADD10C,0.100000*%
%ADD11RoundRect,0.105000X0.245000X0.295000X-0.245000X0.295000X-0.245000X-0.295000X0.245000X-0.295000X0*%
%ADD12C,5.000000*%
%ADD13C,2.000000*%
%ADD14RoundRect,0.135000X-0.615000X0.315000X-0.615000X-0.315000X0.615000X-0.315000X0.615000X0.315000X0*%
%ADD15RoundRect,0.142500X-0.332500X-0.657500X0.332500X-0.657500X0.332500X0.657500X-0.332500X0.657500X0*%
%ADD16RoundRect,0.105000X0.295000X-0.245000X0.295000X0.245000X-0.295000X0.245000X-0.295000X-0.245000X0*%
%ADD17RoundRect,0.105000X-0.295000X0.245000X-0.295000X-0.245000X0.295000X-0.245000X0.295000X0.245000X0*%
%ADD18RoundRect,0.135000X-0.315000X-0.365000X0.315000X-0.365000X0.315000X0.365000X-0.315000X0.365000X0*%
%ADD19C,6.348000*%
%ADD20RoundRect,0.097500X0.227500X0.352500X-0.227500X0.352500X-0.227500X-0.352500X0.227500X-0.352500X0*%
%ADD21RoundRect,0.142500X-0.229810X0.700036X-0.700036X0.229810X0.229810X-0.700036X0.700036X-0.229810X0*%
%ADD22RoundRect,0.135000X-0.365000X0.315000X-0.365000X-0.315000X0.365000X-0.315000X0.365000X0.315000X0*%
%ADD23RoundRect,0.157500X-0.367500X-0.392500X0.367500X-0.392500X0.367500X0.392500X-0.367500X0.392500X0*%
%ADD24RoundRect,0.105000X-0.245000X-0.295000X0.245000X-0.295000X0.245000X0.295000X-0.245000X0.295000X0*%
%ADD25RoundRect,0.052500X-0.122500X-0.247500X0.122500X-0.247500X0.122500X0.247500X-0.122500X0.247500X0*%
%ADD26RoundRect,0.052500X-0.122500X-0.197500X0.122500X-0.197500X0.122500X0.197500X-0.122500X0.197500X0*%
%ADD27RoundRect,0.090000X-0.210000X-0.285000X0.210000X-0.285000X0.210000X0.285000X-0.210000X0.285000X0*%
%ADD28RoundRect,0.142500X-0.657500X0.332500X-0.657500X-0.332500X0.657500X-0.332500X0.657500X0.332500X0*%
%ADD29RoundRect,0.135000X0.365000X-0.315000X0.365000X0.315000X-0.365000X0.315000X-0.365000X-0.315000X0*%
%ADD30RoundRect,0.165000X0.585000X-0.385000X0.585000X0.385000X-0.585000X0.385000X-0.585000X-0.385000X0*%
%ADD31RoundRect,0.097500X0.352500X-0.227500X0.352500X0.227500X-0.352500X0.227500X-0.352500X-0.227500X0*%
%ADD32RoundRect,0.180000X0.420000X0.970000X-0.420000X0.970000X-0.420000X-0.970000X0.420000X-0.970000X0*%
%ADD33RoundRect,0.142500X0.657500X-0.332500X0.657500X0.332500X-0.657500X0.332500X-0.657500X-0.332500X0*%
%ADD34RoundRect,0.060000X-0.140000X-0.590000X0.140000X-0.590000X0.140000X0.590000X-0.140000X0.590000X0*%
%ADD35RoundRect,0.052500X0.122500X0.247500X-0.122500X0.247500X-0.122500X-0.247500X0.122500X-0.247500X0*%
%ADD36RoundRect,0.052500X0.122500X0.197500X-0.122500X0.197500X-0.122500X-0.197500X0.122500X-0.197500X0*%
%ADD37RoundRect,0.090000X0.210000X0.285000X-0.210000X0.285000X-0.210000X-0.285000X0.210000X-0.285000X0*%
%ADD38RoundRect,0.142500X0.332500X0.657500X-0.332500X0.657500X-0.332500X-0.657500X0.332500X-0.657500X0*%
%ADD39RoundRect,0.097500X-0.352500X0.227500X-0.352500X-0.227500X0.352500X-0.227500X0.352500X0.227500X0*%
%ADD40RoundRect,0.157500X-0.392500X0.367500X-0.392500X-0.367500X0.392500X-0.367500X0.392500X0.367500X0*%
%ADD41RoundRect,0.112500X-0.262500X0.312500X-0.262500X-0.312500X0.262500X-0.312500X0.262500X0.312500X0*%
%ADD42RoundRect,0.135000X0.315000X0.365000X-0.315000X0.365000X-0.315000X-0.365000X0.315000X-0.365000X0*%
%ADD43C,5.808000*%
%ADD44RoundRect,0.157500X0.392500X-0.367500X0.392500X0.367500X-0.392500X0.367500X-0.392500X-0.367500X0*%
%ADD45RoundRect,0.180000X-0.970000X0.420000X-0.970000X-0.420000X0.970000X-0.420000X0.970000X0.420000X0*%
%ADD46RoundRect,0.105000X-0.035355X0.381838X-0.381838X0.035355X0.035355X-0.381838X0.381838X-0.035355X0*%
%ADD47RoundRect,0.111000X-0.734000X-0.259000X0.734000X-0.259000X0.734000X0.259000X-0.734000X0.259000X0*%
%ADD48RoundRect,0.070000X-1.355000X-1.700000X1.355000X-1.700000X1.355000X1.700000X-1.355000X1.700000X0*%
%ADD49O,27.000000X7.000000*%
%ADD50RoundRect,0.142500X0.700036X0.229810X0.229810X0.700036X-0.700036X-0.229810X-0.229810X-0.700036X0*%
%ADD51RoundRect,0.180000X-0.745000X-0.420000X0.745000X-0.420000X0.745000X0.420000X-0.745000X0.420000X0*%
%ADD52RoundRect,0.090000X-0.210000X-0.260000X0.210000X-0.260000X0.210000X0.260000X-0.210000X0.260000X0*%
%ADD53RoundRect,0.180000X-0.420000X-1.245000X0.420000X-1.245000X0.420000X1.245000X-0.420000X1.245000X0*%
%ADD54RoundRect,0.157500X0.367500X0.392500X-0.367500X0.392500X-0.367500X-0.392500X0.367500X-0.392500X0*%
%ADD55RoundRect,0.060000X0.140000X0.590000X-0.140000X0.590000X-0.140000X-0.590000X0.140000X-0.590000X0*%
%ADD56RoundRect,0.105000X0.381838X0.035355X0.035355X0.381838X-0.381838X-0.035355X-0.035355X-0.381838X0*%
%ADD57C,1.200000*%
%ADD58C,2.800000*%
%ADD59RoundRect,0.105000X0.035355X-0.381838X0.381838X-0.035355X-0.035355X0.381838X-0.381838X0.035355X0*%
%ADD60RoundRect,0.099000X0.296000X-0.231000X0.296000X0.231000X-0.296000X0.231000X-0.296000X-0.231000X0*%
%ADD61RoundRect,0.180000X1.245000X-0.420000X1.245000X0.420000X-1.245000X0.420000X-1.245000X-0.420000X0*%
%ADD62RoundRect,0.150000X-0.375000X0.350000X-0.375000X-0.350000X0.375000X-0.350000X0.375000X0.350000X0*%
%ADD63RoundRect,0.267000X-1.358000X0.623000X-1.358000X-0.623000X1.358000X-0.623000X1.358000X0.623000X0*%
%ADD64RoundRect,0.135000X0.315000X0.615000X-0.315000X0.615000X-0.315000X-0.615000X0.315000X-0.615000X0*%
%ADD65RoundRect,0.202500X-0.472500X-2.197500X0.472500X-2.197500X0.472500X2.197500X-0.472500X2.197500X0*%
%ADD66RoundRect,0.052500X0.322500X-0.122500X0.322500X0.122500X-0.322500X0.122500X-0.322500X-0.122500X0*%
%ADD67O,1.450000X0.850000*%
%ADD68RoundRect,0.180000X-0.420000X-0.820000X0.420000X-0.820000X0.420000X0.820000X-0.420000X0.820000X0*%
%ADD69RoundRect,0.105000X-0.381838X-0.035355X-0.035355X-0.381838X0.381838X0.035355X0.035355X0.381838X0*%
%ADD70O,12.500000X7.000000*%
%ADD71RoundRect,0.045000X-0.105000X-0.575000X0.105000X-0.575000X0.105000X0.575000X-0.105000X0.575000X0*%
%ADD72RoundRect,0.202500X-2.197500X0.472500X-2.197500X-0.472500X2.197500X-0.472500X2.197500X0.472500X0*%
%ADD73RoundRect,0.202500X0.472500X2.197500X-0.472500X2.197500X-0.472500X-2.197500X0.472500X-2.197500X0*%
%ADD74O,2.200000X4.700000*%
%ADD75O,2.200000X4.300000*%
%ADD76O,4.300000X2.200000*%
%ADD77RoundRect,0.282000X0.848000X0.658000X-0.848000X0.658000X-0.848000X-0.658000X0.848000X-0.658000X0*%
%ADD78RoundRect,0.097500X-0.227500X-0.352500X0.227500X-0.352500X0.227500X0.352500X-0.227500X0.352500X0*%
%ADD79RoundRect,0.090000X0.260000X-0.210000X0.260000X0.210000X-0.260000X0.210000X-0.260000X-0.210000X0*%
%ADD80C,1.900000*%
%ADD81RoundRect,0.345000X-0.805000X1.105000X-0.805000X-1.105000X0.805000X-1.105000X0.805000X1.105000X0*%
%ADD82RoundRect,0.435000X-1.015000X1.015000X-1.015000X-1.015000X1.015000X-1.015000X1.015000X1.015000X0*%
%ADD83RoundRect,0.405000X-0.945000X1.045000X-0.945000X-1.045000X0.945000X-1.045000X0.945000X1.045000X0*%
%ADD84RoundRect,0.270000X0.630000X-0.930000X0.630000X0.930000X-0.630000X0.930000X-0.630000X-0.930000X0*%
%ADD85RoundRect,0.202500X-0.772500X0.472500X-0.772500X-0.472500X0.772500X-0.472500X0.772500X0.472500X0*%
%ADD86RoundRect,0.105000X-0.720000X0.245000X-0.720000X-0.245000X0.720000X-0.245000X0.720000X0.245000X0*%
%ADD87C,3.700000*%
%ADD88C,1.590000*%
%ADD89C,1.720000*%
%ADD90C,2.270000*%
%ADD91RoundRect,0.330000X-2.420000X0.770000X-2.420000X-0.770000X2.420000X-0.770000X2.420000X0.770000X0*%
%ADD92C,5.600000*%
%ADD93RoundRect,0.099000X0.231000X0.296000X-0.231000X0.296000X-0.231000X-0.296000X0.231000X-0.296000X0*%
%ADD94RoundRect,0.060000X0.140000X0.315000X-0.140000X0.315000X-0.140000X-0.315000X0.140000X-0.315000X0*%
%ADD95FreePoly0,180.000000*%
%ADD96RoundRect,0.165000X0.385000X0.585000X-0.385000X0.585000X-0.385000X-0.585000X0.385000X-0.585000X0*%
%ADD97RoundRect,0.142500X-0.700036X-0.229810X-0.229810X-0.700036X0.700036X0.229810X0.229810X0.700036X0*%
%ADD98C,0.333000*%
%ADD99RoundRect,0.100000X-0.900000X-1.150000X0.900000X-1.150000X0.900000X1.150000X-0.900000X1.150000X0*%
%ADD100O,2.000000X2.500000*%
%ADD101RoundRect,0.081000X0.189000X-0.464000X0.189000X0.464000X-0.189000X0.464000X-0.189000X-0.464000X0*%
%ADD102RoundRect,0.060000X0.140000X1.290000X-0.140000X1.290000X-0.140000X-1.290000X0.140000X-1.290000X0*%
%ADD103O,1.700000X3.500000*%
%ADD104O,1.700000X2.500000*%
%ADD105RoundRect,0.180000X0.420000X-0.745000X0.420000X0.745000X-0.420000X0.745000X-0.420000X-0.745000X0*%
%ADD106RoundRect,0.066000X-0.229000X-0.154000X0.229000X-0.154000X0.229000X0.154000X-0.229000X0.154000X0*%
%ADD107RoundRect,0.070000X-0.500000X-0.800000X0.500000X-0.800000X0.500000X0.800000X-0.500000X0.800000X0*%
%ADD108RoundRect,0.282000X-0.848000X-0.658000X0.848000X-0.658000X0.848000X0.658000X-0.848000X0.658000X0*%
%ADD109RoundRect,0.111000X0.259000X-0.734000X0.259000X0.734000X-0.259000X0.734000X-0.259000X-0.734000X0*%
%ADD110RoundRect,0.070000X1.700000X-1.355000X1.700000X1.355000X-1.700000X1.355000X-1.700000X-1.355000X0*%
%ADD111RoundRect,0.150000X-0.350000X-0.375000X0.350000X-0.375000X0.350000X0.375000X-0.350000X0.375000X0*%
%ADD112RoundRect,0.099000X-0.231000X-0.296000X0.231000X-0.296000X0.231000X0.296000X-0.231000X0.296000X0*%
%ADD113RoundRect,0.267000X0.519723X-1.400779X1.400779X-0.519723X-0.519723X1.400779X-1.400779X0.519723X0*%
%ADD114C,0.900000*%
%ADD115C,1.300000*%
%ADD116C,1.800000*%
%ADD117RoundRect,0.210000X-1.265000X0.490000X-1.265000X-0.490000X1.265000X-0.490000X1.265000X0.490000X0*%
%ADD118RoundRect,0.060000X-0.765000X0.140000X-0.765000X-0.140000X0.765000X-0.140000X0.765000X0.140000X0*%
%ADD119RoundRect,0.112500X-0.312500X-0.262500X0.312500X-0.262500X0.312500X0.262500X-0.312500X0.262500X0*%
%ADD120RoundRect,0.082500X-0.717500X-0.192500X0.717500X-0.192500X0.717500X0.192500X-0.717500X0.192500X0*%
%ADD121RoundRect,0.048750X-0.113750X0.332750X-0.113750X-0.332750X0.113750X-0.332750X0.113750X0.332750X0*%
%ADD122RoundRect,0.048750X-0.113750X0.282750X-0.113750X-0.282750X0.113750X-0.282750X0.113750X0.282750X0*%
%ADD123RoundRect,0.048750X0.282750X0.113750X-0.282750X0.113750X-0.282750X-0.113750X0.282750X-0.113750X0*%
%ADD124RoundRect,0.048750X-0.282750X-0.113750X0.282750X-0.113750X0.282750X0.113750X-0.282750X0.113750X0*%
%ADD125RoundRect,0.174000X1.176000X-0.406000X1.176000X0.406000X-1.176000X0.406000X-1.176000X-0.406000X0*%
%ADD126RoundRect,0.859800X2.040200X-2.006200X2.040200X2.006200X-2.040200X2.006200X-2.040200X-2.006200X0*%
%ADD127RoundRect,0.100000X0.900000X1.150000X-0.900000X1.150000X-0.900000X-1.150000X0.900000X-1.150000X0*%
%ADD128RoundRect,0.082500X0.192500X0.692500X-0.192500X0.692500X-0.192500X-0.692500X0.192500X-0.692500X0*%
%ADD129RoundRect,0.135000X0.480833X0.035355X0.035355X0.480833X-0.480833X-0.035355X-0.035355X-0.480833X0*%
%ADD130RoundRect,0.120000X0.280000X0.530000X-0.280000X0.530000X-0.280000X-0.530000X0.280000X-0.530000X0*%
%ADD131RoundRect,0.165000X0.385000X1.285000X-0.385000X1.285000X-0.385000X-1.285000X0.385000X-1.285000X0*%
%ADD132RoundRect,0.045000X0.360624X0.212132X0.212132X0.360624X-0.360624X-0.212132X-0.212132X-0.360624X0*%
%ADD133RoundRect,0.045000X-0.212132X0.360624X-0.360624X0.212132X0.212132X-0.360624X0.360624X-0.212132X0*%
%ADD134RoundRect,0.045000X-0.360624X-0.212132X-0.212132X-0.360624X0.360624X0.212132X0.212132X0.360624X0*%
%ADD135RoundRect,0.045000X0.212132X-0.360624X0.360624X-0.212132X-0.212132X0.360624X-0.360624X0.212132X0*%
%ADD136RoundRect,0.050000X0.000000X-4.030509X4.030509X0.000000X0.000000X4.030509X-4.030509X0.000000X0*%
%ADD137RoundRect,0.052500X0.247500X-0.122500X0.247500X0.122500X-0.247500X0.122500X-0.247500X-0.122500X0*%
%ADD138RoundRect,0.052500X0.197500X-0.122500X0.197500X0.122500X-0.197500X0.122500X-0.197500X-0.122500X0*%
%ADD139RoundRect,0.090000X0.285000X-0.210000X0.285000X0.210000X-0.285000X0.210000X-0.285000X-0.210000X0*%
%ADD140RoundRect,0.100000X-1.150000X0.900000X-1.150000X-0.900000X1.150000X-0.900000X1.150000X0.900000X0*%
%ADD141O,2.500000X2.000000*%
%ADD142RoundRect,0.112500X0.035355X0.406586X-0.406586X-0.035355X-0.035355X-0.406586X0.406586X0.035355X0*%
%ADD143RoundRect,0.067500X0.157500X-0.682500X0.157500X0.682500X-0.157500X0.682500X-0.157500X-0.682500X0*%
%ADD144RoundRect,0.050000X2.065000X-1.525000X2.065000X1.525000X-2.065000X1.525000X-2.065000X-1.525000X0*%
%ADD145RoundRect,0.055500X-0.129500X-0.419500X0.129500X-0.419500X0.129500X0.419500X-0.129500X0.419500X0*%
%ADD146RoundRect,0.055500X0.419500X-0.129500X0.419500X0.129500X-0.419500X0.129500X-0.419500X-0.129500X0*%
%ADD147RoundRect,0.055500X0.129500X0.419500X-0.129500X0.419500X-0.129500X-0.419500X0.129500X-0.419500X0*%
%ADD148RoundRect,0.055500X-0.419500X0.129500X-0.419500X-0.129500X0.419500X-0.129500X0.419500X0.129500X0*%
%ADD149RoundRect,0.050000X-1.800000X1.800000X-1.800000X-1.800000X1.800000X-1.800000X1.800000X1.800000X0*%
%ADD150RoundRect,0.060000X-0.415000X-0.140000X0.415000X-0.140000X0.415000X0.140000X-0.415000X0.140000X0*%
%ADD151RoundRect,0.060000X0.140000X-0.415000X0.140000X0.415000X-0.140000X0.415000X-0.140000X-0.415000X0*%
%ADD152RoundRect,0.060000X0.415000X0.140000X-0.415000X0.140000X-0.415000X-0.140000X0.415000X-0.140000X0*%
%ADD153RoundRect,0.050000X2.750000X-2.750000X2.750000X2.750000X-2.750000X2.750000X-2.750000X-2.750000X0*%
G04 APERTURE END LIST*
D10*
%TO.C,J8*%
X144373334Y-108085000D02*
X141673334Y-108085000D01*
X141673334Y-106185000D01*
X142473334Y-106185000D01*
X142473334Y-105385000D01*
X144373334Y-105385000D01*
X144373334Y-108085000D01*
G36*
X144373334Y-108085000D02*
G01*
X141673334Y-108085000D01*
X141673334Y-106185000D01*
X142473334Y-106185000D01*
X142473334Y-105385000D01*
X144373334Y-105385000D01*
X144373334Y-108085000D01*
G37*
X167466666Y-106185000D02*
X168266666Y-106185000D01*
X168266666Y-108085000D01*
X165566666Y-108085000D01*
X165566666Y-105385000D01*
X167466666Y-105385000D01*
X167466666Y-106185000D01*
G36*
X167466666Y-106185000D02*
G01*
X168266666Y-106185000D01*
X168266666Y-108085000D01*
X165566666Y-108085000D01*
X165566666Y-105385000D01*
X167466666Y-105385000D01*
X167466666Y-106185000D01*
G37*
%TO.C,J17*%
X145295000Y-41885000D02*
X143245000Y-41885000D01*
X143245000Y-40535000D01*
X145295000Y-40535000D01*
X145295000Y-41885000D01*
G36*
X145295000Y-41885000D02*
G01*
X143245000Y-41885000D01*
X143245000Y-40535000D01*
X145295000Y-40535000D01*
X145295000Y-41885000D01*
G37*
X160395000Y-41885000D02*
X158345000Y-41885000D01*
X158345000Y-40535000D01*
X160395000Y-40535000D01*
X160395000Y-41885000D01*
G36*
X160395000Y-41885000D02*
G01*
X158345000Y-41885000D01*
X158345000Y-40535000D01*
X160395000Y-40535000D01*
X160395000Y-41885000D01*
G37*
%TO.C,J9*%
X110045000Y-92347500D02*
X112095000Y-92347500D01*
X112095000Y-93697500D01*
X110045000Y-93697500D01*
X110045000Y-92347500D01*
G36*
X110045000Y-92347500D02*
G01*
X112095000Y-92347500D01*
X112095000Y-93697500D01*
X110045000Y-93697500D01*
X110045000Y-92347500D01*
G37*
X119145000Y-92347500D02*
X121195000Y-92347500D01*
X121195000Y-93697500D01*
X119145000Y-93697500D01*
X119145000Y-92347500D01*
G36*
X119145000Y-92347500D02*
G01*
X121195000Y-92347500D01*
X121195000Y-93697500D01*
X119145000Y-93697500D01*
X119145000Y-92347500D01*
G37*
%TO.C,J1*%
X163220000Y-41010000D02*
X161720000Y-41010000D01*
X161720000Y-38910000D01*
X163220000Y-38910000D01*
X163220000Y-41010000D01*
G36*
X163220000Y-41010000D02*
G01*
X161720000Y-41010000D01*
X161720000Y-38910000D01*
X163220000Y-38910000D01*
X163220000Y-41010000D01*
G37*
X165420000Y-55760000D02*
X164220000Y-55760000D01*
X164220000Y-54360000D01*
X165420000Y-54360000D01*
X165420000Y-55760000D01*
G36*
X165420000Y-55760000D02*
G01*
X164220000Y-55760000D01*
X164220000Y-54360000D01*
X165420000Y-54360000D01*
X165420000Y-55760000D01*
G37*
X176470000Y-51460000D02*
X175270000Y-51460000D01*
X175270000Y-50060000D01*
X176470000Y-50060000D01*
X176470000Y-51460000D01*
G36*
X176470000Y-51460000D02*
G01*
X175270000Y-51460000D01*
X175270000Y-50060000D01*
X176470000Y-50060000D01*
X176470000Y-51460000D01*
G37*
%TD*%
D11*
%TO.C,R128*%
X161274999Y-88315000D03*
X160275001Y-88315000D03*
%TD*%
D12*
%TO.C,HOLE4*%
X237120000Y-51110000D03*
%TD*%
%TO.C,HOLE3*%
X237120000Y-126730000D03*
%TD*%
%TO.C,HOLE2*%
X63220000Y-51110000D03*
%TD*%
%TO.C,HOLE1*%
X63220000Y-126730000D03*
%TD*%
D13*
%TO.C,FID6*%
X175195000Y-58485000D03*
%TD*%
%TO.C,FID5*%
X131620000Y-99010000D03*
%TD*%
%TO.C,FID4*%
X223545000Y-41985000D03*
%TD*%
%TO.C,FID3*%
X70820000Y-57610000D03*
%TD*%
%TO.C,FID2*%
X224920000Y-136735000D03*
%TD*%
%TO.C,FID1*%
X81725000Y-106110000D03*
%TD*%
D14*
%TO.C,U6*%
X111312500Y-75505000D03*
X111312500Y-76775000D03*
X111312500Y-78045000D03*
X111312500Y-79315000D03*
X117027500Y-79315000D03*
X117027500Y-78045000D03*
X117027500Y-76775000D03*
X117027500Y-75505000D03*
%TD*%
D15*
%TO.C,C68*%
X213095000Y-84815000D03*
X214845000Y-84815000D03*
%TD*%
D16*
%TO.C,C97*%
X103965000Y-65514999D03*
X103965000Y-64515001D03*
%TD*%
D17*
%TO.C,R196*%
X155200000Y-81805001D03*
X155200000Y-82804999D03*
%TD*%
%TO.C,R178*%
X184925000Y-59405001D03*
X184925000Y-60404999D03*
%TD*%
D18*
%TO.C,Q24*%
X92920000Y-116710000D03*
X94820000Y-116710000D03*
X93870000Y-114710000D03*
%TD*%
D19*
%TO.C,MTG2*%
X181350000Y-42270000D03*
%TD*%
D20*
%TO.C,U4*%
X161520000Y-58809999D03*
X160570000Y-58810000D03*
X159620000Y-58809999D03*
X159620000Y-61210001D03*
X160570000Y-61210000D03*
X161520000Y-61210001D03*
%TD*%
D16*
%TO.C,C136*%
X156395000Y-85014999D03*
X156395000Y-84015001D03*
%TD*%
D21*
%TO.C,C31*%
X98385183Y-68187746D03*
X97147746Y-69425183D03*
%TD*%
D22*
%TO.C,Q14*%
X143295000Y-77160000D03*
X143295000Y-79060000D03*
X145295000Y-78110000D03*
%TD*%
D23*
%TO.C,C73*%
X101670000Y-111715000D03*
X103070000Y-111715000D03*
%TD*%
D24*
%TO.C,R285*%
X226065000Y-99010000D03*
X227065000Y-99010000D03*
%TD*%
D16*
%TO.C,C96*%
X124565000Y-63389999D03*
X124565000Y-62390001D03*
%TD*%
D11*
%TO.C,R255*%
X106619998Y-132160000D03*
X105620000Y-132160000D03*
%TD*%
D24*
%TO.C,R286*%
X174465001Y-137705000D03*
X175464999Y-137705000D03*
%TD*%
D15*
%TO.C,C59*%
X97250001Y-126465000D03*
X99000001Y-126465000D03*
%TD*%
D11*
%TO.C,R161*%
X191124999Y-40960000D03*
X190125001Y-40960000D03*
%TD*%
D25*
%TO.C,D22*%
X156570000Y-100480000D03*
D26*
X156170000Y-100435000D03*
X155770000Y-100435000D03*
X155369999Y-100435000D03*
X154970001Y-100435000D03*
X154570000Y-100435000D03*
X154170000Y-100435000D03*
X153770000Y-100434999D03*
D27*
X155770000Y-101110000D03*
X154570000Y-101110000D03*
%TD*%
D28*
%TO.C,C163*%
X143865000Y-99835000D03*
X143865000Y-101585000D03*
%TD*%
D29*
%TO.C,D35*%
X221370000Y-86260000D03*
X221370000Y-84360000D03*
X219370000Y-85310000D03*
%TD*%
D19*
%TO.C,MTG1*%
X229350000Y-42270000D03*
%TD*%
D16*
%TO.C,R271*%
X126365000Y-88514999D03*
X126365000Y-87515001D03*
%TD*%
D30*
%TO.C,S2*%
X200470000Y-138210000D03*
X200470000Y-131210000D03*
%TD*%
D16*
%TO.C,C232*%
X185565000Y-136514999D03*
X185565000Y-135515001D03*
%TD*%
D22*
%TO.C,D44*%
X88370000Y-91660000D03*
X88370000Y-93560000D03*
X90370000Y-92610000D03*
%TD*%
D17*
%TO.C,R175*%
X206525000Y-62400000D03*
X206525000Y-63399998D03*
%TD*%
D31*
%TO.C,U27*%
X159070001Y-92035000D03*
X159070000Y-91085000D03*
X159070001Y-90135000D03*
X156669999Y-90135000D03*
X156670000Y-91085000D03*
X156669999Y-92035000D03*
%TD*%
D32*
%TO.C,C17*%
X102950000Y-57005000D03*
X100220000Y-57010000D03*
%TD*%
D11*
%TO.C,R91*%
X175574999Y-80415000D03*
X174575001Y-80415000D03*
%TD*%
D28*
%TO.C,C179*%
X122365000Y-118535000D03*
X122365000Y-120285000D03*
%TD*%
D11*
%TO.C,R139*%
X221674999Y-67665000D03*
X220675001Y-67665000D03*
%TD*%
D33*
%TO.C,C230*%
X182775000Y-137385000D03*
X182775000Y-135635000D03*
%TD*%
D16*
%TO.C,C197*%
X209665000Y-132914999D03*
X209665000Y-131915001D03*
%TD*%
D17*
%TO.C,C228*%
X223175000Y-96305001D03*
X223175000Y-97304999D03*
%TD*%
D21*
%TO.C,C43*%
X202607437Y-88272563D03*
X201370000Y-89510000D03*
%TD*%
D17*
%TO.C,R46*%
X78770000Y-69080001D03*
X78770000Y-70079999D03*
%TD*%
%TO.C,C137*%
X152980000Y-72805001D03*
X152980000Y-73804999D03*
%TD*%
D11*
%TO.C,R67*%
X180774999Y-101315000D03*
X179775001Y-101315000D03*
%TD*%
D16*
%TO.C,R186*%
X145290000Y-75814999D03*
X145290000Y-74815001D03*
%TD*%
%TO.C,R183*%
X96865000Y-64014999D03*
X96865000Y-63015001D03*
%TD*%
D34*
%TO.C,J8*%
X145220000Y-103935000D03*
X145720000Y-103935000D03*
X146220000Y-103935000D03*
X146720000Y-103935000D03*
X147220000Y-103935000D03*
X147720000Y-103935000D03*
X148220000Y-103935000D03*
X148720000Y-103935000D03*
X149220000Y-103935000D03*
X149720000Y-103935000D03*
X150220000Y-103935000D03*
X150720000Y-103935000D03*
X151220000Y-103935000D03*
X151720000Y-103935000D03*
X152220000Y-103935000D03*
X152720000Y-103935000D03*
X153220000Y-103935000D03*
X153720000Y-103935000D03*
X154220000Y-103935000D03*
X154720000Y-103935000D03*
X155220000Y-103935000D03*
X155720000Y-103935000D03*
X156220000Y-103935000D03*
X156720000Y-103935000D03*
X157220000Y-103935000D03*
X157720000Y-103935000D03*
X158220000Y-103935000D03*
X158720000Y-103935000D03*
X159220000Y-103935000D03*
X159720000Y-103935000D03*
X160220000Y-103935000D03*
X160720000Y-103935000D03*
X161220000Y-103935000D03*
X161720000Y-103935000D03*
X162220000Y-103935000D03*
X162720000Y-103935000D03*
X163220000Y-103935000D03*
X163720000Y-103935000D03*
X164220000Y-103935000D03*
X164720000Y-103935000D03*
%TD*%
D17*
%TO.C,R261*%
X129375000Y-119205001D03*
X129375000Y-120204999D03*
%TD*%
D29*
%TO.C,D42*%
X208070000Y-93030000D03*
X208070000Y-91130000D03*
X206070000Y-92080000D03*
%TD*%
D17*
%TO.C,C133*%
X164575000Y-100455001D03*
X164575000Y-101454999D03*
%TD*%
D11*
%TO.C,C105*%
X220274999Y-103215000D03*
X219275001Y-103215000D03*
%TD*%
D23*
%TO.C,C58*%
X96420000Y-119715000D03*
X97820000Y-119715000D03*
%TD*%
D35*
%TO.C,D19*%
X153270000Y-47540000D03*
D36*
X153670000Y-47585000D03*
X154070000Y-47585000D03*
X154470000Y-47585000D03*
X154870000Y-47585000D03*
X155270000Y-47585000D03*
X155670000Y-47585000D03*
X156070000Y-47585000D03*
D37*
X154070000Y-46910000D03*
X155270000Y-46910000D03*
%TD*%
D11*
%TO.C,R49*%
X77469999Y-74190000D03*
X76470001Y-74190000D03*
%TD*%
D35*
%TO.C,D14*%
X109700000Y-70900000D03*
D36*
X110100000Y-70945000D03*
X110500000Y-70945000D03*
X110900001Y-70945000D03*
X111299999Y-70945000D03*
X111700000Y-70945000D03*
X112100000Y-70945000D03*
X112500000Y-70945001D03*
D37*
X110500000Y-70270000D03*
X111700000Y-70270000D03*
%TD*%
D38*
%TO.C,C127*%
X153870000Y-85905000D03*
X152120000Y-85905000D03*
%TD*%
D39*
%TO.C,U23*%
X156969999Y-50660000D03*
X156970000Y-51610000D03*
X156969999Y-52560000D03*
X159370001Y-52560000D03*
X159370000Y-51610000D03*
X159370001Y-50660000D03*
%TD*%
D24*
%TO.C,C74*%
X213865000Y-79805000D03*
X214865000Y-79805000D03*
%TD*%
D17*
%TO.C,R290*%
X119569999Y-87700001D03*
X119569999Y-88699999D03*
%TD*%
D11*
%TO.C,C125*%
X120569998Y-86610000D03*
X119570000Y-86610000D03*
%TD*%
D24*
%TO.C,C87*%
X168565000Y-85805000D03*
X169565000Y-85805000D03*
%TD*%
D11*
%TO.C,C82*%
X179474999Y-88215000D03*
X178475001Y-88215000D03*
%TD*%
D16*
%TO.C,C95*%
X124565000Y-65914999D03*
X124565000Y-64915001D03*
%TD*%
D11*
%TO.C,C72*%
X109174999Y-89665000D03*
X108175001Y-89665000D03*
%TD*%
D24*
%TO.C,R314*%
X135465000Y-81605000D03*
X136465000Y-81605000D03*
%TD*%
D11*
%TO.C,R216*%
X226174999Y-128315000D03*
X225175001Y-128315000D03*
%TD*%
D16*
%TO.C,R163*%
X200515000Y-61409997D03*
X200515000Y-60409999D03*
%TD*%
D11*
%TO.C,C92*%
X140274999Y-52715000D03*
X139275001Y-52715000D03*
%TD*%
D16*
%TO.C,C152*%
X148470000Y-72114999D03*
X148470000Y-71115001D03*
%TD*%
D40*
%TO.C,R209*%
X147165000Y-96110000D03*
X147165000Y-97510000D03*
%TD*%
D11*
%TO.C,R105*%
X140274999Y-53915000D03*
X139275001Y-53915000D03*
%TD*%
D41*
%TO.C,U38*%
X182445000Y-132695000D03*
X182445000Y-134045000D03*
X183495000Y-134045000D03*
X183495000Y-132695000D03*
%TD*%
D42*
%TO.C,D49*%
X222770000Y-92210000D03*
X220870000Y-92210000D03*
X221820000Y-94210000D03*
%TD*%
D17*
%TO.C,R195*%
X152075000Y-98705001D03*
X152075000Y-99704999D03*
%TD*%
D33*
%TO.C,C182*%
X122370000Y-125160000D03*
X122370000Y-123410000D03*
%TD*%
D11*
%TO.C,R57*%
X119874999Y-79615000D03*
X118875001Y-79615000D03*
%TD*%
D38*
%TO.C,C76*%
X217845000Y-69605000D03*
X216095000Y-69605000D03*
%TD*%
D24*
%TO.C,R92*%
X174565000Y-81605000D03*
X175565000Y-81605000D03*
%TD*%
D43*
%TO.C,MTG9*%
X132545000Y-127260000D03*
%TD*%
D23*
%TO.C,D40*%
X230470000Y-99015000D03*
X231870000Y-99015000D03*
%TD*%
D16*
%TO.C,R109*%
X121115000Y-71114999D03*
X121115000Y-70115001D03*
%TD*%
%TO.C,R205*%
X155090000Y-76214999D03*
X155090000Y-75215001D03*
%TD*%
D44*
%TO.C,D43*%
X69975000Y-137110000D03*
X69975000Y-135710000D03*
%TD*%
D45*
%TO.C,R305*%
X134765000Y-91230000D03*
X134770000Y-93960000D03*
%TD*%
D17*
%TO.C,R84*%
X193770000Y-105305001D03*
X193770000Y-106304999D03*
%TD*%
D24*
%TO.C,R168*%
X192165001Y-42205000D03*
X193164999Y-42205000D03*
%TD*%
D16*
%TO.C,C98*%
X106765000Y-70864999D03*
X106765000Y-69865001D03*
%TD*%
D17*
%TO.C,C51*%
X181975000Y-97705001D03*
X181975000Y-98704999D03*
%TD*%
%TO.C,R36*%
X78670000Y-61005001D03*
X78670000Y-62004999D03*
%TD*%
D16*
%TO.C,C189*%
X126365000Y-113314999D03*
X126365000Y-112315001D03*
%TD*%
D46*
%TO.C,R110*%
X94130624Y-83656447D03*
X93423518Y-84363553D03*
%TD*%
%TO.C,C29*%
X98930624Y-69856447D03*
X98223518Y-70563553D03*
%TD*%
D11*
%TO.C,C115*%
X217074999Y-81015000D03*
X216075001Y-81015000D03*
%TD*%
%TO.C,R310*%
X126074999Y-82415000D03*
X125075001Y-82415000D03*
%TD*%
%TO.C,R155*%
X223870000Y-77435000D03*
X222870002Y-77435000D03*
%TD*%
%TO.C,C203*%
X73274999Y-103415000D03*
X72275001Y-103415000D03*
%TD*%
D47*
%TO.C,U9*%
X108770000Y-132160000D03*
X108770000Y-133430000D03*
X108770000Y-134700000D03*
X108770000Y-135970000D03*
X114170000Y-135970000D03*
X114170000Y-134700000D03*
X114170000Y-133430000D03*
X114170000Y-132160000D03*
D48*
X111470000Y-134060000D03*
%TD*%
D24*
%TO.C,C24*%
X104360000Y-76005000D03*
X105359998Y-76005000D03*
%TD*%
D46*
%TO.C,C28*%
X103530624Y-74456447D03*
X102823518Y-75163553D03*
%TD*%
D17*
%TO.C,R200*%
X150875000Y-70705002D03*
X150875000Y-71705000D03*
%TD*%
D49*
%TO.C,MTG\u002A\u002A*%
X155000000Y-114317500D03*
%TD*%
D24*
%TO.C,C100*%
X220665001Y-66355000D03*
X221664999Y-66355000D03*
%TD*%
D50*
%TO.C,C38*%
X100592254Y-82825183D03*
X99354817Y-81587746D03*
%TD*%
D39*
%TO.C,U18*%
X139369999Y-57160000D03*
X139370000Y-58110000D03*
X139369999Y-59060000D03*
X141770001Y-59060000D03*
X141770000Y-58110000D03*
X141770001Y-57160000D03*
%TD*%
D17*
%TO.C,R125*%
X208375000Y-80305001D03*
X208375000Y-81304999D03*
%TD*%
D51*
%TO.C,R265*%
X122745000Y-109310000D03*
X122745000Y-110710000D03*
X124795000Y-110710000D03*
X124795000Y-109310000D03*
%TD*%
D16*
%TO.C,C135*%
X155195001Y-87114999D03*
X155195001Y-86115001D03*
%TD*%
D17*
%TO.C,R94*%
X171975000Y-81905001D03*
X171975000Y-82904999D03*
%TD*%
D16*
%TO.C,C160*%
X166015000Y-102514999D03*
X166015000Y-101515001D03*
%TD*%
D11*
%TO.C,R194*%
X141799999Y-83515000D03*
X140800001Y-83515000D03*
%TD*%
D17*
%TO.C,R81*%
X192470000Y-105305001D03*
X192470000Y-106304999D03*
%TD*%
D52*
%TO.C,Q22*%
X216070000Y-66835000D03*
X217070000Y-66835000D03*
X216570000Y-65185000D03*
%TD*%
D24*
%TO.C,R214*%
X202028959Y-103905000D03*
X203028957Y-103905000D03*
%TD*%
D11*
%TO.C,R9*%
X147724999Y-51940000D03*
X146725001Y-51940000D03*
%TD*%
%TO.C,C252*%
X88674999Y-119315000D03*
X87675001Y-119315000D03*
%TD*%
D24*
%TO.C,C143*%
X147070002Y-67005000D03*
X148070000Y-67005000D03*
%TD*%
D53*
%TO.C,C248*%
X84020000Y-130215000D03*
X87220000Y-130210000D03*
%TD*%
D17*
%TO.C,C147*%
X156400000Y-81805001D03*
X156400000Y-82804999D03*
%TD*%
D54*
%TO.C,D41*%
X231870000Y-100605000D03*
X230470000Y-100605000D03*
%TD*%
D55*
%TO.C,J17*%
X157070000Y-43910000D03*
X156570000Y-43910000D03*
X156070000Y-43910000D03*
X155570000Y-43910000D03*
X155070000Y-43910000D03*
X154570000Y-43910000D03*
X154070000Y-43910000D03*
X153570000Y-43910000D03*
X153070000Y-43910000D03*
X152570000Y-43910000D03*
X152070000Y-43910000D03*
X151570000Y-43910000D03*
X151070000Y-43910000D03*
X150570000Y-43910000D03*
X150070000Y-43910000D03*
X149570000Y-43910000D03*
X149070000Y-43910000D03*
X148570000Y-43910000D03*
X148070000Y-43910000D03*
X147570000Y-43910000D03*
X147070000Y-43910000D03*
X146570000Y-43910000D03*
%TD*%
D16*
%TO.C,C193*%
X125915000Y-101914999D03*
X125915000Y-100915001D03*
%TD*%
%TO.C,R277*%
X101765000Y-98314999D03*
X101765000Y-97315001D03*
%TD*%
D28*
%TO.C,C213*%
X106565000Y-89735000D03*
X106565000Y-91485000D03*
%TD*%
D15*
%TO.C,C216*%
X98800000Y-87215000D03*
X100550000Y-87215000D03*
%TD*%
D11*
%TO.C,R79*%
X185374999Y-96065000D03*
X184375001Y-96065000D03*
%TD*%
%TO.C,R269*%
X123674999Y-97015000D03*
X122675001Y-97015000D03*
%TD*%
D17*
%TO.C,R172*%
X200525000Y-62400000D03*
X200525000Y-63399998D03*
%TD*%
D28*
%TO.C,C205*%
X75565000Y-102135000D03*
X75565000Y-103885000D03*
%TD*%
D56*
%TO.C,C27*%
X101923553Y-80370624D03*
X101216447Y-79663518D03*
%TD*%
D11*
%TO.C,C7*%
X160674999Y-62415000D03*
X159675001Y-62415000D03*
%TD*%
D25*
%TO.C,D23*%
X117470000Y-87875001D03*
D26*
X117070000Y-87830001D03*
X116670000Y-87830001D03*
X116269999Y-87830001D03*
X115870001Y-87830001D03*
X115470000Y-87830001D03*
X115070000Y-87830001D03*
X114670000Y-87830000D03*
D27*
X116670000Y-88505001D03*
X115470000Y-88505001D03*
%TD*%
D57*
%TO.C,J2*%
X98625000Y-52510000D03*
X96125000Y-52510000D03*
X94125000Y-52510000D03*
X91625000Y-52510000D03*
X91125000Y-54010000D03*
X93125000Y-54010000D03*
X95125000Y-54010000D03*
X97125000Y-54010000D03*
X99125000Y-54010000D03*
D58*
X101695000Y-50510000D03*
X88555000Y-50510000D03*
%TD*%
D17*
%TO.C,R26*%
X91375000Y-119705001D03*
X91375000Y-120704999D03*
%TD*%
D24*
%TO.C,C52*%
X189615001Y-103105000D03*
X190614999Y-103105000D03*
%TD*%
D16*
%TO.C,C45*%
X181965000Y-102214999D03*
X181965000Y-101215001D03*
%TD*%
D24*
%TO.C,R312*%
X135465001Y-84405000D03*
X136464999Y-84405000D03*
%TD*%
D16*
%TO.C,R162*%
X199315000Y-61409998D03*
X199315000Y-60410000D03*
%TD*%
%TO.C,R114*%
X197165000Y-88814999D03*
X197165000Y-87815001D03*
%TD*%
%TO.C,R223*%
X189365000Y-88814999D03*
X189365000Y-87815001D03*
%TD*%
D17*
%TO.C,R241*%
X196370000Y-107410000D03*
X196370000Y-108409998D03*
%TD*%
D44*
%TO.C,C63*%
X167375000Y-102510000D03*
X167375000Y-101110000D03*
%TD*%
D25*
%TO.C,D21*%
X160170000Y-100480000D03*
D26*
X159770000Y-100435000D03*
X159370000Y-100435000D03*
X158969999Y-100435000D03*
X158570001Y-100435000D03*
X158170000Y-100435000D03*
X157770000Y-100435000D03*
X157370000Y-100434999D03*
D27*
X159370000Y-101110000D03*
X158170000Y-101110000D03*
%TD*%
D11*
%TO.C,C88*%
X175474999Y-78515000D03*
X174475001Y-78515000D03*
%TD*%
D16*
%TO.C,R180*%
X98065000Y-64014999D03*
X98065000Y-63015001D03*
%TD*%
D28*
%TO.C,C181*%
X123865000Y-130635000D03*
X123865000Y-132385000D03*
%TD*%
D11*
%TO.C,R27*%
X92374999Y-121965000D03*
X91375001Y-121965000D03*
%TD*%
D17*
%TO.C,R99*%
X166800000Y-82305001D03*
X166800000Y-83304999D03*
%TD*%
D59*
%TO.C,C32*%
X90809376Y-81763553D03*
X91516482Y-81056447D03*
%TD*%
D11*
%TO.C,C204*%
X73274999Y-100415000D03*
X72275001Y-100415000D03*
%TD*%
D17*
%TO.C,C234*%
X185075000Y-117605001D03*
X185075000Y-118604999D03*
%TD*%
D60*
%TO.C,D10*%
X211670000Y-111450000D03*
X211670000Y-109010000D03*
%TD*%
D28*
%TO.C,C141*%
X151070000Y-63435000D03*
X151070000Y-65185000D03*
%TD*%
D17*
%TO.C,R43*%
X98075000Y-61005001D03*
X98075000Y-62004999D03*
%TD*%
D61*
%TO.C,C242*%
X109375000Y-118510000D03*
X109370000Y-115310000D03*
%TD*%
D62*
%TO.C,D9*%
X92465001Y-134480000D03*
X92465001Y-138130000D03*
%TD*%
D59*
%TO.C,R60*%
X92609376Y-83563553D03*
X93316482Y-82856447D03*
%TD*%
D42*
%TO.C,Q12*%
X222120000Y-68910000D03*
X220220000Y-68910000D03*
X221170000Y-70910000D03*
%TD*%
D33*
%TO.C,C198*%
X222870000Y-133660000D03*
X222870000Y-131910000D03*
%TD*%
D17*
%TO.C,R198*%
X148475000Y-98705001D03*
X148475000Y-99704999D03*
%TD*%
D63*
%TO.C,F3*%
X80820000Y-125210000D03*
X80825000Y-129990000D03*
%TD*%
D24*
%TO.C,R16*%
X89265001Y-96005000D03*
X90264999Y-96005000D03*
%TD*%
%TO.C,C9*%
X159765000Y-57405000D03*
X160765000Y-57405000D03*
%TD*%
D11*
%TO.C,R215*%
X159374999Y-47015000D03*
X158375001Y-47015000D03*
%TD*%
D24*
%TO.C,R233*%
X92115001Y-131455000D03*
X93114999Y-131455000D03*
%TD*%
D11*
%TO.C,R83*%
X219374999Y-113515000D03*
X218375001Y-113515000D03*
%TD*%
D64*
%TO.C,U3*%
X99025000Y-128602500D03*
X97755000Y-128602500D03*
X96485000Y-128602500D03*
X95215000Y-128602500D03*
X95215000Y-134317500D03*
X96485000Y-134317500D03*
X97755000Y-134317500D03*
X99025000Y-134317500D03*
%TD*%
D63*
%TO.C,F4*%
X69815000Y-125210000D03*
X69820000Y-129990000D03*
%TD*%
D11*
%TO.C,R254*%
X102874999Y-109065000D03*
X101875001Y-109065000D03*
%TD*%
D38*
%TO.C,C93*%
X141070000Y-55510000D03*
X139320000Y-55510000D03*
%TD*%
D65*
%TO.C,L1*%
X118245000Y-133960000D03*
X121495000Y-133960000D03*
%TD*%
D17*
%TO.C,R112*%
X203575000Y-82505001D03*
X203575000Y-83504999D03*
%TD*%
D24*
%TO.C,R156*%
X213715000Y-68005000D03*
X214715000Y-68005000D03*
%TD*%
D17*
%TO.C,R14*%
X158370000Y-57810000D03*
X158370000Y-58809998D03*
%TD*%
D35*
%TO.C,D2*%
X169170000Y-58940000D03*
D36*
X169570000Y-58985000D03*
X169970000Y-58985000D03*
X170370000Y-58985000D03*
X170770000Y-58985000D03*
X171170000Y-58985000D03*
X171570000Y-58985000D03*
X171970000Y-58985000D03*
D37*
X169970000Y-58310000D03*
X171170000Y-58310000D03*
%TD*%
D24*
%TO.C,R48*%
X81660001Y-74180000D03*
X82659999Y-74180000D03*
%TD*%
D59*
%TO.C,C33*%
X91809376Y-82763553D03*
X92516482Y-82056447D03*
%TD*%
D24*
%TO.C,R134*%
X218265001Y-65205000D03*
X219264999Y-65205000D03*
%TD*%
D51*
%TO.C,R264*%
X125095000Y-121310000D03*
X125095000Y-122710000D03*
X127145000Y-122710000D03*
X127145000Y-121310000D03*
%TD*%
D17*
%TO.C,R35*%
X73675000Y-61005001D03*
X73675000Y-62004999D03*
%TD*%
D24*
%TO.C,R154*%
X219865000Y-74405000D03*
X220865000Y-74405000D03*
%TD*%
D28*
%TO.C,C180*%
X120165000Y-106335000D03*
X120165000Y-108085000D03*
%TD*%
D66*
%TO.C,J16*%
X222812500Y-87750000D03*
X222812500Y-87250000D03*
X222812500Y-86750000D03*
X222812500Y-86250000D03*
X222812500Y-85750000D03*
X222812500Y-85250000D03*
X222812500Y-84750000D03*
X222812500Y-84250000D03*
X222812500Y-83750000D03*
X222812500Y-83250000D03*
X222812500Y-82750000D03*
X222812500Y-82250000D03*
X224572500Y-82500000D03*
X224572500Y-83000000D03*
X224572500Y-83500000D03*
X224572500Y-84000000D03*
X224572500Y-84500000D03*
X224572500Y-85000000D03*
X224572500Y-85500000D03*
X224572500Y-86000000D03*
X224572500Y-86500000D03*
X224572500Y-87000000D03*
X224572500Y-87500000D03*
X224572500Y-88000000D03*
D67*
X230672500Y-89490000D03*
X224722500Y-89130000D03*
X224722500Y-80870000D03*
X230672500Y-80510000D03*
%TD*%
D68*
%TO.C,Y2*%
X219495000Y-101210000D03*
X221995000Y-101210000D03*
%TD*%
D24*
%TO.C,R179*%
X201965001Y-93805000D03*
X202964999Y-93805000D03*
%TD*%
D16*
%TO.C,R164*%
X202965000Y-61414999D03*
X202965000Y-60415001D03*
%TD*%
D69*
%TO.C,C30*%
X90166447Y-72299376D03*
X90873553Y-73006482D03*
%TD*%
D11*
%TO.C,C142*%
X148079999Y-68515000D03*
X147080001Y-68515000D03*
%TD*%
D16*
%TO.C,R273*%
X124565000Y-91314999D03*
X124565000Y-90315001D03*
%TD*%
D46*
%TO.C,C35*%
X101180624Y-72106447D03*
X100473518Y-72813553D03*
%TD*%
D16*
%TO.C,R192*%
X146590000Y-76414999D03*
X146590000Y-75415001D03*
%TD*%
D17*
%TO.C,R5*%
X189870000Y-107405001D03*
X189870000Y-108404999D03*
%TD*%
D70*
%TO.C,MTG\u002A\u002A*%
X115250000Y-99485000D03*
%TD*%
D15*
%TO.C,C215*%
X98495000Y-98415000D03*
X100245000Y-98415000D03*
%TD*%
D24*
%TO.C,R98*%
X164090000Y-81205000D03*
X165090000Y-81205000D03*
%TD*%
%TO.C,R104*%
X137065001Y-59105000D03*
X138064999Y-59105000D03*
%TD*%
D71*
%TO.C,J12*%
X198050000Y-43090000D03*
X198050000Y-40450000D03*
X198450000Y-43090000D03*
X198450000Y-40450000D03*
X198850000Y-43090000D03*
X198850000Y-40450000D03*
X199250000Y-43090000D03*
X199250000Y-40450000D03*
X199650000Y-43090000D03*
X199650000Y-40450000D03*
X200050000Y-43090000D03*
X200050000Y-40450000D03*
X200450000Y-43090000D03*
X200450000Y-40450000D03*
X200850000Y-43090000D03*
X200850000Y-40450000D03*
X201250000Y-43090000D03*
X201250000Y-40450000D03*
X201650000Y-43090000D03*
X201650000Y-40450000D03*
X202050000Y-43090000D03*
X202050000Y-40450000D03*
X202450000Y-43090000D03*
X202450000Y-40450000D03*
X202850000Y-43090000D03*
X202850000Y-40450000D03*
X203250000Y-43090000D03*
X203250000Y-40450000D03*
X203650000Y-43090000D03*
X203650000Y-40450000D03*
X204050000Y-43090000D03*
X204050000Y-40450000D03*
X204450000Y-43090000D03*
X204450000Y-40450000D03*
X204850000Y-43090000D03*
X204850000Y-40450000D03*
X205250000Y-43090000D03*
X205250000Y-40450000D03*
X205650000Y-43090000D03*
X205650000Y-40450000D03*
X206050000Y-43090000D03*
X206050000Y-40450000D03*
X206450000Y-43090000D03*
X206450000Y-40450000D03*
X206850000Y-43090000D03*
X206850000Y-40450000D03*
X207250000Y-43090000D03*
X207250000Y-40450000D03*
X207650000Y-43090000D03*
X207650000Y-40450000D03*
X208050000Y-43090000D03*
X208050000Y-40450000D03*
X208450000Y-43090000D03*
X208450000Y-40450000D03*
X208850000Y-43090000D03*
X208850000Y-40450000D03*
X209250000Y-43090000D03*
X209250000Y-40450000D03*
X209650000Y-43090000D03*
X209650000Y-40450000D03*
X210050000Y-43090000D03*
X210050000Y-40450000D03*
X210450000Y-43090000D03*
X210450000Y-40450000D03*
X210850000Y-43090000D03*
X210850000Y-40450000D03*
X211250000Y-43090000D03*
X211250000Y-40450000D03*
X211650000Y-43090000D03*
X211650000Y-40450000D03*
X212050000Y-43090000D03*
X212050000Y-40450000D03*
X212450000Y-43090000D03*
X212450000Y-40450000D03*
X212850000Y-43090000D03*
X212850000Y-40450000D03*
X213250000Y-43090000D03*
X213250000Y-40450000D03*
X213650000Y-43090000D03*
X213650000Y-40450000D03*
X214050000Y-43090000D03*
X214050000Y-40450000D03*
X214450000Y-43090000D03*
X214450000Y-40450000D03*
X214850000Y-43090000D03*
X214850000Y-40450000D03*
X215250000Y-43090000D03*
X215250000Y-40450000D03*
X215650000Y-43090000D03*
X215650000Y-40450000D03*
X216050000Y-43090000D03*
X216050000Y-40450000D03*
X216450000Y-43090000D03*
X216450000Y-40450000D03*
X216850000Y-43090000D03*
X216850000Y-40450000D03*
X217250000Y-43090000D03*
X217250000Y-40450000D03*
X217650000Y-43090000D03*
X217650000Y-40450000D03*
%TD*%
D17*
%TO.C,R248*%
X101425000Y-105655001D03*
X101425000Y-106654999D03*
%TD*%
D11*
%TO.C,C25*%
X107519998Y-76015000D03*
X106520000Y-76015000D03*
%TD*%
D32*
%TO.C,C20*%
X84750000Y-59705000D03*
X82020000Y-59710000D03*
%TD*%
D72*
%TO.C,L5*%
X137120000Y-95835000D03*
X137120000Y-99085000D03*
%TD*%
D24*
%TO.C,R31*%
X214870000Y-104305000D03*
X215870000Y-104305000D03*
%TD*%
D16*
%TO.C,R211*%
X75565000Y-64014999D03*
X75565000Y-63015001D03*
%TD*%
D17*
%TO.C,R38*%
X93775000Y-61005001D03*
X93775000Y-62004999D03*
%TD*%
D51*
%TO.C,R263*%
X126595000Y-133260000D03*
X126595000Y-134660000D03*
X128645000Y-134660000D03*
X128645000Y-133260000D03*
%TD*%
D17*
%TO.C,R272*%
X126375000Y-85305001D03*
X126375000Y-86304999D03*
%TD*%
%TO.C,R6*%
X188570000Y-107405001D03*
X188570000Y-108404999D03*
%TD*%
D24*
%TO.C,C89*%
X174565000Y-82805000D03*
X175565000Y-82805000D03*
%TD*%
D16*
%TO.C,C11*%
X103752742Y-70421370D03*
X103752742Y-69421372D03*
%TD*%
D17*
%TO.C,C202*%
X122575000Y-90305001D03*
X122575000Y-91304999D03*
%TD*%
D11*
%TO.C,R133*%
X214274999Y-109030000D03*
X213275001Y-109030000D03*
%TD*%
D17*
%TO.C,C153*%
X149375000Y-100705001D03*
X149375000Y-101704999D03*
%TD*%
D69*
%TO.C,C39*%
X90966447Y-71499376D03*
X91673553Y-72206482D03*
%TD*%
D17*
%TO.C,C148*%
X147575000Y-100705001D03*
X147575000Y-101704999D03*
%TD*%
D24*
%TO.C,R169*%
X192165000Y-39705000D03*
X193165000Y-39705000D03*
%TD*%
%TO.C,R251*%
X104415001Y-81005000D03*
X105414999Y-81005000D03*
%TD*%
D38*
%TO.C,C172*%
X111145000Y-82105000D03*
X109395000Y-82105000D03*
%TD*%
D65*
%TO.C,L2*%
X116745000Y-121810000D03*
X119995000Y-121810000D03*
%TD*%
D24*
%TO.C,R132*%
X219870000Y-77105000D03*
X220870000Y-77105000D03*
%TD*%
D42*
%TO.C,Q2*%
X93570000Y-128210000D03*
X91670000Y-128210000D03*
X92620000Y-130210000D03*
%TD*%
D38*
%TO.C,C80*%
X180345000Y-90955000D03*
X178595000Y-90955000D03*
%TD*%
D16*
%TO.C,R141*%
X200365000Y-71114999D03*
X200365000Y-70115001D03*
%TD*%
%TO.C,R276*%
X109065000Y-93964999D03*
X109065000Y-92965001D03*
%TD*%
D35*
%TO.C,D15*%
X129470000Y-54540000D03*
D36*
X129870000Y-54585000D03*
X130270000Y-54585000D03*
X130670000Y-54585000D03*
X131070000Y-54585000D03*
X131470000Y-54585000D03*
X131870000Y-54585000D03*
X132270000Y-54585000D03*
D37*
X130270000Y-53910000D03*
X131470000Y-53910000D03*
%TD*%
D18*
%TO.C,Q19*%
X92920000Y-119960000D03*
X94820000Y-119960000D03*
X93870000Y-117960000D03*
%TD*%
D24*
%TO.C,R182*%
X220070000Y-88910000D03*
X221070000Y-88910000D03*
%TD*%
D39*
%TO.C,U16*%
X170769999Y-78510000D03*
X170770000Y-79460000D03*
X170769999Y-80410000D03*
X173170001Y-80410000D03*
X173170001Y-78510000D03*
%TD*%
D17*
%TO.C,R82*%
X196370000Y-105305001D03*
X196370000Y-106304999D03*
%TD*%
D23*
%TO.C,C106*%
X105170000Y-136215000D03*
X106570000Y-136215000D03*
%TD*%
D32*
%TO.C,C21*%
X102950000Y-62405000D03*
X100220000Y-62410000D03*
%TD*%
D16*
%TO.C,R201*%
X154570001Y-68314999D03*
X154570001Y-67315001D03*
%TD*%
D24*
%TO.C,R170*%
X192165000Y-40955000D03*
X193165000Y-40955000D03*
%TD*%
D17*
%TO.C,C8*%
X157075000Y-57805001D03*
X157075000Y-58804999D03*
%TD*%
D11*
%TO.C,R160*%
X191110000Y-39715000D03*
X190110002Y-39715000D03*
%TD*%
D56*
%TO.C,C12*%
X94523553Y-69370624D03*
X93816447Y-68663518D03*
%TD*%
D15*
%TO.C,C209*%
X92070000Y-93570000D03*
X93820000Y-93570000D03*
%TD*%
D16*
%TO.C,C48*%
X204770000Y-99410000D03*
X204770000Y-98410002D03*
%TD*%
D24*
%TO.C,R258*%
X106415001Y-79855000D03*
X107414999Y-79855000D03*
%TD*%
D11*
%TO.C,R3*%
X185374999Y-97365000D03*
X184375001Y-97365000D03*
%TD*%
D39*
%TO.C,U19*%
X222169999Y-74160000D03*
X222170000Y-75110000D03*
X222169999Y-76060000D03*
X224570001Y-76060000D03*
X224570001Y-74160000D03*
%TD*%
D25*
%TO.C,D1*%
X179929998Y-108980000D03*
D26*
X179529998Y-108935000D03*
X179129998Y-108935000D03*
X178729997Y-108935000D03*
X178329999Y-108935000D03*
X177929998Y-108935000D03*
X177529998Y-108935000D03*
X177129998Y-108934999D03*
D27*
X179129998Y-109610000D03*
X177929998Y-109610000D03*
%TD*%
D16*
%TO.C,C112*%
X183765000Y-62464999D03*
X183765000Y-61465001D03*
%TD*%
D40*
%TO.C,R210*%
X145565000Y-96110000D03*
X145565000Y-97510000D03*
%TD*%
D11*
%TO.C,C134*%
X162224999Y-100215000D03*
X161225001Y-100215000D03*
%TD*%
D73*
%TO.C,L4*%
X147970000Y-86910000D03*
X144720000Y-86910000D03*
%TD*%
D24*
%TO.C,R313*%
X135465001Y-83005000D03*
X136464999Y-83005000D03*
%TD*%
%TO.C,R102*%
X164090001Y-84505000D03*
X165089999Y-84505000D03*
%TD*%
D11*
%TO.C,R311*%
X126074999Y-83815000D03*
X125075001Y-83815000D03*
%TD*%
D24*
%TO.C,C70*%
X111615000Y-118610000D03*
X112615000Y-118610000D03*
%TD*%
D40*
%TO.C,R58*%
X68115000Y-51010000D03*
X68115000Y-52410000D03*
%TD*%
D16*
%TO.C,R18*%
X69970000Y-133814999D03*
X69970000Y-132815001D03*
%TD*%
D11*
%TO.C,R1*%
X183274999Y-93815000D03*
X182275001Y-93815000D03*
%TD*%
D24*
%TO.C,R308*%
X135465000Y-75180000D03*
X136465000Y-75180000D03*
%TD*%
D11*
%TO.C,R207*%
X170874998Y-103515000D03*
X169875000Y-103515000D03*
%TD*%
D59*
%TO.C,C44*%
X199709376Y-91158553D03*
X200416482Y-90451447D03*
%TD*%
D74*
%TO.C,J15*%
X81020000Y-117910000D03*
D75*
X75219999Y-117910000D03*
D76*
X78070000Y-122710000D03*
%TD*%
D11*
%TO.C,C164*%
X141874999Y-94965000D03*
X140875001Y-94965000D03*
%TD*%
D24*
%TO.C,R4*%
X201965000Y-96405000D03*
X202965000Y-96405000D03*
%TD*%
D39*
%TO.C,U28*%
X122569999Y-112260000D03*
X122570000Y-113210000D03*
X122569999Y-114160000D03*
X124970001Y-114160000D03*
X124970001Y-112260000D03*
%TD*%
D16*
%TO.C,R197*%
X157595000Y-82814999D03*
X157595000Y-81815001D03*
%TD*%
D17*
%TO.C,R204*%
X150275000Y-98705001D03*
X150275000Y-99704999D03*
%TD*%
D11*
%TO.C,R190*%
X162224999Y-101415000D03*
X161225001Y-101415000D03*
%TD*%
D17*
%TO.C,R42*%
X96875000Y-61005001D03*
X96875000Y-62004999D03*
%TD*%
D23*
%TO.C,D34*%
X122870000Y-88815000D03*
X124270000Y-88815000D03*
%TD*%
D11*
%TO.C,R77*%
X185374999Y-105615000D03*
X184375001Y-105615000D03*
%TD*%
D16*
%TO.C,R111*%
X77820000Y-108289999D03*
X77820000Y-107290001D03*
%TD*%
D17*
%TO.C,R103*%
X166800000Y-85605001D03*
X166800000Y-86604999D03*
%TD*%
D16*
%TO.C,C6*%
X181965000Y-104414999D03*
X181965000Y-103415001D03*
%TD*%
D24*
%TO.C,C102*%
X223565000Y-73005000D03*
X224565000Y-73005000D03*
%TD*%
D71*
%TO.C,J19*%
X198050000Y-77090000D03*
X198050000Y-74450000D03*
X198450000Y-77090000D03*
X198450000Y-74450000D03*
X198850000Y-77090000D03*
X198850000Y-74450000D03*
X199250000Y-77090000D03*
X199250000Y-74450000D03*
X199650000Y-77090000D03*
X199650000Y-74450000D03*
X200050000Y-77090000D03*
X200050000Y-74450000D03*
X200450000Y-77090000D03*
X200450000Y-74450000D03*
X200850000Y-77090000D03*
X200850000Y-74450000D03*
X201250000Y-77090000D03*
X201250000Y-74450000D03*
X201650000Y-77090000D03*
X201650000Y-74450000D03*
X202050000Y-77090000D03*
X202050000Y-74450000D03*
X202450000Y-77090000D03*
X202450000Y-74450000D03*
X202850000Y-77090000D03*
X202850000Y-74450000D03*
X203250000Y-77090000D03*
X203250000Y-74450000D03*
X203650000Y-77090000D03*
X203650000Y-74450000D03*
X204050000Y-77090000D03*
X204050000Y-74450000D03*
X204450000Y-77090000D03*
X204450000Y-74450000D03*
X204850000Y-77090000D03*
X204850000Y-74450000D03*
X205250000Y-77090000D03*
X205250000Y-74450000D03*
X205650000Y-77090000D03*
X205650000Y-74450000D03*
X206050000Y-77090000D03*
X206050000Y-74450000D03*
X206450000Y-77090000D03*
X206450000Y-74450000D03*
X206850000Y-77090000D03*
X206850000Y-74450000D03*
X207250000Y-77090000D03*
X207250000Y-74450000D03*
X207650000Y-77090000D03*
X207650000Y-74450000D03*
X208050000Y-77090000D03*
X208050000Y-74450000D03*
X208450000Y-77090000D03*
X208450000Y-74450000D03*
X208850000Y-77090000D03*
X208850000Y-74450000D03*
X209250000Y-77090000D03*
X209250000Y-74450000D03*
X209650000Y-77090000D03*
X209650000Y-74450000D03*
X210050000Y-77090000D03*
X210050000Y-74450000D03*
X210450000Y-77090000D03*
X210450000Y-74450000D03*
X210850000Y-77090000D03*
X210850000Y-74450000D03*
X211250000Y-77090000D03*
X211250000Y-74450000D03*
X211650000Y-77090000D03*
X211650000Y-74450000D03*
X212050000Y-77090000D03*
X212050000Y-74450000D03*
X212450000Y-77090000D03*
X212450000Y-74450000D03*
X212850000Y-77090000D03*
X212850000Y-74450000D03*
X213250000Y-77090000D03*
X213250000Y-74450000D03*
X213650000Y-77090000D03*
X213650000Y-74450000D03*
X214050000Y-77090000D03*
X214050000Y-74450000D03*
X214450000Y-77090000D03*
X214450000Y-74450000D03*
X214850000Y-77090000D03*
X214850000Y-74450000D03*
X215250000Y-77090000D03*
X215250000Y-74450000D03*
X215650000Y-77090000D03*
X215650000Y-74450000D03*
X216050000Y-77090000D03*
X216050000Y-74450000D03*
X216450000Y-77090000D03*
X216450000Y-74450000D03*
X216850000Y-77090000D03*
X216850000Y-74450000D03*
X217250000Y-77090000D03*
X217250000Y-74450000D03*
X217650000Y-77090000D03*
X217650000Y-74450000D03*
%TD*%
D77*
%TO.C,D30*%
X141645000Y-101710000D03*
X137595000Y-101710000D03*
%TD*%
D11*
%TO.C,R22*%
X208774999Y-104415000D03*
X207775001Y-104415000D03*
%TD*%
D16*
%TO.C,R120*%
X79865000Y-64014999D03*
X79865000Y-63015001D03*
%TD*%
D11*
%TO.C,R93*%
X177669998Y-81610000D03*
X176670000Y-81610000D03*
%TD*%
D78*
%TO.C,U30*%
X124970000Y-99410000D03*
X125920000Y-99410000D03*
X126870000Y-99410000D03*
X126870000Y-97010000D03*
X125920000Y-97010000D03*
X124970000Y-97010000D03*
%TD*%
D79*
%TO.C,Q10*%
X165720000Y-86610000D03*
X165720000Y-85610000D03*
X164070000Y-86110000D03*
%TD*%
D11*
%TO.C,R21*%
X97124999Y-114715000D03*
X96125001Y-114715000D03*
%TD*%
D59*
%TO.C,C99*%
X88209376Y-79163553D03*
X88916482Y-78456447D03*
%TD*%
D46*
%TO.C,R50*%
X102730624Y-73656447D03*
X102023518Y-74363553D03*
%TD*%
D38*
%TO.C,C207*%
X93845000Y-95655000D03*
X92095000Y-95655000D03*
%TD*%
D11*
%TO.C,C23*%
X119874999Y-75415000D03*
X118875001Y-75415000D03*
%TD*%
D28*
%TO.C,C165*%
X137115000Y-92235000D03*
X137115000Y-93985000D03*
%TD*%
D24*
%TO.C,C155*%
X146570001Y-73405000D03*
X147569999Y-73405000D03*
%TD*%
D17*
%TO.C,C239*%
X186375000Y-117605001D03*
X186375000Y-118604999D03*
%TD*%
%TO.C,C151*%
X152069999Y-70705002D03*
X152069999Y-71705000D03*
%TD*%
D38*
%TO.C,C124*%
X121445000Y-85005000D03*
X119695000Y-85005000D03*
%TD*%
D16*
%TO.C,C157*%
X169865000Y-102064999D03*
X169865000Y-101065001D03*
%TD*%
D11*
%TO.C,C174*%
X105074999Y-122415000D03*
X104075001Y-122415000D03*
%TD*%
D16*
%TO.C,C200*%
X226460000Y-132889999D03*
X226460000Y-131890001D03*
%TD*%
D23*
%TO.C,R129*%
X66670000Y-53965000D03*
X68070000Y-53965000D03*
%TD*%
D16*
%TO.C,C50*%
X194765000Y-104114999D03*
X194765000Y-103115001D03*
%TD*%
D17*
%TO.C,R206*%
X168675000Y-101055001D03*
X168675000Y-102054999D03*
%TD*%
D16*
%TO.C,R230*%
X90865000Y-125459999D03*
X90865000Y-124460001D03*
%TD*%
D80*
%TO.C,J14*%
X80370000Y-82710000D03*
X73370001Y-82710000D03*
D81*
X72270000Y-86410000D03*
D82*
X81670000Y-86410000D03*
D81*
X74270000Y-79010000D03*
D83*
X85670000Y-81960000D03*
%TD*%
D17*
%TO.C,R231*%
X92370000Y-124450001D03*
X92370000Y-125449999D03*
%TD*%
D60*
%TO.C,D7*%
X187770000Y-114035000D03*
X187770000Y-111595000D03*
%TD*%
D11*
%TO.C,R256*%
X105074999Y-120015000D03*
X104075001Y-120015000D03*
%TD*%
D16*
%TO.C,R146*%
X203965000Y-71114999D03*
X203965000Y-70115001D03*
%TD*%
D24*
%TO.C,R11*%
X156965001Y-55505000D03*
X157964999Y-55505000D03*
%TD*%
D84*
%TO.C,L6*%
X74015001Y-137455000D03*
X77015001Y-137455000D03*
X77015001Y-132355000D03*
X74015001Y-132355000D03*
%TD*%
D16*
%TO.C,R185*%
X141890000Y-78614999D03*
X141890000Y-77615001D03*
%TD*%
D17*
%TO.C,R8*%
X181975000Y-91505001D03*
X181975000Y-92504999D03*
%TD*%
%TO.C,R23*%
X198970000Y-105305001D03*
X198970000Y-106304999D03*
%TD*%
D16*
%TO.C,R64*%
X183170000Y-106609998D03*
X183170000Y-105610000D03*
%TD*%
%TO.C,R124*%
X77820000Y-110489999D03*
X77820000Y-109490001D03*
%TD*%
%TO.C,C26*%
X95765000Y-85314999D03*
X95765000Y-84315001D03*
%TD*%
D17*
%TO.C,R262*%
X126975000Y-107205001D03*
X126975000Y-108204999D03*
%TD*%
D11*
%TO.C,R142*%
X217074999Y-68015000D03*
X216075001Y-68015000D03*
%TD*%
D65*
%TO.C,L3*%
X114545000Y-109610000D03*
X117795000Y-109610000D03*
%TD*%
D24*
%TO.C,R177*%
X186015000Y-60405000D03*
X187015000Y-60405000D03*
%TD*%
D16*
%TO.C,C238*%
X184365000Y-136514999D03*
X184365000Y-135515001D03*
%TD*%
D18*
%TO.C,Q26*%
X206820000Y-109010000D03*
X208720000Y-109010000D03*
X207770000Y-107010000D03*
%TD*%
D85*
%TO.C,J24*%
X68795000Y-105635000D03*
X68795000Y-111235000D03*
D86*
X72670000Y-106935000D03*
X72670000Y-107935000D03*
X72670000Y-108935001D03*
X72670000Y-109935000D03*
%TD*%
D11*
%TO.C,R229*%
X95124999Y-138215000D03*
X94125001Y-138215000D03*
%TD*%
D33*
%TO.C,C178*%
X123875000Y-137185000D03*
X123875000Y-135435000D03*
%TD*%
D16*
%TO.C,R242*%
X203765000Y-112364999D03*
X203765000Y-111365001D03*
%TD*%
D60*
%TO.C,D16*%
X224370000Y-100635000D03*
X224370000Y-98195000D03*
%TD*%
D24*
%TO.C,R250*%
X106415001Y-81005000D03*
X107414999Y-81005000D03*
%TD*%
D17*
%TO.C,C253*%
X195070000Y-105305001D03*
X195070000Y-106304999D03*
%TD*%
D22*
%TO.C,Q4*%
X152470000Y-52160000D03*
X152470000Y-54060000D03*
X154470000Y-53110000D03*
%TD*%
D11*
%TO.C,C16*%
X80869999Y-69990000D03*
X79870001Y-69990000D03*
%TD*%
%TO.C,R90*%
X126074999Y-75990000D03*
X125075001Y-75990000D03*
%TD*%
D17*
%TO.C,C107*%
X222775000Y-109905001D03*
X222775000Y-110904999D03*
%TD*%
D24*
%TO.C,R287*%
X226060000Y-100605000D03*
X227060000Y-100605000D03*
%TD*%
D16*
%TO.C,C170*%
X112565000Y-109959998D03*
X112565000Y-108960000D03*
%TD*%
D87*
%TO.C,J5*%
X107790000Y-47110000D03*
X120490000Y-47110000D03*
D88*
X109060000Y-62350000D03*
X111090000Y-62350000D03*
X113120000Y-62350000D03*
X115160000Y-62350000D03*
X117190000Y-62350000D03*
X119220000Y-62350000D03*
X108040000Y-64890000D03*
X110070000Y-64890000D03*
X112100000Y-64890000D03*
X116180000Y-64890000D03*
X118210000Y-64890000D03*
X120240000Y-64890000D03*
D89*
X108040000Y-67430000D03*
X110580000Y-67430000D03*
X117700000Y-67430000D03*
X120240000Y-67430000D03*
D90*
X106080000Y-43940000D03*
X122210000Y-43940000D03*
%TD*%
D16*
%TO.C,C187*%
X130115000Y-137214999D03*
X130115000Y-136215001D03*
%TD*%
D91*
%TO.C,J7*%
X228170000Y-102910000D03*
X228170000Y-112310000D03*
D92*
X228170000Y-107610000D03*
%TD*%
D79*
%TO.C,Q23*%
X214795000Y-66710000D03*
X214795000Y-65710000D03*
X213145000Y-66210000D03*
%TD*%
D29*
%TO.C,Q3*%
X95870000Y-126660000D03*
X95870000Y-124760000D03*
X93870000Y-125710000D03*
%TD*%
D33*
%TO.C,C138*%
X140279999Y-73685000D03*
X140279999Y-71935000D03*
%TD*%
D31*
%TO.C,U34*%
X107365002Y-98715000D03*
X107365001Y-97765000D03*
X107365002Y-96815000D03*
X104965000Y-96815000D03*
X104965000Y-98715000D03*
%TD*%
D35*
%TO.C,D3*%
X93570000Y-57740000D03*
D36*
X93970000Y-57785000D03*
X94370000Y-57785000D03*
X94770001Y-57785000D03*
X95169999Y-57785000D03*
X95570000Y-57785000D03*
X95970000Y-57785000D03*
X96370000Y-57785001D03*
D37*
X94370000Y-57110000D03*
X95570000Y-57110000D03*
%TD*%
D16*
%TO.C,C237*%
X185165000Y-122714999D03*
X185165000Y-121715001D03*
%TD*%
D61*
%TO.C,C65*%
X103875000Y-106210000D03*
X103870000Y-103010000D03*
%TD*%
D93*
%TO.C,D24*%
X149499999Y-63310000D03*
X147059999Y-63310000D03*
%TD*%
D16*
%TO.C,R226*%
X195865000Y-88814999D03*
X195865000Y-87815001D03*
%TD*%
D54*
%TO.C,R131*%
X233370000Y-51110000D03*
X231970000Y-51110000D03*
%TD*%
D24*
%TO.C,C55*%
X207765000Y-103105000D03*
X208765000Y-103105000D03*
%TD*%
D42*
%TO.C,Q6*%
X155620000Y-55510000D03*
X153720000Y-55510000D03*
X154670000Y-57510000D03*
%TD*%
D60*
%TO.C,D6*%
X189870000Y-114035000D03*
X189870000Y-111595000D03*
%TD*%
D11*
%TO.C,R151*%
X211074999Y-70015000D03*
X210075001Y-70015000D03*
%TD*%
D16*
%TO.C,R135*%
X78665000Y-64009998D03*
X78665000Y-63010000D03*
%TD*%
D17*
%TO.C,C208*%
X96975000Y-90560001D03*
X96975000Y-91559999D03*
%TD*%
D16*
%TO.C,R270*%
X135165000Y-87514999D03*
X135165000Y-86515001D03*
%TD*%
D94*
%TO.C,U8*%
X80540000Y-71410000D03*
X79890000Y-71410000D03*
X79240000Y-71410000D03*
X78590000Y-71410000D03*
X78590000Y-74160000D03*
X79240000Y-74160000D03*
X79890000Y-74160000D03*
X80540000Y-74160000D03*
D95*
X79565000Y-72785000D03*
%TD*%
D17*
%TO.C,R173*%
X202975000Y-62405001D03*
X202975000Y-63404999D03*
%TD*%
D16*
%TO.C,R88*%
X73670000Y-64009998D03*
X73670000Y-63010000D03*
%TD*%
D79*
%TO.C,Q11*%
X165720000Y-83310000D03*
X165720000Y-82310000D03*
X164070000Y-82810000D03*
%TD*%
D17*
%TO.C,R62*%
X192470000Y-107405001D03*
X192470000Y-108404999D03*
%TD*%
D28*
%TO.C,C140*%
X153270000Y-63435000D03*
X153270000Y-65185000D03*
%TD*%
D24*
%TO.C,R235*%
X99365001Y-124705000D03*
X100364999Y-124705000D03*
%TD*%
D18*
%TO.C,Q20*%
X93920000Y-123210000D03*
X95820000Y-123210000D03*
X94870000Y-121210000D03*
%TD*%
D15*
%TO.C,C210*%
X92070000Y-91670000D03*
X93820000Y-91670000D03*
%TD*%
D17*
%TO.C,R39*%
X94975000Y-61005001D03*
X94975000Y-62004999D03*
%TD*%
D29*
%TO.C,Q5*%
X151170000Y-54060000D03*
X151170000Y-52160000D03*
X149170000Y-53110000D03*
%TD*%
D17*
%TO.C,R121*%
X207175000Y-80305001D03*
X207175000Y-81304999D03*
%TD*%
D16*
%TO.C,R208*%
X143365000Y-97214999D03*
X143365000Y-96215001D03*
%TD*%
D24*
%TO.C,R243*%
X225115001Y-118205000D03*
X226114999Y-118205000D03*
%TD*%
D96*
%TO.C,S1*%
X231500000Y-92810000D03*
X224500000Y-92810000D03*
%TD*%
D11*
%TO.C,R157*%
X191124999Y-42210000D03*
X190125001Y-42210000D03*
%TD*%
D38*
%TO.C,C120*%
X160245000Y-48605000D03*
X158495000Y-48605000D03*
%TD*%
D17*
%TO.C,R41*%
X91875000Y-61005001D03*
X91875000Y-62004999D03*
%TD*%
D24*
%TO.C,C109*%
X213665001Y-71205000D03*
X214664999Y-71205000D03*
%TD*%
D17*
%TO.C,R33*%
X76775000Y-61005001D03*
X76775000Y-62004999D03*
%TD*%
D61*
%TO.C,C245*%
X110875000Y-130710000D03*
X110870000Y-127510000D03*
%TD*%
D24*
%TO.C,R307*%
X135465000Y-76580000D03*
X136465000Y-76580000D03*
%TD*%
D11*
%TO.C,C116*%
X217074999Y-79815000D03*
X216075001Y-79815000D03*
%TD*%
D35*
%TO.C,D13*%
X116500000Y-70830000D03*
D36*
X116900000Y-70875000D03*
X117300000Y-70875000D03*
X117700001Y-70875000D03*
X118099999Y-70875000D03*
X118500000Y-70875000D03*
X118900000Y-70875000D03*
X119300000Y-70875001D03*
D37*
X117300000Y-70200000D03*
X118500000Y-70200000D03*
%TD*%
D11*
%TO.C,R7*%
X180774999Y-92515000D03*
X179775001Y-92515000D03*
%TD*%
D38*
%TO.C,C103*%
X216445000Y-110720000D03*
X214695000Y-110720000D03*
%TD*%
D24*
%TO.C,R123*%
X135465001Y-77980000D03*
X136464999Y-77980000D03*
%TD*%
D16*
%TO.C,R237*%
X101115000Y-136714999D03*
X101115000Y-135715001D03*
%TD*%
%TO.C,C236*%
X186365000Y-122714999D03*
X186365000Y-121715001D03*
%TD*%
D15*
%TO.C,C78*%
X213095000Y-82815000D03*
X214845000Y-82815000D03*
%TD*%
D16*
%TO.C,C233*%
X183965000Y-122714999D03*
X183965000Y-121715001D03*
%TD*%
D11*
%TO.C,R199*%
X151874998Y-72910000D03*
X150875000Y-72910000D03*
%TD*%
D97*
%TO.C,C5*%
X183932563Y-88672563D03*
X185170000Y-89910000D03*
%TD*%
D17*
%TO.C,C221*%
X135575000Y-72880001D03*
X135575000Y-73879999D03*
%TD*%
D16*
%TO.C,R166*%
X206515000Y-61414999D03*
X206515000Y-60415001D03*
%TD*%
D98*
%TO.C,U15*%
X176070000Y-85610000D03*
X176070000Y-86110000D03*
X176070000Y-86610000D03*
X176070000Y-87110000D03*
X176070000Y-87610000D03*
X176070000Y-88110000D03*
X176070000Y-88610000D03*
X176070000Y-89110000D03*
X176070000Y-89610000D03*
X175570000Y-85610000D03*
X175570000Y-86110000D03*
X175570000Y-86610000D03*
X175570000Y-87110000D03*
X175570000Y-87610000D03*
X175570000Y-88110000D03*
X175570000Y-88610000D03*
X175570000Y-89110000D03*
X175570000Y-89610000D03*
X175070000Y-85610000D03*
X175070000Y-86110000D03*
X175070000Y-89110000D03*
X175070000Y-89610000D03*
X174570000Y-85610000D03*
X174570000Y-86110000D03*
X174570000Y-87610000D03*
X174570000Y-88110000D03*
X174570000Y-89110000D03*
X174570000Y-89610000D03*
X174070000Y-85610000D03*
X174070000Y-86110000D03*
X174070000Y-87110000D03*
X174070000Y-87610000D03*
X174070000Y-88110000D03*
X174070000Y-89110000D03*
X174070000Y-89610000D03*
X173570000Y-85610000D03*
X173570000Y-86110000D03*
X173570000Y-87110000D03*
X173570000Y-87610000D03*
X173570000Y-88110000D03*
X173570000Y-89110000D03*
X173570000Y-89610000D03*
X173070000Y-85610000D03*
X173070000Y-86110000D03*
X173070000Y-89110000D03*
X173070000Y-89610000D03*
X172570000Y-85610000D03*
X172570000Y-86110000D03*
X172570000Y-86610000D03*
X172570000Y-87110000D03*
X172570000Y-87610000D03*
X172570000Y-88110000D03*
X172570000Y-88610000D03*
X172570000Y-89110000D03*
X172570000Y-89610000D03*
X172070000Y-85610000D03*
X172070000Y-86110000D03*
X172070000Y-86610000D03*
X172070000Y-87110000D03*
X172070000Y-87610000D03*
X172070000Y-88110000D03*
X172070000Y-88610000D03*
X172070000Y-89110000D03*
X172070000Y-89610000D03*
%TD*%
D11*
%TO.C,C167*%
X106119998Y-112710000D03*
X105120000Y-112710000D03*
%TD*%
D16*
%TO.C,R144*%
X93765000Y-64014999D03*
X93765000Y-63015001D03*
%TD*%
D99*
%TO.C,J21*%
X212245585Y-94438427D03*
D100*
X214785585Y-94438427D03*
X217325585Y-94438427D03*
%TD*%
D60*
%TO.C,D5*%
X150445000Y-89285000D03*
X150445000Y-86845000D03*
%TD*%
D11*
%TO.C,R10*%
X152174999Y-55415000D03*
X151175001Y-55415000D03*
%TD*%
D101*
%TO.C,U26*%
X140720000Y-98560000D03*
X141370000Y-98560000D03*
X142020000Y-98560000D03*
X142020000Y-96360000D03*
X140720000Y-96360000D03*
%TD*%
D38*
%TO.C,C156*%
X175844999Y-102605000D03*
X174094999Y-102605000D03*
%TD*%
D11*
%TO.C,R51*%
X88324999Y-73565000D03*
X87325001Y-73565000D03*
%TD*%
D16*
%TO.C,R193*%
X155195000Y-85014999D03*
X155195000Y-84015001D03*
%TD*%
D38*
%TO.C,C108*%
X217845000Y-84805000D03*
X216095000Y-84805000D03*
%TD*%
D11*
%TO.C,R52*%
X119874999Y-76815000D03*
X118875001Y-76815000D03*
%TD*%
D102*
%TO.C,J4*%
X129070000Y-49890000D03*
X129570000Y-49890000D03*
X130070000Y-49890000D03*
X130570000Y-49890000D03*
X131070000Y-49890000D03*
X131570000Y-49890000D03*
X132070000Y-49890000D03*
X132570000Y-49890000D03*
X133070000Y-49890000D03*
X133570000Y-49890000D03*
X134070000Y-49890000D03*
X134570000Y-49890000D03*
X135070000Y-49890000D03*
X135570000Y-49890000D03*
X136070000Y-49890000D03*
X136570000Y-49890000D03*
X137070000Y-49890000D03*
X137570000Y-49890000D03*
X138070000Y-49890000D03*
D103*
X126320000Y-49130000D03*
X140820000Y-49130000D03*
D104*
X126320000Y-43170000D03*
X140820000Y-43170000D03*
%TD*%
D11*
%TO.C,R65*%
X180774999Y-103415000D03*
X179775001Y-103415000D03*
%TD*%
D105*
%TO.C,R315*%
X84870000Y-122735000D03*
X86270000Y-122735000D03*
X86270000Y-120685000D03*
X84870000Y-120685000D03*
%TD*%
D106*
%TO.C,U25*%
X170969999Y-101110000D03*
X170970000Y-101760000D03*
X170969999Y-102410000D03*
X172920001Y-102410000D03*
X172920000Y-101760000D03*
X172920001Y-101110000D03*
D107*
X171945000Y-101760000D03*
%TD*%
D47*
%TO.C,U10*%
X107270000Y-119960000D03*
X107270000Y-121230000D03*
X107270000Y-122500000D03*
X107270000Y-123770000D03*
X112670000Y-123770000D03*
X112670000Y-122500000D03*
X112670000Y-121230000D03*
X112670000Y-119960000D03*
D48*
X109970000Y-121860000D03*
%TD*%
D29*
%TO.C,Q18*%
X153275000Y-68659999D03*
X153275000Y-66759999D03*
X151275000Y-67709999D03*
%TD*%
D11*
%TO.C,R70*%
X180774999Y-98715000D03*
X179775001Y-98715000D03*
%TD*%
D54*
%TO.C,R106*%
X144470000Y-46105000D03*
X143070000Y-46105000D03*
%TD*%
D61*
%TO.C,C243*%
X107175000Y-106210000D03*
X107170000Y-103010000D03*
%TD*%
D57*
%TO.C,J3*%
X80625000Y-52510000D03*
X78125000Y-52510000D03*
X76125000Y-52510000D03*
X73625000Y-52510000D03*
X73125000Y-54010000D03*
X75125000Y-54010000D03*
X77125000Y-54010000D03*
X79125000Y-54010000D03*
X81125000Y-54010000D03*
D58*
X83695000Y-50510000D03*
X70555000Y-50510000D03*
%TD*%
D108*
%TO.C,D8*%
X73295000Y-125710000D03*
X77345000Y-125710000D03*
%TD*%
D11*
%TO.C,R257*%
X102874999Y-107865000D03*
X101875001Y-107865000D03*
%TD*%
D109*
%TO.C,U12*%
X104370000Y-88035000D03*
X105640000Y-88035000D03*
X106910000Y-88035000D03*
X108180000Y-88035000D03*
X108180000Y-82635000D03*
X106910000Y-82635000D03*
X105640000Y-82635000D03*
X104370000Y-82635000D03*
D110*
X106270000Y-85335000D03*
%TD*%
D17*
%TO.C,R40*%
X90675000Y-61005001D03*
X90675000Y-62004999D03*
%TD*%
D78*
%TO.C,U36*%
X87720000Y-122910001D03*
X88670000Y-122910000D03*
X89620000Y-122910001D03*
X89620000Y-120509999D03*
X87720000Y-120509999D03*
%TD*%
D16*
%TO.C,C13*%
X102615000Y-70414999D03*
X102615000Y-69415001D03*
%TD*%
D11*
%TO.C,C119*%
X159374999Y-45815000D03*
X158375001Y-45815000D03*
%TD*%
D17*
%TO.C,R176*%
X207725000Y-62405001D03*
X207725000Y-63404999D03*
%TD*%
D24*
%TO.C,R219*%
X201965001Y-95105000D03*
X202964999Y-95105000D03*
%TD*%
D34*
%TO.C,J9*%
X113370000Y-90322500D03*
X113870000Y-90322500D03*
X114370000Y-90322500D03*
X114870000Y-90322500D03*
X115370000Y-90322500D03*
X115870000Y-90322500D03*
X116370000Y-90322500D03*
X116870000Y-90322500D03*
X117370000Y-90322500D03*
X117870000Y-90322500D03*
%TD*%
D32*
%TO.C,C18*%
X84750000Y-57005000D03*
X82020000Y-57010000D03*
%TD*%
D40*
%TO.C,R59*%
X86115000Y-51010000D03*
X86115000Y-52410000D03*
%TD*%
D111*
%TO.C,D32*%
X124345000Y-119210000D03*
X127995000Y-119210000D03*
%TD*%
D16*
%TO.C,R86*%
X199700530Y-88814999D03*
X199700530Y-87815001D03*
%TD*%
D24*
%TO.C,R24*%
X213865000Y-103005000D03*
X214865000Y-103005000D03*
%TD*%
D17*
%TO.C,C62*%
X100625000Y-133455001D03*
X100625000Y-134454999D03*
%TD*%
D15*
%TO.C,C118*%
X166195000Y-90015000D03*
X167945000Y-90015000D03*
%TD*%
D16*
%TO.C,R187*%
X146595000Y-82614999D03*
X146595000Y-81615001D03*
%TD*%
D24*
%TO.C,R244*%
X225115001Y-120705000D03*
X226114999Y-120705000D03*
%TD*%
%TO.C,C191*%
X125865000Y-94205000D03*
X126865000Y-94205000D03*
%TD*%
%TO.C,R267*%
X128065000Y-97005000D03*
X129065000Y-97005000D03*
%TD*%
D16*
%TO.C,R117*%
X72465000Y-64014999D03*
X72465000Y-63015001D03*
%TD*%
D17*
%TO.C,C110*%
X183725000Y-59405001D03*
X183725000Y-60404999D03*
%TD*%
D33*
%TO.C,C183*%
X120175000Y-112885000D03*
X120175000Y-111135000D03*
%TD*%
D11*
%TO.C,R122*%
X126074999Y-77390000D03*
X125075001Y-77390000D03*
%TD*%
%TO.C,R28*%
X214874999Y-101815000D03*
X213875001Y-101815000D03*
%TD*%
D17*
%TO.C,R73*%
X202875000Y-97705001D03*
X202875000Y-98704999D03*
%TD*%
D16*
%TO.C,R68*%
X183165000Y-102214999D03*
X183165000Y-101215001D03*
%TD*%
D11*
%TO.C,R29*%
X92374999Y-123215000D03*
X91375001Y-123215000D03*
%TD*%
D17*
%TO.C,R126*%
X210775000Y-80305001D03*
X210775000Y-81304999D03*
%TD*%
D16*
%TO.C,R227*%
X191965000Y-88814999D03*
X191965000Y-87815001D03*
%TD*%
D24*
%TO.C,R275*%
X72265000Y-101955000D03*
X73265000Y-101955000D03*
%TD*%
D17*
%TO.C,C49*%
X204775000Y-96305001D03*
X204775000Y-97304999D03*
%TD*%
D16*
%TO.C,R85*%
X188065000Y-88814999D03*
X188065000Y-87815001D03*
%TD*%
D42*
%TO.C,Q15*%
X145045000Y-80610000D03*
X143145000Y-80610000D03*
X144095000Y-82610000D03*
%TD*%
D35*
%TO.C,D11*%
X198870000Y-125640000D03*
D36*
X199270000Y-125685000D03*
X199670000Y-125685000D03*
X200070001Y-125685000D03*
X200469999Y-125685000D03*
X200870000Y-125685000D03*
X201270000Y-125685000D03*
X201670000Y-125685001D03*
D37*
X199670000Y-125010000D03*
X200870000Y-125010000D03*
%TD*%
D16*
%TO.C,R150*%
X90665000Y-64014999D03*
X90665000Y-63015001D03*
%TD*%
D59*
%TO.C,C41*%
X89909376Y-80863553D03*
X90616482Y-80156447D03*
%TD*%
D24*
%TO.C,C61*%
X92865001Y-132955000D03*
X93864999Y-132955000D03*
%TD*%
D11*
%TO.C,R76*%
X185374999Y-103415000D03*
X184375001Y-103415000D03*
%TD*%
D46*
%TO.C,C188*%
X129730624Y-123606447D03*
X129023518Y-124313553D03*
%TD*%
D16*
%TO.C,R107*%
X108015000Y-70864999D03*
X108015000Y-69865001D03*
%TD*%
%TO.C,R116*%
X202370000Y-81314999D03*
X202370000Y-80315001D03*
%TD*%
D24*
%TO.C,C214*%
X99365000Y-96805000D03*
X100365000Y-96805000D03*
%TD*%
D16*
%TO.C,C4*%
X181965000Y-106614999D03*
X181965000Y-105615001D03*
%TD*%
D11*
%TO.C,R309*%
X126074999Y-81015000D03*
X125075001Y-81015000D03*
%TD*%
D24*
%TO.C,R96*%
X169365000Y-90455000D03*
X170364998Y-90455000D03*
%TD*%
D11*
%TO.C,C111*%
X216969998Y-71210000D03*
X215970000Y-71210000D03*
%TD*%
D17*
%TO.C,R113*%
X203575000Y-80305001D03*
X203575000Y-81304999D03*
%TD*%
D112*
%TO.C,D26*%
X143750000Y-71910000D03*
X146190000Y-71910000D03*
%TD*%
D24*
%TO.C,R284*%
X226065000Y-97410000D03*
X227065000Y-97410000D03*
%TD*%
D61*
%TO.C,C66*%
X107625000Y-130710000D03*
X107620000Y-127510000D03*
%TD*%
D113*
%TO.C,F1*%
X85676479Y-71410592D03*
X89052914Y-68027086D03*
%TD*%
D29*
%TO.C,D20*%
X221370000Y-82860000D03*
X221370000Y-80960000D03*
X219370000Y-81910000D03*
%TD*%
D17*
%TO.C,R249*%
X128125000Y-107205001D03*
X128125000Y-108204999D03*
%TD*%
D24*
%TO.C,R203*%
X148720001Y-73405000D03*
X149719999Y-73405000D03*
%TD*%
D22*
%TO.C,Q25*%
X201870000Y-108060000D03*
X201870000Y-109960000D03*
X203870000Y-109010000D03*
%TD*%
D18*
%TO.C,Q8*%
X126620000Y-92210000D03*
X128520000Y-92210000D03*
X127570000Y-90210000D03*
%TD*%
D11*
%TO.C,C123*%
X108124999Y-124965000D03*
X107125001Y-124965000D03*
%TD*%
%TO.C,C75*%
X211174999Y-106215000D03*
X210175001Y-106215000D03*
%TD*%
%TO.C,C1*%
X185374999Y-93815000D03*
X184375001Y-93815000D03*
%TD*%
D19*
%TO.C,MTG3*%
X181350001Y-75270000D03*
%TD*%
D17*
%TO.C,R71*%
X183175000Y-97705001D03*
X183175000Y-98704999D03*
%TD*%
D114*
%TO.C,X1*%
X70680000Y-102911000D03*
X68220000Y-102911000D03*
X68220000Y-101211000D03*
X70680000Y-101211000D03*
%TD*%
D19*
%TO.C,MTG4*%
X229350002Y-75270001D03*
%TD*%
D115*
%TO.C,J23*%
X190800000Y-117260000D03*
D116*
X190800000Y-137260000D03*
D117*
X195300000Y-116910000D03*
D118*
X196075000Y-118010000D03*
X188525000Y-118260000D03*
X196075000Y-118510000D03*
X188525000Y-118760000D03*
X196075000Y-119010000D03*
X188525000Y-119260000D03*
X196075000Y-119510000D03*
X188525000Y-119760000D03*
X196075000Y-120010000D03*
X188525000Y-120260000D03*
X196075000Y-120510000D03*
X188525000Y-120760000D03*
X196075000Y-121010000D03*
X188525000Y-121260000D03*
X196075000Y-121510000D03*
X188525000Y-121760000D03*
X196075000Y-122010000D03*
X188525000Y-122260000D03*
X196075000Y-122510000D03*
X188525000Y-122760000D03*
X196075000Y-123010000D03*
X188525000Y-123260000D03*
X196075000Y-123510000D03*
X188525000Y-123760000D03*
X196075000Y-124010000D03*
X188525000Y-124260000D03*
X196075000Y-124510000D03*
X188525000Y-124760000D03*
X196075000Y-125010000D03*
X188525000Y-125260000D03*
X196075000Y-125510000D03*
X188525000Y-125760000D03*
X196075000Y-126010000D03*
X188525000Y-126260000D03*
X196075000Y-126510000D03*
X188525000Y-126760000D03*
X196075000Y-127010000D03*
X188525000Y-127260000D03*
X196075000Y-127510000D03*
X188525000Y-127760000D03*
X196075000Y-128010000D03*
X188525000Y-128260000D03*
X196075000Y-128510000D03*
X188525000Y-128760000D03*
X196075000Y-129010000D03*
X188525000Y-129260000D03*
X196075000Y-129510000D03*
X188525000Y-129760000D03*
X196075000Y-130010000D03*
X188525000Y-130260000D03*
X196075000Y-130510000D03*
X188525000Y-130760000D03*
X196075000Y-131010000D03*
X188525000Y-131260000D03*
X196075000Y-131510000D03*
X188525000Y-131760000D03*
X196075000Y-132010000D03*
X188525000Y-132260000D03*
X196075000Y-132510000D03*
X188525000Y-132760000D03*
X196075000Y-133010000D03*
X188525000Y-133260000D03*
X196075000Y-133510000D03*
X188525000Y-133760000D03*
X196075000Y-134010000D03*
X188525000Y-134260000D03*
X196075000Y-134510000D03*
X188525000Y-134760000D03*
X196075000Y-135010000D03*
X188525000Y-135260000D03*
X196075000Y-135510000D03*
X188525000Y-135760000D03*
X196075000Y-136010000D03*
X188525000Y-136260000D03*
X196075000Y-136510000D03*
D43*
X162550000Y-127260000D03*
X150550000Y-127260000D03*
X132550000Y-127260000D03*
D117*
X195300000Y-137610000D03*
%TD*%
D16*
%TO.C,R20*%
X201565000Y-71114999D03*
X201565000Y-70115001D03*
%TD*%
D39*
%TO.C,U14*%
X124969999Y-124260000D03*
X124970000Y-125210000D03*
X124969999Y-126160000D03*
X127370001Y-126160000D03*
X127370001Y-124260000D03*
%TD*%
D16*
%TO.C,R143*%
X202765000Y-71114999D03*
X202765000Y-70115001D03*
%TD*%
D11*
%TO.C,R78*%
X185374999Y-92515000D03*
X184375001Y-92515000D03*
%TD*%
D16*
%TO.C,C91*%
X129565000Y-57364999D03*
X129565000Y-56365001D03*
%TD*%
D53*
%TO.C,C60*%
X96520000Y-137215000D03*
X99720000Y-137210000D03*
%TD*%
D119*
%TO.C,Y1*%
X105270000Y-74210000D03*
X106620000Y-74210000D03*
X106620000Y-73160000D03*
X105270000Y-73160000D03*
%TD*%
D16*
%TO.C,C169*%
X114765000Y-122209998D03*
X114765000Y-121210000D03*
%TD*%
D42*
%TO.C,Q9*%
X133520000Y-86410000D03*
X131620000Y-86410000D03*
X132570000Y-88410000D03*
%TD*%
D16*
%TO.C,R167*%
X207715000Y-61414999D03*
X207715000Y-60415001D03*
%TD*%
D33*
%TO.C,C199*%
X224870000Y-133660000D03*
X224870000Y-131910000D03*
%TD*%
D17*
%TO.C,R171*%
X199325000Y-62405001D03*
X199325000Y-63404999D03*
%TD*%
D28*
%TO.C,C84*%
X149065000Y-95535000D03*
X149065000Y-97285000D03*
%TD*%
D93*
%TO.C,D28*%
X141920000Y-88410000D03*
X139480000Y-88410000D03*
%TD*%
D120*
%TO.C,U32*%
X127870000Y-73310000D03*
X127870000Y-73960000D03*
X127870000Y-74610000D03*
X127870000Y-75260000D03*
X127870000Y-75910000D03*
X127870000Y-76560000D03*
X127870000Y-77210000D03*
X127870000Y-77860000D03*
X133670000Y-77860000D03*
X133670000Y-77210000D03*
X133670000Y-76560000D03*
X133670000Y-75910000D03*
X133670000Y-75260000D03*
X133670000Y-74610000D03*
X133670000Y-73960000D03*
X133670000Y-73310000D03*
%TD*%
D11*
%TO.C,C81*%
X179474999Y-87015000D03*
X178475001Y-87015000D03*
%TD*%
D17*
%TO.C,R69*%
X195070002Y-107426322D03*
X195070002Y-108426320D03*
%TD*%
D47*
%TO.C,U11*%
X105070000Y-107710000D03*
X105070000Y-108980000D03*
X105070000Y-110250000D03*
X105070000Y-111520000D03*
X110470000Y-111520000D03*
X110470000Y-110250000D03*
X110470000Y-108980000D03*
X110470000Y-107710000D03*
D48*
X107770000Y-109610000D03*
%TD*%
D11*
%TO.C,R75*%
X185374999Y-101315000D03*
X184375001Y-101315000D03*
%TD*%
D24*
%TO.C,C212*%
X99675000Y-88810000D03*
X100675000Y-88810000D03*
%TD*%
D45*
%TO.C,R306*%
X131965000Y-91230000D03*
X131970000Y-93960000D03*
%TD*%
D54*
%TO.C,R130*%
X233470000Y-126710000D03*
X232070000Y-126710000D03*
%TD*%
D24*
%TO.C,R288*%
X185165000Y-134065000D03*
X186165000Y-134065000D03*
%TD*%
%TO.C,C113*%
X213865000Y-81005000D03*
X214865000Y-81005000D03*
%TD*%
D53*
%TO.C,C57*%
X84020000Y-126965000D03*
X87220000Y-126960000D03*
%TD*%
D17*
%TO.C,C42*%
X188570000Y-105305001D03*
X188570000Y-106304999D03*
%TD*%
%TO.C,R260*%
X130870000Y-131210000D03*
X130870000Y-132209998D03*
%TD*%
D23*
%TO.C,C15*%
X103920000Y-123965000D03*
X105320000Y-123965000D03*
%TD*%
D80*
%TO.C,J13*%
X80369999Y-94160000D03*
X73370000Y-94160000D03*
D81*
X72269999Y-97860000D03*
D82*
X81669999Y-97860000D03*
D81*
X74269999Y-90460000D03*
D83*
X85669999Y-93410000D03*
%TD*%
D16*
%TO.C,C121*%
X147965000Y-50214999D03*
X147965000Y-49215001D03*
%TD*%
D17*
%TO.C,C241*%
X200424999Y-56455001D03*
X200424999Y-57454999D03*
%TD*%
D11*
%TO.C,R87*%
X203038958Y-100015000D03*
X202038960Y-100015000D03*
%TD*%
D78*
%TO.C,U31*%
X122620000Y-95010000D03*
X123570000Y-95010000D03*
X124520000Y-95010000D03*
X124520000Y-92610000D03*
X122620000Y-92610000D03*
%TD*%
D53*
%TO.C,C219*%
X73820000Y-129010000D03*
X77020000Y-129005000D03*
%TD*%
D24*
%TO.C,R13*%
X154870000Y-58810000D03*
X155870000Y-58810000D03*
%TD*%
%TO.C,R47*%
X75460001Y-71780000D03*
X76459999Y-71780000D03*
%TD*%
%TO.C,R181*%
X220070000Y-87705000D03*
X221070000Y-87705000D03*
%TD*%
%TO.C,C69*%
X113115001Y-130910000D03*
X114114999Y-130910000D03*
%TD*%
%TO.C,R15*%
X159765000Y-56205000D03*
X160765000Y-56205000D03*
%TD*%
D121*
%TO.C,U22*%
X181869999Y-60735000D03*
D122*
X181470000Y-60685000D03*
D123*
X180903000Y-60853500D03*
X180903000Y-61253500D03*
X180903001Y-61653500D03*
D122*
X181470001Y-61822000D03*
X181869999Y-61822000D03*
D124*
X182440000Y-61653500D03*
X182440000Y-61253500D03*
X182440000Y-60853500D03*
%TD*%
D125*
%TO.C,Q1*%
X89565001Y-137691000D03*
X89565001Y-133119000D03*
D126*
X82565001Y-135405000D03*
%TD*%
D35*
%TO.C,D17*%
X147570000Y-47540000D03*
D36*
X147970000Y-47585000D03*
X148370000Y-47585000D03*
X148770000Y-47585000D03*
X149170000Y-47585000D03*
X149570000Y-47585000D03*
X149970000Y-47585000D03*
X150370000Y-47585000D03*
D37*
X148370000Y-46910000D03*
X149570000Y-46910000D03*
%TD*%
D17*
%TO.C,C218*%
X135575000Y-79305001D03*
X135575000Y-80304999D03*
%TD*%
D24*
%TO.C,R232*%
X207765000Y-105705000D03*
X208765000Y-105705000D03*
%TD*%
D127*
%TO.C,J10*%
X184449999Y-112010000D03*
D100*
X181909999Y-112010000D03*
X179370000Y-112010000D03*
X176829998Y-112010000D03*
X174289999Y-112010000D03*
X171749999Y-112010000D03*
%TD*%
D17*
%TO.C,R115*%
X201175000Y-80305001D03*
X201175000Y-81304999D03*
%TD*%
D23*
%TO.C,D47*%
X176970000Y-137715000D03*
X178370000Y-137715000D03*
%TD*%
D17*
%TO.C,R30*%
X213375000Y-110220001D03*
X213375000Y-111219999D03*
%TD*%
D112*
%TO.C,D27*%
X147049999Y-65210000D03*
X149489999Y-65210000D03*
%TD*%
D54*
%TO.C,D39*%
X231870000Y-95805000D03*
X230470000Y-95805000D03*
%TD*%
D24*
%TO.C,R268*%
X125865001Y-95605000D03*
X126864999Y-95605000D03*
%TD*%
D33*
%TO.C,C196*%
X213275000Y-133685000D03*
X213275000Y-131935000D03*
%TD*%
D11*
%TO.C,C175*%
X102874999Y-110265000D03*
X101875001Y-110265000D03*
%TD*%
D39*
%TO.C,U37*%
X219569999Y-97260000D03*
X219570000Y-98210000D03*
X219569999Y-99160000D03*
X221970001Y-99160000D03*
X221970001Y-97260000D03*
%TD*%
D28*
%TO.C,C162*%
X145865000Y-99835000D03*
X145865000Y-101585000D03*
%TD*%
D16*
%TO.C,C122*%
X154065000Y-50914999D03*
X154065000Y-49915001D03*
%TD*%
D24*
%TO.C,R12*%
X154865001Y-60005000D03*
X155864999Y-60005000D03*
%TD*%
D128*
%TO.C,U21*%
X221345000Y-105610000D03*
X220695000Y-105610000D03*
X220045000Y-105610000D03*
X219395000Y-105610000D03*
X219395000Y-110010000D03*
X220045000Y-110010000D03*
X220695000Y-110010000D03*
X221345000Y-110010000D03*
%TD*%
D24*
%TO.C,R89*%
X201965001Y-92505000D03*
X202964999Y-92505000D03*
%TD*%
D18*
%TO.C,Q21*%
X214220000Y-107710000D03*
X216120000Y-107710000D03*
X215170000Y-105710000D03*
%TD*%
D129*
%TO.C,D45*%
X91448858Y-87474645D03*
X90105355Y-86131142D03*
X89362893Y-88217107D03*
%TD*%
D24*
%TO.C,R221*%
X202028959Y-102610000D03*
X203028957Y-102610000D03*
%TD*%
D17*
%TO.C,R119*%
X205975000Y-80305001D03*
X205975000Y-81304999D03*
%TD*%
%TO.C,C211*%
X104975000Y-90605001D03*
X104975000Y-91604999D03*
%TD*%
D16*
%TO.C,R165*%
X204165000Y-61414999D03*
X204165000Y-60415001D03*
%TD*%
D17*
%TO.C,R80*%
X191170000Y-105305001D03*
X191170000Y-106304999D03*
%TD*%
D93*
%TO.C,D25*%
X146200000Y-70110000D03*
X143760000Y-70110000D03*
%TD*%
D22*
%TO.C,Q7*%
X100620000Y-129760000D03*
X100620000Y-131660000D03*
X102620000Y-130710000D03*
%TD*%
D16*
%TO.C,R236*%
X118365000Y-85564999D03*
X118365000Y-84565001D03*
%TD*%
D11*
%TO.C,R218*%
X226174999Y-125815000D03*
X225175001Y-125815000D03*
%TD*%
D24*
%TO.C,R25*%
X96115001Y-117955000D03*
X97114999Y-117955000D03*
%TD*%
D17*
%TO.C,R44*%
X77570000Y-69080001D03*
X77570000Y-70079999D03*
%TD*%
D130*
%TO.C,J1*%
X166370000Y-55060000D03*
X167470000Y-55060000D03*
X168570000Y-55060000D03*
X169670000Y-55060000D03*
X170770000Y-55060000D03*
X171870000Y-55060000D03*
X172970000Y-55060000D03*
X174070000Y-55060000D03*
X175020000Y-55060000D03*
D131*
X175870000Y-40410000D03*
%TD*%
D11*
%TO.C,C128*%
X152999999Y-84315000D03*
X152000001Y-84315000D03*
%TD*%
D24*
%TO.C,R61*%
X86915001Y-75305000D03*
X87914999Y-75305000D03*
%TD*%
D17*
%TO.C,R138*%
X209575000Y-80305001D03*
X209575000Y-81304999D03*
%TD*%
D22*
%TO.C,D48*%
X74625000Y-108635000D03*
X74625000Y-110535000D03*
X76625000Y-109585000D03*
%TD*%
D16*
%TO.C,C94*%
X135865000Y-57464999D03*
X135865000Y-56465001D03*
%TD*%
%TO.C,R222*%
X190665000Y-88814999D03*
X190665000Y-87815001D03*
%TD*%
D28*
%TO.C,C132*%
X160765000Y-90235000D03*
X160765000Y-91985000D03*
%TD*%
D38*
%TO.C,C206*%
X93845000Y-97655000D03*
X92095000Y-97655000D03*
%TD*%
D16*
%TO.C,R153*%
X205265000Y-109014999D03*
X205265000Y-108015001D03*
%TD*%
D17*
%TO.C,R174*%
X204175000Y-62405001D03*
X204175000Y-63404999D03*
%TD*%
D16*
%TO.C,C168*%
X116265000Y-134464999D03*
X116265000Y-133465001D03*
%TD*%
%TO.C,R108*%
X122265000Y-71114999D03*
X122265000Y-70115001D03*
%TD*%
D11*
%TO.C,C173*%
X106614997Y-134655000D03*
X105614999Y-134655000D03*
%TD*%
D16*
%TO.C,C90*%
X143065000Y-58214999D03*
X143065000Y-57215001D03*
%TD*%
D28*
%TO.C,C144*%
X153065000Y-95535000D03*
X153065000Y-97285000D03*
%TD*%
D132*
%TO.C,U7*%
X91425457Y-77240330D03*
X91779010Y-77593883D03*
X92132563Y-77947437D03*
X92486117Y-78300990D03*
X92839670Y-78654544D03*
X93193224Y-79008097D03*
X93546777Y-79361650D03*
X93900330Y-79715204D03*
X94253884Y-80068757D03*
X94607437Y-80422311D03*
X94960991Y-80775864D03*
X95314544Y-81129417D03*
D133*
X96375204Y-81129417D03*
X96728757Y-80775864D03*
X97082311Y-80422311D03*
X97435864Y-80068757D03*
X97789418Y-79715204D03*
X98142971Y-79361650D03*
X98496524Y-79008097D03*
X98850078Y-78654544D03*
X99203631Y-78300990D03*
X99557185Y-77947437D03*
X99910738Y-77593883D03*
X100264291Y-77240330D03*
D134*
X100264291Y-76179670D03*
X99910738Y-75826117D03*
X99557185Y-75472563D03*
X99203631Y-75119010D03*
X98850078Y-74765456D03*
X98496524Y-74411903D03*
X98142971Y-74058350D03*
X97789418Y-73704796D03*
X97435864Y-73351243D03*
X97082311Y-72997689D03*
X96728757Y-72644136D03*
X96375204Y-72290583D03*
D135*
X95314544Y-72290583D03*
X94960991Y-72644136D03*
X94607437Y-72997689D03*
X94253884Y-73351243D03*
X93900330Y-73704796D03*
X93546777Y-74058350D03*
X93193224Y-74411903D03*
X92839670Y-74765456D03*
X92486117Y-75119010D03*
X92132563Y-75472563D03*
X91779010Y-75826117D03*
X91425457Y-76179670D03*
D136*
X95844874Y-76710000D03*
%TD*%
D56*
%TO.C,C34*%
X101123553Y-81170624D03*
X100416447Y-80463518D03*
%TD*%
D24*
%TO.C,C104*%
X221465001Y-103205000D03*
X222464999Y-103205000D03*
%TD*%
D33*
%TO.C,C139*%
X142280000Y-73685000D03*
X142280000Y-71935000D03*
%TD*%
D61*
%TO.C,C64*%
X106120000Y-118510000D03*
X106115000Y-115310000D03*
%TD*%
D11*
%TO.C,R281*%
X126074999Y-74590000D03*
X125075001Y-74590000D03*
%TD*%
%TO.C,R74*%
X185374999Y-98715000D03*
X184375001Y-98715000D03*
%TD*%
D16*
%TO.C,R238*%
X117265000Y-85564999D03*
X117265000Y-84565001D03*
%TD*%
D137*
%TO.C,D18*%
X185440000Y-128670000D03*
D138*
X185395000Y-129070000D03*
X185395000Y-129470000D03*
X185395000Y-129870001D03*
X185395000Y-130269999D03*
X185395000Y-130670000D03*
X185395000Y-131070000D03*
X185394999Y-131470000D03*
D139*
X186070000Y-129470000D03*
X186070000Y-130670000D03*
%TD*%
D16*
%TO.C,R53*%
X102865000Y-78664999D03*
X102865000Y-77665001D03*
%TD*%
D17*
%TO.C,R37*%
X79875000Y-61005001D03*
X79875000Y-62004999D03*
%TD*%
D32*
%TO.C,C22*%
X84720000Y-62410000D03*
X81990000Y-62415000D03*
%TD*%
D16*
%TO.C,C117*%
X160670000Y-51609998D03*
X160670000Y-50610000D03*
%TD*%
D24*
%TO.C,C71*%
X109465001Y-106405000D03*
X110464999Y-106405000D03*
%TD*%
D38*
%TO.C,C10*%
X163845000Y-57005000D03*
X162095000Y-57005000D03*
%TD*%
D17*
%TO.C,R147*%
X205175000Y-70105001D03*
X205175000Y-71104999D03*
%TD*%
D54*
%TO.C,D38*%
X231870000Y-97405000D03*
X230470000Y-97405000D03*
%TD*%
D120*
%TO.C,U35*%
X127870000Y-79735000D03*
X127870000Y-80385000D03*
X127870000Y-81035000D03*
X127870000Y-81685000D03*
X127870000Y-82335000D03*
X127870000Y-82985000D03*
X127870000Y-83635000D03*
X127870000Y-84285000D03*
X133670000Y-84285000D03*
X133670000Y-83635000D03*
X133670000Y-82985000D03*
X133670000Y-82335000D03*
X133670000Y-81685000D03*
X133670000Y-81035000D03*
X133670000Y-80385000D03*
X133670000Y-79735000D03*
%TD*%
D17*
%TO.C,R159*%
X91375000Y-114705001D03*
X91375000Y-115704999D03*
%TD*%
D15*
%TO.C,C77*%
X212895000Y-69615000D03*
X214645000Y-69615000D03*
%TD*%
D17*
%TO.C,R189*%
X163375000Y-100455001D03*
X163375000Y-101454999D03*
%TD*%
%TO.C,C3*%
X183175000Y-91505001D03*
X183175000Y-92504999D03*
%TD*%
D69*
%TO.C,C37*%
X92216447Y-70249376D03*
X92923553Y-70956482D03*
%TD*%
D16*
%TO.C,R240*%
X102615000Y-128464999D03*
X102615000Y-127465001D03*
%TD*%
D38*
%TO.C,C67*%
X217845000Y-82805000D03*
X216095000Y-82805000D03*
%TD*%
D16*
%TO.C,R145*%
X91865000Y-64014999D03*
X91865000Y-63015001D03*
%TD*%
D24*
%TO.C,R17*%
X89265000Y-97205000D03*
X90265000Y-97205000D03*
%TD*%
%TO.C,R245*%
X209865001Y-120705000D03*
X210864999Y-120705000D03*
%TD*%
D56*
%TO.C,C14*%
X93723553Y-70170624D03*
X93016447Y-69463518D03*
%TD*%
D24*
%TO.C,R56*%
X108665001Y-76800000D03*
X109664999Y-76800000D03*
%TD*%
D18*
%TO.C,Q13*%
X127820000Y-88410000D03*
X129720000Y-88410000D03*
X128770000Y-86410000D03*
%TD*%
D39*
%TO.C,U13*%
X126419999Y-136260000D03*
X126420000Y-137210000D03*
X126419999Y-138160000D03*
X128820001Y-138160000D03*
X128820001Y-136260000D03*
%TD*%
D16*
%TO.C,R140*%
X199165000Y-71114999D03*
X199165000Y-70115001D03*
%TD*%
D17*
%TO.C,C54*%
X187175000Y-94805001D03*
X187175000Y-95804999D03*
%TD*%
D16*
%TO.C,R2*%
X207565000Y-71114999D03*
X207565000Y-70115001D03*
%TD*%
D31*
%TO.C,U20*%
X212570001Y-104960000D03*
X212570000Y-104010000D03*
X212570001Y-103060000D03*
X210169999Y-103060000D03*
X210169999Y-104960000D03*
%TD*%
D16*
%TO.C,R158*%
X223765000Y-102914999D03*
X223765000Y-101915001D03*
%TD*%
D111*
%TO.C,D33*%
X121945000Y-107210000D03*
X125595000Y-107210000D03*
%TD*%
D17*
%TO.C,C79*%
X169475000Y-88255001D03*
X169475000Y-89254999D03*
%TD*%
D16*
%TO.C,C231*%
X186765000Y-136514999D03*
X186765000Y-135515001D03*
%TD*%
%TO.C,R66*%
X183165000Y-104414999D03*
X183165000Y-103415001D03*
%TD*%
%TO.C,R19*%
X208765000Y-71114999D03*
X208765000Y-70115001D03*
%TD*%
%TO.C,R148*%
X206365000Y-71114999D03*
X206365000Y-70115001D03*
%TD*%
D35*
%TO.C,D12*%
X135070000Y-54540000D03*
D36*
X135470000Y-54585000D03*
X135870000Y-54585000D03*
X136270000Y-54585000D03*
X136670000Y-54585000D03*
X137070000Y-54585000D03*
X137470000Y-54585000D03*
X137870000Y-54585000D03*
D37*
X135870000Y-53910000D03*
X137070000Y-53910000D03*
%TD*%
D24*
%TO.C,R127*%
X220465000Y-113505000D03*
X221465000Y-113505000D03*
%TD*%
D17*
%TO.C,R32*%
X75575000Y-61005001D03*
X75575000Y-62004999D03*
%TD*%
D16*
%TO.C,R191*%
X76765000Y-64014999D03*
X76765000Y-63015001D03*
%TD*%
D140*
%TO.C,J11*%
X206640000Y-115659999D03*
D141*
X206640000Y-118199999D03*
X206640000Y-120739999D03*
X206640000Y-123279999D03*
X206640000Y-125819999D03*
X206640000Y-128359999D03*
X206640000Y-130899999D03*
X206640000Y-133439999D03*
X229500000Y-133439999D03*
X229500000Y-130899999D03*
X229500000Y-128359999D03*
X229500000Y-125819999D03*
X229500000Y-123279999D03*
X229500000Y-120739999D03*
X229500000Y-118199999D03*
D140*
X229500000Y-115659999D03*
%TD*%
D142*
%TO.C,Y3*%
X207376066Y-97461472D03*
X206421472Y-98416066D03*
X207163934Y-99158528D03*
X208118528Y-98203934D03*
%TD*%
D15*
%TO.C,C235*%
X182195000Y-120115000D03*
X183945000Y-120115000D03*
%TD*%
D11*
%TO.C,R252*%
X106619998Y-133410000D03*
X105620000Y-133410000D03*
%TD*%
D17*
%TO.C,R34*%
X72475000Y-61005001D03*
X72475000Y-62004999D03*
%TD*%
D16*
%TO.C,R202*%
X149670000Y-72114999D03*
X149670000Y-71115001D03*
%TD*%
D99*
%TO.C,J22*%
X212240000Y-91610000D03*
D100*
X214780000Y-91610000D03*
X217320000Y-91610000D03*
%TD*%
D24*
%TO.C,R234*%
X97115001Y-124705000D03*
X98114999Y-124705000D03*
%TD*%
D11*
%TO.C,R152*%
X211074999Y-71215000D03*
X210075001Y-71215000D03*
%TD*%
D17*
%TO.C,R246*%
X97375000Y-121205001D03*
X97375000Y-122204999D03*
%TD*%
D42*
%TO.C,Q16*%
X142845000Y-84760000D03*
X140945000Y-84760000D03*
X141895000Y-86760000D03*
%TD*%
D24*
%TO.C,R54*%
X118865000Y-78205000D03*
X119865000Y-78205000D03*
%TD*%
D17*
%TO.C,C53*%
X187175000Y-97599090D03*
X187175000Y-98599088D03*
%TD*%
D42*
%TO.C,D46*%
X214335585Y-87510000D03*
X212435585Y-87510000D03*
X213385585Y-89510000D03*
%TD*%
D16*
%TO.C,R72*%
X197660000Y-106314999D03*
X197660000Y-105315001D03*
%TD*%
D28*
%TO.C,C154*%
X151065000Y-95535000D03*
X151065000Y-97285000D03*
%TD*%
D11*
%TO.C,C83*%
X179469998Y-89410000D03*
X178470000Y-89410000D03*
%TD*%
D35*
%TO.C,D4*%
X75770000Y-57740000D03*
D36*
X76170000Y-57785000D03*
X76570000Y-57785000D03*
X76970000Y-57785000D03*
X77370000Y-57785000D03*
X77770000Y-57785000D03*
X78170000Y-57785000D03*
X78570000Y-57785000D03*
D37*
X76570000Y-57110000D03*
X77770000Y-57110000D03*
%TD*%
D24*
%TO.C,R283*%
X226060000Y-95805000D03*
X227060000Y-95805000D03*
%TD*%
%TO.C,C56*%
X91365000Y-126705000D03*
X92365000Y-126705000D03*
%TD*%
D143*
%TO.C,U24*%
X147970000Y-81910000D03*
X148620000Y-81910000D03*
X149270000Y-81910000D03*
X149920000Y-81910000D03*
X150570000Y-81910000D03*
X151220000Y-81910000D03*
X151870000Y-81910000D03*
X152520000Y-81910000D03*
X153170000Y-81910000D03*
X153820000Y-81910000D03*
X153820000Y-76210000D03*
X153170000Y-76210000D03*
X152520000Y-76210000D03*
X151870000Y-76210000D03*
X151220000Y-76210000D03*
X150570000Y-76210000D03*
X149920000Y-76210000D03*
X149270000Y-76210000D03*
X148620000Y-76210000D03*
X147970000Y-76210000D03*
D144*
X150895000Y-79060000D03*
%TD*%
D11*
%TO.C,C217*%
X105970000Y-95665000D03*
X104970002Y-95665000D03*
%TD*%
D145*
%TO.C,U33*%
X102725000Y-90365000D03*
X102225000Y-90365001D03*
X101725000Y-90365000D03*
X101225000Y-90365000D03*
X100725000Y-90365000D03*
X100225000Y-90365000D03*
X99725000Y-90365001D03*
X99225000Y-90365000D03*
D146*
X98475000Y-91065000D03*
X98475001Y-91615000D03*
X98475000Y-92115000D03*
X98475000Y-92615000D03*
X98475000Y-93115000D03*
X98475000Y-93615000D03*
X98475001Y-94115000D03*
X98475000Y-94615000D03*
D147*
X99225000Y-95365000D03*
X99725000Y-95364999D03*
X100225000Y-95365000D03*
X100725000Y-95365000D03*
X101225000Y-95365000D03*
X101725000Y-95365000D03*
X102225000Y-95364999D03*
X102725000Y-95365000D03*
D148*
X103475000Y-94615000D03*
X103474999Y-94115000D03*
X103475000Y-93615000D03*
X103475000Y-93115000D03*
X103475000Y-92615000D03*
X103475000Y-92115000D03*
X103474999Y-91615000D03*
X103475000Y-91115000D03*
D149*
X100975000Y-92865000D03*
%TD*%
D11*
%TO.C,R253*%
X105074999Y-121215000D03*
X104075001Y-121215000D03*
%TD*%
D16*
%TO.C,R289*%
X181165000Y-133874999D03*
X181165000Y-132875001D03*
%TD*%
%TO.C,R100*%
X169465000Y-80414999D03*
X169465000Y-79415001D03*
%TD*%
%TO.C,C46*%
X189860000Y-106314999D03*
X189860000Y-105315001D03*
%TD*%
%TO.C,C201*%
X124315000Y-101914999D03*
X124315000Y-100915001D03*
%TD*%
D17*
%TO.C,R184*%
X155675000Y-51605001D03*
X155675000Y-52604999D03*
%TD*%
D16*
%TO.C,C192*%
X127515000Y-101914999D03*
X127515000Y-100915001D03*
%TD*%
D17*
%TO.C,C240*%
X199325000Y-56455001D03*
X199325000Y-57454999D03*
%TD*%
D32*
%TO.C,C19*%
X102950000Y-59705000D03*
X100220000Y-59710000D03*
%TD*%
D17*
%TO.C,R118*%
X204775000Y-80305001D03*
X204775000Y-81304999D03*
%TD*%
D28*
%TO.C,C166*%
X139115000Y-92235000D03*
X139115000Y-93985000D03*
%TD*%
D33*
%TO.C,C195*%
X211275000Y-133685000D03*
X211275000Y-131935000D03*
%TD*%
D150*
%TO.C,U1*%
X189320000Y-93360000D03*
X189320000Y-93860000D03*
X189320000Y-94360000D03*
X189320000Y-94860000D03*
X189320000Y-95360000D03*
X189320000Y-95860000D03*
X189320000Y-96360000D03*
X189320000Y-96860000D03*
X189320000Y-97360000D03*
X189320000Y-97860000D03*
X189320000Y-98360000D03*
X189320000Y-98860000D03*
X189320000Y-99360000D03*
X189320000Y-99860000D03*
X189320000Y-100360000D03*
X189320000Y-100860000D03*
D151*
X190020000Y-101560000D03*
X190520000Y-101560000D03*
X191020000Y-101560000D03*
X191520000Y-101560000D03*
X192020000Y-101560000D03*
X192520000Y-101560000D03*
X193020000Y-101560000D03*
X193520000Y-101560000D03*
X194020000Y-101560000D03*
X194520000Y-101560000D03*
X195020000Y-101560000D03*
X195520000Y-101560000D03*
X196020000Y-101560000D03*
X196520000Y-101560000D03*
X197020000Y-101560000D03*
X197520000Y-101560000D03*
D152*
X198220000Y-100860000D03*
X198220000Y-100360000D03*
X198220000Y-99860000D03*
X198220000Y-99360000D03*
X198220000Y-98860000D03*
X198220000Y-98360000D03*
X198220000Y-97860000D03*
X198220000Y-97360000D03*
X198220000Y-96860000D03*
X198220000Y-96360000D03*
X198220000Y-95860000D03*
X198220000Y-95360000D03*
X198220000Y-94860000D03*
X198220000Y-94360000D03*
X198220000Y-93860000D03*
X198220000Y-93360000D03*
D151*
X197520000Y-92660000D03*
X197020000Y-92660000D03*
X196520000Y-92660000D03*
X196020000Y-92660000D03*
X195520000Y-92660000D03*
X195020000Y-92660000D03*
X194520000Y-92660000D03*
X194020000Y-92660000D03*
X193520000Y-92660000D03*
X193020000Y-92660000D03*
X192520000Y-92660000D03*
X192020000Y-92660000D03*
X191520000Y-92660000D03*
X191020000Y-92660000D03*
X190520000Y-92660000D03*
X190020000Y-92660000D03*
D153*
X193770000Y-97110000D03*
%TD*%
D11*
%TO.C,C158*%
X174974999Y-101065000D03*
X173975001Y-101065000D03*
%TD*%
D24*
%TO.C,R228*%
X201965001Y-91205000D03*
X202964999Y-91205000D03*
%TD*%
%TO.C,R220*%
X202028960Y-101310000D03*
X203028958Y-101310000D03*
%TD*%
D59*
%TO.C,C40*%
X89109376Y-80063553D03*
X89816482Y-79356447D03*
%TD*%
D16*
%TO.C,C229*%
X183465000Y-131514999D03*
X183465000Y-130515001D03*
%TD*%
D17*
%TO.C,R137*%
X211975000Y-80305001D03*
X211975000Y-81304999D03*
%TD*%
D11*
%TO.C,R95*%
X177674999Y-82815000D03*
X176675001Y-82815000D03*
%TD*%
%TO.C,C85*%
X192748067Y-90788073D03*
X191748069Y-90788073D03*
%TD*%
D16*
%TO.C,C86*%
X155415000Y-91114999D03*
X155415000Y-90115001D03*
%TD*%
D11*
%TO.C,R63*%
X180774999Y-105615000D03*
X179775001Y-105615000D03*
%TD*%
D111*
%TO.C,D31*%
X125795000Y-131110000D03*
X129445000Y-131110000D03*
%TD*%
D113*
%TO.C,F2*%
X70201480Y-71410592D03*
X73577915Y-68027086D03*
%TD*%
D16*
%TO.C,R136*%
X94965000Y-64014999D03*
X94965000Y-63015001D03*
%TD*%
D46*
%TO.C,C36*%
X99730624Y-70656447D03*
X99023518Y-71363553D03*
%TD*%
D17*
%TO.C,R279*%
X107365001Y-94665002D03*
X107365001Y-95665000D03*
%TD*%
D40*
%TO.C,R101*%
X124565000Y-52610000D03*
X124565000Y-54010000D03*
%TD*%
D24*
%TO.C,R45*%
X75460001Y-70580000D03*
X76459999Y-70580000D03*
%TD*%
%TO.C,R97*%
X169865000Y-82805000D03*
X170865000Y-82805000D03*
%TD*%
%TO.C,R55*%
X108665001Y-75400000D03*
X109664999Y-75400000D03*
%TD*%
D17*
%TO.C,C146*%
X151175000Y-100705001D03*
X151175000Y-101704999D03*
%TD*%
D11*
%TO.C,C114*%
X109624999Y-137215000D03*
X108625001Y-137215000D03*
%TD*%
%TO.C,C47*%
X200824999Y-97365000D03*
X199825001Y-97365000D03*
%TD*%
G36*
X148213039Y-136529685D02*
G01*
X148258794Y-136582489D01*
X148270000Y-136634000D01*
X148270000Y-138486000D01*
X148250315Y-138553039D01*
X148197511Y-138598794D01*
X148146000Y-138610000D01*
X135194000Y-138610000D01*
X135126961Y-138590315D01*
X135081206Y-138537511D01*
X135070000Y-138486000D01*
X135070000Y-136634000D01*
X135089685Y-136566961D01*
X135142489Y-136521206D01*
X135194000Y-136510000D01*
X148146000Y-136510000D01*
X148213039Y-136529685D01*
G37*
M02*
