%TF.GenerationSoftware,KiCad,Pcbnew,9.0.7*%
%TF.CreationDate,2026-02-20T17:15:32-05:00*%
%TF.ProjectId,rpi_cm4_cm5_CarrierBoard,7270695f-636d-4345-9f63-6d355f436172,2.00-0A*%
%TF.SameCoordinates,Original*%
%TF.FileFunction,Legend,Bot*%
%TF.FilePolarity,Positive*%
%FSLAX46Y46*%
G04 Gerber Fmt 4.6, Leading zero omitted, Abs format (unit mm)*
G04 Created by KiCad (PCBNEW 9.0.7) date 2026-02-20 17:15:32*
%MOMM*%
%LPD*%
G01*
G04 APERTURE LIST*
%ADD10C,0.100000*%
%ADD11C,0.300000*%
%ADD12C,0.153000*%
G04 APERTURE END LIST*
D10*
X84870000Y-102310000D02*
X96870000Y-102310000D01*
X96870000Y-110310000D01*
X84870000Y-110310000D01*
X84870000Y-102310000D01*
X85370000Y-102810000D02*
X96370000Y-102810000D01*
X96370000Y-109810000D01*
X85370000Y-109810000D01*
X85370000Y-102810000D01*
X117516115Y-39658609D02*
X117182782Y-39658609D01*
X117039925Y-40182419D02*
X117516115Y-40182419D01*
X117516115Y-40182419D02*
X117516115Y-39182419D01*
X117516115Y-39182419D02*
X117039925Y-39182419D01*
X116754210Y-39182419D02*
X116182782Y-39182419D01*
X116468496Y-40182419D02*
X116468496Y-39182419D01*
X115849448Y-40182419D02*
X115849448Y-39182419D01*
X115849448Y-39658609D02*
X115278020Y-39658609D01*
X115278020Y-40182419D02*
X115278020Y-39182419D01*
X114801829Y-39658609D02*
X114468496Y-39658609D01*
X114325639Y-40182419D02*
X114801829Y-40182419D01*
X114801829Y-40182419D02*
X114801829Y-39182419D01*
X114801829Y-39182419D02*
X114325639Y-39182419D01*
X113325639Y-40182419D02*
X113658972Y-39706228D01*
X113897067Y-40182419D02*
X113897067Y-39182419D01*
X113897067Y-39182419D02*
X113516115Y-39182419D01*
X113516115Y-39182419D02*
X113420877Y-39230038D01*
X113420877Y-39230038D02*
X113373258Y-39277657D01*
X113373258Y-39277657D02*
X113325639Y-39372895D01*
X113325639Y-39372895D02*
X113325639Y-39515752D01*
X113325639Y-39515752D02*
X113373258Y-39610990D01*
X113373258Y-39610990D02*
X113420877Y-39658609D01*
X113420877Y-39658609D02*
X113516115Y-39706228D01*
X113516115Y-39706228D02*
X113897067Y-39706228D01*
X112897067Y-40182419D02*
X112897067Y-39182419D01*
X112897067Y-39182419D02*
X112325639Y-40182419D01*
X112325639Y-40182419D02*
X112325639Y-39182419D01*
X111849448Y-39658609D02*
X111516115Y-39658609D01*
X111373258Y-40182419D02*
X111849448Y-40182419D01*
X111849448Y-40182419D02*
X111849448Y-39182419D01*
X111849448Y-39182419D02*
X111373258Y-39182419D01*
X111087543Y-39182419D02*
X110516115Y-39182419D01*
X110801829Y-40182419D02*
X110801829Y-39182419D01*
X79366115Y-39182419D02*
X79366115Y-39991942D01*
X79366115Y-39991942D02*
X79318496Y-40087180D01*
X79318496Y-40087180D02*
X79270877Y-40134800D01*
X79270877Y-40134800D02*
X79175639Y-40182419D01*
X79175639Y-40182419D02*
X78985163Y-40182419D01*
X78985163Y-40182419D02*
X78889925Y-40134800D01*
X78889925Y-40134800D02*
X78842306Y-40087180D01*
X78842306Y-40087180D02*
X78794687Y-39991942D01*
X78794687Y-39991942D02*
X78794687Y-39182419D01*
X78366115Y-40134800D02*
X78223258Y-40182419D01*
X78223258Y-40182419D02*
X77985163Y-40182419D01*
X77985163Y-40182419D02*
X77889925Y-40134800D01*
X77889925Y-40134800D02*
X77842306Y-40087180D01*
X77842306Y-40087180D02*
X77794687Y-39991942D01*
X77794687Y-39991942D02*
X77794687Y-39896704D01*
X77794687Y-39896704D02*
X77842306Y-39801466D01*
X77842306Y-39801466D02*
X77889925Y-39753847D01*
X77889925Y-39753847D02*
X77985163Y-39706228D01*
X77985163Y-39706228D02*
X78175639Y-39658609D01*
X78175639Y-39658609D02*
X78270877Y-39610990D01*
X78270877Y-39610990D02*
X78318496Y-39563371D01*
X78318496Y-39563371D02*
X78366115Y-39468133D01*
X78366115Y-39468133D02*
X78366115Y-39372895D01*
X78366115Y-39372895D02*
X78318496Y-39277657D01*
X78318496Y-39277657D02*
X78270877Y-39230038D01*
X78270877Y-39230038D02*
X78175639Y-39182419D01*
X78175639Y-39182419D02*
X77937544Y-39182419D01*
X77937544Y-39182419D02*
X77794687Y-39230038D01*
X77032782Y-39658609D02*
X76889925Y-39706228D01*
X76889925Y-39706228D02*
X76842306Y-39753847D01*
X76842306Y-39753847D02*
X76794687Y-39849085D01*
X76794687Y-39849085D02*
X76794687Y-39991942D01*
X76794687Y-39991942D02*
X76842306Y-40087180D01*
X76842306Y-40087180D02*
X76889925Y-40134800D01*
X76889925Y-40134800D02*
X76985163Y-40182419D01*
X76985163Y-40182419D02*
X77366115Y-40182419D01*
X77366115Y-40182419D02*
X77366115Y-39182419D01*
X77366115Y-39182419D02*
X77032782Y-39182419D01*
X77032782Y-39182419D02*
X76937544Y-39230038D01*
X76937544Y-39230038D02*
X76889925Y-39277657D01*
X76889925Y-39277657D02*
X76842306Y-39372895D01*
X76842306Y-39372895D02*
X76842306Y-39468133D01*
X76842306Y-39468133D02*
X76889925Y-39563371D01*
X76889925Y-39563371D02*
X76937544Y-39610990D01*
X76937544Y-39610990D02*
X77032782Y-39658609D01*
X77032782Y-39658609D02*
X77366115Y-39658609D01*
X76461353Y-39182419D02*
X75842306Y-39182419D01*
X75842306Y-39182419D02*
X76175639Y-39563371D01*
X76175639Y-39563371D02*
X76032782Y-39563371D01*
X76032782Y-39563371D02*
X75937544Y-39610990D01*
X75937544Y-39610990D02*
X75889925Y-39658609D01*
X75889925Y-39658609D02*
X75842306Y-39753847D01*
X75842306Y-39753847D02*
X75842306Y-39991942D01*
X75842306Y-39991942D02*
X75889925Y-40087180D01*
X75889925Y-40087180D02*
X75937544Y-40134800D01*
X75937544Y-40134800D02*
X76032782Y-40182419D01*
X76032782Y-40182419D02*
X76318496Y-40182419D01*
X76318496Y-40182419D02*
X76413734Y-40134800D01*
X76413734Y-40134800D02*
X76461353Y-40087180D01*
X75651830Y-40277657D02*
X74889925Y-40277657D01*
X74128020Y-40182419D02*
X74699448Y-40182419D01*
X74413734Y-40182419D02*
X74413734Y-39182419D01*
X74413734Y-39182419D02*
X74508972Y-39325276D01*
X74508972Y-39325276D02*
X74604210Y-39420514D01*
X74604210Y-39420514D02*
X74699448Y-39468133D01*
X68942419Y-115337693D02*
X68942419Y-114766265D01*
X68942419Y-115051979D02*
X67942419Y-115051979D01*
X67942419Y-115051979D02*
X68085276Y-114956741D01*
X68085276Y-114956741D02*
X68180514Y-114861503D01*
X68180514Y-114861503D02*
X68228133Y-114766265D01*
X68037657Y-115718646D02*
X67990038Y-115766265D01*
X67990038Y-115766265D02*
X67942419Y-115861503D01*
X67942419Y-115861503D02*
X67942419Y-116099598D01*
X67942419Y-116099598D02*
X67990038Y-116194836D01*
X67990038Y-116194836D02*
X68037657Y-116242455D01*
X68037657Y-116242455D02*
X68132895Y-116290074D01*
X68132895Y-116290074D02*
X68228133Y-116290074D01*
X68228133Y-116290074D02*
X68370990Y-116242455D01*
X68370990Y-116242455D02*
X68942419Y-115671027D01*
X68942419Y-115671027D02*
X68942419Y-116290074D01*
X67942419Y-116575789D02*
X68942419Y-116909122D01*
X68942419Y-116909122D02*
X67942419Y-117242455D01*
X68942419Y-118337694D02*
X68275752Y-118337694D01*
X67942419Y-118337694D02*
X67990038Y-118290075D01*
X67990038Y-118290075D02*
X68037657Y-118337694D01*
X68037657Y-118337694D02*
X67990038Y-118385313D01*
X67990038Y-118385313D02*
X67942419Y-118337694D01*
X67942419Y-118337694D02*
X68037657Y-118337694D01*
X68275752Y-118813884D02*
X68942419Y-118813884D01*
X68370990Y-118813884D02*
X68323371Y-118861503D01*
X68323371Y-118861503D02*
X68275752Y-118956741D01*
X68275752Y-118956741D02*
X68275752Y-119099598D01*
X68275752Y-119099598D02*
X68323371Y-119194836D01*
X68323371Y-119194836D02*
X68418609Y-119242455D01*
X68418609Y-119242455D02*
X68942419Y-119242455D01*
X68275752Y-119718646D02*
X69275752Y-119718646D01*
X68323371Y-119718646D02*
X68275752Y-119813884D01*
X68275752Y-119813884D02*
X68275752Y-120004360D01*
X68275752Y-120004360D02*
X68323371Y-120099598D01*
X68323371Y-120099598D02*
X68370990Y-120147217D01*
X68370990Y-120147217D02*
X68466228Y-120194836D01*
X68466228Y-120194836D02*
X68751942Y-120194836D01*
X68751942Y-120194836D02*
X68847180Y-120147217D01*
X68847180Y-120147217D02*
X68894800Y-120099598D01*
X68894800Y-120099598D02*
X68942419Y-120004360D01*
X68942419Y-120004360D02*
X68942419Y-119813884D01*
X68942419Y-119813884D02*
X68894800Y-119718646D01*
X68275752Y-121051979D02*
X68942419Y-121051979D01*
X68275752Y-120623408D02*
X68799561Y-120623408D01*
X68799561Y-120623408D02*
X68894800Y-120671027D01*
X68894800Y-120671027D02*
X68942419Y-120766265D01*
X68942419Y-120766265D02*
X68942419Y-120909122D01*
X68942419Y-120909122D02*
X68894800Y-121004360D01*
X68894800Y-121004360D02*
X68847180Y-121051979D01*
X68275752Y-121385313D02*
X68275752Y-121766265D01*
X67942419Y-121528170D02*
X68799561Y-121528170D01*
X68799561Y-121528170D02*
X68894800Y-121575789D01*
X68894800Y-121575789D02*
X68942419Y-121671027D01*
X68942419Y-121671027D02*
X68942419Y-121766265D01*
D11*
X147201203Y-135810828D02*
X147915489Y-135810828D01*
X147915489Y-135810828D02*
X147915489Y-134310828D01*
X146058346Y-135810828D02*
X146058346Y-135025114D01*
X146058346Y-135025114D02*
X146129774Y-134882257D01*
X146129774Y-134882257D02*
X146272631Y-134810828D01*
X146272631Y-134810828D02*
X146558346Y-134810828D01*
X146558346Y-134810828D02*
X146701203Y-134882257D01*
X146058346Y-135739400D02*
X146201203Y-135810828D01*
X146201203Y-135810828D02*
X146558346Y-135810828D01*
X146558346Y-135810828D02*
X146701203Y-135739400D01*
X146701203Y-135739400D02*
X146772631Y-135596542D01*
X146772631Y-135596542D02*
X146772631Y-135453685D01*
X146772631Y-135453685D02*
X146701203Y-135310828D01*
X146701203Y-135310828D02*
X146558346Y-135239400D01*
X146558346Y-135239400D02*
X146201203Y-135239400D01*
X146201203Y-135239400D02*
X146058346Y-135167971D01*
X145486917Y-134810828D02*
X145129774Y-135810828D01*
X144772631Y-134810828D02*
X145129774Y-135810828D01*
X145129774Y-135810828D02*
X145272631Y-136167971D01*
X145272631Y-136167971D02*
X145344060Y-136239400D01*
X145344060Y-136239400D02*
X145486917Y-136310828D01*
X143629774Y-135739400D02*
X143772631Y-135810828D01*
X143772631Y-135810828D02*
X144058346Y-135810828D01*
X144058346Y-135810828D02*
X144201203Y-135739400D01*
X144201203Y-135739400D02*
X144272631Y-135596542D01*
X144272631Y-135596542D02*
X144272631Y-135025114D01*
X144272631Y-135025114D02*
X144201203Y-134882257D01*
X144201203Y-134882257D02*
X144058346Y-134810828D01*
X144058346Y-134810828D02*
X143772631Y-134810828D01*
X143772631Y-134810828D02*
X143629774Y-134882257D01*
X143629774Y-134882257D02*
X143558346Y-135025114D01*
X143558346Y-135025114D02*
X143558346Y-135167971D01*
X143558346Y-135167971D02*
X144272631Y-135310828D01*
X142915489Y-135810828D02*
X142915489Y-134810828D01*
X142915489Y-135096542D02*
X142844060Y-134953685D01*
X142844060Y-134953685D02*
X142772632Y-134882257D01*
X142772632Y-134882257D02*
X142629774Y-134810828D01*
X142629774Y-134810828D02*
X142486917Y-134810828D01*
X140915489Y-135739400D02*
X140701204Y-135810828D01*
X140701204Y-135810828D02*
X140344061Y-135810828D01*
X140344061Y-135810828D02*
X140201204Y-135739400D01*
X140201204Y-135739400D02*
X140129775Y-135667971D01*
X140129775Y-135667971D02*
X140058346Y-135525114D01*
X140058346Y-135525114D02*
X140058346Y-135382257D01*
X140058346Y-135382257D02*
X140129775Y-135239400D01*
X140129775Y-135239400D02*
X140201204Y-135167971D01*
X140201204Y-135167971D02*
X140344061Y-135096542D01*
X140344061Y-135096542D02*
X140629775Y-135025114D01*
X140629775Y-135025114D02*
X140772632Y-134953685D01*
X140772632Y-134953685D02*
X140844061Y-134882257D01*
X140844061Y-134882257D02*
X140915489Y-134739400D01*
X140915489Y-134739400D02*
X140915489Y-134596542D01*
X140915489Y-134596542D02*
X140844061Y-134453685D01*
X140844061Y-134453685D02*
X140772632Y-134382257D01*
X140772632Y-134382257D02*
X140629775Y-134310828D01*
X140629775Y-134310828D02*
X140272632Y-134310828D01*
X140272632Y-134310828D02*
X140058346Y-134382257D01*
X139629775Y-134810828D02*
X139058347Y-134810828D01*
X139415490Y-134310828D02*
X139415490Y-135596542D01*
X139415490Y-135596542D02*
X139344061Y-135739400D01*
X139344061Y-135739400D02*
X139201204Y-135810828D01*
X139201204Y-135810828D02*
X139058347Y-135810828D01*
X137915490Y-135810828D02*
X137915490Y-135025114D01*
X137915490Y-135025114D02*
X137986918Y-134882257D01*
X137986918Y-134882257D02*
X138129775Y-134810828D01*
X138129775Y-134810828D02*
X138415490Y-134810828D01*
X138415490Y-134810828D02*
X138558347Y-134882257D01*
X137915490Y-135739400D02*
X138058347Y-135810828D01*
X138058347Y-135810828D02*
X138415490Y-135810828D01*
X138415490Y-135810828D02*
X138558347Y-135739400D01*
X138558347Y-135739400D02*
X138629775Y-135596542D01*
X138629775Y-135596542D02*
X138629775Y-135453685D01*
X138629775Y-135453685D02*
X138558347Y-135310828D01*
X138558347Y-135310828D02*
X138415490Y-135239400D01*
X138415490Y-135239400D02*
X138058347Y-135239400D01*
X138058347Y-135239400D02*
X137915490Y-135167971D01*
X136558347Y-135739400D02*
X136701204Y-135810828D01*
X136701204Y-135810828D02*
X136986918Y-135810828D01*
X136986918Y-135810828D02*
X137129775Y-135739400D01*
X137129775Y-135739400D02*
X137201204Y-135667971D01*
X137201204Y-135667971D02*
X137272632Y-135525114D01*
X137272632Y-135525114D02*
X137272632Y-135096542D01*
X137272632Y-135096542D02*
X137201204Y-134953685D01*
X137201204Y-134953685D02*
X137129775Y-134882257D01*
X137129775Y-134882257D02*
X136986918Y-134810828D01*
X136986918Y-134810828D02*
X136701204Y-134810828D01*
X136701204Y-134810828D02*
X136558347Y-134882257D01*
X135915490Y-135810828D02*
X135915490Y-134310828D01*
X135772633Y-135239400D02*
X135344061Y-135810828D01*
X135344061Y-134810828D02*
X135915490Y-135382257D01*
D10*
X135316115Y-40182419D02*
X135316115Y-39182419D01*
X135316115Y-39658609D02*
X134744687Y-39658609D01*
X134744687Y-40182419D02*
X134744687Y-39182419D01*
X134268496Y-40182419D02*
X134268496Y-39182419D01*
X134268496Y-39182419D02*
X134030401Y-39182419D01*
X134030401Y-39182419D02*
X133887544Y-39230038D01*
X133887544Y-39230038D02*
X133792306Y-39325276D01*
X133792306Y-39325276D02*
X133744687Y-39420514D01*
X133744687Y-39420514D02*
X133697068Y-39610990D01*
X133697068Y-39610990D02*
X133697068Y-39753847D01*
X133697068Y-39753847D02*
X133744687Y-39944323D01*
X133744687Y-39944323D02*
X133792306Y-40039561D01*
X133792306Y-40039561D02*
X133887544Y-40134800D01*
X133887544Y-40134800D02*
X134030401Y-40182419D01*
X134030401Y-40182419D02*
X134268496Y-40182419D01*
X133268496Y-40182419D02*
X133268496Y-39182419D01*
X133268496Y-39182419D02*
X132935163Y-39896704D01*
X132935163Y-39896704D02*
X132601830Y-39182419D01*
X132601830Y-39182419D02*
X132601830Y-40182419D01*
X132125639Y-40182419D02*
X132125639Y-39182419D01*
X68942419Y-91490074D02*
X68942419Y-91013884D01*
X68942419Y-91013884D02*
X67942419Y-91013884D01*
X68942419Y-91823408D02*
X67942419Y-91823408D01*
X68942419Y-92299598D02*
X67942419Y-92299598D01*
X67942419Y-92299598D02*
X68942419Y-92871026D01*
X68942419Y-92871026D02*
X67942419Y-92871026D01*
X68418609Y-93347217D02*
X68418609Y-93680550D01*
X68942419Y-93823407D02*
X68942419Y-93347217D01*
X68942419Y-93347217D02*
X67942419Y-93347217D01*
X67942419Y-93347217D02*
X67942419Y-93823407D01*
X67942419Y-95204360D02*
X67942419Y-95394836D01*
X67942419Y-95394836D02*
X67990038Y-95490074D01*
X67990038Y-95490074D02*
X68085276Y-95585312D01*
X68085276Y-95585312D02*
X68275752Y-95632931D01*
X68275752Y-95632931D02*
X68609085Y-95632931D01*
X68609085Y-95632931D02*
X68799561Y-95585312D01*
X68799561Y-95585312D02*
X68894800Y-95490074D01*
X68894800Y-95490074D02*
X68942419Y-95394836D01*
X68942419Y-95394836D02*
X68942419Y-95204360D01*
X68942419Y-95204360D02*
X68894800Y-95109122D01*
X68894800Y-95109122D02*
X68799561Y-95013884D01*
X68799561Y-95013884D02*
X68609085Y-94966265D01*
X68609085Y-94966265D02*
X68275752Y-94966265D01*
X68275752Y-94966265D02*
X68085276Y-95013884D01*
X68085276Y-95013884D02*
X67990038Y-95109122D01*
X67990038Y-95109122D02*
X67942419Y-95204360D01*
X67942419Y-96061503D02*
X68751942Y-96061503D01*
X68751942Y-96061503D02*
X68847180Y-96109122D01*
X68847180Y-96109122D02*
X68894800Y-96156741D01*
X68894800Y-96156741D02*
X68942419Y-96251979D01*
X68942419Y-96251979D02*
X68942419Y-96442455D01*
X68942419Y-96442455D02*
X68894800Y-96537693D01*
X68894800Y-96537693D02*
X68847180Y-96585312D01*
X68847180Y-96585312D02*
X68751942Y-96632931D01*
X68751942Y-96632931D02*
X67942419Y-96632931D01*
X67942419Y-96966265D02*
X67942419Y-97537693D01*
X68942419Y-97251979D02*
X67942419Y-97251979D01*
X97316115Y-39182419D02*
X97316115Y-39991942D01*
X97316115Y-39991942D02*
X97268496Y-40087180D01*
X97268496Y-40087180D02*
X97220877Y-40134800D01*
X97220877Y-40134800D02*
X97125639Y-40182419D01*
X97125639Y-40182419D02*
X96935163Y-40182419D01*
X96935163Y-40182419D02*
X96839925Y-40134800D01*
X96839925Y-40134800D02*
X96792306Y-40087180D01*
X96792306Y-40087180D02*
X96744687Y-39991942D01*
X96744687Y-39991942D02*
X96744687Y-39182419D01*
X96316115Y-40134800D02*
X96173258Y-40182419D01*
X96173258Y-40182419D02*
X95935163Y-40182419D01*
X95935163Y-40182419D02*
X95839925Y-40134800D01*
X95839925Y-40134800D02*
X95792306Y-40087180D01*
X95792306Y-40087180D02*
X95744687Y-39991942D01*
X95744687Y-39991942D02*
X95744687Y-39896704D01*
X95744687Y-39896704D02*
X95792306Y-39801466D01*
X95792306Y-39801466D02*
X95839925Y-39753847D01*
X95839925Y-39753847D02*
X95935163Y-39706228D01*
X95935163Y-39706228D02*
X96125639Y-39658609D01*
X96125639Y-39658609D02*
X96220877Y-39610990D01*
X96220877Y-39610990D02*
X96268496Y-39563371D01*
X96268496Y-39563371D02*
X96316115Y-39468133D01*
X96316115Y-39468133D02*
X96316115Y-39372895D01*
X96316115Y-39372895D02*
X96268496Y-39277657D01*
X96268496Y-39277657D02*
X96220877Y-39230038D01*
X96220877Y-39230038D02*
X96125639Y-39182419D01*
X96125639Y-39182419D02*
X95887544Y-39182419D01*
X95887544Y-39182419D02*
X95744687Y-39230038D01*
X94982782Y-39658609D02*
X94839925Y-39706228D01*
X94839925Y-39706228D02*
X94792306Y-39753847D01*
X94792306Y-39753847D02*
X94744687Y-39849085D01*
X94744687Y-39849085D02*
X94744687Y-39991942D01*
X94744687Y-39991942D02*
X94792306Y-40087180D01*
X94792306Y-40087180D02*
X94839925Y-40134800D01*
X94839925Y-40134800D02*
X94935163Y-40182419D01*
X94935163Y-40182419D02*
X95316115Y-40182419D01*
X95316115Y-40182419D02*
X95316115Y-39182419D01*
X95316115Y-39182419D02*
X94982782Y-39182419D01*
X94982782Y-39182419D02*
X94887544Y-39230038D01*
X94887544Y-39230038D02*
X94839925Y-39277657D01*
X94839925Y-39277657D02*
X94792306Y-39372895D01*
X94792306Y-39372895D02*
X94792306Y-39468133D01*
X94792306Y-39468133D02*
X94839925Y-39563371D01*
X94839925Y-39563371D02*
X94887544Y-39610990D01*
X94887544Y-39610990D02*
X94982782Y-39658609D01*
X94982782Y-39658609D02*
X95316115Y-39658609D01*
X94411353Y-39182419D02*
X93792306Y-39182419D01*
X93792306Y-39182419D02*
X94125639Y-39563371D01*
X94125639Y-39563371D02*
X93982782Y-39563371D01*
X93982782Y-39563371D02*
X93887544Y-39610990D01*
X93887544Y-39610990D02*
X93839925Y-39658609D01*
X93839925Y-39658609D02*
X93792306Y-39753847D01*
X93792306Y-39753847D02*
X93792306Y-39991942D01*
X93792306Y-39991942D02*
X93839925Y-40087180D01*
X93839925Y-40087180D02*
X93887544Y-40134800D01*
X93887544Y-40134800D02*
X93982782Y-40182419D01*
X93982782Y-40182419D02*
X94268496Y-40182419D01*
X94268496Y-40182419D02*
X94363734Y-40134800D01*
X94363734Y-40134800D02*
X94411353Y-40087180D01*
X93601830Y-40277657D02*
X92839925Y-40277657D01*
X92411353Y-39182419D02*
X92316115Y-39182419D01*
X92316115Y-39182419D02*
X92220877Y-39230038D01*
X92220877Y-39230038D02*
X92173258Y-39277657D01*
X92173258Y-39277657D02*
X92125639Y-39372895D01*
X92125639Y-39372895D02*
X92078020Y-39563371D01*
X92078020Y-39563371D02*
X92078020Y-39801466D01*
X92078020Y-39801466D02*
X92125639Y-39991942D01*
X92125639Y-39991942D02*
X92173258Y-40087180D01*
X92173258Y-40087180D02*
X92220877Y-40134800D01*
X92220877Y-40134800D02*
X92316115Y-40182419D01*
X92316115Y-40182419D02*
X92411353Y-40182419D01*
X92411353Y-40182419D02*
X92506591Y-40134800D01*
X92506591Y-40134800D02*
X92554210Y-40087180D01*
X92554210Y-40087180D02*
X92601829Y-39991942D01*
X92601829Y-39991942D02*
X92649448Y-39801466D01*
X92649448Y-39801466D02*
X92649448Y-39563371D01*
X92649448Y-39563371D02*
X92601829Y-39372895D01*
X92601829Y-39372895D02*
X92554210Y-39277657D01*
X92554210Y-39277657D02*
X92506591Y-39230038D01*
X92506591Y-39230038D02*
X92411353Y-39182419D01*
X231692419Y-80813884D02*
X232501942Y-80813884D01*
X232501942Y-80813884D02*
X232597180Y-80861503D01*
X232597180Y-80861503D02*
X232644800Y-80909122D01*
X232644800Y-80909122D02*
X232692419Y-81004360D01*
X232692419Y-81004360D02*
X232692419Y-81194836D01*
X232692419Y-81194836D02*
X232644800Y-81290074D01*
X232644800Y-81290074D02*
X232597180Y-81337693D01*
X232597180Y-81337693D02*
X232501942Y-81385312D01*
X232501942Y-81385312D02*
X231692419Y-81385312D01*
X232644800Y-81813884D02*
X232692419Y-81956741D01*
X232692419Y-81956741D02*
X232692419Y-82194836D01*
X232692419Y-82194836D02*
X232644800Y-82290074D01*
X232644800Y-82290074D02*
X232597180Y-82337693D01*
X232597180Y-82337693D02*
X232501942Y-82385312D01*
X232501942Y-82385312D02*
X232406704Y-82385312D01*
X232406704Y-82385312D02*
X232311466Y-82337693D01*
X232311466Y-82337693D02*
X232263847Y-82290074D01*
X232263847Y-82290074D02*
X232216228Y-82194836D01*
X232216228Y-82194836D02*
X232168609Y-82004360D01*
X232168609Y-82004360D02*
X232120990Y-81909122D01*
X232120990Y-81909122D02*
X232073371Y-81861503D01*
X232073371Y-81861503D02*
X231978133Y-81813884D01*
X231978133Y-81813884D02*
X231882895Y-81813884D01*
X231882895Y-81813884D02*
X231787657Y-81861503D01*
X231787657Y-81861503D02*
X231740038Y-81909122D01*
X231740038Y-81909122D02*
X231692419Y-82004360D01*
X231692419Y-82004360D02*
X231692419Y-82242455D01*
X231692419Y-82242455D02*
X231740038Y-82385312D01*
X232168609Y-83147217D02*
X232216228Y-83290074D01*
X232216228Y-83290074D02*
X232263847Y-83337693D01*
X232263847Y-83337693D02*
X232359085Y-83385312D01*
X232359085Y-83385312D02*
X232501942Y-83385312D01*
X232501942Y-83385312D02*
X232597180Y-83337693D01*
X232597180Y-83337693D02*
X232644800Y-83290074D01*
X232644800Y-83290074D02*
X232692419Y-83194836D01*
X232692419Y-83194836D02*
X232692419Y-82813884D01*
X232692419Y-82813884D02*
X231692419Y-82813884D01*
X231692419Y-82813884D02*
X231692419Y-83147217D01*
X231692419Y-83147217D02*
X231740038Y-83242455D01*
X231740038Y-83242455D02*
X231787657Y-83290074D01*
X231787657Y-83290074D02*
X231882895Y-83337693D01*
X231882895Y-83337693D02*
X231978133Y-83337693D01*
X231978133Y-83337693D02*
X232073371Y-83290074D01*
X232073371Y-83290074D02*
X232120990Y-83242455D01*
X232120990Y-83242455D02*
X232168609Y-83147217D01*
X232168609Y-83147217D02*
X232168609Y-82813884D01*
X232311466Y-83813884D02*
X232311466Y-84575789D01*
X232597180Y-85623407D02*
X232644800Y-85575788D01*
X232644800Y-85575788D02*
X232692419Y-85432931D01*
X232692419Y-85432931D02*
X232692419Y-85337693D01*
X232692419Y-85337693D02*
X232644800Y-85194836D01*
X232644800Y-85194836D02*
X232549561Y-85099598D01*
X232549561Y-85099598D02*
X232454323Y-85051979D01*
X232454323Y-85051979D02*
X232263847Y-85004360D01*
X232263847Y-85004360D02*
X232120990Y-85004360D01*
X232120990Y-85004360D02*
X231930514Y-85051979D01*
X231930514Y-85051979D02*
X231835276Y-85099598D01*
X231835276Y-85099598D02*
X231740038Y-85194836D01*
X231740038Y-85194836D02*
X231692419Y-85337693D01*
X231692419Y-85337693D02*
X231692419Y-85432931D01*
X231692419Y-85432931D02*
X231740038Y-85575788D01*
X231740038Y-85575788D02*
X231787657Y-85623407D01*
X231692419Y-87004360D02*
X231692419Y-87194836D01*
X231692419Y-87194836D02*
X231740038Y-87290074D01*
X231740038Y-87290074D02*
X231835276Y-87385312D01*
X231835276Y-87385312D02*
X232025752Y-87432931D01*
X232025752Y-87432931D02*
X232359085Y-87432931D01*
X232359085Y-87432931D02*
X232549561Y-87385312D01*
X232549561Y-87385312D02*
X232644800Y-87290074D01*
X232644800Y-87290074D02*
X232692419Y-87194836D01*
X232692419Y-87194836D02*
X232692419Y-87004360D01*
X232692419Y-87004360D02*
X232644800Y-86909122D01*
X232644800Y-86909122D02*
X232549561Y-86813884D01*
X232549561Y-86813884D02*
X232359085Y-86766265D01*
X232359085Y-86766265D02*
X232025752Y-86766265D01*
X232025752Y-86766265D02*
X231835276Y-86813884D01*
X231835276Y-86813884D02*
X231740038Y-86909122D01*
X231740038Y-86909122D02*
X231692419Y-87004360D01*
X231692419Y-87718646D02*
X231692419Y-88290074D01*
X232692419Y-88004360D02*
X231692419Y-88004360D01*
X231740038Y-89147217D02*
X231692419Y-89051979D01*
X231692419Y-89051979D02*
X231692419Y-88909122D01*
X231692419Y-88909122D02*
X231740038Y-88766265D01*
X231740038Y-88766265D02*
X231835276Y-88671027D01*
X231835276Y-88671027D02*
X231930514Y-88623408D01*
X231930514Y-88623408D02*
X232120990Y-88575789D01*
X232120990Y-88575789D02*
X232263847Y-88575789D01*
X232263847Y-88575789D02*
X232454323Y-88623408D01*
X232454323Y-88623408D02*
X232549561Y-88671027D01*
X232549561Y-88671027D02*
X232644800Y-88766265D01*
X232644800Y-88766265D02*
X232692419Y-88909122D01*
X232692419Y-88909122D02*
X232692419Y-89004360D01*
X232692419Y-89004360D02*
X232644800Y-89147217D01*
X232644800Y-89147217D02*
X232597180Y-89194836D01*
X232597180Y-89194836D02*
X232263847Y-89194836D01*
X232263847Y-89194836D02*
X232263847Y-89004360D01*
X221454988Y-132598922D02*
X221454988Y-131598922D01*
X221454988Y-131598922D02*
X221121655Y-132313207D01*
X221121655Y-132313207D02*
X220788322Y-131598922D01*
X220788322Y-131598922D02*
X220788322Y-132598922D01*
X220312131Y-132598922D02*
X220312131Y-131932255D01*
X220312131Y-131598922D02*
X220359750Y-131646541D01*
X220359750Y-131646541D02*
X220312131Y-131694160D01*
X220312131Y-131694160D02*
X220264512Y-131646541D01*
X220264512Y-131646541D02*
X220312131Y-131598922D01*
X220312131Y-131598922D02*
X220312131Y-131694160D01*
X219835941Y-132598922D02*
X219835941Y-131598922D01*
X219740703Y-132217969D02*
X219454989Y-132598922D01*
X219454989Y-131932255D02*
X219835941Y-132313207D01*
X219026417Y-132598922D02*
X219026417Y-131932255D01*
X219026417Y-132122731D02*
X218978798Y-132027493D01*
X218978798Y-132027493D02*
X218931179Y-131979874D01*
X218931179Y-131979874D02*
X218835941Y-131932255D01*
X218835941Y-131932255D02*
X218740703Y-131932255D01*
X218264512Y-132598922D02*
X218359750Y-132551303D01*
X218359750Y-132551303D02*
X218407369Y-132503683D01*
X218407369Y-132503683D02*
X218454988Y-132408445D01*
X218454988Y-132408445D02*
X218454988Y-132122731D01*
X218454988Y-132122731D02*
X218407369Y-132027493D01*
X218407369Y-132027493D02*
X218359750Y-131979874D01*
X218359750Y-131979874D02*
X218264512Y-131932255D01*
X218264512Y-131932255D02*
X218121655Y-131932255D01*
X218121655Y-131932255D02*
X218026417Y-131979874D01*
X218026417Y-131979874D02*
X217978798Y-132027493D01*
X217978798Y-132027493D02*
X217931179Y-132122731D01*
X217931179Y-132122731D02*
X217931179Y-132408445D01*
X217931179Y-132408445D02*
X217978798Y-132503683D01*
X217978798Y-132503683D02*
X218026417Y-132551303D01*
X218026417Y-132551303D02*
X218121655Y-132598922D01*
X218121655Y-132598922D02*
X218264512Y-132598922D01*
X217169274Y-132075112D02*
X217026417Y-132122731D01*
X217026417Y-132122731D02*
X216978798Y-132170350D01*
X216978798Y-132170350D02*
X216931179Y-132265588D01*
X216931179Y-132265588D02*
X216931179Y-132408445D01*
X216931179Y-132408445D02*
X216978798Y-132503683D01*
X216978798Y-132503683D02*
X217026417Y-132551303D01*
X217026417Y-132551303D02*
X217121655Y-132598922D01*
X217121655Y-132598922D02*
X217502607Y-132598922D01*
X217502607Y-132598922D02*
X217502607Y-131598922D01*
X217502607Y-131598922D02*
X217169274Y-131598922D01*
X217169274Y-131598922D02*
X217074036Y-131646541D01*
X217074036Y-131646541D02*
X217026417Y-131694160D01*
X217026417Y-131694160D02*
X216978798Y-131789398D01*
X216978798Y-131789398D02*
X216978798Y-131884636D01*
X216978798Y-131884636D02*
X217026417Y-131979874D01*
X217026417Y-131979874D02*
X217074036Y-132027493D01*
X217074036Y-132027493D02*
X217169274Y-132075112D01*
X217169274Y-132075112D02*
X217502607Y-132075112D01*
X216074036Y-131932255D02*
X216074036Y-132598922D01*
X216502607Y-131932255D02*
X216502607Y-132456064D01*
X216502607Y-132456064D02*
X216454988Y-132551303D01*
X216454988Y-132551303D02*
X216359750Y-132598922D01*
X216359750Y-132598922D02*
X216216893Y-132598922D01*
X216216893Y-132598922D02*
X216121655Y-132551303D01*
X216121655Y-132551303D02*
X216074036Y-132503683D01*
X215645464Y-132551303D02*
X215550226Y-132598922D01*
X215550226Y-132598922D02*
X215359750Y-132598922D01*
X215359750Y-132598922D02*
X215264512Y-132551303D01*
X215264512Y-132551303D02*
X215216893Y-132456064D01*
X215216893Y-132456064D02*
X215216893Y-132408445D01*
X215216893Y-132408445D02*
X215264512Y-132313207D01*
X215264512Y-132313207D02*
X215359750Y-132265588D01*
X215359750Y-132265588D02*
X215502607Y-132265588D01*
X215502607Y-132265588D02*
X215597845Y-132217969D01*
X215597845Y-132217969D02*
X215645464Y-132122731D01*
X215645464Y-132122731D02*
X215645464Y-132075112D01*
X215645464Y-132075112D02*
X215597845Y-131979874D01*
X215597845Y-131979874D02*
X215502607Y-131932255D01*
X215502607Y-131932255D02*
X215359750Y-131932255D01*
X215359750Y-131932255D02*
X215264512Y-131979874D01*
D12*
X95203333Y-104349831D02*
X95536666Y-103873640D01*
X95774761Y-104349831D02*
X95774761Y-103349831D01*
X95774761Y-103349831D02*
X95393809Y-103349831D01*
X95393809Y-103349831D02*
X95298571Y-103397450D01*
X95298571Y-103397450D02*
X95250952Y-103445069D01*
X95250952Y-103445069D02*
X95203333Y-103540307D01*
X95203333Y-103540307D02*
X95203333Y-103683164D01*
X95203333Y-103683164D02*
X95250952Y-103778402D01*
X95250952Y-103778402D02*
X95298571Y-103826021D01*
X95298571Y-103826021D02*
X95393809Y-103873640D01*
X95393809Y-103873640D02*
X95774761Y-103873640D01*
X94774761Y-104349831D02*
X94774761Y-103349831D01*
X94774761Y-103349831D02*
X94393809Y-103349831D01*
X94393809Y-103349831D02*
X94298571Y-103397450D01*
X94298571Y-103397450D02*
X94250952Y-103445069D01*
X94250952Y-103445069D02*
X94203333Y-103540307D01*
X94203333Y-103540307D02*
X94203333Y-103683164D01*
X94203333Y-103683164D02*
X94250952Y-103778402D01*
X94250952Y-103778402D02*
X94298571Y-103826021D01*
X94298571Y-103826021D02*
X94393809Y-103873640D01*
X94393809Y-103873640D02*
X94774761Y-103873640D01*
X93774761Y-104349831D02*
X93774761Y-103349831D01*
X91965238Y-104254592D02*
X92012857Y-104302212D01*
X92012857Y-104302212D02*
X92155714Y-104349831D01*
X92155714Y-104349831D02*
X92250952Y-104349831D01*
X92250952Y-104349831D02*
X92393809Y-104302212D01*
X92393809Y-104302212D02*
X92489047Y-104206973D01*
X92489047Y-104206973D02*
X92536666Y-104111735D01*
X92536666Y-104111735D02*
X92584285Y-103921259D01*
X92584285Y-103921259D02*
X92584285Y-103778402D01*
X92584285Y-103778402D02*
X92536666Y-103587926D01*
X92536666Y-103587926D02*
X92489047Y-103492688D01*
X92489047Y-103492688D02*
X92393809Y-103397450D01*
X92393809Y-103397450D02*
X92250952Y-103349831D01*
X92250952Y-103349831D02*
X92155714Y-103349831D01*
X92155714Y-103349831D02*
X92012857Y-103397450D01*
X92012857Y-103397450D02*
X91965238Y-103445069D01*
X91536666Y-104349831D02*
X91536666Y-103349831D01*
X91536666Y-103349831D02*
X91203333Y-104064116D01*
X91203333Y-104064116D02*
X90870000Y-103349831D01*
X90870000Y-103349831D02*
X90870000Y-104349831D01*
X90108095Y-104683164D02*
X90346190Y-104683164D01*
X90346190Y-104683164D02*
X90346190Y-103254592D01*
X90346190Y-103254592D02*
X90108095Y-103254592D01*
X89822380Y-104349831D02*
X89298571Y-103683164D01*
X89822380Y-103683164D02*
X89298571Y-104349831D01*
X89012856Y-104683164D02*
X88774761Y-104683164D01*
X88774761Y-104683164D02*
X88774761Y-103254592D01*
X88774761Y-103254592D02*
X89012856Y-103254592D01*
X86917618Y-104254592D02*
X86965237Y-104302212D01*
X86965237Y-104302212D02*
X87108094Y-104349831D01*
X87108094Y-104349831D02*
X87203332Y-104349831D01*
X87203332Y-104349831D02*
X87346189Y-104302212D01*
X87346189Y-104302212D02*
X87441427Y-104206973D01*
X87441427Y-104206973D02*
X87489046Y-104111735D01*
X87489046Y-104111735D02*
X87536665Y-103921259D01*
X87536665Y-103921259D02*
X87536665Y-103778402D01*
X87536665Y-103778402D02*
X87489046Y-103587926D01*
X87489046Y-103587926D02*
X87441427Y-103492688D01*
X87441427Y-103492688D02*
X87346189Y-103397450D01*
X87346189Y-103397450D02*
X87203332Y-103349831D01*
X87203332Y-103349831D02*
X87108094Y-103349831D01*
X87108094Y-103349831D02*
X86965237Y-103397450D01*
X86965237Y-103397450D02*
X86917618Y-103445069D01*
X86155713Y-103826021D02*
X86012856Y-103873640D01*
X86012856Y-103873640D02*
X85965237Y-103921259D01*
X85965237Y-103921259D02*
X85917618Y-104016497D01*
X85917618Y-104016497D02*
X85917618Y-104159354D01*
X85917618Y-104159354D02*
X85965237Y-104254592D01*
X85965237Y-104254592D02*
X86012856Y-104302212D01*
X86012856Y-104302212D02*
X86108094Y-104349831D01*
X86108094Y-104349831D02*
X86489046Y-104349831D01*
X86489046Y-104349831D02*
X86489046Y-103349831D01*
X86489046Y-103349831D02*
X86155713Y-103349831D01*
X86155713Y-103349831D02*
X86060475Y-103397450D01*
X86060475Y-103397450D02*
X86012856Y-103445069D01*
X86012856Y-103445069D02*
X85965237Y-103540307D01*
X85965237Y-103540307D02*
X85965237Y-103635545D01*
X85965237Y-103635545D02*
X86012856Y-103730783D01*
X86012856Y-103730783D02*
X86060475Y-103778402D01*
X86060475Y-103778402D02*
X86155713Y-103826021D01*
X86155713Y-103826021D02*
X86489046Y-103826021D01*
X94369999Y-104959775D02*
X94369999Y-105674060D01*
X94369999Y-105674060D02*
X94417618Y-105816917D01*
X94417618Y-105816917D02*
X94512856Y-105912156D01*
X94512856Y-105912156D02*
X94655713Y-105959775D01*
X94655713Y-105959775D02*
X94750951Y-105959775D01*
X93560475Y-105435965D02*
X93893808Y-105435965D01*
X93893808Y-105959775D02*
X93893808Y-104959775D01*
X93893808Y-104959775D02*
X93417618Y-104959775D01*
X92703332Y-105435965D02*
X92560475Y-105483584D01*
X92560475Y-105483584D02*
X92512856Y-105531203D01*
X92512856Y-105531203D02*
X92465237Y-105626441D01*
X92465237Y-105626441D02*
X92465237Y-105769298D01*
X92465237Y-105769298D02*
X92512856Y-105864536D01*
X92512856Y-105864536D02*
X92560475Y-105912156D01*
X92560475Y-105912156D02*
X92655713Y-105959775D01*
X92655713Y-105959775D02*
X93036665Y-105959775D01*
X93036665Y-105959775D02*
X93036665Y-104959775D01*
X93036665Y-104959775D02*
X92703332Y-104959775D01*
X92703332Y-104959775D02*
X92608094Y-105007394D01*
X92608094Y-105007394D02*
X92560475Y-105055013D01*
X92560475Y-105055013D02*
X92512856Y-105150251D01*
X92512856Y-105150251D02*
X92512856Y-105245489D01*
X92512856Y-105245489D02*
X92560475Y-105340727D01*
X92560475Y-105340727D02*
X92608094Y-105388346D01*
X92608094Y-105388346D02*
X92703332Y-105435965D01*
X92703332Y-105435965D02*
X93036665Y-105435965D01*
X91989046Y-105912156D02*
X91989046Y-105959775D01*
X91989046Y-105959775D02*
X92036665Y-106055013D01*
X92036665Y-106055013D02*
X92084284Y-106102632D01*
X90798570Y-105959775D02*
X90798570Y-104959775D01*
X90798570Y-104959775D02*
X90417618Y-104959775D01*
X90417618Y-104959775D02*
X90322380Y-105007394D01*
X90322380Y-105007394D02*
X90274761Y-105055013D01*
X90274761Y-105055013D02*
X90227142Y-105150251D01*
X90227142Y-105150251D02*
X90227142Y-105293108D01*
X90227142Y-105293108D02*
X90274761Y-105388346D01*
X90274761Y-105388346D02*
X90322380Y-105435965D01*
X90322380Y-105435965D02*
X90417618Y-105483584D01*
X90417618Y-105483584D02*
X90798570Y-105483584D01*
X89798570Y-105864536D02*
X89750951Y-105912156D01*
X89750951Y-105912156D02*
X89798570Y-105959775D01*
X89798570Y-105959775D02*
X89846189Y-105912156D01*
X89846189Y-105912156D02*
X89798570Y-105864536D01*
X89798570Y-105864536D02*
X89798570Y-105959775D01*
X89322380Y-105435965D02*
X88989047Y-105435965D01*
X88846190Y-105959775D02*
X89322380Y-105959775D01*
X89322380Y-105959775D02*
X89322380Y-104959775D01*
X89322380Y-104959775D02*
X88846190Y-104959775D01*
X88417618Y-105293108D02*
X88417618Y-105959775D01*
X88417618Y-105388346D02*
X88369999Y-105340727D01*
X88369999Y-105340727D02*
X88274761Y-105293108D01*
X88274761Y-105293108D02*
X88131904Y-105293108D01*
X88131904Y-105293108D02*
X88036666Y-105340727D01*
X88036666Y-105340727D02*
X87989047Y-105435965D01*
X87989047Y-105435965D02*
X87989047Y-105959775D01*
X87084285Y-105293108D02*
X87084285Y-106102632D01*
X87084285Y-106102632D02*
X87131904Y-106197870D01*
X87131904Y-106197870D02*
X87179523Y-106245489D01*
X87179523Y-106245489D02*
X87274761Y-106293108D01*
X87274761Y-106293108D02*
X87417618Y-106293108D01*
X87417618Y-106293108D02*
X87512856Y-106245489D01*
X87084285Y-105912156D02*
X87179523Y-105959775D01*
X87179523Y-105959775D02*
X87369999Y-105959775D01*
X87369999Y-105959775D02*
X87465237Y-105912156D01*
X87465237Y-105912156D02*
X87512856Y-105864536D01*
X87512856Y-105864536D02*
X87560475Y-105769298D01*
X87560475Y-105769298D02*
X87560475Y-105483584D01*
X87560475Y-105483584D02*
X87512856Y-105388346D01*
X87512856Y-105388346D02*
X87465237Y-105340727D01*
X87465237Y-105340727D02*
X87369999Y-105293108D01*
X87369999Y-105293108D02*
X87179523Y-105293108D01*
X87179523Y-105293108D02*
X87084285Y-105340727D01*
X94155713Y-106664957D02*
X94108094Y-106617338D01*
X94108094Y-106617338D02*
X94012856Y-106569719D01*
X94012856Y-106569719D02*
X93774761Y-106569719D01*
X93774761Y-106569719D02*
X93679523Y-106617338D01*
X93679523Y-106617338D02*
X93631904Y-106664957D01*
X93631904Y-106664957D02*
X93584285Y-106760195D01*
X93584285Y-106760195D02*
X93584285Y-106855433D01*
X93584285Y-106855433D02*
X93631904Y-106998290D01*
X93631904Y-106998290D02*
X94203332Y-107569719D01*
X94203332Y-107569719D02*
X93584285Y-107569719D01*
X92965237Y-106569719D02*
X92869999Y-106569719D01*
X92869999Y-106569719D02*
X92774761Y-106617338D01*
X92774761Y-106617338D02*
X92727142Y-106664957D01*
X92727142Y-106664957D02*
X92679523Y-106760195D01*
X92679523Y-106760195D02*
X92631904Y-106950671D01*
X92631904Y-106950671D02*
X92631904Y-107188766D01*
X92631904Y-107188766D02*
X92679523Y-107379242D01*
X92679523Y-107379242D02*
X92727142Y-107474480D01*
X92727142Y-107474480D02*
X92774761Y-107522100D01*
X92774761Y-107522100D02*
X92869999Y-107569719D01*
X92869999Y-107569719D02*
X92965237Y-107569719D01*
X92965237Y-107569719D02*
X93060475Y-107522100D01*
X93060475Y-107522100D02*
X93108094Y-107474480D01*
X93108094Y-107474480D02*
X93155713Y-107379242D01*
X93155713Y-107379242D02*
X93203332Y-107188766D01*
X93203332Y-107188766D02*
X93203332Y-106950671D01*
X93203332Y-106950671D02*
X93155713Y-106760195D01*
X93155713Y-106760195D02*
X93108094Y-106664957D01*
X93108094Y-106664957D02*
X93060475Y-106617338D01*
X93060475Y-106617338D02*
X92965237Y-106569719D01*
X92250951Y-106664957D02*
X92203332Y-106617338D01*
X92203332Y-106617338D02*
X92108094Y-106569719D01*
X92108094Y-106569719D02*
X91869999Y-106569719D01*
X91869999Y-106569719D02*
X91774761Y-106617338D01*
X91774761Y-106617338D02*
X91727142Y-106664957D01*
X91727142Y-106664957D02*
X91679523Y-106760195D01*
X91679523Y-106760195D02*
X91679523Y-106855433D01*
X91679523Y-106855433D02*
X91727142Y-106998290D01*
X91727142Y-106998290D02*
X92298570Y-107569719D01*
X92298570Y-107569719D02*
X91679523Y-107569719D01*
X90822380Y-106569719D02*
X91012856Y-106569719D01*
X91012856Y-106569719D02*
X91108094Y-106617338D01*
X91108094Y-106617338D02*
X91155713Y-106664957D01*
X91155713Y-106664957D02*
X91250951Y-106807814D01*
X91250951Y-106807814D02*
X91298570Y-106998290D01*
X91298570Y-106998290D02*
X91298570Y-107379242D01*
X91298570Y-107379242D02*
X91250951Y-107474480D01*
X91250951Y-107474480D02*
X91203332Y-107522100D01*
X91203332Y-107522100D02*
X91108094Y-107569719D01*
X91108094Y-107569719D02*
X90917618Y-107569719D01*
X90917618Y-107569719D02*
X90822380Y-107522100D01*
X90822380Y-107522100D02*
X90774761Y-107474480D01*
X90774761Y-107474480D02*
X90727142Y-107379242D01*
X90727142Y-107379242D02*
X90727142Y-107141147D01*
X90727142Y-107141147D02*
X90774761Y-107045909D01*
X90774761Y-107045909D02*
X90822380Y-106998290D01*
X90822380Y-106998290D02*
X90917618Y-106950671D01*
X90917618Y-106950671D02*
X91108094Y-106950671D01*
X91108094Y-106950671D02*
X91203332Y-106998290D01*
X91203332Y-106998290D02*
X91250951Y-107045909D01*
X91250951Y-107045909D02*
X91298570Y-107141147D01*
X90298570Y-107188766D02*
X89536666Y-107188766D01*
X88869999Y-106569719D02*
X88774761Y-106569719D01*
X88774761Y-106569719D02*
X88679523Y-106617338D01*
X88679523Y-106617338D02*
X88631904Y-106664957D01*
X88631904Y-106664957D02*
X88584285Y-106760195D01*
X88584285Y-106760195D02*
X88536666Y-106950671D01*
X88536666Y-106950671D02*
X88536666Y-107188766D01*
X88536666Y-107188766D02*
X88584285Y-107379242D01*
X88584285Y-107379242D02*
X88631904Y-107474480D01*
X88631904Y-107474480D02*
X88679523Y-107522100D01*
X88679523Y-107522100D02*
X88774761Y-107569719D01*
X88774761Y-107569719D02*
X88869999Y-107569719D01*
X88869999Y-107569719D02*
X88965237Y-107522100D01*
X88965237Y-107522100D02*
X89012856Y-107474480D01*
X89012856Y-107474480D02*
X89060475Y-107379242D01*
X89060475Y-107379242D02*
X89108094Y-107188766D01*
X89108094Y-107188766D02*
X89108094Y-106950671D01*
X89108094Y-106950671D02*
X89060475Y-106760195D01*
X89060475Y-106760195D02*
X89012856Y-106664957D01*
X89012856Y-106664957D02*
X88965237Y-106617338D01*
X88965237Y-106617338D02*
X88869999Y-106569719D01*
X88203332Y-106569719D02*
X87584285Y-106569719D01*
X87584285Y-106569719D02*
X87917618Y-106950671D01*
X87917618Y-106950671D02*
X87774761Y-106950671D01*
X87774761Y-106950671D02*
X87679523Y-106998290D01*
X87679523Y-106998290D02*
X87631904Y-107045909D01*
X87631904Y-107045909D02*
X87584285Y-107141147D01*
X87584285Y-107141147D02*
X87584285Y-107379242D01*
X87584285Y-107379242D02*
X87631904Y-107474480D01*
X87631904Y-107474480D02*
X87679523Y-107522100D01*
X87679523Y-107522100D02*
X87774761Y-107569719D01*
X87774761Y-107569719D02*
X88060475Y-107569719D01*
X88060475Y-107569719D02*
X88155713Y-107522100D01*
X88155713Y-107522100D02*
X88203332Y-107474480D01*
X95822380Y-109179663D02*
X95822380Y-108179663D01*
X95822380Y-108179663D02*
X95441428Y-108179663D01*
X95441428Y-108179663D02*
X95346190Y-108227282D01*
X95346190Y-108227282D02*
X95298571Y-108274901D01*
X95298571Y-108274901D02*
X95250952Y-108370139D01*
X95250952Y-108370139D02*
X95250952Y-108512996D01*
X95250952Y-108512996D02*
X95298571Y-108608234D01*
X95298571Y-108608234D02*
X95346190Y-108655853D01*
X95346190Y-108655853D02*
X95441428Y-108703472D01*
X95441428Y-108703472D02*
X95822380Y-108703472D01*
X94250952Y-109084424D02*
X94298571Y-109132044D01*
X94298571Y-109132044D02*
X94441428Y-109179663D01*
X94441428Y-109179663D02*
X94536666Y-109179663D01*
X94536666Y-109179663D02*
X94679523Y-109132044D01*
X94679523Y-109132044D02*
X94774761Y-109036805D01*
X94774761Y-109036805D02*
X94822380Y-108941567D01*
X94822380Y-108941567D02*
X94869999Y-108751091D01*
X94869999Y-108751091D02*
X94869999Y-108608234D01*
X94869999Y-108608234D02*
X94822380Y-108417758D01*
X94822380Y-108417758D02*
X94774761Y-108322520D01*
X94774761Y-108322520D02*
X94679523Y-108227282D01*
X94679523Y-108227282D02*
X94536666Y-108179663D01*
X94536666Y-108179663D02*
X94441428Y-108179663D01*
X94441428Y-108179663D02*
X94298571Y-108227282D01*
X94298571Y-108227282D02*
X94250952Y-108274901D01*
X93489047Y-108655853D02*
X93346190Y-108703472D01*
X93346190Y-108703472D02*
X93298571Y-108751091D01*
X93298571Y-108751091D02*
X93250952Y-108846329D01*
X93250952Y-108846329D02*
X93250952Y-108989186D01*
X93250952Y-108989186D02*
X93298571Y-109084424D01*
X93298571Y-109084424D02*
X93346190Y-109132044D01*
X93346190Y-109132044D02*
X93441428Y-109179663D01*
X93441428Y-109179663D02*
X93822380Y-109179663D01*
X93822380Y-109179663D02*
X93822380Y-108179663D01*
X93822380Y-108179663D02*
X93489047Y-108179663D01*
X93489047Y-108179663D02*
X93393809Y-108227282D01*
X93393809Y-108227282D02*
X93346190Y-108274901D01*
X93346190Y-108274901D02*
X93298571Y-108370139D01*
X93298571Y-108370139D02*
X93298571Y-108465377D01*
X93298571Y-108465377D02*
X93346190Y-108560615D01*
X93346190Y-108560615D02*
X93393809Y-108608234D01*
X93393809Y-108608234D02*
X93489047Y-108655853D01*
X93489047Y-108655853D02*
X93822380Y-108655853D01*
X91489047Y-109179663D02*
X91822380Y-108703472D01*
X92060475Y-109179663D02*
X92060475Y-108179663D01*
X92060475Y-108179663D02*
X91679523Y-108179663D01*
X91679523Y-108179663D02*
X91584285Y-108227282D01*
X91584285Y-108227282D02*
X91536666Y-108274901D01*
X91536666Y-108274901D02*
X91489047Y-108370139D01*
X91489047Y-108370139D02*
X91489047Y-108512996D01*
X91489047Y-108512996D02*
X91536666Y-108608234D01*
X91536666Y-108608234D02*
X91584285Y-108655853D01*
X91584285Y-108655853D02*
X91679523Y-108703472D01*
X91679523Y-108703472D02*
X92060475Y-108703472D01*
X90679523Y-109132044D02*
X90774761Y-109179663D01*
X90774761Y-109179663D02*
X90965237Y-109179663D01*
X90965237Y-109179663D02*
X91060475Y-109132044D01*
X91060475Y-109132044D02*
X91108094Y-109036805D01*
X91108094Y-109036805D02*
X91108094Y-108655853D01*
X91108094Y-108655853D02*
X91060475Y-108560615D01*
X91060475Y-108560615D02*
X90965237Y-108512996D01*
X90965237Y-108512996D02*
X90774761Y-108512996D01*
X90774761Y-108512996D02*
X90679523Y-108560615D01*
X90679523Y-108560615D02*
X90631904Y-108655853D01*
X90631904Y-108655853D02*
X90631904Y-108751091D01*
X90631904Y-108751091D02*
X91108094Y-108846329D01*
X90298570Y-108512996D02*
X90060475Y-109179663D01*
X90060475Y-109179663D02*
X89822380Y-108512996D01*
X88155713Y-109179663D02*
X88727141Y-109179663D01*
X88441427Y-109179663D02*
X88441427Y-108179663D01*
X88441427Y-108179663D02*
X88536665Y-108322520D01*
X88536665Y-108322520D02*
X88631903Y-108417758D01*
X88631903Y-108417758D02*
X88727141Y-108465377D01*
X87727141Y-109084424D02*
X87679522Y-109132044D01*
X87679522Y-109132044D02*
X87727141Y-109179663D01*
X87727141Y-109179663D02*
X87774760Y-109132044D01*
X87774760Y-109132044D02*
X87727141Y-109084424D01*
X87727141Y-109084424D02*
X87727141Y-109179663D01*
X87060475Y-108179663D02*
X86965237Y-108179663D01*
X86965237Y-108179663D02*
X86869999Y-108227282D01*
X86869999Y-108227282D02*
X86822380Y-108274901D01*
X86822380Y-108274901D02*
X86774761Y-108370139D01*
X86774761Y-108370139D02*
X86727142Y-108560615D01*
X86727142Y-108560615D02*
X86727142Y-108798710D01*
X86727142Y-108798710D02*
X86774761Y-108989186D01*
X86774761Y-108989186D02*
X86822380Y-109084424D01*
X86822380Y-109084424D02*
X86869999Y-109132044D01*
X86869999Y-109132044D02*
X86965237Y-109179663D01*
X86965237Y-109179663D02*
X87060475Y-109179663D01*
X87060475Y-109179663D02*
X87155713Y-109132044D01*
X87155713Y-109132044D02*
X87203332Y-109084424D01*
X87203332Y-109084424D02*
X87250951Y-108989186D01*
X87250951Y-108989186D02*
X87298570Y-108798710D01*
X87298570Y-108798710D02*
X87298570Y-108560615D01*
X87298570Y-108560615D02*
X87250951Y-108370139D01*
X87250951Y-108370139D02*
X87203332Y-108274901D01*
X87203332Y-108274901D02*
X87155713Y-108227282D01*
X87155713Y-108227282D02*
X87060475Y-108179663D01*
X86346189Y-108893948D02*
X85869999Y-108893948D01*
X86441427Y-109179663D02*
X86108094Y-108179663D01*
X86108094Y-108179663D02*
X85774761Y-109179663D01*
D10*
X69037657Y-107330550D02*
X68990038Y-107235312D01*
X68990038Y-107235312D02*
X68894800Y-107140074D01*
X68894800Y-107140074D02*
X68751942Y-106997217D01*
X68751942Y-106997217D02*
X68704323Y-106901979D01*
X68704323Y-106901979D02*
X68704323Y-106806741D01*
X68942419Y-106854360D02*
X68894800Y-106759122D01*
X68894800Y-106759122D02*
X68799561Y-106663884D01*
X68799561Y-106663884D02*
X68609085Y-106616265D01*
X68609085Y-106616265D02*
X68275752Y-106616265D01*
X68275752Y-106616265D02*
X68085276Y-106663884D01*
X68085276Y-106663884D02*
X67990038Y-106759122D01*
X67990038Y-106759122D02*
X67942419Y-106854360D01*
X67942419Y-106854360D02*
X67942419Y-107044836D01*
X67942419Y-107044836D02*
X67990038Y-107140074D01*
X67990038Y-107140074D02*
X68085276Y-107235312D01*
X68085276Y-107235312D02*
X68275752Y-107282931D01*
X68275752Y-107282931D02*
X68609085Y-107282931D01*
X68609085Y-107282931D02*
X68799561Y-107235312D01*
X68799561Y-107235312D02*
X68894800Y-107140074D01*
X68894800Y-107140074D02*
X68942419Y-107044836D01*
X68942419Y-107044836D02*
X68942419Y-106854360D01*
X67942419Y-107616265D02*
X68942419Y-107854360D01*
X68942419Y-107854360D02*
X68228133Y-108044836D01*
X68228133Y-108044836D02*
X68942419Y-108235312D01*
X68942419Y-108235312D02*
X67942419Y-108473408D01*
X68942419Y-108854360D02*
X67942419Y-108854360D01*
X68942419Y-109330550D02*
X67942419Y-109330550D01*
X68847180Y-110378168D02*
X68894800Y-110330549D01*
X68894800Y-110330549D02*
X68942419Y-110187692D01*
X68942419Y-110187692D02*
X68942419Y-110092454D01*
X68942419Y-110092454D02*
X68894800Y-109949597D01*
X68894800Y-109949597D02*
X68799561Y-109854359D01*
X68799561Y-109854359D02*
X68704323Y-109806740D01*
X68704323Y-109806740D02*
X68513847Y-109759121D01*
X68513847Y-109759121D02*
X68370990Y-109759121D01*
X68370990Y-109759121D02*
X68180514Y-109806740D01*
X68180514Y-109806740D02*
X68085276Y-109854359D01*
X68085276Y-109854359D02*
X67990038Y-109949597D01*
X67990038Y-109949597D02*
X67942419Y-110092454D01*
X67942419Y-110092454D02*
X67942419Y-110187692D01*
X67942419Y-110187692D02*
X67990038Y-110330549D01*
X67990038Y-110330549D02*
X68037657Y-110378168D01*
X68942419Y-79313884D02*
X67942419Y-79313884D01*
X68418609Y-79313884D02*
X68418609Y-79885312D01*
X68942419Y-79885312D02*
X67942419Y-79885312D01*
X68418609Y-80361503D02*
X68418609Y-80694836D01*
X68942419Y-80837693D02*
X68942419Y-80361503D01*
X68942419Y-80361503D02*
X67942419Y-80361503D01*
X67942419Y-80361503D02*
X67942419Y-80837693D01*
X68656704Y-81218646D02*
X68656704Y-81694836D01*
X68942419Y-81123408D02*
X67942419Y-81456741D01*
X67942419Y-81456741D02*
X68942419Y-81790074D01*
X68942419Y-82123408D02*
X67942419Y-82123408D01*
X67942419Y-82123408D02*
X67942419Y-82361503D01*
X67942419Y-82361503D02*
X67990038Y-82504360D01*
X67990038Y-82504360D02*
X68085276Y-82599598D01*
X68085276Y-82599598D02*
X68180514Y-82647217D01*
X68180514Y-82647217D02*
X68370990Y-82694836D01*
X68370990Y-82694836D02*
X68513847Y-82694836D01*
X68513847Y-82694836D02*
X68704323Y-82647217D01*
X68704323Y-82647217D02*
X68799561Y-82599598D01*
X68799561Y-82599598D02*
X68894800Y-82504360D01*
X68894800Y-82504360D02*
X68942419Y-82361503D01*
X68942419Y-82361503D02*
X68942419Y-82123408D01*
X67942419Y-84075789D02*
X67942419Y-84266265D01*
X67942419Y-84266265D02*
X67990038Y-84361503D01*
X67990038Y-84361503D02*
X68085276Y-84456741D01*
X68085276Y-84456741D02*
X68275752Y-84504360D01*
X68275752Y-84504360D02*
X68609085Y-84504360D01*
X68609085Y-84504360D02*
X68799561Y-84456741D01*
X68799561Y-84456741D02*
X68894800Y-84361503D01*
X68894800Y-84361503D02*
X68942419Y-84266265D01*
X68942419Y-84266265D02*
X68942419Y-84075789D01*
X68942419Y-84075789D02*
X68894800Y-83980551D01*
X68894800Y-83980551D02*
X68799561Y-83885313D01*
X68799561Y-83885313D02*
X68609085Y-83837694D01*
X68609085Y-83837694D02*
X68275752Y-83837694D01*
X68275752Y-83837694D02*
X68085276Y-83885313D01*
X68085276Y-83885313D02*
X67990038Y-83980551D01*
X67990038Y-83980551D02*
X67942419Y-84075789D01*
X67942419Y-84932932D02*
X68751942Y-84932932D01*
X68751942Y-84932932D02*
X68847180Y-84980551D01*
X68847180Y-84980551D02*
X68894800Y-85028170D01*
X68894800Y-85028170D02*
X68942419Y-85123408D01*
X68942419Y-85123408D02*
X68942419Y-85313884D01*
X68942419Y-85313884D02*
X68894800Y-85409122D01*
X68894800Y-85409122D02*
X68847180Y-85456741D01*
X68847180Y-85456741D02*
X68751942Y-85504360D01*
X68751942Y-85504360D02*
X67942419Y-85504360D01*
X67942419Y-85837694D02*
X67942419Y-86409122D01*
X68942419Y-86123408D02*
X67942419Y-86123408D01*
X180416115Y-116882419D02*
X180416115Y-115882419D01*
X180416115Y-115882419D02*
X180035163Y-115882419D01*
X180035163Y-115882419D02*
X179939925Y-115930038D01*
X179939925Y-115930038D02*
X179892306Y-115977657D01*
X179892306Y-115977657D02*
X179844687Y-116072895D01*
X179844687Y-116072895D02*
X179844687Y-116215752D01*
X179844687Y-116215752D02*
X179892306Y-116310990D01*
X179892306Y-116310990D02*
X179939925Y-116358609D01*
X179939925Y-116358609D02*
X180035163Y-116406228D01*
X180035163Y-116406228D02*
X180416115Y-116406228D01*
X179416115Y-116882419D02*
X179416115Y-115882419D01*
X178368497Y-116787180D02*
X178416116Y-116834800D01*
X178416116Y-116834800D02*
X178558973Y-116882419D01*
X178558973Y-116882419D02*
X178654211Y-116882419D01*
X178654211Y-116882419D02*
X178797068Y-116834800D01*
X178797068Y-116834800D02*
X178892306Y-116739561D01*
X178892306Y-116739561D02*
X178939925Y-116644323D01*
X178939925Y-116644323D02*
X178987544Y-116453847D01*
X178987544Y-116453847D02*
X178987544Y-116310990D01*
X178987544Y-116310990D02*
X178939925Y-116120514D01*
X178939925Y-116120514D02*
X178892306Y-116025276D01*
X178892306Y-116025276D02*
X178797068Y-115930038D01*
X178797068Y-115930038D02*
X178654211Y-115882419D01*
X178654211Y-115882419D02*
X178558973Y-115882419D01*
X178558973Y-115882419D02*
X178416116Y-115930038D01*
X178416116Y-115930038D02*
X178368497Y-115977657D01*
X177939925Y-116882419D02*
X177939925Y-115882419D01*
X177368497Y-116882419D02*
X177797068Y-116310990D01*
X177368497Y-115882419D02*
X177939925Y-116453847D01*
X176939925Y-116882419D02*
X176939925Y-115882419D01*
X176606592Y-115882419D02*
X176035164Y-115882419D01*
X176320878Y-116882419D02*
X176320878Y-115882419D01*
X171737544Y-39515752D02*
X171737544Y-40182419D01*
X172166115Y-39515752D02*
X172166115Y-40039561D01*
X172166115Y-40039561D02*
X172118496Y-40134800D01*
X172118496Y-40134800D02*
X172023258Y-40182419D01*
X172023258Y-40182419D02*
X171880401Y-40182419D01*
X171880401Y-40182419D02*
X171785163Y-40134800D01*
X171785163Y-40134800D02*
X171737544Y-40087180D01*
X171308972Y-40134800D02*
X171166115Y-40182419D01*
X171166115Y-40182419D02*
X170928020Y-40182419D01*
X170928020Y-40182419D02*
X170832782Y-40134800D01*
X170832782Y-40134800D02*
X170785163Y-40087180D01*
X170785163Y-40087180D02*
X170737544Y-39991942D01*
X170737544Y-39991942D02*
X170737544Y-39896704D01*
X170737544Y-39896704D02*
X170785163Y-39801466D01*
X170785163Y-39801466D02*
X170832782Y-39753847D01*
X170832782Y-39753847D02*
X170928020Y-39706228D01*
X170928020Y-39706228D02*
X171118496Y-39658609D01*
X171118496Y-39658609D02*
X171213734Y-39610990D01*
X171213734Y-39610990D02*
X171261353Y-39563371D01*
X171261353Y-39563371D02*
X171308972Y-39468133D01*
X171308972Y-39468133D02*
X171308972Y-39372895D01*
X171308972Y-39372895D02*
X171261353Y-39277657D01*
X171261353Y-39277657D02*
X171213734Y-39230038D01*
X171213734Y-39230038D02*
X171118496Y-39182419D01*
X171118496Y-39182419D02*
X170880401Y-39182419D01*
X170880401Y-39182419D02*
X170737544Y-39230038D01*
X170308972Y-40182419D02*
X170308972Y-39182419D01*
X170308972Y-39182419D02*
X170070877Y-39182419D01*
X170070877Y-39182419D02*
X169928020Y-39230038D01*
X169928020Y-39230038D02*
X169832782Y-39325276D01*
X169832782Y-39325276D02*
X169785163Y-39420514D01*
X169785163Y-39420514D02*
X169737544Y-39610990D01*
X169737544Y-39610990D02*
X169737544Y-39753847D01*
X169737544Y-39753847D02*
X169785163Y-39944323D01*
X169785163Y-39944323D02*
X169832782Y-40039561D01*
X169832782Y-40039561D02*
X169928020Y-40134800D01*
X169928020Y-40134800D02*
X170070877Y-40182419D01*
X170070877Y-40182419D02*
X170308972Y-40182419D01*
X167975639Y-40087180D02*
X168023258Y-40134800D01*
X168023258Y-40134800D02*
X168166115Y-40182419D01*
X168166115Y-40182419D02*
X168261353Y-40182419D01*
X168261353Y-40182419D02*
X168404210Y-40134800D01*
X168404210Y-40134800D02*
X168499448Y-40039561D01*
X168499448Y-40039561D02*
X168547067Y-39944323D01*
X168547067Y-39944323D02*
X168594686Y-39753847D01*
X168594686Y-39753847D02*
X168594686Y-39610990D01*
X168594686Y-39610990D02*
X168547067Y-39420514D01*
X168547067Y-39420514D02*
X168499448Y-39325276D01*
X168499448Y-39325276D02*
X168404210Y-39230038D01*
X168404210Y-39230038D02*
X168261353Y-39182419D01*
X168261353Y-39182419D02*
X168166115Y-39182419D01*
X168166115Y-39182419D02*
X168023258Y-39230038D01*
X168023258Y-39230038D02*
X167975639Y-39277657D01*
X167594686Y-39896704D02*
X167118496Y-39896704D01*
X167689924Y-40182419D02*
X167356591Y-39182419D01*
X167356591Y-39182419D02*
X167023258Y-40182419D01*
X166118496Y-40182419D02*
X166451829Y-39706228D01*
X166689924Y-40182419D02*
X166689924Y-39182419D01*
X166689924Y-39182419D02*
X166308972Y-39182419D01*
X166308972Y-39182419D02*
X166213734Y-39230038D01*
X166213734Y-39230038D02*
X166166115Y-39277657D01*
X166166115Y-39277657D02*
X166118496Y-39372895D01*
X166118496Y-39372895D02*
X166118496Y-39515752D01*
X166118496Y-39515752D02*
X166166115Y-39610990D01*
X166166115Y-39610990D02*
X166213734Y-39658609D01*
X166213734Y-39658609D02*
X166308972Y-39706228D01*
X166308972Y-39706228D02*
X166689924Y-39706228D01*
X165689924Y-40182419D02*
X165689924Y-39182419D01*
X165689924Y-39182419D02*
X165451829Y-39182419D01*
X165451829Y-39182419D02*
X165308972Y-39230038D01*
X165308972Y-39230038D02*
X165213734Y-39325276D01*
X165213734Y-39325276D02*
X165166115Y-39420514D01*
X165166115Y-39420514D02*
X165118496Y-39610990D01*
X165118496Y-39610990D02*
X165118496Y-39753847D01*
X165118496Y-39753847D02*
X165166115Y-39944323D01*
X165166115Y-39944323D02*
X165213734Y-40039561D01*
X165213734Y-40039561D02*
X165308972Y-40134800D01*
X165308972Y-40134800D02*
X165451829Y-40182419D01*
X165451829Y-40182419D02*
X165689924Y-40182419D01*
X156416115Y-40182419D02*
X156416115Y-39182419D01*
X156416115Y-39182419D02*
X156082782Y-39896704D01*
X156082782Y-39896704D02*
X155749449Y-39182419D01*
X155749449Y-39182419D02*
X155749449Y-40182419D01*
X155273258Y-40182419D02*
X155273258Y-39182419D01*
X154797068Y-40182419D02*
X154797068Y-39182419D01*
X154797068Y-39182419D02*
X154416116Y-39182419D01*
X154416116Y-39182419D02*
X154320878Y-39230038D01*
X154320878Y-39230038D02*
X154273259Y-39277657D01*
X154273259Y-39277657D02*
X154225640Y-39372895D01*
X154225640Y-39372895D02*
X154225640Y-39515752D01*
X154225640Y-39515752D02*
X154273259Y-39610990D01*
X154273259Y-39610990D02*
X154320878Y-39658609D01*
X154320878Y-39658609D02*
X154416116Y-39706228D01*
X154416116Y-39706228D02*
X154797068Y-39706228D01*
X153797068Y-40182419D02*
X153797068Y-39182419D01*
X152558973Y-39658609D02*
X152225640Y-39658609D01*
X152082783Y-40182419D02*
X152558973Y-40182419D01*
X152558973Y-40182419D02*
X152558973Y-39182419D01*
X152558973Y-39182419D02*
X152082783Y-39182419D01*
X151749449Y-39182419D02*
X151082783Y-40182419D01*
X151082783Y-39182419D02*
X151749449Y-40182419D01*
X150701830Y-40182419D02*
X150701830Y-39182419D01*
X150701830Y-39182419D02*
X150320878Y-39182419D01*
X150320878Y-39182419D02*
X150225640Y-39230038D01*
X150225640Y-39230038D02*
X150178021Y-39277657D01*
X150178021Y-39277657D02*
X150130402Y-39372895D01*
X150130402Y-39372895D02*
X150130402Y-39515752D01*
X150130402Y-39515752D02*
X150178021Y-39610990D01*
X150178021Y-39610990D02*
X150225640Y-39658609D01*
X150225640Y-39658609D02*
X150320878Y-39706228D01*
X150320878Y-39706228D02*
X150701830Y-39706228D01*
X149749449Y-39896704D02*
X149273259Y-39896704D01*
X149844687Y-40182419D02*
X149511354Y-39182419D01*
X149511354Y-39182419D02*
X149178021Y-40182419D01*
X148844687Y-40182419D02*
X148844687Y-39182419D01*
X148844687Y-39182419D02*
X148273259Y-40182419D01*
X148273259Y-40182419D02*
X148273259Y-39182419D01*
X147797068Y-40182419D02*
X147797068Y-39182419D01*
X147797068Y-39182419D02*
X147558973Y-39182419D01*
X147558973Y-39182419D02*
X147416116Y-39230038D01*
X147416116Y-39230038D02*
X147320878Y-39325276D01*
X147320878Y-39325276D02*
X147273259Y-39420514D01*
X147273259Y-39420514D02*
X147225640Y-39610990D01*
X147225640Y-39610990D02*
X147225640Y-39753847D01*
X147225640Y-39753847D02*
X147273259Y-39944323D01*
X147273259Y-39944323D02*
X147320878Y-40039561D01*
X147320878Y-40039561D02*
X147416116Y-40134800D01*
X147416116Y-40134800D02*
X147558973Y-40182419D01*
X147558973Y-40182419D02*
X147797068Y-40182419D01*
X69052419Y-101064884D02*
X68052419Y-101064884D01*
X68052419Y-101064884D02*
X68766704Y-101398217D01*
X68766704Y-101398217D02*
X68052419Y-101731550D01*
X68052419Y-101731550D02*
X69052419Y-101731550D01*
X69052419Y-102207741D02*
X68052419Y-102207741D01*
X68957180Y-103255359D02*
X69004800Y-103207740D01*
X69004800Y-103207740D02*
X69052419Y-103064883D01*
X69052419Y-103064883D02*
X69052419Y-102969645D01*
X69052419Y-102969645D02*
X69004800Y-102826788D01*
X69004800Y-102826788D02*
X68909561Y-102731550D01*
X68909561Y-102731550D02*
X68814323Y-102683931D01*
X68814323Y-102683931D02*
X68623847Y-102636312D01*
X68623847Y-102636312D02*
X68480990Y-102636312D01*
X68480990Y-102636312D02*
X68290514Y-102683931D01*
X68290514Y-102683931D02*
X68195276Y-102731550D01*
X68195276Y-102731550D02*
X68100038Y-102826788D01*
X68100038Y-102826788D02*
X68052419Y-102969645D01*
X68052419Y-102969645D02*
X68052419Y-103064883D01*
X68052419Y-103064883D02*
X68100038Y-103207740D01*
X68100038Y-103207740D02*
X68147657Y-103255359D01*
X75226866Y-115375163D02*
X75226866Y-114994211D01*
X81026866Y-115375163D02*
X81026866Y-114994211D01*
X80836390Y-115184687D02*
X81217342Y-115184687D01*
X131200951Y-108586109D02*
X130915237Y-108586109D01*
X131058094Y-109086109D02*
X131058094Y-108586109D01*
X130748571Y-109086109D02*
X130748571Y-108586109D01*
X130748571Y-108586109D02*
X130558095Y-108586109D01*
X130558095Y-108586109D02*
X130510476Y-108609919D01*
X130510476Y-108609919D02*
X130486666Y-108633728D01*
X130486666Y-108633728D02*
X130462857Y-108681347D01*
X130462857Y-108681347D02*
X130462857Y-108752776D01*
X130462857Y-108752776D02*
X130486666Y-108800395D01*
X130486666Y-108800395D02*
X130510476Y-108824204D01*
X130510476Y-108824204D02*
X130558095Y-108848014D01*
X130558095Y-108848014D02*
X130748571Y-108848014D01*
X130010476Y-108586109D02*
X130248571Y-108586109D01*
X130248571Y-108586109D02*
X130272380Y-108824204D01*
X130272380Y-108824204D02*
X130248571Y-108800395D01*
X130248571Y-108800395D02*
X130200952Y-108776585D01*
X130200952Y-108776585D02*
X130081904Y-108776585D01*
X130081904Y-108776585D02*
X130034285Y-108800395D01*
X130034285Y-108800395D02*
X130010476Y-108824204D01*
X130010476Y-108824204D02*
X129986666Y-108871823D01*
X129986666Y-108871823D02*
X129986666Y-108990871D01*
X129986666Y-108990871D02*
X130010476Y-109038490D01*
X130010476Y-109038490D02*
X130034285Y-109062300D01*
X130034285Y-109062300D02*
X130081904Y-109086109D01*
X130081904Y-109086109D02*
X130200952Y-109086109D01*
X130200952Y-109086109D02*
X130248571Y-109062300D01*
X130248571Y-109062300D02*
X130272380Y-109038490D01*
X219089046Y-110501109D02*
X218803332Y-110501109D01*
X218946189Y-111001109D02*
X218946189Y-110501109D01*
X218636666Y-111001109D02*
X218636666Y-110501109D01*
X218636666Y-110501109D02*
X218446190Y-110501109D01*
X218446190Y-110501109D02*
X218398571Y-110524919D01*
X218398571Y-110524919D02*
X218374761Y-110548728D01*
X218374761Y-110548728D02*
X218350952Y-110596347D01*
X218350952Y-110596347D02*
X218350952Y-110667776D01*
X218350952Y-110667776D02*
X218374761Y-110715395D01*
X218374761Y-110715395D02*
X218398571Y-110739204D01*
X218398571Y-110739204D02*
X218446190Y-110763014D01*
X218446190Y-110763014D02*
X218636666Y-110763014D01*
X218160475Y-110548728D02*
X218136666Y-110524919D01*
X218136666Y-110524919D02*
X218089047Y-110501109D01*
X218089047Y-110501109D02*
X217969999Y-110501109D01*
X217969999Y-110501109D02*
X217922380Y-110524919D01*
X217922380Y-110524919D02*
X217898571Y-110548728D01*
X217898571Y-110548728D02*
X217874761Y-110596347D01*
X217874761Y-110596347D02*
X217874761Y-110643966D01*
X217874761Y-110643966D02*
X217898571Y-110715395D01*
X217898571Y-110715395D02*
X218184285Y-111001109D01*
X218184285Y-111001109D02*
X217874761Y-111001109D01*
X217446190Y-110501109D02*
X217541428Y-110501109D01*
X217541428Y-110501109D02*
X217589047Y-110524919D01*
X217589047Y-110524919D02*
X217612857Y-110548728D01*
X217612857Y-110548728D02*
X217660476Y-110620157D01*
X217660476Y-110620157D02*
X217684285Y-110715395D01*
X217684285Y-110715395D02*
X217684285Y-110905871D01*
X217684285Y-110905871D02*
X217660476Y-110953490D01*
X217660476Y-110953490D02*
X217636666Y-110977300D01*
X217636666Y-110977300D02*
X217589047Y-111001109D01*
X217589047Y-111001109D02*
X217493809Y-111001109D01*
X217493809Y-111001109D02*
X217446190Y-110977300D01*
X217446190Y-110977300D02*
X217422381Y-110953490D01*
X217422381Y-110953490D02*
X217398571Y-110905871D01*
X217398571Y-110905871D02*
X217398571Y-110786823D01*
X217398571Y-110786823D02*
X217422381Y-110739204D01*
X217422381Y-110739204D02*
X217446190Y-110715395D01*
X217446190Y-110715395D02*
X217493809Y-110691585D01*
X217493809Y-110691585D02*
X217589047Y-110691585D01*
X217589047Y-110691585D02*
X217636666Y-110715395D01*
X217636666Y-110715395D02*
X217660476Y-110739204D01*
X217660476Y-110739204D02*
X217684285Y-110786823D01*
X126550951Y-97086109D02*
X126265237Y-97086109D01*
X126408094Y-97586109D02*
X126408094Y-97086109D01*
X126098571Y-97586109D02*
X126098571Y-97086109D01*
X126098571Y-97086109D02*
X125908095Y-97086109D01*
X125908095Y-97086109D02*
X125860476Y-97109919D01*
X125860476Y-97109919D02*
X125836666Y-97133728D01*
X125836666Y-97133728D02*
X125812857Y-97181347D01*
X125812857Y-97181347D02*
X125812857Y-97252776D01*
X125812857Y-97252776D02*
X125836666Y-97300395D01*
X125836666Y-97300395D02*
X125860476Y-97324204D01*
X125860476Y-97324204D02*
X125908095Y-97348014D01*
X125908095Y-97348014D02*
X126098571Y-97348014D01*
X125336666Y-97586109D02*
X125622380Y-97586109D01*
X125479523Y-97586109D02*
X125479523Y-97086109D01*
X125479523Y-97086109D02*
X125527142Y-97157538D01*
X125527142Y-97157538D02*
X125574761Y-97205157D01*
X125574761Y-97205157D02*
X125622380Y-97228966D01*
X83150951Y-108536109D02*
X82865237Y-108536109D01*
X83008094Y-109036109D02*
X83008094Y-108536109D01*
X82698571Y-109036109D02*
X82698571Y-108536109D01*
X82698571Y-108536109D02*
X82508095Y-108536109D01*
X82508095Y-108536109D02*
X82460476Y-108559919D01*
X82460476Y-108559919D02*
X82436666Y-108583728D01*
X82436666Y-108583728D02*
X82412857Y-108631347D01*
X82412857Y-108631347D02*
X82412857Y-108702776D01*
X82412857Y-108702776D02*
X82436666Y-108750395D01*
X82436666Y-108750395D02*
X82460476Y-108774204D01*
X82460476Y-108774204D02*
X82508095Y-108798014D01*
X82508095Y-108798014D02*
X82698571Y-108798014D01*
X82174761Y-109036109D02*
X82079523Y-109036109D01*
X82079523Y-109036109D02*
X82031904Y-109012300D01*
X82031904Y-109012300D02*
X82008095Y-108988490D01*
X82008095Y-108988490D02*
X81960476Y-108917061D01*
X81960476Y-108917061D02*
X81936666Y-108821823D01*
X81936666Y-108821823D02*
X81936666Y-108631347D01*
X81936666Y-108631347D02*
X81960476Y-108583728D01*
X81960476Y-108583728D02*
X81984285Y-108559919D01*
X81984285Y-108559919D02*
X82031904Y-108536109D01*
X82031904Y-108536109D02*
X82127142Y-108536109D01*
X82127142Y-108536109D02*
X82174761Y-108559919D01*
X82174761Y-108559919D02*
X82198571Y-108583728D01*
X82198571Y-108583728D02*
X82222380Y-108631347D01*
X82222380Y-108631347D02*
X82222380Y-108750395D01*
X82222380Y-108750395D02*
X82198571Y-108798014D01*
X82198571Y-108798014D02*
X82174761Y-108821823D01*
X82174761Y-108821823D02*
X82127142Y-108845633D01*
X82127142Y-108845633D02*
X82031904Y-108845633D01*
X82031904Y-108845633D02*
X81984285Y-108821823D01*
X81984285Y-108821823D02*
X81960476Y-108798014D01*
X81960476Y-108798014D02*
X81936666Y-108750395D01*
X153989046Y-96536109D02*
X153703332Y-96536109D01*
X153846189Y-97036109D02*
X153846189Y-96536109D01*
X153536666Y-97036109D02*
X153536666Y-96536109D01*
X153536666Y-96536109D02*
X153346190Y-96536109D01*
X153346190Y-96536109D02*
X153298571Y-96559919D01*
X153298571Y-96559919D02*
X153274761Y-96583728D01*
X153274761Y-96583728D02*
X153250952Y-96631347D01*
X153250952Y-96631347D02*
X153250952Y-96702776D01*
X153250952Y-96702776D02*
X153274761Y-96750395D01*
X153274761Y-96750395D02*
X153298571Y-96774204D01*
X153298571Y-96774204D02*
X153346190Y-96798014D01*
X153346190Y-96798014D02*
X153536666Y-96798014D01*
X153084285Y-96536109D02*
X152774761Y-96536109D01*
X152774761Y-96536109D02*
X152941428Y-96726585D01*
X152941428Y-96726585D02*
X152869999Y-96726585D01*
X152869999Y-96726585D02*
X152822380Y-96750395D01*
X152822380Y-96750395D02*
X152798571Y-96774204D01*
X152798571Y-96774204D02*
X152774761Y-96821823D01*
X152774761Y-96821823D02*
X152774761Y-96940871D01*
X152774761Y-96940871D02*
X152798571Y-96988490D01*
X152798571Y-96988490D02*
X152822380Y-97012300D01*
X152822380Y-97012300D02*
X152869999Y-97036109D01*
X152869999Y-97036109D02*
X153012856Y-97036109D01*
X153012856Y-97036109D02*
X153060475Y-97012300D01*
X153060475Y-97012300D02*
X153084285Y-96988490D01*
X152608095Y-96536109D02*
X152298571Y-96536109D01*
X152298571Y-96536109D02*
X152465238Y-96726585D01*
X152465238Y-96726585D02*
X152393809Y-96726585D01*
X152393809Y-96726585D02*
X152346190Y-96750395D01*
X152346190Y-96750395D02*
X152322381Y-96774204D01*
X152322381Y-96774204D02*
X152298571Y-96821823D01*
X152298571Y-96821823D02*
X152298571Y-96940871D01*
X152298571Y-96940871D02*
X152322381Y-96988490D01*
X152322381Y-96988490D02*
X152346190Y-97012300D01*
X152346190Y-97012300D02*
X152393809Y-97036109D01*
X152393809Y-97036109D02*
X152536666Y-97036109D01*
X152536666Y-97036109D02*
X152584285Y-97012300D01*
X152584285Y-97012300D02*
X152608095Y-96988490D01*
X97989046Y-110986109D02*
X97703332Y-110986109D01*
X97846189Y-111486109D02*
X97846189Y-110986109D01*
X97536666Y-111486109D02*
X97536666Y-110986109D01*
X97536666Y-110986109D02*
X97346190Y-110986109D01*
X97346190Y-110986109D02*
X97298571Y-111009919D01*
X97298571Y-111009919D02*
X97274761Y-111033728D01*
X97274761Y-111033728D02*
X97250952Y-111081347D01*
X97250952Y-111081347D02*
X97250952Y-111152776D01*
X97250952Y-111152776D02*
X97274761Y-111200395D01*
X97274761Y-111200395D02*
X97298571Y-111224204D01*
X97298571Y-111224204D02*
X97346190Y-111248014D01*
X97346190Y-111248014D02*
X97536666Y-111248014D01*
X96774761Y-111486109D02*
X97060475Y-111486109D01*
X96917618Y-111486109D02*
X96917618Y-110986109D01*
X96917618Y-110986109D02*
X96965237Y-111057538D01*
X96965237Y-111057538D02*
X97012856Y-111105157D01*
X97012856Y-111105157D02*
X97060475Y-111128966D01*
X96608095Y-110986109D02*
X96274762Y-110986109D01*
X96274762Y-110986109D02*
X96489047Y-111486109D01*
X204498004Y-101186109D02*
X204212290Y-101186109D01*
X204355147Y-101686109D02*
X204355147Y-101186109D01*
X204045624Y-101686109D02*
X204045624Y-101186109D01*
X204045624Y-101186109D02*
X203855148Y-101186109D01*
X203855148Y-101186109D02*
X203807529Y-101209919D01*
X203807529Y-101209919D02*
X203783719Y-101233728D01*
X203783719Y-101233728D02*
X203759910Y-101281347D01*
X203759910Y-101281347D02*
X203759910Y-101352776D01*
X203759910Y-101352776D02*
X203783719Y-101400395D01*
X203783719Y-101400395D02*
X203807529Y-101424204D01*
X203807529Y-101424204D02*
X203855148Y-101448014D01*
X203855148Y-101448014D02*
X204045624Y-101448014D01*
X203331338Y-101352776D02*
X203331338Y-101686109D01*
X203450386Y-101162300D02*
X203569433Y-101519442D01*
X203569433Y-101519442D02*
X203259910Y-101519442D01*
X202855148Y-101352776D02*
X202855148Y-101686109D01*
X202974196Y-101162300D02*
X203093243Y-101519442D01*
X203093243Y-101519442D02*
X202783720Y-101519442D01*
X162139046Y-98886109D02*
X161853332Y-98886109D01*
X161996189Y-99386109D02*
X161996189Y-98886109D01*
X161686666Y-99386109D02*
X161686666Y-98886109D01*
X161686666Y-98886109D02*
X161496190Y-98886109D01*
X161496190Y-98886109D02*
X161448571Y-98909919D01*
X161448571Y-98909919D02*
X161424761Y-98933728D01*
X161424761Y-98933728D02*
X161400952Y-98981347D01*
X161400952Y-98981347D02*
X161400952Y-99052776D01*
X161400952Y-99052776D02*
X161424761Y-99100395D01*
X161424761Y-99100395D02*
X161448571Y-99124204D01*
X161448571Y-99124204D02*
X161496190Y-99148014D01*
X161496190Y-99148014D02*
X161686666Y-99148014D01*
X161234285Y-98886109D02*
X160924761Y-98886109D01*
X160924761Y-98886109D02*
X161091428Y-99076585D01*
X161091428Y-99076585D02*
X161019999Y-99076585D01*
X161019999Y-99076585D02*
X160972380Y-99100395D01*
X160972380Y-99100395D02*
X160948571Y-99124204D01*
X160948571Y-99124204D02*
X160924761Y-99171823D01*
X160924761Y-99171823D02*
X160924761Y-99290871D01*
X160924761Y-99290871D02*
X160948571Y-99338490D01*
X160948571Y-99338490D02*
X160972380Y-99362300D01*
X160972380Y-99362300D02*
X161019999Y-99386109D01*
X161019999Y-99386109D02*
X161162856Y-99386109D01*
X161162856Y-99386109D02*
X161210475Y-99362300D01*
X161210475Y-99362300D02*
X161234285Y-99338490D01*
X160734285Y-98933728D02*
X160710476Y-98909919D01*
X160710476Y-98909919D02*
X160662857Y-98886109D01*
X160662857Y-98886109D02*
X160543809Y-98886109D01*
X160543809Y-98886109D02*
X160496190Y-98909919D01*
X160496190Y-98909919D02*
X160472381Y-98933728D01*
X160472381Y-98933728D02*
X160448571Y-98981347D01*
X160448571Y-98981347D02*
X160448571Y-99028966D01*
X160448571Y-99028966D02*
X160472381Y-99100395D01*
X160472381Y-99100395D02*
X160758095Y-99386109D01*
X160758095Y-99386109D02*
X160448571Y-99386109D01*
X109639046Y-92086109D02*
X109353332Y-92086109D01*
X109496189Y-92586109D02*
X109496189Y-92086109D01*
X109186666Y-92586109D02*
X109186666Y-92086109D01*
X109186666Y-92086109D02*
X108996190Y-92086109D01*
X108996190Y-92086109D02*
X108948571Y-92109919D01*
X108948571Y-92109919D02*
X108924761Y-92133728D01*
X108924761Y-92133728D02*
X108900952Y-92181347D01*
X108900952Y-92181347D02*
X108900952Y-92252776D01*
X108900952Y-92252776D02*
X108924761Y-92300395D01*
X108924761Y-92300395D02*
X108948571Y-92324204D01*
X108948571Y-92324204D02*
X108996190Y-92348014D01*
X108996190Y-92348014D02*
X109186666Y-92348014D01*
X108734285Y-92086109D02*
X108424761Y-92086109D01*
X108424761Y-92086109D02*
X108591428Y-92276585D01*
X108591428Y-92276585D02*
X108519999Y-92276585D01*
X108519999Y-92276585D02*
X108472380Y-92300395D01*
X108472380Y-92300395D02*
X108448571Y-92324204D01*
X108448571Y-92324204D02*
X108424761Y-92371823D01*
X108424761Y-92371823D02*
X108424761Y-92490871D01*
X108424761Y-92490871D02*
X108448571Y-92538490D01*
X108448571Y-92538490D02*
X108472380Y-92562300D01*
X108472380Y-92562300D02*
X108519999Y-92586109D01*
X108519999Y-92586109D02*
X108662856Y-92586109D01*
X108662856Y-92586109D02*
X108710475Y-92562300D01*
X108710475Y-92562300D02*
X108734285Y-92538490D01*
X108258095Y-92086109D02*
X107924762Y-92086109D01*
X107924762Y-92086109D02*
X108139047Y-92586109D01*
X222239046Y-110486109D02*
X221953332Y-110486109D01*
X222096189Y-110986109D02*
X222096189Y-110486109D01*
X221786666Y-110986109D02*
X221786666Y-110486109D01*
X221786666Y-110486109D02*
X221596190Y-110486109D01*
X221596190Y-110486109D02*
X221548571Y-110509919D01*
X221548571Y-110509919D02*
X221524761Y-110533728D01*
X221524761Y-110533728D02*
X221500952Y-110581347D01*
X221500952Y-110581347D02*
X221500952Y-110652776D01*
X221500952Y-110652776D02*
X221524761Y-110700395D01*
X221524761Y-110700395D02*
X221548571Y-110724204D01*
X221548571Y-110724204D02*
X221596190Y-110748014D01*
X221596190Y-110748014D02*
X221786666Y-110748014D01*
X221310475Y-110533728D02*
X221286666Y-110509919D01*
X221286666Y-110509919D02*
X221239047Y-110486109D01*
X221239047Y-110486109D02*
X221119999Y-110486109D01*
X221119999Y-110486109D02*
X221072380Y-110509919D01*
X221072380Y-110509919D02*
X221048571Y-110533728D01*
X221048571Y-110533728D02*
X221024761Y-110581347D01*
X221024761Y-110581347D02*
X221024761Y-110628966D01*
X221024761Y-110628966D02*
X221048571Y-110700395D01*
X221048571Y-110700395D02*
X221334285Y-110986109D01*
X221334285Y-110986109D02*
X221024761Y-110986109D01*
X220858095Y-110486109D02*
X220524762Y-110486109D01*
X220524762Y-110486109D02*
X220739047Y-110986109D01*
X133950951Y-134386109D02*
X133665237Y-134386109D01*
X133808094Y-134886109D02*
X133808094Y-134386109D01*
X133498571Y-134886109D02*
X133498571Y-134386109D01*
X133498571Y-134386109D02*
X133308095Y-134386109D01*
X133308095Y-134386109D02*
X133260476Y-134409919D01*
X133260476Y-134409919D02*
X133236666Y-134433728D01*
X133236666Y-134433728D02*
X133212857Y-134481347D01*
X133212857Y-134481347D02*
X133212857Y-134552776D01*
X133212857Y-134552776D02*
X133236666Y-134600395D01*
X133236666Y-134600395D02*
X133260476Y-134624204D01*
X133260476Y-134624204D02*
X133308095Y-134648014D01*
X133308095Y-134648014D02*
X133498571Y-134648014D01*
X133046190Y-134386109D02*
X132712857Y-134386109D01*
X132712857Y-134386109D02*
X132927142Y-134886109D01*
X83389046Y-110786109D02*
X83103332Y-110786109D01*
X83246189Y-111286109D02*
X83246189Y-110786109D01*
X82936666Y-111286109D02*
X82936666Y-110786109D01*
X82936666Y-110786109D02*
X82746190Y-110786109D01*
X82746190Y-110786109D02*
X82698571Y-110809919D01*
X82698571Y-110809919D02*
X82674761Y-110833728D01*
X82674761Y-110833728D02*
X82650952Y-110881347D01*
X82650952Y-110881347D02*
X82650952Y-110952776D01*
X82650952Y-110952776D02*
X82674761Y-111000395D01*
X82674761Y-111000395D02*
X82698571Y-111024204D01*
X82698571Y-111024204D02*
X82746190Y-111048014D01*
X82746190Y-111048014D02*
X82936666Y-111048014D01*
X82174761Y-111286109D02*
X82460475Y-111286109D01*
X82317618Y-111286109D02*
X82317618Y-110786109D01*
X82317618Y-110786109D02*
X82365237Y-110857538D01*
X82365237Y-110857538D02*
X82412856Y-110905157D01*
X82412856Y-110905157D02*
X82460475Y-110928966D01*
X81865238Y-110786109D02*
X81817619Y-110786109D01*
X81817619Y-110786109D02*
X81770000Y-110809919D01*
X81770000Y-110809919D02*
X81746190Y-110833728D01*
X81746190Y-110833728D02*
X81722381Y-110881347D01*
X81722381Y-110881347D02*
X81698571Y-110976585D01*
X81698571Y-110976585D02*
X81698571Y-111095633D01*
X81698571Y-111095633D02*
X81722381Y-111190871D01*
X81722381Y-111190871D02*
X81746190Y-111238490D01*
X81746190Y-111238490D02*
X81770000Y-111262300D01*
X81770000Y-111262300D02*
X81817619Y-111286109D01*
X81817619Y-111286109D02*
X81865238Y-111286109D01*
X81865238Y-111286109D02*
X81912857Y-111262300D01*
X81912857Y-111262300D02*
X81936666Y-111238490D01*
X81936666Y-111238490D02*
X81960476Y-111190871D01*
X81960476Y-111190871D02*
X81984285Y-111095633D01*
X81984285Y-111095633D02*
X81984285Y-110976585D01*
X81984285Y-110976585D02*
X81960476Y-110881347D01*
X81960476Y-110881347D02*
X81936666Y-110833728D01*
X81936666Y-110833728D02*
X81912857Y-110809919D01*
X81912857Y-110809919D02*
X81865238Y-110786109D01*
X107389046Y-131536109D02*
X107103332Y-131536109D01*
X107246189Y-132036109D02*
X107246189Y-131536109D01*
X106936666Y-132036109D02*
X106936666Y-131536109D01*
X106936666Y-131536109D02*
X106746190Y-131536109D01*
X106746190Y-131536109D02*
X106698571Y-131559919D01*
X106698571Y-131559919D02*
X106674761Y-131583728D01*
X106674761Y-131583728D02*
X106650952Y-131631347D01*
X106650952Y-131631347D02*
X106650952Y-131702776D01*
X106650952Y-131702776D02*
X106674761Y-131750395D01*
X106674761Y-131750395D02*
X106698571Y-131774204D01*
X106698571Y-131774204D02*
X106746190Y-131798014D01*
X106746190Y-131798014D02*
X106936666Y-131798014D01*
X106174761Y-132036109D02*
X106460475Y-132036109D01*
X106317618Y-132036109D02*
X106317618Y-131536109D01*
X106317618Y-131536109D02*
X106365237Y-131607538D01*
X106365237Y-131607538D02*
X106412856Y-131655157D01*
X106412856Y-131655157D02*
X106460475Y-131678966D01*
X105722381Y-131536109D02*
X105960476Y-131536109D01*
X105960476Y-131536109D02*
X105984285Y-131774204D01*
X105984285Y-131774204D02*
X105960476Y-131750395D01*
X105960476Y-131750395D02*
X105912857Y-131726585D01*
X105912857Y-131726585D02*
X105793809Y-131726585D01*
X105793809Y-131726585D02*
X105746190Y-131750395D01*
X105746190Y-131750395D02*
X105722381Y-131774204D01*
X105722381Y-131774204D02*
X105698571Y-131821823D01*
X105698571Y-131821823D02*
X105698571Y-131940871D01*
X105698571Y-131940871D02*
X105722381Y-131988490D01*
X105722381Y-131988490D02*
X105746190Y-132012300D01*
X105746190Y-132012300D02*
X105793809Y-132036109D01*
X105793809Y-132036109D02*
X105912857Y-132036109D01*
X105912857Y-132036109D02*
X105960476Y-132012300D01*
X105960476Y-132012300D02*
X105984285Y-131988490D01*
X95289046Y-123336109D02*
X95003332Y-123336109D01*
X95146189Y-123836109D02*
X95146189Y-123336109D01*
X94836666Y-123836109D02*
X94836666Y-123336109D01*
X94836666Y-123336109D02*
X94646190Y-123336109D01*
X94646190Y-123336109D02*
X94598571Y-123359919D01*
X94598571Y-123359919D02*
X94574761Y-123383728D01*
X94574761Y-123383728D02*
X94550952Y-123431347D01*
X94550952Y-123431347D02*
X94550952Y-123502776D01*
X94550952Y-123502776D02*
X94574761Y-123550395D01*
X94574761Y-123550395D02*
X94598571Y-123574204D01*
X94598571Y-123574204D02*
X94646190Y-123598014D01*
X94646190Y-123598014D02*
X94836666Y-123598014D01*
X94074761Y-123836109D02*
X94360475Y-123836109D01*
X94217618Y-123836109D02*
X94217618Y-123336109D01*
X94217618Y-123336109D02*
X94265237Y-123407538D01*
X94265237Y-123407538D02*
X94312856Y-123455157D01*
X94312856Y-123455157D02*
X94360475Y-123478966D01*
X93789047Y-123550395D02*
X93836666Y-123526585D01*
X93836666Y-123526585D02*
X93860476Y-123502776D01*
X93860476Y-123502776D02*
X93884285Y-123455157D01*
X93884285Y-123455157D02*
X93884285Y-123431347D01*
X93884285Y-123431347D02*
X93860476Y-123383728D01*
X93860476Y-123383728D02*
X93836666Y-123359919D01*
X93836666Y-123359919D02*
X93789047Y-123336109D01*
X93789047Y-123336109D02*
X93693809Y-123336109D01*
X93693809Y-123336109D02*
X93646190Y-123359919D01*
X93646190Y-123359919D02*
X93622381Y-123383728D01*
X93622381Y-123383728D02*
X93598571Y-123431347D01*
X93598571Y-123431347D02*
X93598571Y-123455157D01*
X93598571Y-123455157D02*
X93622381Y-123502776D01*
X93622381Y-123502776D02*
X93646190Y-123526585D01*
X93646190Y-123526585D02*
X93693809Y-123550395D01*
X93693809Y-123550395D02*
X93789047Y-123550395D01*
X93789047Y-123550395D02*
X93836666Y-123574204D01*
X93836666Y-123574204D02*
X93860476Y-123598014D01*
X93860476Y-123598014D02*
X93884285Y-123645633D01*
X93884285Y-123645633D02*
X93884285Y-123740871D01*
X93884285Y-123740871D02*
X93860476Y-123788490D01*
X93860476Y-123788490D02*
X93836666Y-123812300D01*
X93836666Y-123812300D02*
X93789047Y-123836109D01*
X93789047Y-123836109D02*
X93693809Y-123836109D01*
X93693809Y-123836109D02*
X93646190Y-123812300D01*
X93646190Y-123812300D02*
X93622381Y-123788490D01*
X93622381Y-123788490D02*
X93598571Y-123740871D01*
X93598571Y-123740871D02*
X93598571Y-123645633D01*
X93598571Y-123645633D02*
X93622381Y-123598014D01*
X93622381Y-123598014D02*
X93646190Y-123574204D01*
X93646190Y-123574204D02*
X93693809Y-123550395D01*
X203189046Y-106136109D02*
X202903332Y-106136109D01*
X203046189Y-106636109D02*
X203046189Y-106136109D01*
X202736666Y-106636109D02*
X202736666Y-106136109D01*
X202736666Y-106136109D02*
X202546190Y-106136109D01*
X202546190Y-106136109D02*
X202498571Y-106159919D01*
X202498571Y-106159919D02*
X202474761Y-106183728D01*
X202474761Y-106183728D02*
X202450952Y-106231347D01*
X202450952Y-106231347D02*
X202450952Y-106302776D01*
X202450952Y-106302776D02*
X202474761Y-106350395D01*
X202474761Y-106350395D02*
X202498571Y-106374204D01*
X202498571Y-106374204D02*
X202546190Y-106398014D01*
X202546190Y-106398014D02*
X202736666Y-106398014D01*
X202022380Y-106302776D02*
X202022380Y-106636109D01*
X202141428Y-106112300D02*
X202260475Y-106469442D01*
X202260475Y-106469442D02*
X201950952Y-106469442D01*
X201784285Y-106183728D02*
X201760476Y-106159919D01*
X201760476Y-106159919D02*
X201712857Y-106136109D01*
X201712857Y-106136109D02*
X201593809Y-106136109D01*
X201593809Y-106136109D02*
X201546190Y-106159919D01*
X201546190Y-106159919D02*
X201522381Y-106183728D01*
X201522381Y-106183728D02*
X201498571Y-106231347D01*
X201498571Y-106231347D02*
X201498571Y-106278966D01*
X201498571Y-106278966D02*
X201522381Y-106350395D01*
X201522381Y-106350395D02*
X201808095Y-106636109D01*
X201808095Y-106636109D02*
X201498571Y-106636109D01*
X200489046Y-106086109D02*
X200203332Y-106086109D01*
X200346189Y-106586109D02*
X200346189Y-106086109D01*
X200036666Y-106586109D02*
X200036666Y-106086109D01*
X200036666Y-106086109D02*
X199846190Y-106086109D01*
X199846190Y-106086109D02*
X199798571Y-106109919D01*
X199798571Y-106109919D02*
X199774761Y-106133728D01*
X199774761Y-106133728D02*
X199750952Y-106181347D01*
X199750952Y-106181347D02*
X199750952Y-106252776D01*
X199750952Y-106252776D02*
X199774761Y-106300395D01*
X199774761Y-106300395D02*
X199798571Y-106324204D01*
X199798571Y-106324204D02*
X199846190Y-106348014D01*
X199846190Y-106348014D02*
X200036666Y-106348014D01*
X199322380Y-106252776D02*
X199322380Y-106586109D01*
X199441428Y-106062300D02*
X199560475Y-106419442D01*
X199560475Y-106419442D02*
X199250952Y-106419442D01*
X198798571Y-106586109D02*
X199084285Y-106586109D01*
X198941428Y-106586109D02*
X198941428Y-106086109D01*
X198941428Y-106086109D02*
X198989047Y-106157538D01*
X198989047Y-106157538D02*
X199036666Y-106205157D01*
X199036666Y-106205157D02*
X199084285Y-106228966D01*
X149939046Y-96486109D02*
X149653332Y-96486109D01*
X149796189Y-96986109D02*
X149796189Y-96486109D01*
X149486666Y-96986109D02*
X149486666Y-96486109D01*
X149486666Y-96486109D02*
X149296190Y-96486109D01*
X149296190Y-96486109D02*
X149248571Y-96509919D01*
X149248571Y-96509919D02*
X149224761Y-96533728D01*
X149224761Y-96533728D02*
X149200952Y-96581347D01*
X149200952Y-96581347D02*
X149200952Y-96652776D01*
X149200952Y-96652776D02*
X149224761Y-96700395D01*
X149224761Y-96700395D02*
X149248571Y-96724204D01*
X149248571Y-96724204D02*
X149296190Y-96748014D01*
X149296190Y-96748014D02*
X149486666Y-96748014D01*
X149034285Y-96486109D02*
X148724761Y-96486109D01*
X148724761Y-96486109D02*
X148891428Y-96676585D01*
X148891428Y-96676585D02*
X148819999Y-96676585D01*
X148819999Y-96676585D02*
X148772380Y-96700395D01*
X148772380Y-96700395D02*
X148748571Y-96724204D01*
X148748571Y-96724204D02*
X148724761Y-96771823D01*
X148724761Y-96771823D02*
X148724761Y-96890871D01*
X148724761Y-96890871D02*
X148748571Y-96938490D01*
X148748571Y-96938490D02*
X148772380Y-96962300D01*
X148772380Y-96962300D02*
X148819999Y-96986109D01*
X148819999Y-96986109D02*
X148962856Y-96986109D01*
X148962856Y-96986109D02*
X149010475Y-96962300D01*
X149010475Y-96962300D02*
X149034285Y-96938490D01*
X148296190Y-96652776D02*
X148296190Y-96986109D01*
X148415238Y-96462300D02*
X148534285Y-96819442D01*
X148534285Y-96819442D02*
X148224762Y-96819442D01*
X164139046Y-102536109D02*
X163853332Y-102536109D01*
X163996189Y-103036109D02*
X163996189Y-102536109D01*
X163686666Y-103036109D02*
X163686666Y-102536109D01*
X163686666Y-102536109D02*
X163496190Y-102536109D01*
X163496190Y-102536109D02*
X163448571Y-102559919D01*
X163448571Y-102559919D02*
X163424761Y-102583728D01*
X163424761Y-102583728D02*
X163400952Y-102631347D01*
X163400952Y-102631347D02*
X163400952Y-102702776D01*
X163400952Y-102702776D02*
X163424761Y-102750395D01*
X163424761Y-102750395D02*
X163448571Y-102774204D01*
X163448571Y-102774204D02*
X163496190Y-102798014D01*
X163496190Y-102798014D02*
X163686666Y-102798014D01*
X163234285Y-102536109D02*
X162924761Y-102536109D01*
X162924761Y-102536109D02*
X163091428Y-102726585D01*
X163091428Y-102726585D02*
X163019999Y-102726585D01*
X163019999Y-102726585D02*
X162972380Y-102750395D01*
X162972380Y-102750395D02*
X162948571Y-102774204D01*
X162948571Y-102774204D02*
X162924761Y-102821823D01*
X162924761Y-102821823D02*
X162924761Y-102940871D01*
X162924761Y-102940871D02*
X162948571Y-102988490D01*
X162948571Y-102988490D02*
X162972380Y-103012300D01*
X162972380Y-103012300D02*
X163019999Y-103036109D01*
X163019999Y-103036109D02*
X163162856Y-103036109D01*
X163162856Y-103036109D02*
X163210475Y-103012300D01*
X163210475Y-103012300D02*
X163234285Y-102988490D01*
X162448571Y-103036109D02*
X162734285Y-103036109D01*
X162591428Y-103036109D02*
X162591428Y-102536109D01*
X162591428Y-102536109D02*
X162639047Y-102607538D01*
X162639047Y-102607538D02*
X162686666Y-102655157D01*
X162686666Y-102655157D02*
X162734285Y-102678966D01*
X197539046Y-87336109D02*
X197253332Y-87336109D01*
X197396189Y-87836109D02*
X197396189Y-87336109D01*
X197086666Y-87836109D02*
X197086666Y-87336109D01*
X197086666Y-87336109D02*
X196896190Y-87336109D01*
X196896190Y-87336109D02*
X196848571Y-87359919D01*
X196848571Y-87359919D02*
X196824761Y-87383728D01*
X196824761Y-87383728D02*
X196800952Y-87431347D01*
X196800952Y-87431347D02*
X196800952Y-87502776D01*
X196800952Y-87502776D02*
X196824761Y-87550395D01*
X196824761Y-87550395D02*
X196848571Y-87574204D01*
X196848571Y-87574204D02*
X196896190Y-87598014D01*
X196896190Y-87598014D02*
X197086666Y-87598014D01*
X196610475Y-87383728D02*
X196586666Y-87359919D01*
X196586666Y-87359919D02*
X196539047Y-87336109D01*
X196539047Y-87336109D02*
X196419999Y-87336109D01*
X196419999Y-87336109D02*
X196372380Y-87359919D01*
X196372380Y-87359919D02*
X196348571Y-87383728D01*
X196348571Y-87383728D02*
X196324761Y-87431347D01*
X196324761Y-87431347D02*
X196324761Y-87478966D01*
X196324761Y-87478966D02*
X196348571Y-87550395D01*
X196348571Y-87550395D02*
X196634285Y-87836109D01*
X196634285Y-87836109D02*
X196324761Y-87836109D01*
X195872381Y-87336109D02*
X196110476Y-87336109D01*
X196110476Y-87336109D02*
X196134285Y-87574204D01*
X196134285Y-87574204D02*
X196110476Y-87550395D01*
X196110476Y-87550395D02*
X196062857Y-87526585D01*
X196062857Y-87526585D02*
X195943809Y-87526585D01*
X195943809Y-87526585D02*
X195896190Y-87550395D01*
X195896190Y-87550395D02*
X195872381Y-87574204D01*
X195872381Y-87574204D02*
X195848571Y-87621823D01*
X195848571Y-87621823D02*
X195848571Y-87740871D01*
X195848571Y-87740871D02*
X195872381Y-87788490D01*
X195872381Y-87788490D02*
X195896190Y-87812300D01*
X195896190Y-87812300D02*
X195943809Y-87836109D01*
X195943809Y-87836109D02*
X196062857Y-87836109D01*
X196062857Y-87836109D02*
X196110476Y-87812300D01*
X196110476Y-87812300D02*
X196134285Y-87788490D01*
X133950951Y-119936109D02*
X133665237Y-119936109D01*
X133808094Y-120436109D02*
X133808094Y-119936109D01*
X133498571Y-120436109D02*
X133498571Y-119936109D01*
X133498571Y-119936109D02*
X133308095Y-119936109D01*
X133308095Y-119936109D02*
X133260476Y-119959919D01*
X133260476Y-119959919D02*
X133236666Y-119983728D01*
X133236666Y-119983728D02*
X133212857Y-120031347D01*
X133212857Y-120031347D02*
X133212857Y-120102776D01*
X133212857Y-120102776D02*
X133236666Y-120150395D01*
X133236666Y-120150395D02*
X133260476Y-120174204D01*
X133260476Y-120174204D02*
X133308095Y-120198014D01*
X133308095Y-120198014D02*
X133498571Y-120198014D01*
X132784285Y-119936109D02*
X132879523Y-119936109D01*
X132879523Y-119936109D02*
X132927142Y-119959919D01*
X132927142Y-119959919D02*
X132950952Y-119983728D01*
X132950952Y-119983728D02*
X132998571Y-120055157D01*
X132998571Y-120055157D02*
X133022380Y-120150395D01*
X133022380Y-120150395D02*
X133022380Y-120340871D01*
X133022380Y-120340871D02*
X132998571Y-120388490D01*
X132998571Y-120388490D02*
X132974761Y-120412300D01*
X132974761Y-120412300D02*
X132927142Y-120436109D01*
X132927142Y-120436109D02*
X132831904Y-120436109D01*
X132831904Y-120436109D02*
X132784285Y-120412300D01*
X132784285Y-120412300D02*
X132760476Y-120388490D01*
X132760476Y-120388490D02*
X132736666Y-120340871D01*
X132736666Y-120340871D02*
X132736666Y-120221823D01*
X132736666Y-120221823D02*
X132760476Y-120174204D01*
X132760476Y-120174204D02*
X132784285Y-120150395D01*
X132784285Y-120150395D02*
X132831904Y-120126585D01*
X132831904Y-120126585D02*
X132927142Y-120126585D01*
X132927142Y-120126585D02*
X132974761Y-120150395D01*
X132974761Y-120150395D02*
X132998571Y-120174204D01*
X132998571Y-120174204D02*
X133022380Y-120221823D01*
X195839046Y-107186109D02*
X195553332Y-107186109D01*
X195696189Y-107686109D02*
X195696189Y-107186109D01*
X195386666Y-107686109D02*
X195386666Y-107186109D01*
X195386666Y-107186109D02*
X195196190Y-107186109D01*
X195196190Y-107186109D02*
X195148571Y-107209919D01*
X195148571Y-107209919D02*
X195124761Y-107233728D01*
X195124761Y-107233728D02*
X195100952Y-107281347D01*
X195100952Y-107281347D02*
X195100952Y-107352776D01*
X195100952Y-107352776D02*
X195124761Y-107400395D01*
X195124761Y-107400395D02*
X195148571Y-107424204D01*
X195148571Y-107424204D02*
X195196190Y-107448014D01*
X195196190Y-107448014D02*
X195386666Y-107448014D01*
X194624761Y-107686109D02*
X194910475Y-107686109D01*
X194767618Y-107686109D02*
X194767618Y-107186109D01*
X194767618Y-107186109D02*
X194815237Y-107257538D01*
X194815237Y-107257538D02*
X194862856Y-107305157D01*
X194862856Y-107305157D02*
X194910475Y-107328966D01*
X194386666Y-107686109D02*
X194291428Y-107686109D01*
X194291428Y-107686109D02*
X194243809Y-107662300D01*
X194243809Y-107662300D02*
X194220000Y-107638490D01*
X194220000Y-107638490D02*
X194172381Y-107567061D01*
X194172381Y-107567061D02*
X194148571Y-107471823D01*
X194148571Y-107471823D02*
X194148571Y-107281347D01*
X194148571Y-107281347D02*
X194172381Y-107233728D01*
X194172381Y-107233728D02*
X194196190Y-107209919D01*
X194196190Y-107209919D02*
X194243809Y-107186109D01*
X194243809Y-107186109D02*
X194339047Y-107186109D01*
X194339047Y-107186109D02*
X194386666Y-107209919D01*
X194386666Y-107209919D02*
X194410476Y-107233728D01*
X194410476Y-107233728D02*
X194434285Y-107281347D01*
X194434285Y-107281347D02*
X194434285Y-107400395D01*
X194434285Y-107400395D02*
X194410476Y-107448014D01*
X194410476Y-107448014D02*
X194386666Y-107471823D01*
X194386666Y-107471823D02*
X194339047Y-107495633D01*
X194339047Y-107495633D02*
X194243809Y-107495633D01*
X194243809Y-107495633D02*
X194196190Y-107471823D01*
X194196190Y-107471823D02*
X194172381Y-107448014D01*
X194172381Y-107448014D02*
X194148571Y-107400395D01*
X102789046Y-127536109D02*
X102503332Y-127536109D01*
X102646189Y-128036109D02*
X102646189Y-127536109D01*
X102336666Y-128036109D02*
X102336666Y-127536109D01*
X102336666Y-127536109D02*
X102146190Y-127536109D01*
X102146190Y-127536109D02*
X102098571Y-127559919D01*
X102098571Y-127559919D02*
X102074761Y-127583728D01*
X102074761Y-127583728D02*
X102050952Y-127631347D01*
X102050952Y-127631347D02*
X102050952Y-127702776D01*
X102050952Y-127702776D02*
X102074761Y-127750395D01*
X102074761Y-127750395D02*
X102098571Y-127774204D01*
X102098571Y-127774204D02*
X102146190Y-127798014D01*
X102146190Y-127798014D02*
X102336666Y-127798014D01*
X101574761Y-128036109D02*
X101860475Y-128036109D01*
X101717618Y-128036109D02*
X101717618Y-127536109D01*
X101717618Y-127536109D02*
X101765237Y-127607538D01*
X101765237Y-127607538D02*
X101812856Y-127655157D01*
X101812856Y-127655157D02*
X101860475Y-127678966D01*
X101146190Y-127536109D02*
X101241428Y-127536109D01*
X101241428Y-127536109D02*
X101289047Y-127559919D01*
X101289047Y-127559919D02*
X101312857Y-127583728D01*
X101312857Y-127583728D02*
X101360476Y-127655157D01*
X101360476Y-127655157D02*
X101384285Y-127750395D01*
X101384285Y-127750395D02*
X101384285Y-127940871D01*
X101384285Y-127940871D02*
X101360476Y-127988490D01*
X101360476Y-127988490D02*
X101336666Y-128012300D01*
X101336666Y-128012300D02*
X101289047Y-128036109D01*
X101289047Y-128036109D02*
X101193809Y-128036109D01*
X101193809Y-128036109D02*
X101146190Y-128012300D01*
X101146190Y-128012300D02*
X101122381Y-127988490D01*
X101122381Y-127988490D02*
X101098571Y-127940871D01*
X101098571Y-127940871D02*
X101098571Y-127821823D01*
X101098571Y-127821823D02*
X101122381Y-127774204D01*
X101122381Y-127774204D02*
X101146190Y-127750395D01*
X101146190Y-127750395D02*
X101193809Y-127726585D01*
X101193809Y-127726585D02*
X101289047Y-127726585D01*
X101289047Y-127726585D02*
X101336666Y-127750395D01*
X101336666Y-127750395D02*
X101360476Y-127774204D01*
X101360476Y-127774204D02*
X101384285Y-127821823D01*
X220489046Y-103486109D02*
X220203332Y-103486109D01*
X220346189Y-103986109D02*
X220346189Y-103486109D01*
X220036666Y-103986109D02*
X220036666Y-103486109D01*
X220036666Y-103486109D02*
X219846190Y-103486109D01*
X219846190Y-103486109D02*
X219798571Y-103509919D01*
X219798571Y-103509919D02*
X219774761Y-103533728D01*
X219774761Y-103533728D02*
X219750952Y-103581347D01*
X219750952Y-103581347D02*
X219750952Y-103652776D01*
X219750952Y-103652776D02*
X219774761Y-103700395D01*
X219774761Y-103700395D02*
X219798571Y-103724204D01*
X219798571Y-103724204D02*
X219846190Y-103748014D01*
X219846190Y-103748014D02*
X220036666Y-103748014D01*
X219560475Y-103533728D02*
X219536666Y-103509919D01*
X219536666Y-103509919D02*
X219489047Y-103486109D01*
X219489047Y-103486109D02*
X219369999Y-103486109D01*
X219369999Y-103486109D02*
X219322380Y-103509919D01*
X219322380Y-103509919D02*
X219298571Y-103533728D01*
X219298571Y-103533728D02*
X219274761Y-103581347D01*
X219274761Y-103581347D02*
X219274761Y-103628966D01*
X219274761Y-103628966D02*
X219298571Y-103700395D01*
X219298571Y-103700395D02*
X219584285Y-103986109D01*
X219584285Y-103986109D02*
X219274761Y-103986109D01*
X218965238Y-103486109D02*
X218917619Y-103486109D01*
X218917619Y-103486109D02*
X218870000Y-103509919D01*
X218870000Y-103509919D02*
X218846190Y-103533728D01*
X218846190Y-103533728D02*
X218822381Y-103581347D01*
X218822381Y-103581347D02*
X218798571Y-103676585D01*
X218798571Y-103676585D02*
X218798571Y-103795633D01*
X218798571Y-103795633D02*
X218822381Y-103890871D01*
X218822381Y-103890871D02*
X218846190Y-103938490D01*
X218846190Y-103938490D02*
X218870000Y-103962300D01*
X218870000Y-103962300D02*
X218917619Y-103986109D01*
X218917619Y-103986109D02*
X218965238Y-103986109D01*
X218965238Y-103986109D02*
X219012857Y-103962300D01*
X219012857Y-103962300D02*
X219036666Y-103938490D01*
X219036666Y-103938490D02*
X219060476Y-103890871D01*
X219060476Y-103890871D02*
X219084285Y-103795633D01*
X219084285Y-103795633D02*
X219084285Y-103676585D01*
X219084285Y-103676585D02*
X219060476Y-103581347D01*
X219060476Y-103581347D02*
X219036666Y-103533728D01*
X219036666Y-103533728D02*
X219012857Y-103509919D01*
X219012857Y-103509919D02*
X218965238Y-103486109D01*
X126370111Y-123136109D02*
X126084397Y-123136109D01*
X126227254Y-123636109D02*
X126227254Y-123136109D01*
X125917731Y-123636109D02*
X125917731Y-123136109D01*
X125917731Y-123136109D02*
X125727255Y-123136109D01*
X125727255Y-123136109D02*
X125679636Y-123159919D01*
X125679636Y-123159919D02*
X125655826Y-123183728D01*
X125655826Y-123183728D02*
X125632017Y-123231347D01*
X125632017Y-123231347D02*
X125632017Y-123302776D01*
X125632017Y-123302776D02*
X125655826Y-123350395D01*
X125655826Y-123350395D02*
X125679636Y-123374204D01*
X125679636Y-123374204D02*
X125727255Y-123398014D01*
X125727255Y-123398014D02*
X125917731Y-123398014D01*
X125155826Y-123636109D02*
X125441540Y-123636109D01*
X125298683Y-123636109D02*
X125298683Y-123136109D01*
X125298683Y-123136109D02*
X125346302Y-123207538D01*
X125346302Y-123207538D02*
X125393921Y-123255157D01*
X125393921Y-123255157D02*
X125441540Y-123278966D01*
X124965350Y-123183728D02*
X124941541Y-123159919D01*
X124941541Y-123159919D02*
X124893922Y-123136109D01*
X124893922Y-123136109D02*
X124774874Y-123136109D01*
X124774874Y-123136109D02*
X124727255Y-123159919D01*
X124727255Y-123159919D02*
X124703446Y-123183728D01*
X124703446Y-123183728D02*
X124679636Y-123231347D01*
X124679636Y-123231347D02*
X124679636Y-123278966D01*
X124679636Y-123278966D02*
X124703446Y-123350395D01*
X124703446Y-123350395D02*
X124989160Y-123636109D01*
X124989160Y-123636109D02*
X124679636Y-123636109D01*
X134150951Y-79436109D02*
X133865237Y-79436109D01*
X134008094Y-79936109D02*
X134008094Y-79436109D01*
X133698571Y-79936109D02*
X133698571Y-79436109D01*
X133698571Y-79436109D02*
X133508095Y-79436109D01*
X133508095Y-79436109D02*
X133460476Y-79459919D01*
X133460476Y-79459919D02*
X133436666Y-79483728D01*
X133436666Y-79483728D02*
X133412857Y-79531347D01*
X133412857Y-79531347D02*
X133412857Y-79602776D01*
X133412857Y-79602776D02*
X133436666Y-79650395D01*
X133436666Y-79650395D02*
X133460476Y-79674204D01*
X133460476Y-79674204D02*
X133508095Y-79698014D01*
X133508095Y-79698014D02*
X133698571Y-79698014D01*
X133222380Y-79483728D02*
X133198571Y-79459919D01*
X133198571Y-79459919D02*
X133150952Y-79436109D01*
X133150952Y-79436109D02*
X133031904Y-79436109D01*
X133031904Y-79436109D02*
X132984285Y-79459919D01*
X132984285Y-79459919D02*
X132960476Y-79483728D01*
X132960476Y-79483728D02*
X132936666Y-79531347D01*
X132936666Y-79531347D02*
X132936666Y-79578966D01*
X132936666Y-79578966D02*
X132960476Y-79650395D01*
X132960476Y-79650395D02*
X133246190Y-79936109D01*
X133246190Y-79936109D02*
X132936666Y-79936109D01*
X107589046Y-95236109D02*
X107303332Y-95236109D01*
X107446189Y-95736109D02*
X107446189Y-95236109D01*
X107136666Y-95736109D02*
X107136666Y-95236109D01*
X107136666Y-95236109D02*
X106946190Y-95236109D01*
X106946190Y-95236109D02*
X106898571Y-95259919D01*
X106898571Y-95259919D02*
X106874761Y-95283728D01*
X106874761Y-95283728D02*
X106850952Y-95331347D01*
X106850952Y-95331347D02*
X106850952Y-95402776D01*
X106850952Y-95402776D02*
X106874761Y-95450395D01*
X106874761Y-95450395D02*
X106898571Y-95474204D01*
X106898571Y-95474204D02*
X106946190Y-95498014D01*
X106946190Y-95498014D02*
X107136666Y-95498014D01*
X106422380Y-95402776D02*
X106422380Y-95736109D01*
X106541428Y-95212300D02*
X106660475Y-95569442D01*
X106660475Y-95569442D02*
X106350952Y-95569442D01*
X106065238Y-95236109D02*
X106017619Y-95236109D01*
X106017619Y-95236109D02*
X105970000Y-95259919D01*
X105970000Y-95259919D02*
X105946190Y-95283728D01*
X105946190Y-95283728D02*
X105922381Y-95331347D01*
X105922381Y-95331347D02*
X105898571Y-95426585D01*
X105898571Y-95426585D02*
X105898571Y-95545633D01*
X105898571Y-95545633D02*
X105922381Y-95640871D01*
X105922381Y-95640871D02*
X105946190Y-95688490D01*
X105946190Y-95688490D02*
X105970000Y-95712300D01*
X105970000Y-95712300D02*
X106017619Y-95736109D01*
X106017619Y-95736109D02*
X106065238Y-95736109D01*
X106065238Y-95736109D02*
X106112857Y-95712300D01*
X106112857Y-95712300D02*
X106136666Y-95688490D01*
X106136666Y-95688490D02*
X106160476Y-95640871D01*
X106160476Y-95640871D02*
X106184285Y-95545633D01*
X106184285Y-95545633D02*
X106184285Y-95426585D01*
X106184285Y-95426585D02*
X106160476Y-95331347D01*
X106160476Y-95331347D02*
X106136666Y-95283728D01*
X106136666Y-95283728D02*
X106112857Y-95259919D01*
X106112857Y-95259919D02*
X106065238Y-95236109D01*
X102400951Y-124686109D02*
X102115237Y-124686109D01*
X102258094Y-125186109D02*
X102258094Y-124686109D01*
X101948571Y-125186109D02*
X101948571Y-124686109D01*
X101948571Y-124686109D02*
X101758095Y-124686109D01*
X101758095Y-124686109D02*
X101710476Y-124709919D01*
X101710476Y-124709919D02*
X101686666Y-124733728D01*
X101686666Y-124733728D02*
X101662857Y-124781347D01*
X101662857Y-124781347D02*
X101662857Y-124852776D01*
X101662857Y-124852776D02*
X101686666Y-124900395D01*
X101686666Y-124900395D02*
X101710476Y-124924204D01*
X101710476Y-124924204D02*
X101758095Y-124948014D01*
X101758095Y-124948014D02*
X101948571Y-124948014D01*
X101377142Y-124900395D02*
X101424761Y-124876585D01*
X101424761Y-124876585D02*
X101448571Y-124852776D01*
X101448571Y-124852776D02*
X101472380Y-124805157D01*
X101472380Y-124805157D02*
X101472380Y-124781347D01*
X101472380Y-124781347D02*
X101448571Y-124733728D01*
X101448571Y-124733728D02*
X101424761Y-124709919D01*
X101424761Y-124709919D02*
X101377142Y-124686109D01*
X101377142Y-124686109D02*
X101281904Y-124686109D01*
X101281904Y-124686109D02*
X101234285Y-124709919D01*
X101234285Y-124709919D02*
X101210476Y-124733728D01*
X101210476Y-124733728D02*
X101186666Y-124781347D01*
X101186666Y-124781347D02*
X101186666Y-124805157D01*
X101186666Y-124805157D02*
X101210476Y-124852776D01*
X101210476Y-124852776D02*
X101234285Y-124876585D01*
X101234285Y-124876585D02*
X101281904Y-124900395D01*
X101281904Y-124900395D02*
X101377142Y-124900395D01*
X101377142Y-124900395D02*
X101424761Y-124924204D01*
X101424761Y-124924204D02*
X101448571Y-124948014D01*
X101448571Y-124948014D02*
X101472380Y-124995633D01*
X101472380Y-124995633D02*
X101472380Y-125090871D01*
X101472380Y-125090871D02*
X101448571Y-125138490D01*
X101448571Y-125138490D02*
X101424761Y-125162300D01*
X101424761Y-125162300D02*
X101377142Y-125186109D01*
X101377142Y-125186109D02*
X101281904Y-125186109D01*
X101281904Y-125186109D02*
X101234285Y-125162300D01*
X101234285Y-125162300D02*
X101210476Y-125138490D01*
X101210476Y-125138490D02*
X101186666Y-125090871D01*
X101186666Y-125090871D02*
X101186666Y-124995633D01*
X101186666Y-124995633D02*
X101210476Y-124948014D01*
X101210476Y-124948014D02*
X101234285Y-124924204D01*
X101234285Y-124924204D02*
X101281904Y-124900395D01*
X155239046Y-94436109D02*
X154953332Y-94436109D01*
X155096189Y-94936109D02*
X155096189Y-94436109D01*
X154786666Y-94936109D02*
X154786666Y-94436109D01*
X154786666Y-94436109D02*
X154596190Y-94436109D01*
X154596190Y-94436109D02*
X154548571Y-94459919D01*
X154548571Y-94459919D02*
X154524761Y-94483728D01*
X154524761Y-94483728D02*
X154500952Y-94531347D01*
X154500952Y-94531347D02*
X154500952Y-94602776D01*
X154500952Y-94602776D02*
X154524761Y-94650395D01*
X154524761Y-94650395D02*
X154548571Y-94674204D01*
X154548571Y-94674204D02*
X154596190Y-94698014D01*
X154596190Y-94698014D02*
X154786666Y-94698014D01*
X154310475Y-94483728D02*
X154286666Y-94459919D01*
X154286666Y-94459919D02*
X154239047Y-94436109D01*
X154239047Y-94436109D02*
X154119999Y-94436109D01*
X154119999Y-94436109D02*
X154072380Y-94459919D01*
X154072380Y-94459919D02*
X154048571Y-94483728D01*
X154048571Y-94483728D02*
X154024761Y-94531347D01*
X154024761Y-94531347D02*
X154024761Y-94578966D01*
X154024761Y-94578966D02*
X154048571Y-94650395D01*
X154048571Y-94650395D02*
X154334285Y-94936109D01*
X154334285Y-94936109D02*
X154024761Y-94936109D01*
X153739047Y-94650395D02*
X153786666Y-94626585D01*
X153786666Y-94626585D02*
X153810476Y-94602776D01*
X153810476Y-94602776D02*
X153834285Y-94555157D01*
X153834285Y-94555157D02*
X153834285Y-94531347D01*
X153834285Y-94531347D02*
X153810476Y-94483728D01*
X153810476Y-94483728D02*
X153786666Y-94459919D01*
X153786666Y-94459919D02*
X153739047Y-94436109D01*
X153739047Y-94436109D02*
X153643809Y-94436109D01*
X153643809Y-94436109D02*
X153596190Y-94459919D01*
X153596190Y-94459919D02*
X153572381Y-94483728D01*
X153572381Y-94483728D02*
X153548571Y-94531347D01*
X153548571Y-94531347D02*
X153548571Y-94555157D01*
X153548571Y-94555157D02*
X153572381Y-94602776D01*
X153572381Y-94602776D02*
X153596190Y-94626585D01*
X153596190Y-94626585D02*
X153643809Y-94650395D01*
X153643809Y-94650395D02*
X153739047Y-94650395D01*
X153739047Y-94650395D02*
X153786666Y-94674204D01*
X153786666Y-94674204D02*
X153810476Y-94698014D01*
X153810476Y-94698014D02*
X153834285Y-94745633D01*
X153834285Y-94745633D02*
X153834285Y-94840871D01*
X153834285Y-94840871D02*
X153810476Y-94888490D01*
X153810476Y-94888490D02*
X153786666Y-94912300D01*
X153786666Y-94912300D02*
X153739047Y-94936109D01*
X153739047Y-94936109D02*
X153643809Y-94936109D01*
X153643809Y-94936109D02*
X153596190Y-94912300D01*
X153596190Y-94912300D02*
X153572381Y-94888490D01*
X153572381Y-94888490D02*
X153548571Y-94840871D01*
X153548571Y-94840871D02*
X153548571Y-94745633D01*
X153548571Y-94745633D02*
X153572381Y-94698014D01*
X153572381Y-94698014D02*
X153596190Y-94674204D01*
X153596190Y-94674204D02*
X153643809Y-94650395D01*
X216139046Y-68786109D02*
X215853332Y-68786109D01*
X215996189Y-69286109D02*
X215996189Y-68786109D01*
X215686666Y-69286109D02*
X215686666Y-68786109D01*
X215686666Y-68786109D02*
X215496190Y-68786109D01*
X215496190Y-68786109D02*
X215448571Y-68809919D01*
X215448571Y-68809919D02*
X215424761Y-68833728D01*
X215424761Y-68833728D02*
X215400952Y-68881347D01*
X215400952Y-68881347D02*
X215400952Y-68952776D01*
X215400952Y-68952776D02*
X215424761Y-69000395D01*
X215424761Y-69000395D02*
X215448571Y-69024204D01*
X215448571Y-69024204D02*
X215496190Y-69048014D01*
X215496190Y-69048014D02*
X215686666Y-69048014D01*
X215210475Y-68833728D02*
X215186666Y-68809919D01*
X215186666Y-68809919D02*
X215139047Y-68786109D01*
X215139047Y-68786109D02*
X215019999Y-68786109D01*
X215019999Y-68786109D02*
X214972380Y-68809919D01*
X214972380Y-68809919D02*
X214948571Y-68833728D01*
X214948571Y-68833728D02*
X214924761Y-68881347D01*
X214924761Y-68881347D02*
X214924761Y-68928966D01*
X214924761Y-68928966D02*
X214948571Y-69000395D01*
X214948571Y-69000395D02*
X215234285Y-69286109D01*
X215234285Y-69286109D02*
X214924761Y-69286109D01*
X214734285Y-68833728D02*
X214710476Y-68809919D01*
X214710476Y-68809919D02*
X214662857Y-68786109D01*
X214662857Y-68786109D02*
X214543809Y-68786109D01*
X214543809Y-68786109D02*
X214496190Y-68809919D01*
X214496190Y-68809919D02*
X214472381Y-68833728D01*
X214472381Y-68833728D02*
X214448571Y-68881347D01*
X214448571Y-68881347D02*
X214448571Y-68928966D01*
X214448571Y-68928966D02*
X214472381Y-69000395D01*
X214472381Y-69000395D02*
X214758095Y-69286109D01*
X214758095Y-69286109D02*
X214448571Y-69286109D01*
X171789046Y-98986109D02*
X171503332Y-98986109D01*
X171646189Y-99486109D02*
X171646189Y-98986109D01*
X171336666Y-99486109D02*
X171336666Y-98986109D01*
X171336666Y-98986109D02*
X171146190Y-98986109D01*
X171146190Y-98986109D02*
X171098571Y-99009919D01*
X171098571Y-99009919D02*
X171074761Y-99033728D01*
X171074761Y-99033728D02*
X171050952Y-99081347D01*
X171050952Y-99081347D02*
X171050952Y-99152776D01*
X171050952Y-99152776D02*
X171074761Y-99200395D01*
X171074761Y-99200395D02*
X171098571Y-99224204D01*
X171098571Y-99224204D02*
X171146190Y-99248014D01*
X171146190Y-99248014D02*
X171336666Y-99248014D01*
X170884285Y-98986109D02*
X170574761Y-98986109D01*
X170574761Y-98986109D02*
X170741428Y-99176585D01*
X170741428Y-99176585D02*
X170669999Y-99176585D01*
X170669999Y-99176585D02*
X170622380Y-99200395D01*
X170622380Y-99200395D02*
X170598571Y-99224204D01*
X170598571Y-99224204D02*
X170574761Y-99271823D01*
X170574761Y-99271823D02*
X170574761Y-99390871D01*
X170574761Y-99390871D02*
X170598571Y-99438490D01*
X170598571Y-99438490D02*
X170622380Y-99462300D01*
X170622380Y-99462300D02*
X170669999Y-99486109D01*
X170669999Y-99486109D02*
X170812856Y-99486109D01*
X170812856Y-99486109D02*
X170860475Y-99462300D01*
X170860475Y-99462300D02*
X170884285Y-99438490D01*
X170146190Y-98986109D02*
X170241428Y-98986109D01*
X170241428Y-98986109D02*
X170289047Y-99009919D01*
X170289047Y-99009919D02*
X170312857Y-99033728D01*
X170312857Y-99033728D02*
X170360476Y-99105157D01*
X170360476Y-99105157D02*
X170384285Y-99200395D01*
X170384285Y-99200395D02*
X170384285Y-99390871D01*
X170384285Y-99390871D02*
X170360476Y-99438490D01*
X170360476Y-99438490D02*
X170336666Y-99462300D01*
X170336666Y-99462300D02*
X170289047Y-99486109D01*
X170289047Y-99486109D02*
X170193809Y-99486109D01*
X170193809Y-99486109D02*
X170146190Y-99462300D01*
X170146190Y-99462300D02*
X170122381Y-99438490D01*
X170122381Y-99438490D02*
X170098571Y-99390871D01*
X170098571Y-99390871D02*
X170098571Y-99271823D01*
X170098571Y-99271823D02*
X170122381Y-99224204D01*
X170122381Y-99224204D02*
X170146190Y-99200395D01*
X170146190Y-99200395D02*
X170193809Y-99176585D01*
X170193809Y-99176585D02*
X170289047Y-99176585D01*
X170289047Y-99176585D02*
X170336666Y-99200395D01*
X170336666Y-99200395D02*
X170360476Y-99224204D01*
X170360476Y-99224204D02*
X170384285Y-99271823D01*
X200569576Y-87690108D02*
X200283862Y-87690108D01*
X200426719Y-88190108D02*
X200426719Y-87690108D01*
X200117196Y-88190108D02*
X200117196Y-87690108D01*
X200117196Y-87690108D02*
X199926720Y-87690108D01*
X199926720Y-87690108D02*
X199879101Y-87713918D01*
X199879101Y-87713918D02*
X199855291Y-87737727D01*
X199855291Y-87737727D02*
X199831482Y-87785346D01*
X199831482Y-87785346D02*
X199831482Y-87856775D01*
X199831482Y-87856775D02*
X199855291Y-87904394D01*
X199855291Y-87904394D02*
X199879101Y-87928203D01*
X199879101Y-87928203D02*
X199926720Y-87952013D01*
X199926720Y-87952013D02*
X200117196Y-87952013D01*
X199641005Y-87737727D02*
X199617196Y-87713918D01*
X199617196Y-87713918D02*
X199569577Y-87690108D01*
X199569577Y-87690108D02*
X199450529Y-87690108D01*
X199450529Y-87690108D02*
X199402910Y-87713918D01*
X199402910Y-87713918D02*
X199379101Y-87737727D01*
X199379101Y-87737727D02*
X199355291Y-87785346D01*
X199355291Y-87785346D02*
X199355291Y-87832965D01*
X199355291Y-87832965D02*
X199379101Y-87904394D01*
X199379101Y-87904394D02*
X199664815Y-88190108D01*
X199664815Y-88190108D02*
X199355291Y-88190108D01*
X198879101Y-88190108D02*
X199164815Y-88190108D01*
X199021958Y-88190108D02*
X199021958Y-87690108D01*
X199021958Y-87690108D02*
X199069577Y-87761537D01*
X199069577Y-87761537D02*
X199117196Y-87809156D01*
X199117196Y-87809156D02*
X199164815Y-87832965D01*
X127968854Y-136186109D02*
X127683140Y-136186109D01*
X127825997Y-136686109D02*
X127825997Y-136186109D01*
X127516474Y-136686109D02*
X127516474Y-136186109D01*
X127516474Y-136186109D02*
X127325998Y-136186109D01*
X127325998Y-136186109D02*
X127278379Y-136209919D01*
X127278379Y-136209919D02*
X127254569Y-136233728D01*
X127254569Y-136233728D02*
X127230760Y-136281347D01*
X127230760Y-136281347D02*
X127230760Y-136352776D01*
X127230760Y-136352776D02*
X127254569Y-136400395D01*
X127254569Y-136400395D02*
X127278379Y-136424204D01*
X127278379Y-136424204D02*
X127325998Y-136448014D01*
X127325998Y-136448014D02*
X127516474Y-136448014D01*
X126754569Y-136686109D02*
X127040283Y-136686109D01*
X126897426Y-136686109D02*
X126897426Y-136186109D01*
X126897426Y-136186109D02*
X126945045Y-136257538D01*
X126945045Y-136257538D02*
X126992664Y-136305157D01*
X126992664Y-136305157D02*
X127040283Y-136328966D01*
X126278379Y-136686109D02*
X126564093Y-136686109D01*
X126421236Y-136686109D02*
X126421236Y-136186109D01*
X126421236Y-136186109D02*
X126468855Y-136257538D01*
X126468855Y-136257538D02*
X126516474Y-136305157D01*
X126516474Y-136305157D02*
X126564093Y-136328966D01*
X88589046Y-121436109D02*
X88303332Y-121436109D01*
X88446189Y-121936109D02*
X88446189Y-121436109D01*
X88136666Y-121936109D02*
X88136666Y-121436109D01*
X88136666Y-121436109D02*
X87946190Y-121436109D01*
X87946190Y-121436109D02*
X87898571Y-121459919D01*
X87898571Y-121459919D02*
X87874761Y-121483728D01*
X87874761Y-121483728D02*
X87850952Y-121531347D01*
X87850952Y-121531347D02*
X87850952Y-121602776D01*
X87850952Y-121602776D02*
X87874761Y-121650395D01*
X87874761Y-121650395D02*
X87898571Y-121674204D01*
X87898571Y-121674204D02*
X87946190Y-121698014D01*
X87946190Y-121698014D02*
X88136666Y-121698014D01*
X87374761Y-121936109D02*
X87660475Y-121936109D01*
X87517618Y-121936109D02*
X87517618Y-121436109D01*
X87517618Y-121436109D02*
X87565237Y-121507538D01*
X87565237Y-121507538D02*
X87612856Y-121555157D01*
X87612856Y-121555157D02*
X87660475Y-121578966D01*
X86946190Y-121602776D02*
X86946190Y-121936109D01*
X87065238Y-121412300D02*
X87184285Y-121769442D01*
X87184285Y-121769442D02*
X86874762Y-121769442D01*
X143389046Y-102061109D02*
X143103332Y-102061109D01*
X143246189Y-102561109D02*
X143246189Y-102061109D01*
X142936666Y-102561109D02*
X142936666Y-102061109D01*
X142936666Y-102061109D02*
X142746190Y-102061109D01*
X142746190Y-102061109D02*
X142698571Y-102084919D01*
X142698571Y-102084919D02*
X142674761Y-102108728D01*
X142674761Y-102108728D02*
X142650952Y-102156347D01*
X142650952Y-102156347D02*
X142650952Y-102227776D01*
X142650952Y-102227776D02*
X142674761Y-102275395D01*
X142674761Y-102275395D02*
X142698571Y-102299204D01*
X142698571Y-102299204D02*
X142746190Y-102323014D01*
X142746190Y-102323014D02*
X142936666Y-102323014D01*
X142460475Y-102108728D02*
X142436666Y-102084919D01*
X142436666Y-102084919D02*
X142389047Y-102061109D01*
X142389047Y-102061109D02*
X142269999Y-102061109D01*
X142269999Y-102061109D02*
X142222380Y-102084919D01*
X142222380Y-102084919D02*
X142198571Y-102108728D01*
X142198571Y-102108728D02*
X142174761Y-102156347D01*
X142174761Y-102156347D02*
X142174761Y-102203966D01*
X142174761Y-102203966D02*
X142198571Y-102275395D01*
X142198571Y-102275395D02*
X142484285Y-102561109D01*
X142484285Y-102561109D02*
X142174761Y-102561109D01*
X141936666Y-102561109D02*
X141841428Y-102561109D01*
X141841428Y-102561109D02*
X141793809Y-102537300D01*
X141793809Y-102537300D02*
X141770000Y-102513490D01*
X141770000Y-102513490D02*
X141722381Y-102442061D01*
X141722381Y-102442061D02*
X141698571Y-102346823D01*
X141698571Y-102346823D02*
X141698571Y-102156347D01*
X141698571Y-102156347D02*
X141722381Y-102108728D01*
X141722381Y-102108728D02*
X141746190Y-102084919D01*
X141746190Y-102084919D02*
X141793809Y-102061109D01*
X141793809Y-102061109D02*
X141889047Y-102061109D01*
X141889047Y-102061109D02*
X141936666Y-102084919D01*
X141936666Y-102084919D02*
X141960476Y-102108728D01*
X141960476Y-102108728D02*
X141984285Y-102156347D01*
X141984285Y-102156347D02*
X141984285Y-102275395D01*
X141984285Y-102275395D02*
X141960476Y-102323014D01*
X141960476Y-102323014D02*
X141936666Y-102346823D01*
X141936666Y-102346823D02*
X141889047Y-102370633D01*
X141889047Y-102370633D02*
X141793809Y-102370633D01*
X141793809Y-102370633D02*
X141746190Y-102346823D01*
X141746190Y-102346823D02*
X141722381Y-102323014D01*
X141722381Y-102323014D02*
X141698571Y-102275395D01*
X151989046Y-96486109D02*
X151703332Y-96486109D01*
X151846189Y-96986109D02*
X151846189Y-96486109D01*
X151536666Y-96986109D02*
X151536666Y-96486109D01*
X151536666Y-96486109D02*
X151346190Y-96486109D01*
X151346190Y-96486109D02*
X151298571Y-96509919D01*
X151298571Y-96509919D02*
X151274761Y-96533728D01*
X151274761Y-96533728D02*
X151250952Y-96581347D01*
X151250952Y-96581347D02*
X151250952Y-96652776D01*
X151250952Y-96652776D02*
X151274761Y-96700395D01*
X151274761Y-96700395D02*
X151298571Y-96724204D01*
X151298571Y-96724204D02*
X151346190Y-96748014D01*
X151346190Y-96748014D02*
X151536666Y-96748014D01*
X151084285Y-96486109D02*
X150774761Y-96486109D01*
X150774761Y-96486109D02*
X150941428Y-96676585D01*
X150941428Y-96676585D02*
X150869999Y-96676585D01*
X150869999Y-96676585D02*
X150822380Y-96700395D01*
X150822380Y-96700395D02*
X150798571Y-96724204D01*
X150798571Y-96724204D02*
X150774761Y-96771823D01*
X150774761Y-96771823D02*
X150774761Y-96890871D01*
X150774761Y-96890871D02*
X150798571Y-96938490D01*
X150798571Y-96938490D02*
X150822380Y-96962300D01*
X150822380Y-96962300D02*
X150869999Y-96986109D01*
X150869999Y-96986109D02*
X151012856Y-96986109D01*
X151012856Y-96986109D02*
X151060475Y-96962300D01*
X151060475Y-96962300D02*
X151084285Y-96938490D01*
X150322381Y-96486109D02*
X150560476Y-96486109D01*
X150560476Y-96486109D02*
X150584285Y-96724204D01*
X150584285Y-96724204D02*
X150560476Y-96700395D01*
X150560476Y-96700395D02*
X150512857Y-96676585D01*
X150512857Y-96676585D02*
X150393809Y-96676585D01*
X150393809Y-96676585D02*
X150346190Y-96700395D01*
X150346190Y-96700395D02*
X150322381Y-96724204D01*
X150322381Y-96724204D02*
X150298571Y-96771823D01*
X150298571Y-96771823D02*
X150298571Y-96890871D01*
X150298571Y-96890871D02*
X150322381Y-96938490D01*
X150322381Y-96938490D02*
X150346190Y-96962300D01*
X150346190Y-96962300D02*
X150393809Y-96986109D01*
X150393809Y-96986109D02*
X150512857Y-96986109D01*
X150512857Y-96986109D02*
X150560476Y-96962300D01*
X150560476Y-96962300D02*
X150584285Y-96938490D01*
X103725963Y-94486109D02*
X103440249Y-94486109D01*
X103583106Y-94986109D02*
X103583106Y-94486109D01*
X103273583Y-94986109D02*
X103273583Y-94486109D01*
X103273583Y-94486109D02*
X103083107Y-94486109D01*
X103083107Y-94486109D02*
X103035488Y-94509919D01*
X103035488Y-94509919D02*
X103011678Y-94533728D01*
X103011678Y-94533728D02*
X102987869Y-94581347D01*
X102987869Y-94581347D02*
X102987869Y-94652776D01*
X102987869Y-94652776D02*
X103011678Y-94700395D01*
X103011678Y-94700395D02*
X103035488Y-94724204D01*
X103035488Y-94724204D02*
X103083107Y-94748014D01*
X103083107Y-94748014D02*
X103273583Y-94748014D01*
X102821202Y-94486109D02*
X102511678Y-94486109D01*
X102511678Y-94486109D02*
X102678345Y-94676585D01*
X102678345Y-94676585D02*
X102606916Y-94676585D01*
X102606916Y-94676585D02*
X102559297Y-94700395D01*
X102559297Y-94700395D02*
X102535488Y-94724204D01*
X102535488Y-94724204D02*
X102511678Y-94771823D01*
X102511678Y-94771823D02*
X102511678Y-94890871D01*
X102511678Y-94890871D02*
X102535488Y-94938490D01*
X102535488Y-94938490D02*
X102559297Y-94962300D01*
X102559297Y-94962300D02*
X102606916Y-94986109D01*
X102606916Y-94986109D02*
X102749773Y-94986109D01*
X102749773Y-94986109D02*
X102797392Y-94962300D01*
X102797392Y-94962300D02*
X102821202Y-94938490D01*
X102273583Y-94986109D02*
X102178345Y-94986109D01*
X102178345Y-94986109D02*
X102130726Y-94962300D01*
X102130726Y-94962300D02*
X102106917Y-94938490D01*
X102106917Y-94938490D02*
X102059298Y-94867061D01*
X102059298Y-94867061D02*
X102035488Y-94771823D01*
X102035488Y-94771823D02*
X102035488Y-94581347D01*
X102035488Y-94581347D02*
X102059298Y-94533728D01*
X102059298Y-94533728D02*
X102083107Y-94509919D01*
X102083107Y-94509919D02*
X102130726Y-94486109D01*
X102130726Y-94486109D02*
X102225964Y-94486109D01*
X102225964Y-94486109D02*
X102273583Y-94509919D01*
X102273583Y-94509919D02*
X102297393Y-94533728D01*
X102297393Y-94533728D02*
X102321202Y-94581347D01*
X102321202Y-94581347D02*
X102321202Y-94700395D01*
X102321202Y-94700395D02*
X102297393Y-94748014D01*
X102297393Y-94748014D02*
X102273583Y-94771823D01*
X102273583Y-94771823D02*
X102225964Y-94795633D01*
X102225964Y-94795633D02*
X102130726Y-94795633D01*
X102130726Y-94795633D02*
X102083107Y-94771823D01*
X102083107Y-94771823D02*
X102059298Y-94748014D01*
X102059298Y-94748014D02*
X102035488Y-94700395D01*
X206139046Y-103536109D02*
X205853332Y-103536109D01*
X205996189Y-104036109D02*
X205996189Y-103536109D01*
X205686666Y-104036109D02*
X205686666Y-103536109D01*
X205686666Y-103536109D02*
X205496190Y-103536109D01*
X205496190Y-103536109D02*
X205448571Y-103559919D01*
X205448571Y-103559919D02*
X205424761Y-103583728D01*
X205424761Y-103583728D02*
X205400952Y-103631347D01*
X205400952Y-103631347D02*
X205400952Y-103702776D01*
X205400952Y-103702776D02*
X205424761Y-103750395D01*
X205424761Y-103750395D02*
X205448571Y-103774204D01*
X205448571Y-103774204D02*
X205496190Y-103798014D01*
X205496190Y-103798014D02*
X205686666Y-103798014D01*
X204972380Y-103702776D02*
X204972380Y-104036109D01*
X205091428Y-103512300D02*
X205210475Y-103869442D01*
X205210475Y-103869442D02*
X204900952Y-103869442D01*
X204758095Y-103536109D02*
X204448571Y-103536109D01*
X204448571Y-103536109D02*
X204615238Y-103726585D01*
X204615238Y-103726585D02*
X204543809Y-103726585D01*
X204543809Y-103726585D02*
X204496190Y-103750395D01*
X204496190Y-103750395D02*
X204472381Y-103774204D01*
X204472381Y-103774204D02*
X204448571Y-103821823D01*
X204448571Y-103821823D02*
X204448571Y-103940871D01*
X204448571Y-103940871D02*
X204472381Y-103988490D01*
X204472381Y-103988490D02*
X204496190Y-104012300D01*
X204496190Y-104012300D02*
X204543809Y-104036109D01*
X204543809Y-104036109D02*
X204686666Y-104036109D01*
X204686666Y-104036109D02*
X204734285Y-104012300D01*
X204734285Y-104012300D02*
X204758095Y-103988490D01*
X146846078Y-96850262D02*
X146560364Y-96850262D01*
X146703221Y-97350262D02*
X146703221Y-96850262D01*
X146393698Y-97350262D02*
X146393698Y-96850262D01*
X146393698Y-96850262D02*
X146203222Y-96850262D01*
X146203222Y-96850262D02*
X146155603Y-96874072D01*
X146155603Y-96874072D02*
X146131793Y-96897881D01*
X146131793Y-96897881D02*
X146107984Y-96945500D01*
X146107984Y-96945500D02*
X146107984Y-97016929D01*
X146107984Y-97016929D02*
X146131793Y-97064548D01*
X146131793Y-97064548D02*
X146155603Y-97088357D01*
X146155603Y-97088357D02*
X146203222Y-97112167D01*
X146203222Y-97112167D02*
X146393698Y-97112167D01*
X145941317Y-96850262D02*
X145631793Y-96850262D01*
X145631793Y-96850262D02*
X145798460Y-97040738D01*
X145798460Y-97040738D02*
X145727031Y-97040738D01*
X145727031Y-97040738D02*
X145679412Y-97064548D01*
X145679412Y-97064548D02*
X145655603Y-97088357D01*
X145655603Y-97088357D02*
X145631793Y-97135976D01*
X145631793Y-97135976D02*
X145631793Y-97255024D01*
X145631793Y-97255024D02*
X145655603Y-97302643D01*
X145655603Y-97302643D02*
X145679412Y-97326453D01*
X145679412Y-97326453D02*
X145727031Y-97350262D01*
X145727031Y-97350262D02*
X145869888Y-97350262D01*
X145869888Y-97350262D02*
X145917507Y-97326453D01*
X145917507Y-97326453D02*
X145941317Y-97302643D01*
X145322270Y-96850262D02*
X145274651Y-96850262D01*
X145274651Y-96850262D02*
X145227032Y-96874072D01*
X145227032Y-96874072D02*
X145203222Y-96897881D01*
X145203222Y-96897881D02*
X145179413Y-96945500D01*
X145179413Y-96945500D02*
X145155603Y-97040738D01*
X145155603Y-97040738D02*
X145155603Y-97159786D01*
X145155603Y-97159786D02*
X145179413Y-97255024D01*
X145179413Y-97255024D02*
X145203222Y-97302643D01*
X145203222Y-97302643D02*
X145227032Y-97326453D01*
X145227032Y-97326453D02*
X145274651Y-97350262D01*
X145274651Y-97350262D02*
X145322270Y-97350262D01*
X145322270Y-97350262D02*
X145369889Y-97326453D01*
X145369889Y-97326453D02*
X145393698Y-97302643D01*
X145393698Y-97302643D02*
X145417508Y-97255024D01*
X145417508Y-97255024D02*
X145441317Y-97159786D01*
X145441317Y-97159786D02*
X145441317Y-97040738D01*
X145441317Y-97040738D02*
X145417508Y-96945500D01*
X145417508Y-96945500D02*
X145393698Y-96897881D01*
X145393698Y-96897881D02*
X145369889Y-96874072D01*
X145369889Y-96874072D02*
X145322270Y-96850262D01*
X231239046Y-101786109D02*
X230953332Y-101786109D01*
X231096189Y-102286109D02*
X231096189Y-101786109D01*
X230786666Y-102286109D02*
X230786666Y-101786109D01*
X230786666Y-101786109D02*
X230596190Y-101786109D01*
X230596190Y-101786109D02*
X230548571Y-101809919D01*
X230548571Y-101809919D02*
X230524761Y-101833728D01*
X230524761Y-101833728D02*
X230500952Y-101881347D01*
X230500952Y-101881347D02*
X230500952Y-101952776D01*
X230500952Y-101952776D02*
X230524761Y-102000395D01*
X230524761Y-102000395D02*
X230548571Y-102024204D01*
X230548571Y-102024204D02*
X230596190Y-102048014D01*
X230596190Y-102048014D02*
X230786666Y-102048014D01*
X230310475Y-101833728D02*
X230286666Y-101809919D01*
X230286666Y-101809919D02*
X230239047Y-101786109D01*
X230239047Y-101786109D02*
X230119999Y-101786109D01*
X230119999Y-101786109D02*
X230072380Y-101809919D01*
X230072380Y-101809919D02*
X230048571Y-101833728D01*
X230048571Y-101833728D02*
X230024761Y-101881347D01*
X230024761Y-101881347D02*
X230024761Y-101928966D01*
X230024761Y-101928966D02*
X230048571Y-102000395D01*
X230048571Y-102000395D02*
X230334285Y-102286109D01*
X230334285Y-102286109D02*
X230024761Y-102286109D01*
X229596190Y-101952776D02*
X229596190Y-102286109D01*
X229715238Y-101762300D02*
X229834285Y-102119442D01*
X229834285Y-102119442D02*
X229524762Y-102119442D01*
X112889046Y-93236109D02*
X112603332Y-93236109D01*
X112746189Y-93736109D02*
X112746189Y-93236109D01*
X112436666Y-93736109D02*
X112436666Y-93236109D01*
X112436666Y-93236109D02*
X112246190Y-93236109D01*
X112246190Y-93236109D02*
X112198571Y-93259919D01*
X112198571Y-93259919D02*
X112174761Y-93283728D01*
X112174761Y-93283728D02*
X112150952Y-93331347D01*
X112150952Y-93331347D02*
X112150952Y-93402776D01*
X112150952Y-93402776D02*
X112174761Y-93450395D01*
X112174761Y-93450395D02*
X112198571Y-93474204D01*
X112198571Y-93474204D02*
X112246190Y-93498014D01*
X112246190Y-93498014D02*
X112436666Y-93498014D01*
X111984285Y-93236109D02*
X111674761Y-93236109D01*
X111674761Y-93236109D02*
X111841428Y-93426585D01*
X111841428Y-93426585D02*
X111769999Y-93426585D01*
X111769999Y-93426585D02*
X111722380Y-93450395D01*
X111722380Y-93450395D02*
X111698571Y-93474204D01*
X111698571Y-93474204D02*
X111674761Y-93521823D01*
X111674761Y-93521823D02*
X111674761Y-93640871D01*
X111674761Y-93640871D02*
X111698571Y-93688490D01*
X111698571Y-93688490D02*
X111722380Y-93712300D01*
X111722380Y-93712300D02*
X111769999Y-93736109D01*
X111769999Y-93736109D02*
X111912856Y-93736109D01*
X111912856Y-93736109D02*
X111960475Y-93712300D01*
X111960475Y-93712300D02*
X111984285Y-93688490D01*
X111389047Y-93450395D02*
X111436666Y-93426585D01*
X111436666Y-93426585D02*
X111460476Y-93402776D01*
X111460476Y-93402776D02*
X111484285Y-93355157D01*
X111484285Y-93355157D02*
X111484285Y-93331347D01*
X111484285Y-93331347D02*
X111460476Y-93283728D01*
X111460476Y-93283728D02*
X111436666Y-93259919D01*
X111436666Y-93259919D02*
X111389047Y-93236109D01*
X111389047Y-93236109D02*
X111293809Y-93236109D01*
X111293809Y-93236109D02*
X111246190Y-93259919D01*
X111246190Y-93259919D02*
X111222381Y-93283728D01*
X111222381Y-93283728D02*
X111198571Y-93331347D01*
X111198571Y-93331347D02*
X111198571Y-93355157D01*
X111198571Y-93355157D02*
X111222381Y-93402776D01*
X111222381Y-93402776D02*
X111246190Y-93426585D01*
X111246190Y-93426585D02*
X111293809Y-93450395D01*
X111293809Y-93450395D02*
X111389047Y-93450395D01*
X111389047Y-93450395D02*
X111436666Y-93474204D01*
X111436666Y-93474204D02*
X111460476Y-93498014D01*
X111460476Y-93498014D02*
X111484285Y-93545633D01*
X111484285Y-93545633D02*
X111484285Y-93640871D01*
X111484285Y-93640871D02*
X111460476Y-93688490D01*
X111460476Y-93688490D02*
X111436666Y-93712300D01*
X111436666Y-93712300D02*
X111389047Y-93736109D01*
X111389047Y-93736109D02*
X111293809Y-93736109D01*
X111293809Y-93736109D02*
X111246190Y-93712300D01*
X111246190Y-93712300D02*
X111222381Y-93688490D01*
X111222381Y-93688490D02*
X111198571Y-93640871D01*
X111198571Y-93640871D02*
X111198571Y-93545633D01*
X111198571Y-93545633D02*
X111222381Y-93498014D01*
X111222381Y-93498014D02*
X111246190Y-93474204D01*
X111246190Y-93474204D02*
X111293809Y-93450395D01*
X219539046Y-107936109D02*
X219253332Y-107936109D01*
X219396189Y-108436109D02*
X219396189Y-107936109D01*
X219086666Y-108436109D02*
X219086666Y-107936109D01*
X219086666Y-107936109D02*
X218896190Y-107936109D01*
X218896190Y-107936109D02*
X218848571Y-107959919D01*
X218848571Y-107959919D02*
X218824761Y-107983728D01*
X218824761Y-107983728D02*
X218800952Y-108031347D01*
X218800952Y-108031347D02*
X218800952Y-108102776D01*
X218800952Y-108102776D02*
X218824761Y-108150395D01*
X218824761Y-108150395D02*
X218848571Y-108174204D01*
X218848571Y-108174204D02*
X218896190Y-108198014D01*
X218896190Y-108198014D02*
X219086666Y-108198014D01*
X218610475Y-107983728D02*
X218586666Y-107959919D01*
X218586666Y-107959919D02*
X218539047Y-107936109D01*
X218539047Y-107936109D02*
X218419999Y-107936109D01*
X218419999Y-107936109D02*
X218372380Y-107959919D01*
X218372380Y-107959919D02*
X218348571Y-107983728D01*
X218348571Y-107983728D02*
X218324761Y-108031347D01*
X218324761Y-108031347D02*
X218324761Y-108078966D01*
X218324761Y-108078966D02*
X218348571Y-108150395D01*
X218348571Y-108150395D02*
X218634285Y-108436109D01*
X218634285Y-108436109D02*
X218324761Y-108436109D01*
X218158095Y-107936109D02*
X217848571Y-107936109D01*
X217848571Y-107936109D02*
X218015238Y-108126585D01*
X218015238Y-108126585D02*
X217943809Y-108126585D01*
X217943809Y-108126585D02*
X217896190Y-108150395D01*
X217896190Y-108150395D02*
X217872381Y-108174204D01*
X217872381Y-108174204D02*
X217848571Y-108221823D01*
X217848571Y-108221823D02*
X217848571Y-108340871D01*
X217848571Y-108340871D02*
X217872381Y-108388490D01*
X217872381Y-108388490D02*
X217896190Y-108412300D01*
X217896190Y-108412300D02*
X217943809Y-108436109D01*
X217943809Y-108436109D02*
X218086666Y-108436109D01*
X218086666Y-108436109D02*
X218134285Y-108412300D01*
X218134285Y-108412300D02*
X218158095Y-108388490D01*
X125000951Y-82236109D02*
X124715237Y-82236109D01*
X124858094Y-82736109D02*
X124858094Y-82236109D01*
X124548571Y-82736109D02*
X124548571Y-82236109D01*
X124548571Y-82236109D02*
X124358095Y-82236109D01*
X124358095Y-82236109D02*
X124310476Y-82259919D01*
X124310476Y-82259919D02*
X124286666Y-82283728D01*
X124286666Y-82283728D02*
X124262857Y-82331347D01*
X124262857Y-82331347D02*
X124262857Y-82402776D01*
X124262857Y-82402776D02*
X124286666Y-82450395D01*
X124286666Y-82450395D02*
X124310476Y-82474204D01*
X124310476Y-82474204D02*
X124358095Y-82498014D01*
X124358095Y-82498014D02*
X124548571Y-82498014D01*
X124096190Y-82236109D02*
X123786666Y-82236109D01*
X123786666Y-82236109D02*
X123953333Y-82426585D01*
X123953333Y-82426585D02*
X123881904Y-82426585D01*
X123881904Y-82426585D02*
X123834285Y-82450395D01*
X123834285Y-82450395D02*
X123810476Y-82474204D01*
X123810476Y-82474204D02*
X123786666Y-82521823D01*
X123786666Y-82521823D02*
X123786666Y-82640871D01*
X123786666Y-82640871D02*
X123810476Y-82688490D01*
X123810476Y-82688490D02*
X123834285Y-82712300D01*
X123834285Y-82712300D02*
X123881904Y-82736109D01*
X123881904Y-82736109D02*
X124024761Y-82736109D01*
X124024761Y-82736109D02*
X124072380Y-82712300D01*
X124072380Y-82712300D02*
X124096190Y-82688490D01*
X123939046Y-111136109D02*
X123653332Y-111136109D01*
X123796189Y-111636109D02*
X123796189Y-111136109D01*
X123486666Y-111636109D02*
X123486666Y-111136109D01*
X123486666Y-111136109D02*
X123296190Y-111136109D01*
X123296190Y-111136109D02*
X123248571Y-111159919D01*
X123248571Y-111159919D02*
X123224761Y-111183728D01*
X123224761Y-111183728D02*
X123200952Y-111231347D01*
X123200952Y-111231347D02*
X123200952Y-111302776D01*
X123200952Y-111302776D02*
X123224761Y-111350395D01*
X123224761Y-111350395D02*
X123248571Y-111374204D01*
X123248571Y-111374204D02*
X123296190Y-111398014D01*
X123296190Y-111398014D02*
X123486666Y-111398014D01*
X122724761Y-111636109D02*
X123010475Y-111636109D01*
X122867618Y-111636109D02*
X122867618Y-111136109D01*
X122867618Y-111136109D02*
X122915237Y-111207538D01*
X122915237Y-111207538D02*
X122962856Y-111255157D01*
X122962856Y-111255157D02*
X123010475Y-111278966D01*
X122558095Y-111136109D02*
X122248571Y-111136109D01*
X122248571Y-111136109D02*
X122415238Y-111326585D01*
X122415238Y-111326585D02*
X122343809Y-111326585D01*
X122343809Y-111326585D02*
X122296190Y-111350395D01*
X122296190Y-111350395D02*
X122272381Y-111374204D01*
X122272381Y-111374204D02*
X122248571Y-111421823D01*
X122248571Y-111421823D02*
X122248571Y-111540871D01*
X122248571Y-111540871D02*
X122272381Y-111588490D01*
X122272381Y-111588490D02*
X122296190Y-111612300D01*
X122296190Y-111612300D02*
X122343809Y-111636109D01*
X122343809Y-111636109D02*
X122486666Y-111636109D01*
X122486666Y-111636109D02*
X122534285Y-111612300D01*
X122534285Y-111612300D02*
X122558095Y-111588490D01*
X108950951Y-81286109D02*
X108665237Y-81286109D01*
X108808094Y-81786109D02*
X108808094Y-81286109D01*
X108498571Y-81786109D02*
X108498571Y-81286109D01*
X108498571Y-81286109D02*
X108308095Y-81286109D01*
X108308095Y-81286109D02*
X108260476Y-81309919D01*
X108260476Y-81309919D02*
X108236666Y-81333728D01*
X108236666Y-81333728D02*
X108212857Y-81381347D01*
X108212857Y-81381347D02*
X108212857Y-81452776D01*
X108212857Y-81452776D02*
X108236666Y-81500395D01*
X108236666Y-81500395D02*
X108260476Y-81524204D01*
X108260476Y-81524204D02*
X108308095Y-81548014D01*
X108308095Y-81548014D02*
X108498571Y-81548014D01*
X107784285Y-81452776D02*
X107784285Y-81786109D01*
X107903333Y-81262300D02*
X108022380Y-81619442D01*
X108022380Y-81619442D02*
X107712857Y-81619442D01*
%TO.C,TP5*%
X131064975Y-109710000D02*
G75*
G02*
X130075025Y-109710000I-494975J0D01*
G01*
X130075025Y-109710000D02*
G75*
G02*
X131064975Y-109710000I494975J0D01*
G01*
%TO.C,TP26*%
X218714975Y-111625000D02*
G75*
G02*
X217725025Y-111625000I-494975J0D01*
G01*
X217725025Y-111625000D02*
G75*
G02*
X218714975Y-111625000I494975J0D01*
G01*
%TO.C,TP1*%
X126414975Y-98210000D02*
G75*
G02*
X125425025Y-98210000I-494975J0D01*
G01*
X125425025Y-98210000D02*
G75*
G02*
X126414975Y-98210000I494975J0D01*
G01*
%TO.C,TP9*%
X83014975Y-109660000D02*
G75*
G02*
X82025025Y-109660000I-494975J0D01*
G01*
X82025025Y-109660000D02*
G75*
G02*
X83014975Y-109660000I494975J0D01*
G01*
%TO.C,TP33*%
X153614975Y-97660000D02*
G75*
G02*
X152625025Y-97660000I-494975J0D01*
G01*
X152625025Y-97660000D02*
G75*
G02*
X153614975Y-97660000I494975J0D01*
G01*
%TO.C,TP17*%
X97614975Y-112110000D02*
G75*
G02*
X96625025Y-112110000I-494975J0D01*
G01*
X96625025Y-112110000D02*
G75*
G02*
X97614975Y-112110000I494975J0D01*
G01*
%TO.C,TP44*%
X204123933Y-102310000D02*
G75*
G02*
X203133983Y-102310000I-494975J0D01*
G01*
X203133983Y-102310000D02*
G75*
G02*
X204123933Y-102310000I494975J0D01*
G01*
%TO.C,TP32*%
X161764975Y-100010000D02*
G75*
G02*
X160775025Y-100010000I-494975J0D01*
G01*
X160775025Y-100010000D02*
G75*
G02*
X161764975Y-100010000I494975J0D01*
G01*
%TO.C,TP37*%
X110764975Y-92372500D02*
G75*
G02*
X109775025Y-92372500I-494975J0D01*
G01*
X109775025Y-92372500D02*
G75*
G02*
X110764975Y-92372500I494975J0D01*
G01*
%TO.C,TP27*%
X221864975Y-111610000D02*
G75*
G02*
X220875025Y-111610000I-494975J0D01*
G01*
X220875025Y-111610000D02*
G75*
G02*
X221864975Y-111610000I494975J0D01*
G01*
%TO.C,TP7*%
X133814975Y-135510000D02*
G75*
G02*
X132825025Y-135510000I-494975J0D01*
G01*
X132825025Y-135510000D02*
G75*
G02*
X133814975Y-135510000I494975J0D01*
G01*
%TO.C,TP10*%
X83014975Y-111910000D02*
G75*
G02*
X82025025Y-111910000I-494975J0D01*
G01*
X82025025Y-111910000D02*
G75*
G02*
X83014975Y-111910000I494975J0D01*
G01*
%TO.C,TP15*%
X107014975Y-132660000D02*
G75*
G02*
X106025025Y-132660000I-494975J0D01*
G01*
X106025025Y-132660000D02*
G75*
G02*
X107014975Y-132660000I494975J0D01*
G01*
%TO.C,TP18*%
X94914975Y-124460000D02*
G75*
G02*
X93925025Y-124460000I-494975J0D01*
G01*
X93925025Y-124460000D02*
G75*
G02*
X94914975Y-124460000I494975J0D01*
G01*
%TO.C,TP42*%
X202814975Y-107260000D02*
G75*
G02*
X201825025Y-107260000I-494975J0D01*
G01*
X201825025Y-107260000D02*
G75*
G02*
X202814975Y-107260000I494975J0D01*
G01*
%TO.C,TP41*%
X200114975Y-107210000D02*
G75*
G02*
X199125025Y-107210000I-494975J0D01*
G01*
X199125025Y-107210000D02*
G75*
G02*
X200114975Y-107210000I494975J0D01*
G01*
%TO.C,TP34*%
X149564975Y-97610000D02*
G75*
G02*
X148575025Y-97610000I-494975J0D01*
G01*
X148575025Y-97610000D02*
G75*
G02*
X149564975Y-97610000I494975J0D01*
G01*
%TO.C,TP31*%
X163764975Y-103660000D02*
G75*
G02*
X162775025Y-103660000I-494975J0D01*
G01*
X162775025Y-103660000D02*
G75*
G02*
X163764975Y-103660000I494975J0D01*
G01*
%TO.C,TP25*%
X197164975Y-88460000D02*
G75*
G02*
X196175025Y-88460000I-494975J0D01*
G01*
X196175025Y-88460000D02*
G75*
G02*
X197164975Y-88460000I494975J0D01*
G01*
%TO.C,TP6*%
X133814975Y-121060000D02*
G75*
G02*
X132825025Y-121060000I-494975J0D01*
G01*
X132825025Y-121060000D02*
G75*
G02*
X133814975Y-121060000I494975J0D01*
G01*
%TO.C,TP19*%
X195464975Y-108310000D02*
G75*
G02*
X194475025Y-108310000I-494975J0D01*
G01*
X194475025Y-108310000D02*
G75*
G02*
X195464975Y-108310000I494975J0D01*
G01*
%TO.C,TP16*%
X102414975Y-128660000D02*
G75*
G02*
X101425025Y-128660000I-494975J0D01*
G01*
X101425025Y-128660000D02*
G75*
G02*
X102414975Y-128660000I494975J0D01*
G01*
%TO.C,TP20*%
X220114975Y-104610000D02*
G75*
G02*
X219125025Y-104610000I-494975J0D01*
G01*
X219125025Y-104610000D02*
G75*
G02*
X220114975Y-104610000I494975J0D01*
G01*
%TO.C,TP12*%
X125996040Y-124260000D02*
G75*
G02*
X125006090Y-124260000I-494975J0D01*
G01*
X125006090Y-124260000D02*
G75*
G02*
X125996040Y-124260000I494975J0D01*
G01*
%TO.C,TP2*%
X134014975Y-80560000D02*
G75*
G02*
X133025025Y-80560000I-494975J0D01*
G01*
X133025025Y-80560000D02*
G75*
G02*
X134014975Y-80560000I494975J0D01*
G01*
%TO.C,TP40*%
X107214975Y-96360000D02*
G75*
G02*
X106225025Y-96360000I-494975J0D01*
G01*
X106225025Y-96360000D02*
G75*
G02*
X107214975Y-96360000I494975J0D01*
G01*
%TO.C,TP8*%
X102264975Y-125810000D02*
G75*
G02*
X101275025Y-125810000I-494975J0D01*
G01*
X101275025Y-125810000D02*
G75*
G02*
X102264975Y-125810000I494975J0D01*
G01*
%TO.C,TP28*%
X154864975Y-95560000D02*
G75*
G02*
X153875025Y-95560000I-494975J0D01*
G01*
X153875025Y-95560000D02*
G75*
G02*
X154864975Y-95560000I494975J0D01*
G01*
%TO.C,TP22*%
X215764975Y-69910000D02*
G75*
G02*
X214775025Y-69910000I-494975J0D01*
G01*
X214775025Y-69910000D02*
G75*
G02*
X215764975Y-69910000I494975J0D01*
G01*
%TO.C,TP36*%
X171414975Y-100110000D02*
G75*
G02*
X170425025Y-100110000I-494975J0D01*
G01*
X170425025Y-100110000D02*
G75*
G02*
X171414975Y-100110000I494975J0D01*
G01*
%TO.C,TP21*%
X200195505Y-88813999D02*
G75*
G02*
X199205555Y-88813999I-494975J0D01*
G01*
X199205555Y-88813999D02*
G75*
G02*
X200195505Y-88813999I494975J0D01*
G01*
%TO.C,TP11*%
X127594783Y-137310000D02*
G75*
G02*
X126604833Y-137310000I-494975J0D01*
G01*
X126604833Y-137310000D02*
G75*
G02*
X127594783Y-137310000I494975J0D01*
G01*
%TO.C,TP14*%
X88214975Y-122560000D02*
G75*
G02*
X87225025Y-122560000I-494975J0D01*
G01*
X87225025Y-122560000D02*
G75*
G02*
X88214975Y-122560000I494975J0D01*
G01*
%TO.C,TP29*%
X143014975Y-103185000D02*
G75*
G02*
X142025025Y-103185000I-494975J0D01*
G01*
X142025025Y-103185000D02*
G75*
G02*
X143014975Y-103185000I494975J0D01*
G01*
%TO.C,TP35*%
X151614975Y-97610000D02*
G75*
G02*
X150625025Y-97610000I-494975J0D01*
G01*
X150625025Y-97610000D02*
G75*
G02*
X151614975Y-97610000I494975J0D01*
G01*
%TO.C,TP39*%
X103351892Y-95610000D02*
G75*
G02*
X102361942Y-95610000I-494975J0D01*
G01*
X102361942Y-95610000D02*
G75*
G02*
X103351892Y-95610000I494975J0D01*
G01*
%TO.C,TP43*%
X205764975Y-104660000D02*
G75*
G02*
X204775025Y-104660000I-494975J0D01*
G01*
X204775025Y-104660000D02*
G75*
G02*
X205764975Y-104660000I494975J0D01*
G01*
%TO.C,TP30*%
X146472007Y-97974153D02*
G75*
G02*
X145482057Y-97974153I-494975J0D01*
G01*
X145482057Y-97974153D02*
G75*
G02*
X146472007Y-97974153I494975J0D01*
G01*
%TO.C,TP24*%
X230864975Y-102910000D02*
G75*
G02*
X229875025Y-102910000I-494975J0D01*
G01*
X229875025Y-102910000D02*
G75*
G02*
X230864975Y-102910000I494975J0D01*
G01*
%TO.C,TP38*%
X112514975Y-92510000D02*
G75*
G02*
X111525025Y-92510000I-494975J0D01*
G01*
X111525025Y-92510000D02*
G75*
G02*
X112514975Y-92510000I494975J0D01*
G01*
%TO.C,TP23*%
X219164975Y-109060000D02*
G75*
G02*
X218175025Y-109060000I-494975J0D01*
G01*
X218175025Y-109060000D02*
G75*
G02*
X219164975Y-109060000I494975J0D01*
G01*
%TO.C,TP3*%
X124864975Y-83360000D02*
G75*
G02*
X123875025Y-83360000I-494975J0D01*
G01*
X123875025Y-83360000D02*
G75*
G02*
X124864975Y-83360000I494975J0D01*
G01*
%TO.C,TP13*%
X123564975Y-112260000D02*
G75*
G02*
X122575025Y-112260000I-494975J0D01*
G01*
X122575025Y-112260000D02*
G75*
G02*
X123564975Y-112260000I494975J0D01*
G01*
%TO.C,TP4*%
X108814975Y-80610000D02*
G75*
G02*
X107825025Y-80610000I-494975J0D01*
G01*
X107825025Y-80610000D02*
G75*
G02*
X108814975Y-80610000I494975J0D01*
G01*
%TD*%
M02*
