%TF.GenerationSoftware,KiCad,Pcbnew,9.0.7*%
%TF.CreationDate,2026-02-20T17:15:32-05:00*%
%TF.ProjectId,rpi_cm4_cm5_CarrierBoard,7270695f-636d-4345-9f63-6d355f436172,2.00-0A*%
%TF.SameCoordinates,Original*%
%TF.FileFunction,Profile,NP*%
%FSLAX46Y46*%
G04 Gerber Fmt 4.6, Leading zero omitted, Abs format (unit mm)*
G04 Created by KiCad (PCBNEW 9.0.7) date 2026-02-20 17:15:32*
%MOMM*%
%LPD*%
G01*
G04 APERTURE LIST*
%TA.AperFunction,Profile*%
%ADD10C,0.200000*%
%TD*%
G04 APERTURE END LIST*
D10*
X235021187Y-47074214D02*
G75*
G02*
X233024214Y-45040169I11513J2008614D01*
G01*
X241024214Y-53074200D02*
X241024214Y-49074214D01*
X61424000Y-130715000D02*
G75*
G02*
X59424130Y-128724592I1500J2001400D01*
G01*
X241024214Y-53074200D02*
G75*
G02*
X239024000Y-55074914I-2001314J600D01*
G01*
X239024000Y-130715000D02*
X235037077Y-130715000D01*
X61424200Y-55074214D02*
G75*
G02*
X59424213Y-53084592I0J2000014D01*
G01*
X69424200Y-139194214D02*
G75*
G02*
X67423910Y-137184000I100J2000414D01*
G01*
X59424214Y-124714200D02*
G75*
G02*
X61424200Y-122714214I1999986J0D01*
G01*
X233024000Y-132711000D02*
G75*
G02*
X235032000Y-130714943I2011600J-15600D01*
G01*
X231024200Y-38594214D02*
G75*
G02*
X233024186Y-40594214I0J-1999986D01*
G01*
X239024200Y-47074214D02*
G75*
G02*
X241024186Y-49074214I0J-1999986D01*
G01*
X239024200Y-122714214D02*
G75*
G02*
X241024186Y-124714214I0J-1999986D01*
G01*
X233024214Y-120684648D02*
X233024214Y-57211821D01*
X231024200Y-38594214D02*
X69474200Y-38594214D01*
X59424214Y-49074200D02*
X59424214Y-53084592D01*
X59424214Y-49074200D02*
G75*
G02*
X61424200Y-47074214I1999986J0D01*
G01*
X233024214Y-57211821D02*
G75*
G02*
X234987001Y-55075055I2002386J130521D01*
G01*
X239024200Y-122714214D02*
X234899340Y-122714214D01*
X67424000Y-137184000D02*
X67424000Y-132785379D01*
X65409000Y-55075000D02*
G75*
G02*
X67418444Y-57156251I-5300J-2015800D01*
G01*
X239024000Y-55075000D02*
X234989935Y-55075000D01*
X67424214Y-40644200D02*
X67424214Y-45063000D01*
X65413000Y-122714207D02*
X61424200Y-122714207D01*
X67424214Y-45063000D02*
G75*
G02*
X65413000Y-47074214I-2011214J0D01*
G01*
X65409012Y-55075000D02*
X61424200Y-55075001D01*
X234899340Y-122714214D02*
G75*
G02*
X233024214Y-120684648I133360J2004214D01*
G01*
X233024000Y-137194800D02*
X233024000Y-132711000D01*
X241024214Y-128714200D02*
X241024214Y-124714214D01*
X241024214Y-128714200D02*
G75*
G02*
X239024000Y-130714914I-2001314J600D01*
G01*
X65413000Y-47074214D02*
X61424200Y-47074214D01*
X61424000Y-130715000D02*
X65417000Y-130715000D01*
X65417000Y-130715000D02*
G75*
G02*
X67424022Y-132784655I-2300J-2010200D01*
G01*
X233024214Y-45040169D02*
X233024214Y-40594214D01*
X67418448Y-57156251D02*
X67418448Y-120855105D01*
X67424214Y-40644200D02*
G75*
G02*
X69474200Y-38594214I2049986J0D01*
G01*
X233024000Y-137194800D02*
G75*
G02*
X231042936Y-139194215I-1999500J0D01*
G01*
X67418448Y-120855105D02*
G75*
G02*
X65413000Y-122714208I-2005448J152105D01*
G01*
X239024200Y-47074214D02*
X235021187Y-47074214D01*
X59424214Y-128724592D02*
X59424214Y-124714200D01*
X69424200Y-139194214D02*
X231042936Y-139194214D01*
M02*
