  0
SECTION
  2
HEADER
  9
$ACADVER
  1
AC1009
  9
$INSBASE
 10
0.000000
 20
0.000000
  9
$LIMMIN
 10
-602.996000
 20
-1522.730000
  9
$LIMMAX
 10
1937.004000
 20
1017.270000
  9
$EXTMIN
 10
-602.996000
 20
-1522.730000
  9
$EXTMAX
 10
1937.004000
 20
1017.270000
  9
$ATTMODE
 70
0
  9
$LUNITS
 70
2
  9
$LUPREC
 70
4
  9
$THICKNESS
 40
1.609000
  0
ENDSEC
  0
SECTION
  2
TABLES
  0
TABLE
  2
LTYPE
 70
1
  0
LTYPE
  3
Solid Line
  2
CONTINUOUS
 70
0
 72
65
 73
0
 40
0.000000
  0
ENDTAB
  0
TABLE
  2
LAYER
 70
1
  0
LAYER
  2
OUTLINE
 70
0
 62
85
  6
CONTINUOUS
  0
ENDTAB
  0
TABLE
  2
STYLE
 70
1
  0
STYLE
  2
STANDARD
 70
0
 40
0.000000
 41
1.000000
 50
0.000000
 71
0
 42
0.200000
  3
txt
  0
ENDTAB
  0
ENDSEC
  0
SECTION
  2
BLOCKS
  0
BLOCK
  8
0
  2
FIGURE_CIRCLE
 70
0
 10
0.000000
 20
0.000000
  0
CIRCLE
  8
0
 10
0.000000
 20
0.000000
 40
0.500000
  0
ENDBLK
  0
BLOCK
  8
0
  2
FIGURE_SQUARE
 70
0
 10
0.000000
 20
0.000000
  0
POLYLINE
  8
0
 66
1
 70
1
 40
0.000000
 41
0.000000
 39
0.000000
  0
VERTEX
  8
0
 10
-0.500000
 20
-0.500000
 40
0.000000
 41
0.000000
 42
0.000000
  0
VERTEX
  8
0
 10
-0.500000
 20
0.500000
 40
0.000000
 41
0.000000
 42
0.000000
  0
VERTEX
  8
0
 10
0.500000
 20
0.500000
 40
0.000000
 41
0.000000
 42
0.000000
  0
VERTEX
  8
0
 10
0.500000
 20
-0.500000
 40
0.000000
 41
0.000000
 42
0.000000
  0
SEQEND
  0
ENDBLK
  0
BLOCK
  8
0
  2
FIGURE_HEX
 70
0
 10
0.000000
 20
0.000000
  0
POLYLINE
  8
0
 66
1
 70
1
 40
0.000000
 41
0.000000
 39
0.000000
  0
VERTEX
  8
0
 10
-0.500000
 20
0.000000
 40
0.000000
 41
0.000000
 42
0.000000
  0
VERTEX
  8
0
 10
-0.250000
 20
0.500000
 40
0.000000
 41
0.000000
 42
0.000000
  0
VERTEX
  8
0
 10
0.250000
 20
0.500000
 40
0.000000
 41
0.000000
 42
0.000000
  0
VERTEX
  8
0
 10
0.500000
 20
0.000000
 40
0.000000
 41
0.000000
 42
0.000000
  0
VERTEX
  8
0
 10
0.250000
 20
-0.500000
 40
0.000000
 41
0.000000
 42
0.000000
  0
VERTEX
  8
0
 10
-0.250000
 20
-0.500000
 40
0.000000
 41
0.000000
 42
0.000000
  0
SEQEND
  0
ENDBLK
  0
BLOCK
  8
0
  2
FIGURE_OCT
 70
0
 10
0.000000
 20
0.000000
  0
POLYLINE
  8
0
 66
1
 70
1
 40
0.000000
 41
0.000000
 39
0.000000
  0
VERTEX
  8
0
 10
-0.500000
 20
-0.207100
 40
0.000000
 41
0.000000
 42
0.000000
  0
VERTEX
  8
0
 10
-0.500000
 20
0.207100
 40
0.000000
 41
0.000000
 42
0.000000
  0
VERTEX
  8
0
 10
-0.207100
 20
0.500000
 40
0.000000
 41
0.000000
 42
0.000000
  0
VERTEX
  8
0
 10
0.207100
 20
0.500000
 40
0.000000
 41
0.000000
 42
0.000000
  0
VERTEX
  8
0
 10
0.500000
 20
0.207100
 40
0.000000
 41
0.000000
 42
0.000000
  0
VERTEX
  8
0
 10
0.500000
 20
-0.207100
 40
0.000000
 41
0.000000
 42
0.000000
  0
VERTEX
  8
0
 10
0.207100
 20
-0.500000
 40
0.000000
 41
0.000000
 42
0.000000
  0
VERTEX
  8
0
 10
-0.207100
 20
-0.500000
 40
0.000000
 41
0.000000
 42
0.000000
  0
SEQEND
  0
ENDBLK
  0
BLOCK
  8
0
  2
FIGURE_OBLONG
 70
0
 10
0.000000
 20
0.000000
  0
POLYLINE
  8
0
 66
1
 70
1
 40
0.000000
 41
0.000000
 39
0.000000
  0
VERTEX
  8
0
 10
-0.500000
 20
-0.125000
 40
0.000000
 41
0.000000
 42
0.000000
  0
VERTEX
  8
0
 10
-0.500000
 20
0.125000
 40
0.000000
 41
0.000000
 42
0.000000
  0
VERTEX
  8
0
 10
-0.416000
 20
0.375000
 40
0.000000
 41
0.000000
 42
0.000000
  0
VERTEX
  8
0
 10
-0.250000
 20
0.500000
 40
0.000000
 41
0.000000
 42
0.000000
  0
VERTEX
  8
0
 10
0.250000
 20
0.500000
 40
0.000000
 41
0.000000
 42
0.000000
  0
VERTEX
  8
0
 10
0.416000
 20
0.375000
 40
0.000000
 41
0.000000
 42
0.000000
  0
VERTEX
  8
0
 10
0.500000
 20
0.125000
 40
0.000000
 41
0.000000
 42
0.000000
  0
VERTEX
  8
0
 10
0.500000
 20
-0.125000
 40
0.000000
 41
0.000000
 42
0.000000
  0
VERTEX
  8
0
 10
0.416000
 20
-0.375000
 40
0.000000
 41
0.000000
 42
0.000000
  0
VERTEX
  8
0
 10
0.250000
 20
-0.500000
 40
0.000000
 41
0.000000
 42
0.000000
  0
VERTEX
  8
0
 10
-0.250000
 20
-0.500000
 40
0.000000
 41
0.000000
 42
0.000000
  0
VERTEX
  8
0
 10
-0.416000
 20
-0.375000
 40
0.000000
 41
0.000000
 42
0.000000
  0
SEQEND
  0
ENDBLK
  0
BLOCK
  8
0
  2
FIGURE_TRI
 70
0
 10
0.000000
 20
0.000000
  0
POLYLINE
  8
0
 66
1
 70
1
 40
0.000000
 41
0.000000
 39
0.000000
  0
VERTEX
  8
0
 10
-0.500000
 20
-0.500000
 40
0.000000
 41
0.000000
 42
0.000000
  0
VERTEX
  8
0
 10
0.000000
 20
0.500000
 40
0.000000
 41
0.000000
 42
0.000000
  0
VERTEX
  8
0
 10
0.500000
 20
-0.500000
 40
0.000000
 41
0.000000
 42
0.000000
  0
SEQEND
  0
ENDBLK
  0
BLOCK
  8
0
  2
FIGURE_CROSS
 70
0
 10
0.000000
 20
0.000000
  0
POLYLINE
  8
0
 66
1
 70
0
 40
0.000000
 41
0.000000
 39
0.000000
  0
VERTEX
  8
0
 10
-0.500000
 20
0.000000
 40
0.000000
 41
0.000000
 42
0.000000
  0
VERTEX
  8
0
 10
0.500000
 20
0.000000
 40
0.000000
 41
0.000000
 42
0.000000
  0
SEQEND
  0
POLYLINE
  8
0
 66
1
 70
0
 40
0.000000
 41
0.000000
 39
0.000000
  0
VERTEX
  8
0
 10
0.000000
 20
0.500000
 40
0.000000
 41
0.000000
 42
0.000000
  0
VERTEX
  8
0
 10
0.000000
 20
-0.500000
 40
0.000000
 41
0.000000
 42
0.000000
  0
SEQEND
  0
ENDBLK
  0
BLOCK
  8
0
  2
FIGURE_DIAMOND
 70
0
 10
0.000000
 20
0.000000
  0
POLYLINE
  8
0
 66
1
 70
1
 40
0.000000
 41
0.000000
 39
0.000000
  0
VERTEX
  8
0
 10
-0.500000
 20
0.000000
 40
0.000000
 41
0.000000
 42
0.000000
  0
VERTEX
  8
0
 10
0.000000
 20
0.500000
 40
0.000000
 41
0.000000
 42
0.000000
  0
VERTEX
  8
0
 10
0.500000
 20
0.000000
 40
0.000000
 41
0.000000
 42
0.000000
  0
VERTEX
  8
0
 10
0.000000
 20
-0.500000
 40
0.000000
 41
0.000000
 42
0.000000
  0
SEQEND
  0
ENDBLK
  0
ENDSEC
  0
SECTION
  2
ENTITIES
  0
POLYLINE
  8
OUTLINE
 66
1
 70
1
 40
0.000000
 41
0.000000
 39
0.000000
  0
VERTEX
  8
OUTLINE
 10
0.000000
 20
98.550000
 40
0.000000
 41
0.000000
 42
0.000000
  0
VERTEX
  8
OUTLINE
 10
0.000000
 20
92.120000
 40
0.000000
 41
0.000000
 42
0.000000
  0
VERTEX
  8
OUTLINE
 10
-6.000000
 20
92.120000
 40
0.000000
 41
0.000000
 42
0.414214
  0
VERTEX
  8
OUTLINE
 10
-8.000000
 20
90.120000
 40
0.000000
 41
0.000000
 42
0.000000
  0
VERTEX
  8
OUTLINE
 10
-8.000000
 20
86.120000
 40
0.000000
 41
0.000000
 42
0.414214
  0
VERTEX
  8
OUTLINE
 10
-6.000000
 20
84.120000
 40
0.000000
 41
0.000000
 42
0.000000
  0
VERTEX
  8
OUTLINE
 10
0.000000
 20
84.120000
 40
0.000000
 41
0.000000
 42
0.000000
  0
VERTEX
  8
OUTLINE
 10
0.000000
 20
16.480000
 40
0.000000
 41
0.000000
 42
0.000000
  0
VERTEX
  8
OUTLINE
 10
-6.000000
 20
16.480000
 40
0.000000
 41
0.000000
 42
0.414214
  0
VERTEX
  8
OUTLINE
 10
-8.000000
 20
14.480000
 40
0.000000
 41
0.000000
 42
0.000000
  0
VERTEX
  8
OUTLINE
 10
-8.000000
 20
10.480000
 40
0.000000
 41
0.000000
 42
0.414214
  0
VERTEX
  8
OUTLINE
 10
-6.000000
 20
8.480000
 40
0.000000
 41
0.000000
 42
0.000000
  0
VERTEX
  8
OUTLINE
 10
0.000000
 20
8.480000
 40
0.000000
 41
0.000000
 42
0.000000
  0
VERTEX
  8
OUTLINE
 10
0.000000
 20
2.000000
 40
0.000000
 41
0.000000
 42
0.414214
  0
VERTEX
  8
OUTLINE
 10
2.000000
 20
0.000000
 40
0.000000
 41
0.000000
 42
0.000000
  0
VERTEX
  8
OUTLINE
 10
163.600000
 20
0.000000
 40
0.000000
 41
0.000000
 42
0.414214
  0
VERTEX
  8
OUTLINE
 10
165.600000
 20
2.000000
 40
0.000000
 41
0.000000
 42
0.000000
  0
VERTEX
  8
OUTLINE
 10
165.600000
 20
8.480000
 40
0.000000
 41
0.000000
 42
0.000000
  0
VERTEX
  8
OUTLINE
 10
171.600000
 20
8.480000
 40
0.000000
 41
0.000000
 42
0.414214
  0
VERTEX
  8
OUTLINE
 10
173.600000
 20
10.480000
 40
0.000000
 41
0.000000
 42
0.000000
  0
VERTEX
  8
OUTLINE
 10
173.600000
 20
14.480000
 40
0.000000
 41
0.000000
 42
0.414214
  0
VERTEX
  8
OUTLINE
 10
171.600000
 20
16.480000
 40
0.000000
 41
0.000000
 42
0.000000
  0
VERTEX
  8
OUTLINE
 10
165.600000
 20
16.480000
 40
0.000000
 41
0.000000
 42
0.000000
  0
VERTEX
  8
OUTLINE
 10
165.600000
 20
84.120000
 40
0.000000
 41
0.000000
 42
0.000000
  0
VERTEX
  8
OUTLINE
 10
171.600000
 20
84.120000
 40
0.000000
 41
0.000000
 42
0.414214
  0
VERTEX
  8
OUTLINE
 10
173.600000
 20
86.120000
 40
0.000000
 41
0.000000
 42
0.000000
  0
VERTEX
  8
OUTLINE
 10
173.600000
 20
90.120000
 40
0.000000
 41
0.000000
 42
0.414214
  0
VERTEX
  8
OUTLINE
 10
171.600000
 20
92.120000
 40
0.000000
 41
0.000000
 42
0.000000
  0
VERTEX
  8
OUTLINE
 10
165.600000
 20
92.120000
 40
0.000000
 41
0.000000
 42
0.000000
  0
VERTEX
  8
OUTLINE
 10
165.600000
 20
98.600000
 40
0.000000
 41
0.000000
 42
0.414214
  0
VERTEX
  8
OUTLINE
 10
163.600000
 20
100.600000
 40
0.000000
 41
0.000000
 42
0.000000
  0
VERTEX
  8
OUTLINE
 10
2.050000
 20
100.600000
 40
0.000000
 41
0.000000
 42
0.414214
  0
SEQEND
  0
ENDSEC
  0
EOF
