*
%FSLAX26Y26*%
%MOIN*%
%ADD10C,0.003937*%
%ADD11C,0.011811*%
%ADD12C,0.006024*%
%IPPOS*%
%LN37666-3475236.gbo*%
%LPD*%
G75*
G54D10*
X1001803Y1452126D02*
X1474244D01*
Y1137165D01*
X1001803D01*
Y1452126D01*
X2972276Y115512D02*
X3503772D01*
Y13150D01*
X2972276D01*
Y115512D01*
X1021488Y1432441D02*
X1454559D01*
Y1156850D01*
X1021488D01*
Y1432441D01*
X2287083Y3918716D02*
X2273960D01*
X2268336Y3898094D02*
X2287083D01*
Y3937464D01*
X2268336D01*
X2257087D02*
X2234590D01*
X2245838Y3898094D02*
Y3937464D01*
X2221466Y3898094D02*
Y3937464D01*
Y3918716D02*
X2198969D01*
Y3898094D02*
Y3937464D01*
X2180222Y3918716D02*
X2167098D01*
X2161474Y3898094D02*
X2180222D01*
Y3937464D01*
X2161474D01*
X2122104Y3898094D02*
X2135227Y3916841D01*
X2144601Y3898094D02*
Y3937464D01*
X2129603D01*
X2125853Y3935589D01*
X2123979Y3933714D01*
X2122104Y3929965D01*
Y3924340D01*
X2123979Y3920591D01*
X2125853Y3918716D01*
X2129603Y3916841D01*
X2144601D01*
X2105231Y3898094D02*
Y3937464D01*
X2082734Y3898094D01*
Y3937464D01*
X2063986Y3918716D02*
X2050863D01*
X2045238Y3898094D02*
X2063986D01*
Y3937464D01*
X2045238D01*
X2033990D02*
X2011493D01*
X2022741Y3898094D02*
Y3937464D01*
X785115D02*
Y3905593D01*
X783240Y3901843D01*
X781365Y3899969D01*
X777616Y3898094D01*
X770117D01*
X766367Y3899969D01*
X764492Y3901843D01*
X762618Y3905593D01*
Y3937464D01*
X745745Y3899969D02*
X740120Y3898094D01*
X730747D01*
X726997Y3899969D01*
X725122Y3901843D01*
X723248Y3905593D01*
Y3909342D01*
X725122Y3913092D01*
X726997Y3914967D01*
X730747Y3916841D01*
X738246Y3918716D01*
X741995Y3920591D01*
X743870Y3922466D01*
X745745Y3926215D01*
Y3929965D01*
X743870Y3933714D01*
X741995Y3935589D01*
X738246Y3937464D01*
X728872D01*
X723248Y3935589D01*
X693251Y3918716D02*
X687627Y3916841D01*
X685752Y3914967D01*
X683877Y3911217D01*
Y3905593D01*
X685752Y3901843D01*
X687627Y3899969D01*
X691376Y3898094D01*
X706375D01*
Y3937464D01*
X693251D01*
X689502Y3935589D01*
X687627Y3933714D01*
X685752Y3929965D01*
Y3926215D01*
X687627Y3922466D01*
X689502Y3920591D01*
X693251Y3918716D01*
X706375D01*
X670754Y3937464D02*
X646382D01*
X659506Y3922466D01*
X653881D01*
X650132Y3920591D01*
X648257Y3918716D01*
X646382Y3914967D01*
Y3905593D01*
X648257Y3901843D01*
X650132Y3899969D01*
X653881Y3898094D01*
X665130D01*
X668879Y3899969D01*
X670754Y3901843D01*
X638883Y3894344D02*
X608887D01*
X578891Y3898094D02*
X601388D01*
X590139D02*
Y3937464D01*
X593889Y3931840D01*
X597638Y3928090D01*
X601388Y3926215D01*
X335566Y709122D02*
Y686625D01*
Y697873D02*
X374936D01*
X369312Y694124D01*
X365562Y690374D01*
X363688Y686625D01*
X371187Y724120D02*
X373061Y725995D01*
X374936Y729744D01*
Y739118D01*
X373061Y742868D01*
X371187Y744742D01*
X367437Y746617D01*
X363688D01*
X358063Y744742D01*
X335566Y722245D01*
Y746617D01*
X374936Y757866D02*
X335566Y770989D01*
X374936Y784112D01*
X335566Y827232D02*
X374936D01*
X335566Y845980D02*
X374936D01*
X335566Y868477D01*
X374936D01*
X335566Y887225D02*
X374936D01*
Y902223D01*
X373061Y905972D01*
X371187Y907847D01*
X367437Y909722D01*
X361813D01*
X358063Y907847D01*
X356189Y905972D01*
X354314Y902223D01*
Y887225D01*
X374936Y926595D02*
X343065D01*
X339316Y928469D01*
X337441Y930344D01*
X335566Y934094D01*
Y941593D01*
X337441Y945342D01*
X339316Y947217D01*
X343065Y949092D01*
X374936D01*
Y962215D02*
Y984712D01*
X335566Y973464D02*
X374936D01*
G54D11*
X3455788Y146975D02*
X3483909D01*
Y206030D01*
X3410793Y146975D02*
Y177909D01*
X3413605Y183533D01*
X3419230Y186345D01*
X3430478D01*
X3436102Y183533D01*
X3410793Y149787D02*
X3416417Y146975D01*
X3430478D01*
X3436102Y149787D01*
X3438915Y155412D01*
Y161036D01*
X3436102Y166660D01*
X3430478Y169472D01*
X3416417D01*
X3410793Y172285D01*
X3388296Y186345D02*
X3374235Y146975D01*
X3360174Y186345D02*
X3374235Y146975D01*
X3379859Y132915D01*
X3382672Y130102D01*
X3388296Y127290D01*
X3315180Y149787D02*
X3320804Y146975D01*
X3332053D01*
X3337677Y149787D01*
X3340489Y155412D01*
Y177909D01*
X3337677Y183533D01*
X3332053Y186345D01*
X3320804D01*
X3315180Y183533D01*
X3312368Y177909D01*
Y172285D01*
X3340489Y166660D01*
X3287059Y146975D02*
Y186345D01*
Y175097D02*
X3284246Y180721D01*
X3281434Y183533D01*
X3275810Y186345D01*
X3270186D01*
X3208319Y149787D02*
X3199882Y146975D01*
X3185821D01*
X3180197Y149787D01*
X3177385Y152600D01*
X3174573Y158224D01*
Y163848D01*
X3177385Y169472D01*
X3180197Y172285D01*
X3185821Y175097D01*
X3197070Y177909D01*
X3202694Y180721D01*
X3205506Y183533D01*
X3208319Y189157D01*
Y194782D01*
X3205506Y200406D01*
X3202694Y203218D01*
X3197070Y206030D01*
X3183009D01*
X3174573Y203218D01*
X3157700Y186345D02*
X3135203D01*
X3149263Y206030D02*
Y155412D01*
X3146451Y149787D01*
X3140827Y146975D01*
X3135203D01*
X3090208D02*
Y177909D01*
X3093020Y183533D01*
X3098645Y186345D01*
X3109893D01*
X3115518Y183533D01*
X3090208Y149787D02*
X3095833Y146975D01*
X3109893D01*
X3115518Y149787D01*
X3118330Y155412D01*
Y161036D01*
X3115518Y166660D01*
X3109893Y169472D01*
X3095833D01*
X3090208Y172285D01*
X3036777Y149787D02*
X3042402Y146975D01*
X3053650D01*
X3059275Y149787D01*
X3062087Y152600D01*
X3064899Y158224D01*
Y175097D01*
X3062087Y180721D01*
X3059275Y183533D01*
X3053650Y186345D01*
X3042402D01*
X3036777Y183533D01*
X3011468Y146975D02*
Y206030D01*
X3005844Y169472D02*
X2988971Y146975D01*
Y186345D02*
X3011468Y163848D01*
G54D10*
X2987871Y3898094D02*
Y3937464D01*
Y3918716D02*
X2965374D01*
Y3898094D02*
Y3937464D01*
X2946626Y3898094D02*
Y3937464D01*
X2937252D01*
X2931628Y3935589D01*
X2927878Y3931840D01*
X2926003Y3928090D01*
X2924129Y3920591D01*
Y3914967D01*
X2926003Y3907468D01*
X2927878Y3903718D01*
X2931628Y3899969D01*
X2937252Y3898094D01*
X2946626D01*
X2907256D02*
Y3937464D01*
X2894132Y3909342D01*
X2881009Y3937464D01*
Y3898094D01*
X2862261D02*
Y3937464D01*
X335566Y1661971D02*
Y1643224D01*
X374936D01*
X335566Y1675095D02*
X374936D01*
X335566Y1693843D02*
X374936D01*
X335566Y1716340D01*
X374936D01*
X356189Y1735087D02*
Y1748211D01*
X335566Y1753835D02*
Y1735087D01*
X374936D01*
Y1753835D01*
Y1808203D02*
Y1815702D01*
X373061Y1819452D01*
X369312Y1823201D01*
X361813Y1825076D01*
X348690D01*
X341190Y1823201D01*
X337441Y1819452D01*
X335566Y1815702D01*
Y1808203D01*
X337441Y1804454D01*
X341190Y1800704D01*
X348690Y1798829D01*
X361813D01*
X369312Y1800704D01*
X373061Y1804454D01*
X374936Y1808203D01*
Y1841949D02*
X343065D01*
X339316Y1843824D01*
X337441Y1845699D01*
X335566Y1849448D01*
Y1856947D01*
X337441Y1860697D01*
X339316Y1862571D01*
X343065Y1864446D01*
X374936D01*
Y1877569D02*
Y1900067D01*
X335566Y1888818D02*
X374936D01*
X1491808Y3937464D02*
Y3905593D01*
X1489933Y3901843D01*
X1488058Y3899969D01*
X1484309Y3898094D01*
X1476810D01*
X1473060Y3899969D01*
X1471185Y3901843D01*
X1469311Y3905593D01*
Y3937464D01*
X1452438Y3899969D02*
X1446813Y3898094D01*
X1437439D01*
X1433690Y3899969D01*
X1431815Y3901843D01*
X1429940Y3905593D01*
Y3909342D01*
X1431815Y3913092D01*
X1433690Y3914967D01*
X1437439Y3916841D01*
X1444939Y3918716D01*
X1448688Y3920591D01*
X1450563Y3922466D01*
X1452438Y3926215D01*
Y3929965D01*
X1450563Y3933714D01*
X1448688Y3935589D01*
X1444939Y3937464D01*
X1435565D01*
X1429940Y3935589D01*
X1399944Y3918716D02*
X1394320Y3916841D01*
X1392445Y3914967D01*
X1390570Y3911217D01*
Y3905593D01*
X1392445Y3901843D01*
X1394320Y3899969D01*
X1398069Y3898094D01*
X1413068D01*
Y3937464D01*
X1399944D01*
X1396195Y3935589D01*
X1394320Y3933714D01*
X1392445Y3929965D01*
Y3926215D01*
X1394320Y3922466D01*
X1396195Y3920591D01*
X1399944Y3918716D01*
X1413068D01*
X1377447Y3937464D02*
X1353075D01*
X1366198Y3922466D01*
X1360574D01*
X1356825Y3920591D01*
X1354950Y3918716D01*
X1353075Y3914967D01*
Y3905593D01*
X1354950Y3901843D01*
X1356825Y3899969D01*
X1360574Y3898094D01*
X1371823D01*
X1375572Y3899969D01*
X1377447Y3901843D01*
X1345576Y3894344D02*
X1315580D01*
X1298707Y3937464D02*
X1294957D01*
X1291208Y3935589D01*
X1289333Y3933714D01*
X1287458Y3929965D01*
X1285583Y3922466D01*
Y3913092D01*
X1287458Y3905593D01*
X1289333Y3901843D01*
X1291208Y3899969D01*
X1294957Y3898094D01*
X1298707D01*
X1302456Y3899969D01*
X1304331Y3901843D01*
X1306206Y3905593D01*
X1308081Y3913092D01*
Y3922466D01*
X1306206Y3929965D01*
X1304331Y3933714D01*
X1302456Y3935589D01*
X1298707Y3937464D01*
X6819031Y1966058D02*
X6787160D01*
X6783410Y1967933D01*
X6781535Y1969808D01*
X6779661Y1973557D01*
Y1981057D01*
X6781535Y1984806D01*
X6783410Y1986681D01*
X6787160Y1988556D01*
X6819031D01*
X6781535Y2005429D02*
X6779661Y2011053D01*
Y2020427D01*
X6781535Y2024176D01*
X6783410Y2026051D01*
X6787160Y2027926D01*
X6790909D01*
X6794659Y2026051D01*
X6796534Y2024176D01*
X6798408Y2020427D01*
X6800283Y2012928D01*
X6802158Y2009178D01*
X6804033Y2007303D01*
X6807782Y2005429D01*
X6811532D01*
X6815281Y2007303D01*
X6817156Y2009178D01*
X6819031Y2012928D01*
Y2022301D01*
X6817156Y2027926D01*
X6800283Y2057922D02*
X6798408Y2063546D01*
X6796534Y2065421D01*
X6792784Y2067296D01*
X6787160D01*
X6783410Y2065421D01*
X6781535Y2063546D01*
X6779661Y2059797D01*
Y2044799D01*
X6819031D01*
Y2057922D01*
X6817156Y2061671D01*
X6815281Y2063546D01*
X6811532Y2065421D01*
X6807782D01*
X6804033Y2063546D01*
X6802158Y2061671D01*
X6800283Y2057922D01*
Y2044799D01*
X6794659Y2084169D02*
Y2114165D01*
X6783410Y2155410D02*
X6781535Y2153535D01*
X6779661Y2147911D01*
Y2144161D01*
X6781535Y2138537D01*
X6785285Y2134787D01*
X6789034Y2132913D01*
X6796534Y2131038D01*
X6802158D01*
X6809657Y2132913D01*
X6813406Y2134787D01*
X6817156Y2138537D01*
X6819031Y2144161D01*
Y2147911D01*
X6817156Y2153535D01*
X6815281Y2155410D01*
X6819031Y2209778D02*
Y2217277D01*
X6817156Y2221027D01*
X6813406Y2224776D01*
X6805907Y2226651D01*
X6792784D01*
X6785285Y2224776D01*
X6781535Y2221027D01*
X6779661Y2217277D01*
Y2209778D01*
X6781535Y2206028D01*
X6785285Y2202279D01*
X6792784Y2200404D01*
X6805907D01*
X6813406Y2202279D01*
X6817156Y2206028D01*
X6819031Y2209778D01*
Y2237900D02*
Y2260397D01*
X6779661Y2249148D02*
X6819031D01*
X6817156Y2294142D02*
X6819031Y2290393D01*
Y2284769D01*
X6817156Y2279144D01*
X6813406Y2275395D01*
X6809657Y2273520D01*
X6802158Y2271645D01*
X6796534D01*
X6789034Y2273520D01*
X6785285Y2275395D01*
X6781535Y2279144D01*
X6779661Y2284769D01*
Y2288518D01*
X6781535Y2294142D01*
X6783410Y2296017D01*
X6796534D01*
Y2288518D01*
X6379165Y259649D02*
Y299019D01*
X6366042Y270897D01*
X6352918Y299019D01*
Y259649D01*
X6334170D02*
Y285895D01*
Y299019D02*
X6336045Y297144D01*
X6334170Y295269D01*
X6332296Y297144D01*
X6334170Y299019D01*
Y295269D01*
X6315423Y259649D02*
Y299019D01*
X6311673Y274647D02*
X6300425Y259649D01*
Y285895D02*
X6315423Y270897D01*
X6283552Y259649D02*
Y285895D01*
Y278396D02*
X6281677Y282146D01*
X6279802Y284021D01*
X6276053Y285895D01*
X6272303D01*
X6253556Y259649D02*
X6257305Y261524D01*
X6259180Y263398D01*
X6261055Y267148D01*
Y278396D01*
X6259180Y282146D01*
X6257305Y284021D01*
X6253556Y285895D01*
X6247931D01*
X6244182Y284021D01*
X6242307Y282146D01*
X6240432Y278396D01*
Y267148D01*
X6242307Y263398D01*
X6244182Y261524D01*
X6247931Y259649D01*
X6253556D01*
X6210436Y280271D02*
X6204812Y278396D01*
X6202937Y276522D01*
X6201062Y272772D01*
Y267148D01*
X6202937Y263398D01*
X6204812Y261524D01*
X6208561Y259649D01*
X6223559D01*
Y299019D01*
X6210436D01*
X6206686Y297144D01*
X6204812Y295269D01*
X6202937Y291520D01*
Y287770D01*
X6204812Y284021D01*
X6206686Y282146D01*
X6210436Y280271D01*
X6223559D01*
X6167316Y285895D02*
Y259649D01*
X6184189Y285895D02*
Y265273D01*
X6182314Y261524D01*
X6178565Y259649D01*
X6172941D01*
X6169191Y261524D01*
X6167316Y263398D01*
X6150444Y261524D02*
X6146694Y259649D01*
X6139195D01*
X6135445Y261524D01*
X6133571Y265273D01*
Y267148D01*
X6135445Y270897D01*
X6139195Y272772D01*
X6144819D01*
X6148569Y274647D01*
X6150444Y278396D01*
Y280271D01*
X6148569Y284021D01*
X6144819Y285895D01*
X6139195D01*
X6135445Y284021D01*
G54D12*
X1408627Y1371818D02*
X1421751Y1390565D01*
X1431124Y1371818D02*
Y1411188D01*
X1416126D01*
X1412377Y1409313D01*
X1410502Y1407438D01*
X1408627Y1403689D01*
Y1398064D01*
X1410502Y1394315D01*
X1412377Y1392440D01*
X1416126Y1390565D01*
X1431124D01*
X1391754Y1371818D02*
Y1411188D01*
X1376756D01*
X1373007Y1409313D01*
X1371132Y1407438D01*
X1369257Y1403689D01*
Y1398064D01*
X1371132Y1394315D01*
X1373007Y1392440D01*
X1376756Y1390565D01*
X1391754D01*
X1352384Y1371818D02*
Y1411188D01*
X1281143Y1375567D02*
X1283018Y1373692D01*
X1288642Y1371818D01*
X1292392D01*
X1298016Y1373692D01*
X1301766Y1377442D01*
X1303640Y1381192D01*
X1305515Y1388691D01*
Y1394315D01*
X1303640Y1401814D01*
X1301766Y1405563D01*
X1298016Y1409313D01*
X1292392Y1411188D01*
X1288642D01*
X1283018Y1409313D01*
X1281143Y1407438D01*
X1264270Y1371818D02*
Y1411188D01*
X1251147Y1383066D01*
X1238024Y1411188D01*
Y1371818D01*
X1208027Y1358694D02*
X1217401D01*
Y1414937D01*
X1208027D01*
X1196779Y1371818D02*
X1176156Y1398064D01*
X1196779D02*
X1176156Y1371818D01*
X1164908Y1358694D02*
X1155534D01*
Y1414937D01*
X1164908D01*
X1082418Y1375567D02*
X1084293Y1373692D01*
X1089917Y1371818D01*
X1093667D01*
X1099291Y1373692D01*
X1103040Y1377442D01*
X1104915Y1381192D01*
X1106790Y1388691D01*
Y1394315D01*
X1104915Y1401814D01*
X1103040Y1405563D01*
X1099291Y1409313D01*
X1093667Y1411188D01*
X1089917D01*
X1084293Y1409313D01*
X1082418Y1407438D01*
X1052422Y1392440D02*
X1046797Y1390565D01*
X1044923Y1388691D01*
X1043048Y1384941D01*
Y1379317D01*
X1044923Y1375567D01*
X1046797Y1373692D01*
X1050547Y1371818D01*
X1065545D01*
Y1411188D01*
X1052422D01*
X1048672Y1409313D01*
X1046797Y1407438D01*
X1044923Y1403689D01*
Y1399939D01*
X1046797Y1396190D01*
X1048672Y1394315D01*
X1052422Y1392440D01*
X1065545D01*
X1375819Y1347804D02*
Y1319683D01*
X1377694Y1314058D01*
X1381443Y1310309D01*
X1387067Y1308434D01*
X1390817D01*
X1343948Y1329056D02*
X1357071D01*
Y1308434D02*
Y1347804D01*
X1338324D01*
X1310202Y1329056D02*
X1304578Y1327182D01*
X1302703Y1325307D01*
X1300828Y1321557D01*
Y1315933D01*
X1302703Y1312184D01*
X1304578Y1310309D01*
X1308327Y1308434D01*
X1323325D01*
Y1347804D01*
X1310202D01*
X1306453Y1345929D01*
X1304578Y1344055D01*
X1302703Y1340305D01*
Y1336556D01*
X1304578Y1332806D01*
X1306453Y1330931D01*
X1310202Y1329056D01*
X1323325D01*
X1282081Y1310309D02*
Y1308434D01*
X1283955Y1304685D01*
X1285830Y1302810D01*
X1235211Y1308434D02*
Y1347804D01*
X1220213D01*
X1216464Y1345929D01*
X1214589Y1344055D01*
X1212714Y1340305D01*
Y1334681D01*
X1214589Y1330931D01*
X1216464Y1329056D01*
X1220213Y1327182D01*
X1235211D01*
X1195841Y1312184D02*
X1193967Y1310309D01*
X1195841Y1308434D01*
X1197716Y1310309D01*
X1195841Y1312184D01*
Y1308434D01*
X1177094Y1329056D02*
X1163970D01*
X1158346Y1308434D02*
X1177094D01*
Y1347804D01*
X1158346D01*
X1141473Y1334681D02*
Y1308434D01*
Y1330931D02*
X1139598Y1332806D01*
X1135849Y1334681D01*
X1130225D01*
X1126475Y1332806D01*
X1124600Y1329056D01*
Y1308434D01*
X1088980Y1334681D02*
Y1302810D01*
X1090855Y1299060D01*
X1092729Y1297185D01*
X1096479Y1295311D01*
X1102103D01*
X1105853Y1297185D01*
X1088980Y1310309D02*
X1092729Y1308434D01*
X1100228D01*
X1103978Y1310309D01*
X1105853Y1312184D01*
X1107727Y1315933D01*
Y1327182D01*
X1105853Y1330931D01*
X1103978Y1332806D01*
X1100228Y1334681D01*
X1092729D01*
X1088980Y1332806D01*
X1367382Y1280671D02*
X1365508Y1282546D01*
X1361758Y1284420D01*
X1352384D01*
X1348635Y1282546D01*
X1346760Y1280671D01*
X1344885Y1276921D01*
Y1273172D01*
X1346760Y1267548D01*
X1369257Y1245050D01*
X1344885D01*
X1320513Y1284420D02*
X1316764D01*
X1313014Y1282546D01*
X1311139Y1280671D01*
X1309265Y1276921D01*
X1307390Y1269422D01*
Y1260049D01*
X1309265Y1252550D01*
X1311139Y1248800D01*
X1313014Y1246925D01*
X1316764Y1245050D01*
X1320513D01*
X1324263Y1246925D01*
X1326138Y1248800D01*
X1328012Y1252550D01*
X1329887Y1260049D01*
Y1269422D01*
X1328012Y1276921D01*
X1326138Y1280671D01*
X1324263Y1282546D01*
X1320513Y1284420D01*
X1292392Y1280671D02*
X1290517Y1282546D01*
X1286768Y1284420D01*
X1277394D01*
X1273644Y1282546D01*
X1271769Y1280671D01*
X1269895Y1276921D01*
Y1273172D01*
X1271769Y1267548D01*
X1294267Y1245050D01*
X1269895D01*
X1236149Y1284420D02*
X1243648D01*
X1247397Y1282546D01*
X1249272Y1280671D01*
X1253022Y1275047D01*
X1254896Y1267548D01*
Y1252550D01*
X1253022Y1248800D01*
X1251147Y1246925D01*
X1247397Y1245050D01*
X1239898D01*
X1236149Y1246925D01*
X1234274Y1248800D01*
X1232399Y1252550D01*
Y1261923D01*
X1234274Y1265673D01*
X1236149Y1267548D01*
X1239898Y1269422D01*
X1247397D01*
X1251147Y1267548D01*
X1253022Y1265673D01*
X1254896Y1261923D01*
X1215526Y1260049D02*
X1185530D01*
X1159283Y1284420D02*
X1155534D01*
X1151784Y1282546D01*
X1149910Y1280671D01*
X1148035Y1276921D01*
X1146160Y1269422D01*
Y1260049D01*
X1148035Y1252550D01*
X1149910Y1248800D01*
X1151784Y1246925D01*
X1155534Y1245050D01*
X1159283D01*
X1163033Y1246925D01*
X1164908Y1248800D01*
X1166782Y1252550D01*
X1168657Y1260049D01*
Y1269422D01*
X1166782Y1276921D01*
X1164908Y1280671D01*
X1163033Y1282546D01*
X1159283Y1284420D01*
X1133037D02*
X1108665D01*
X1121788Y1269422D01*
X1116164D01*
X1112414Y1267548D01*
X1110540Y1265673D01*
X1108665Y1261923D01*
Y1252550D01*
X1110540Y1248800D01*
X1112414Y1246925D01*
X1116164Y1245050D01*
X1127412D01*
X1131162Y1246925D01*
X1133037Y1248800D01*
X1432999Y1181667D02*
Y1221037D01*
X1418001D01*
X1414252Y1219162D01*
X1412377Y1217287D01*
X1410502Y1213538D01*
Y1207914D01*
X1412377Y1204164D01*
X1414252Y1202289D01*
X1418001Y1200414D01*
X1432999D01*
X1371132Y1185416D02*
X1373007Y1183542D01*
X1378631Y1181667D01*
X1382381D01*
X1388005Y1183542D01*
X1391754Y1187291D01*
X1393629Y1191041D01*
X1395504Y1198540D01*
Y1204164D01*
X1393629Y1211663D01*
X1391754Y1215413D01*
X1388005Y1219162D01*
X1382381Y1221037D01*
X1378631D01*
X1373007Y1219162D01*
X1371132Y1217287D01*
X1341136Y1202289D02*
X1335511Y1200414D01*
X1333637Y1198540D01*
X1331762Y1194790D01*
Y1189166D01*
X1333637Y1185416D01*
X1335511Y1183542D01*
X1339261Y1181667D01*
X1354259D01*
Y1221037D01*
X1341136D01*
X1337386Y1219162D01*
X1335511Y1217287D01*
X1333637Y1213538D01*
Y1209788D01*
X1335511Y1206039D01*
X1337386Y1204164D01*
X1341136Y1202289D01*
X1354259D01*
X1262396Y1181667D02*
X1275519Y1200414D01*
X1284893Y1181667D02*
Y1221037D01*
X1269895D01*
X1266145Y1219162D01*
X1264270Y1217287D01*
X1262396Y1213538D01*
Y1207914D01*
X1264270Y1204164D01*
X1266145Y1202289D01*
X1269895Y1200414D01*
X1284893D01*
X1230525Y1183542D02*
X1234274Y1181667D01*
X1241773D01*
X1245523Y1183542D01*
X1247397Y1187291D01*
Y1202289D01*
X1245523Y1206039D01*
X1241773Y1207914D01*
X1234274D01*
X1230525Y1206039D01*
X1228650Y1202289D01*
Y1198540D01*
X1247397Y1194790D01*
X1215526Y1207914D02*
X1206153Y1181667D01*
X1196779Y1207914D01*
X1131162Y1181667D02*
X1153659D01*
X1142411D02*
Y1221037D01*
X1146160Y1215413D01*
X1149910Y1211663D01*
X1153659Y1209788D01*
X1114289Y1185416D02*
X1112414Y1183542D01*
X1114289Y1181667D01*
X1116164Y1183542D01*
X1114289Y1185416D01*
Y1181667D01*
X1088042Y1221037D02*
X1084293D01*
X1080543Y1219162D01*
X1078669Y1217287D01*
X1076794Y1213538D01*
X1074919Y1206039D01*
Y1196665D01*
X1076794Y1189166D01*
X1078669Y1185416D01*
X1080543Y1183542D01*
X1084293Y1181667D01*
X1088042D01*
X1091792Y1183542D01*
X1093667Y1185416D01*
X1095541Y1189166D01*
X1097416Y1196665D01*
Y1206039D01*
X1095541Y1213538D01*
X1093667Y1217287D01*
X1091792Y1219162D01*
X1088042Y1221037D01*
X1059921Y1192915D02*
X1041173D01*
X1063670Y1181667D02*
X1050547Y1221037D01*
X1037424Y1181667D01*
G54D10*
X331817Y1165533D02*
X333691Y1161784D01*
X337441Y1158034D01*
X343065Y1152410D01*
X344940Y1148661D01*
Y1144911D01*
X335566Y1146786D02*
X337441Y1143036D01*
X341190Y1139287D01*
X348690Y1137412D01*
X361813D01*
X369312Y1139287D01*
X373061Y1143036D01*
X374936Y1146786D01*
Y1154285D01*
X373061Y1158034D01*
X369312Y1161784D01*
X361813Y1163659D01*
X348690D01*
X341190Y1161784D01*
X337441Y1158034D01*
X335566Y1154285D01*
Y1146786D01*
X374936Y1176782D02*
X335566Y1186156D01*
X363688Y1193655D01*
X335566Y1201154D01*
X374936Y1210528D01*
X335566Y1225526D02*
X374936D01*
X335566Y1244274D02*
X374936D01*
X339316Y1285519D02*
X337441Y1283644D01*
X335566Y1278019D01*
Y1274270D01*
X337441Y1268646D01*
X341190Y1264896D01*
X344940Y1263021D01*
X352439Y1261147D01*
X358063D01*
X365562Y1263021D01*
X369312Y1264896D01*
X373061Y1268646D01*
X374936Y1274270D01*
Y1278019D01*
X373061Y1283644D01*
X371187Y1285519D01*
X335566Y2094011D02*
X374936D01*
X356189D02*
Y2116508D01*
X335566D02*
X374936D01*
X356189Y2135256D02*
Y2148379D01*
X335566Y2154004D02*
Y2135256D01*
X374936D01*
Y2154004D01*
X346815Y2169002D02*
Y2187750D01*
X335566Y2165252D02*
X374936Y2178376D01*
X335566Y2191499D01*
Y2204622D02*
X374936D01*
Y2213996D01*
X373061Y2219620D01*
X369312Y2223370D01*
X365562Y2225245D01*
X358063Y2227120D01*
X352439D01*
X344940Y2225245D01*
X341190Y2223370D01*
X337441Y2219620D01*
X335566Y2213996D01*
Y2204622D01*
X374936Y2281488D02*
Y2288987D01*
X373061Y2292736D01*
X369312Y2296486D01*
X361813Y2298361D01*
X348690D01*
X341190Y2296486D01*
X337441Y2292736D01*
X335566Y2288987D01*
Y2281488D01*
X337441Y2277738D01*
X341190Y2273989D01*
X348690Y2272114D01*
X361813D01*
X369312Y2273989D01*
X373061Y2277738D01*
X374936Y2281488D01*
Y2315234D02*
X343065D01*
X339316Y2317108D01*
X337441Y2318983D01*
X335566Y2322733D01*
Y2330232D01*
X337441Y2333981D01*
X339316Y2335856D01*
X343065Y2337731D01*
X374936D01*
Y2350854D02*
Y2373351D01*
X335566Y2362103D02*
X374936D01*
X4763461Y878409D02*
Y917779D01*
X4748463D01*
X4744714Y915904D01*
X4742839Y914029D01*
X4740964Y910280D01*
Y904655D01*
X4742839Y900906D01*
X4744714Y899031D01*
X4748463Y897156D01*
X4763461D01*
X4724091Y878409D02*
Y917779D01*
X4682846Y882158D02*
X4684721Y880283D01*
X4690345Y878409D01*
X4694095D01*
X4699719Y880283D01*
X4703469Y884033D01*
X4705344Y887783D01*
X4707218Y895282D01*
Y900906D01*
X4705344Y908405D01*
X4703469Y912155D01*
X4699719Y915904D01*
X4694095Y917779D01*
X4690345D01*
X4684721Y915904D01*
X4682846Y914029D01*
X4665973Y878409D02*
Y917779D01*
X4643476Y878409D02*
X4660349Y900906D01*
X4643476Y917779D02*
X4665973Y895282D01*
X4626603Y878409D02*
Y917779D01*
X4613480D02*
X4590983D01*
X4602231Y878409D02*
Y917779D01*
X4421785Y3924340D02*
Y3898094D01*
X4438658Y3924340D02*
Y3903718D01*
X4436783Y3899969D01*
X4433034Y3898094D01*
X4427409D01*
X4423660Y3899969D01*
X4421785Y3901843D01*
X4404912Y3899969D02*
X4399288Y3898094D01*
X4389914D01*
X4386165Y3899969D01*
X4384290Y3901843D01*
X4382415Y3905593D01*
Y3909342D01*
X4384290Y3913092D01*
X4386165Y3914967D01*
X4389914Y3916841D01*
X4397413Y3918716D01*
X4401163Y3920591D01*
X4403038Y3922466D01*
X4404912Y3926215D01*
Y3929965D01*
X4403038Y3933714D01*
X4401163Y3935589D01*
X4397413Y3937464D01*
X4388039D01*
X4382415Y3935589D01*
X4365542Y3898094D02*
Y3937464D01*
X4356168D01*
X4350544Y3935589D01*
X4346795Y3931840D01*
X4344920Y3928090D01*
X4343045Y3920591D01*
Y3914967D01*
X4344920Y3907468D01*
X4346795Y3903718D01*
X4350544Y3899969D01*
X4356168Y3898094D01*
X4365542D01*
X4273679Y3901843D02*
X4275553Y3899969D01*
X4281178Y3898094D01*
X4284927D01*
X4290552Y3899969D01*
X4294301Y3903718D01*
X4296176Y3907468D01*
X4298051Y3914967D01*
Y3920591D01*
X4296176Y3928090D01*
X4294301Y3931840D01*
X4290552Y3935589D01*
X4284927Y3937464D01*
X4281178D01*
X4275553Y3935589D01*
X4273679Y3933714D01*
X4258681Y3909342D02*
X4239933D01*
X4262430Y3898094D02*
X4249307Y3937464D01*
X4236183Y3898094D01*
X4200563D02*
X4213686Y3916841D01*
X4223060Y3898094D02*
Y3937464D01*
X4208062D01*
X4204312Y3935589D01*
X4202438Y3933714D01*
X4200563Y3929965D01*
Y3924340D01*
X4202438Y3920591D01*
X4204312Y3918716D01*
X4208062Y3916841D01*
X4223060D01*
X4183690Y3898094D02*
Y3937464D01*
X4174316D01*
X4168692Y3935589D01*
X4164942Y3931840D01*
X4163068Y3928090D01*
X4161193Y3920591D01*
Y3914967D01*
X4163068Y3907468D01*
X4164942Y3903718D01*
X4168692Y3899969D01*
X4174316Y3898094D01*
X4183690D01*
X3818579D02*
Y3937464D01*
X3805456Y3909342D01*
X3792333Y3937464D01*
Y3898094D01*
X3773585D02*
Y3937464D01*
X3754837Y3898094D02*
Y3937464D01*
X3739839D01*
X3736090Y3935589D01*
X3734215Y3933714D01*
X3732340Y3929965D01*
Y3924340D01*
X3734215Y3920591D01*
X3736090Y3918716D01*
X3739839Y3916841D01*
X3754837D01*
X3715467Y3898094D02*
Y3937464D01*
X3666723Y3918716D02*
X3653600D01*
X3647976Y3898094D02*
X3666723D01*
Y3937464D01*
X3647976D01*
X3634852D02*
X3608606Y3898094D01*
Y3937464D02*
X3634852Y3898094D01*
X3593607D02*
Y3937464D01*
X3578609D01*
X3574860Y3935589D01*
X3572985Y3933714D01*
X3571110Y3929965D01*
Y3924340D01*
X3572985Y3920591D01*
X3574860Y3918716D01*
X3578609Y3916841D01*
X3593607D01*
X3556112Y3909342D02*
X3537365D01*
X3559862Y3898094D02*
X3546738Y3937464D01*
X3533615Y3898094D01*
X3520492D02*
Y3937464D01*
X3497994Y3898094D01*
Y3937464D01*
X3479247Y3898094D02*
Y3937464D01*
X3469873D01*
X3464249Y3935589D01*
X3460499Y3931840D01*
X3458624Y3928090D01*
X3456750Y3920591D01*
Y3914967D01*
X3458624Y3907468D01*
X3460499Y3903718D01*
X3464249Y3899969D01*
X3469873Y3898094D01*
X3479247D01*
X335566Y1418814D02*
X374936D01*
X346815Y1431938D01*
X374936Y1445061D01*
X335566D01*
Y1463809D02*
X374936D01*
X339316Y1505054D02*
X337441Y1503179D01*
X335566Y1497555D01*
Y1493805D01*
X337441Y1488181D01*
X341190Y1484431D01*
X344940Y1482556D01*
X352439Y1480682D01*
X358063D01*
X365562Y1482556D01*
X369312Y1484431D01*
X373061Y1488181D01*
X374936Y1493805D01*
Y1497555D01*
X373061Y1503179D01*
X371187Y1505054D01*
X622152Y937750D02*
Y952748D01*
X850499Y937750D02*
Y952748D01*
X843000Y945249D02*
X857998D01*
X2825856Y1210941D02*
X2814608D01*
X2820232Y1191256D02*
Y1210941D01*
X2808046Y1191256D02*
Y1210941D01*
X2800547D01*
X2798672Y1210003D01*
X2797735Y1209066D01*
X2796798Y1207191D01*
Y1204379D01*
X2797735Y1202504D01*
X2798672Y1201567D01*
X2800547Y1200629D01*
X2808046D01*
X2778987Y1210941D02*
X2788361D01*
X2789298Y1201567D01*
X2788361Y1202504D01*
X2786486Y1203442D01*
X2781799D01*
X2779925Y1202504D01*
X2778987Y1201567D01*
X2778050Y1199692D01*
Y1195005D01*
X2778987Y1193130D01*
X2779925Y1192193D01*
X2781799Y1191256D01*
X2786486D01*
X2788361Y1192193D01*
X2789298Y1193130D01*
X6286018Y1132200D02*
X6274769D01*
X6280393Y1112515D02*
Y1132200D01*
X6268207Y1112515D02*
Y1132200D01*
X6260708D01*
X6258833Y1131263D01*
X6257896Y1130326D01*
X6256959Y1128451D01*
Y1125639D01*
X6257896Y1123764D01*
X6258833Y1122827D01*
X6260708Y1121889D01*
X6268207D01*
X6249460Y1130326D02*
X6248522Y1131263D01*
X6246648Y1132200D01*
X6241961D01*
X6240086Y1131263D01*
X6239148Y1130326D01*
X6238211Y1128451D01*
Y1126576D01*
X6239148Y1123764D01*
X6250397Y1112515D01*
X6238211D01*
X6221338Y1132200D02*
X6225088D01*
X6226963Y1131263D01*
X6227900Y1130326D01*
X6229775Y1127513D01*
X6230712Y1123764D01*
Y1116265D01*
X6229775Y1114390D01*
X6228837Y1113453D01*
X6226963Y1112515D01*
X6223213D01*
X6221338Y1113453D01*
X6220401Y1114390D01*
X6219463Y1116265D01*
Y1120952D01*
X6220401Y1122827D01*
X6221338Y1123764D01*
X6223213Y1124701D01*
X6226963D01*
X6228837Y1123764D01*
X6229775Y1122827D01*
X6230712Y1120952D01*
X2642785Y1663696D02*
X2631537D01*
X2637161Y1644011D02*
Y1663696D01*
X2624975Y1644011D02*
Y1663696D01*
X2617476D01*
X2615601Y1662759D01*
X2614664Y1661822D01*
X2613727Y1659947D01*
Y1657135D01*
X2614664Y1655260D01*
X2615601Y1654323D01*
X2617476Y1653385D01*
X2624975D01*
X2594979Y1644011D02*
X2606228D01*
X2600603D02*
Y1663696D01*
X2602478Y1660884D01*
X2604353Y1659010D01*
X2606228Y1658072D01*
X934124Y1208972D02*
X922875D01*
X928500Y1189287D02*
Y1208972D01*
X916314Y1189287D02*
Y1208972D01*
X908815D01*
X906940Y1208035D01*
X906003Y1207097D01*
X905065Y1205223D01*
Y1202410D01*
X906003Y1200536D01*
X906940Y1199598D01*
X908815Y1198661D01*
X916314D01*
X895691Y1189287D02*
X891942D01*
X890067Y1190224D01*
X889130Y1191162D01*
X887255Y1193974D01*
X886318Y1197724D01*
Y1205223D01*
X887255Y1207097D01*
X888192Y1208035D01*
X890067Y1208972D01*
X893817D01*
X895691Y1208035D01*
X896629Y1207097D01*
X897566Y1205223D01*
Y1200536D01*
X896629Y1198661D01*
X895691Y1197724D01*
X893817Y1196786D01*
X890067D01*
X888192Y1197724D01*
X887255Y1198661D01*
X886318Y1200536D01*
X3723025Y1685350D02*
X3711777D01*
X3717401Y1665665D02*
Y1685350D01*
X3705215Y1665665D02*
Y1685350D01*
X3697716D01*
X3695841Y1684413D01*
X3694904Y1683475D01*
X3693967Y1681600D01*
Y1678788D01*
X3694904Y1676914D01*
X3695841Y1675976D01*
X3697716Y1675039D01*
X3705215D01*
X3687405Y1685350D02*
X3675219D01*
X3681781Y1677851D01*
X3678969D01*
X3677094Y1676914D01*
X3676156Y1675976D01*
X3675219Y1674101D01*
Y1669415D01*
X3676156Y1667540D01*
X3677094Y1666602D01*
X3678969Y1665665D01*
X3684593D01*
X3686468Y1666602D01*
X3687405Y1667540D01*
X3668657Y1685350D02*
X3656471D01*
X3663033Y1677851D01*
X3660221D01*
X3658346Y1676914D01*
X3657409Y1675976D01*
X3656471Y1674101D01*
Y1669415D01*
X3657409Y1667540D01*
X3658346Y1666602D01*
X3660221Y1665665D01*
X3665845D01*
X3667720Y1666602D01*
X3668657Y1667540D01*
X1518301Y1112515D02*
X1507052D01*
X1512677Y1092830D02*
Y1112515D01*
X1500491Y1092830D02*
Y1112515D01*
X1492992D01*
X1491117Y1111578D01*
X1490180Y1110641D01*
X1489242Y1108766D01*
Y1105954D01*
X1490180Y1104079D01*
X1491117Y1103142D01*
X1492992Y1102204D01*
X1500491D01*
X1470494Y1092830D02*
X1481743D01*
X1476119D02*
Y1112515D01*
X1477994Y1109703D01*
X1479868Y1107828D01*
X1481743Y1106891D01*
X1463933Y1112515D02*
X1450810D01*
X1459246Y1092830D01*
X5711567Y1496374D02*
X5700319D01*
X5705943Y1476689D02*
Y1496374D01*
X5693757Y1476689D02*
Y1496374D01*
X5686258D01*
X5684383Y1495436D01*
X5683446Y1494499D01*
X5682508Y1492624D01*
Y1489812D01*
X5683446Y1487937D01*
X5684383Y1487000D01*
X5686258Y1486062D01*
X5693757D01*
X5665635Y1489812D02*
Y1476689D01*
X5670322Y1497311D02*
X5675009Y1483250D01*
X5662823D01*
X5646888Y1489812D02*
Y1476689D01*
X5651575Y1497311D02*
X5656262Y1483250D01*
X5644076D01*
X4043892Y1592830D02*
X4032643D01*
X4038267Y1573145D02*
Y1592830D01*
X4026081Y1573145D02*
Y1592830D01*
X4018582D01*
X4016707Y1591893D01*
X4015770Y1590956D01*
X4014833Y1589081D01*
Y1586269D01*
X4015770Y1584394D01*
X4016707Y1583456D01*
X4018582Y1582519D01*
X4026081D01*
X4008271Y1592830D02*
X3996085D01*
X4002647Y1585331D01*
X3999835D01*
X3997960Y1584394D01*
X3997022Y1583456D01*
X3996085Y1581582D01*
Y1576895D01*
X3997022Y1575020D01*
X3997960Y1574083D01*
X3999835Y1573145D01*
X4005459D01*
X4007334Y1574083D01*
X4008271Y1575020D01*
X3988586Y1590956D02*
X3987649Y1591893D01*
X3985774Y1592830D01*
X3981087D01*
X3979212Y1591893D01*
X3978275Y1590956D01*
X3977337Y1589081D01*
Y1587206D01*
X3978275Y1584394D01*
X3989523Y1573145D01*
X3977337D01*
X1976962Y1854641D02*
X1965714D01*
X1971338Y1834956D02*
Y1854641D01*
X1959152Y1834956D02*
Y1854641D01*
X1951653D01*
X1949778Y1853704D01*
X1948841Y1852767D01*
X1947904Y1850892D01*
Y1848080D01*
X1948841Y1846205D01*
X1949778Y1845268D01*
X1951653Y1844330D01*
X1959152D01*
X1941342Y1854641D02*
X1929156D01*
X1935718Y1847142D01*
X1932906D01*
X1931031Y1846205D01*
X1930093Y1845268D01*
X1929156Y1843393D01*
Y1838706D01*
X1930093Y1836831D01*
X1931031Y1835894D01*
X1932906Y1834956D01*
X1938530D01*
X1940405Y1835894D01*
X1941342Y1836831D01*
X1922594Y1854641D02*
X1909471D01*
X1917907Y1834956D01*
X6410033Y1132200D02*
X6398785D01*
X6404409Y1112515D02*
Y1132200D01*
X6392223Y1112515D02*
Y1132200D01*
X6384724D01*
X6382849Y1131263D01*
X6381912Y1130326D01*
X6380975Y1128451D01*
Y1125639D01*
X6381912Y1123764D01*
X6382849Y1122827D01*
X6384724Y1121889D01*
X6392223D01*
X6373475Y1130326D02*
X6372538Y1131263D01*
X6370663Y1132200D01*
X6365976D01*
X6364102Y1131263D01*
X6363164Y1130326D01*
X6362227Y1128451D01*
Y1126576D01*
X6363164Y1123764D01*
X6374413Y1112515D01*
X6362227D01*
X6355665Y1132200D02*
X6342542D01*
X6350978Y1112515D01*
X2934124Y191256D02*
X2922875D01*
X2928500Y171570D02*
Y191256D01*
X2916314Y171570D02*
Y191256D01*
X2908815D01*
X2906940Y190318D01*
X2906003Y189381D01*
X2905065Y187506D01*
Y184694D01*
X2906003Y182819D01*
X2906940Y181882D01*
X2908815Y180944D01*
X2916314D01*
X2898504Y191256D02*
X2885380D01*
X2893817Y171570D01*
X943498Y1120389D02*
X932249D01*
X937874Y1100704D02*
Y1120389D01*
X925688Y1100704D02*
Y1120389D01*
X918189D01*
X916314Y1119452D01*
X915376Y1118515D01*
X914439Y1116640D01*
Y1113828D01*
X915376Y1111953D01*
X916314Y1111016D01*
X918189Y1110078D01*
X925688D01*
X895691Y1100704D02*
X906940D01*
X901316D02*
Y1120389D01*
X903190Y1117577D01*
X905065Y1115702D01*
X906940Y1114765D01*
X883505Y1120389D02*
X881631D01*
X879756Y1119452D01*
X878819Y1118515D01*
X877881Y1116640D01*
X876944Y1112890D01*
Y1108203D01*
X877881Y1104454D01*
X878819Y1102579D01*
X879756Y1101642D01*
X881631Y1100704D01*
X883505D01*
X885380Y1101642D01*
X886318Y1102579D01*
X887255Y1104454D01*
X888192Y1108203D01*
Y1112890D01*
X887255Y1116640D01*
X886318Y1118515D01*
X885380Y1119452D01*
X883505Y1120389D01*
X1888380Y303460D02*
X1877131D01*
X1882756Y283775D02*
Y303460D01*
X1870569Y283775D02*
Y303460D01*
X1863070D01*
X1861196Y302523D01*
X1860258Y301586D01*
X1859321Y299711D01*
Y296899D01*
X1860258Y295024D01*
X1861196Y294086D01*
X1863070Y293149D01*
X1870569D01*
X1840573Y283775D02*
X1851822D01*
X1846198D02*
Y303460D01*
X1848072Y300648D01*
X1849947Y298773D01*
X1851822Y297836D01*
X1822763Y303460D02*
X1832137D01*
X1833074Y294086D01*
X1832137Y295024D01*
X1830262Y295961D01*
X1825575D01*
X1823700Y295024D01*
X1822763Y294086D01*
X1821826Y292212D01*
Y287525D01*
X1822763Y285650D01*
X1823700Y284713D01*
X1825575Y283775D01*
X1830262D01*
X1832137Y284713D01*
X1833074Y285650D01*
X1412002Y626295D02*
X1400753D01*
X1406378Y606610D02*
Y626295D01*
X1394192Y606610D02*
Y626295D01*
X1386693D01*
X1384818Y625357D01*
X1383880Y624420D01*
X1382943Y622545D01*
Y619733D01*
X1383880Y617858D01*
X1384818Y616921D01*
X1386693Y615984D01*
X1394192D01*
X1364195Y606610D02*
X1375444D01*
X1369820D02*
Y626295D01*
X1371694Y623483D01*
X1373569Y621608D01*
X1375444Y620671D01*
X1352947Y617858D02*
X1354821Y618796D01*
X1355759Y619733D01*
X1356696Y621608D01*
Y622545D01*
X1355759Y624420D01*
X1354821Y625357D01*
X1352947Y626295D01*
X1349197D01*
X1347322Y625357D01*
X1346385Y624420D01*
X1345448Y622545D01*
Y621608D01*
X1346385Y619733D01*
X1347322Y618796D01*
X1349197Y617858D01*
X1352947D01*
X1354821Y616921D01*
X1355759Y615984D01*
X1356696Y614109D01*
Y610359D01*
X1355759Y608485D01*
X1354821Y607547D01*
X1352947Y606610D01*
X1349197D01*
X1347322Y607547D01*
X1346385Y608485D01*
X1345448Y610359D01*
Y614109D01*
X1346385Y615984D01*
X1347322Y616921D01*
X1349197Y617858D01*
X5660033Y1301492D02*
X5648785D01*
X5654409Y1281807D02*
Y1301492D01*
X5642223Y1281807D02*
Y1301492D01*
X5634724D01*
X5632849Y1300554D01*
X5631912Y1299617D01*
X5630975Y1297742D01*
Y1294930D01*
X5631912Y1293055D01*
X5632849Y1292118D01*
X5634724Y1291181D01*
X5642223D01*
X5614102Y1294930D02*
Y1281807D01*
X5618788Y1302429D02*
X5623475Y1288368D01*
X5611289D01*
X5604728Y1299617D02*
X5603790Y1300554D01*
X5601916Y1301492D01*
X5597229D01*
X5595354Y1300554D01*
X5594417Y1299617D01*
X5593479Y1297742D01*
Y1295868D01*
X5594417Y1293055D01*
X5605665Y1281807D01*
X5593479D01*
X5553734Y1303460D02*
X5542486D01*
X5548110Y1283775D02*
Y1303460D01*
X5535924Y1283775D02*
Y1303460D01*
X5528425D01*
X5526550Y1302523D01*
X5525613Y1301586D01*
X5524675Y1299711D01*
Y1296899D01*
X5525613Y1295024D01*
X5526550Y1294086D01*
X5528425Y1293149D01*
X5535924D01*
X5507802Y1296899D02*
Y1283775D01*
X5512489Y1304398D02*
X5517176Y1290337D01*
X5504990D01*
X5487180Y1283775D02*
X5498429D01*
X5492804D02*
Y1303460D01*
X5494679Y1300648D01*
X5496554Y1298773D01*
X5498429Y1297836D01*
X3563577Y1687319D02*
X3552328D01*
X3557952Y1667633D02*
Y1687319D01*
X3545766Y1667633D02*
Y1687319D01*
X3538267D01*
X3536393Y1686381D01*
X3535455Y1685444D01*
X3534518Y1683569D01*
Y1680757D01*
X3535455Y1678882D01*
X3536393Y1677945D01*
X3538267Y1677007D01*
X3545766D01*
X3527956Y1687319D02*
X3515770D01*
X3522332Y1679819D01*
X3519520D01*
X3517645Y1678882D01*
X3516707Y1677945D01*
X3515770Y1676070D01*
Y1671383D01*
X3516707Y1669508D01*
X3517645Y1668571D01*
X3519520Y1667633D01*
X3525144D01*
X3527019Y1668571D01*
X3527956Y1669508D01*
X3498897Y1680757D02*
Y1667633D01*
X3503584Y1688256D02*
X3508271Y1674195D01*
X3496085D01*
X4122632Y1449130D02*
X4111383D01*
X4117007Y1429444D02*
Y1449130D01*
X4104821Y1429444D02*
Y1449130D01*
X4097322D01*
X4095448Y1448192D01*
X4094510Y1447255D01*
X4093573Y1445380D01*
Y1442568D01*
X4094510Y1440693D01*
X4095448Y1439756D01*
X4097322Y1438818D01*
X4104821D01*
X4087011Y1449130D02*
X4074825D01*
X4081387Y1441631D01*
X4078575D01*
X4076700Y1440693D01*
X4075763Y1439756D01*
X4074825Y1437881D01*
Y1433194D01*
X4075763Y1431319D01*
X4076700Y1430382D01*
X4078575Y1429444D01*
X4084199D01*
X4086074Y1430382D01*
X4087011Y1431319D01*
X4056078Y1429444D02*
X4067326D01*
X4061702D02*
Y1449130D01*
X4063577Y1446317D01*
X4065451Y1444443D01*
X4067326Y1443505D01*
X5437592Y2047555D02*
X5426344D01*
X5431968Y2027870D02*
Y2047555D01*
X5419782Y2027870D02*
Y2047555D01*
X5412283D01*
X5410408Y2046617D01*
X5409471Y2045680D01*
X5408534Y2043805D01*
Y2040993D01*
X5409471Y2039118D01*
X5410408Y2038181D01*
X5412283Y2037244D01*
X5419782D01*
X5401034Y2045680D02*
X5400097Y2046617D01*
X5398222Y2047555D01*
X5393535D01*
X5391661Y2046617D01*
X5390723Y2045680D01*
X5389786Y2043805D01*
Y2041931D01*
X5390723Y2039118D01*
X5401972Y2027870D01*
X5389786D01*
X5371976Y2047555D02*
X5381349D01*
X5382287Y2038181D01*
X5381349Y2039118D01*
X5379475Y2040056D01*
X5374788D01*
X5372913Y2039118D01*
X5371976Y2038181D01*
X5371038Y2036306D01*
Y2031619D01*
X5371976Y2029744D01*
X5372913Y2028807D01*
X5374788Y2027870D01*
X5379475D01*
X5381349Y2028807D01*
X5382287Y2029744D01*
X2934124Y764090D02*
X2922875D01*
X2928500Y744405D02*
Y764090D01*
X2916314Y744405D02*
Y764090D01*
X2908815D01*
X2906940Y763153D01*
X2906003Y762215D01*
X2905065Y760341D01*
Y757529D01*
X2906003Y755654D01*
X2906940Y754716D01*
X2908815Y753779D01*
X2916314D01*
X2888192Y764090D02*
X2891942D01*
X2893817Y763153D01*
X2894754Y762215D01*
X2896629Y759403D01*
X2897566Y755654D01*
Y748155D01*
X2896629Y746280D01*
X2895691Y745343D01*
X2893817Y744405D01*
X2890067D01*
X2888192Y745343D01*
X2887255Y746280D01*
X2886318Y748155D01*
Y752842D01*
X2887255Y754716D01*
X2888192Y755654D01*
X2890067Y756591D01*
X2893817D01*
X2895691Y755654D01*
X2896629Y754716D01*
X2897566Y752842D01*
X5370663Y1264090D02*
X5359415D01*
X5365039Y1244405D02*
Y1264090D01*
X5352853Y1244405D02*
Y1264090D01*
X5345354D01*
X5343479Y1263153D01*
X5342542Y1262215D01*
X5341604Y1260341D01*
Y1257529D01*
X5342542Y1255654D01*
X5343479Y1254716D01*
X5345354Y1253779D01*
X5352853D01*
X5322857Y1244405D02*
X5334105D01*
X5328481D02*
Y1264090D01*
X5330356Y1261278D01*
X5332231Y1259403D01*
X5334105Y1258466D01*
X5313483Y1244405D02*
X5309733D01*
X5307859Y1245343D01*
X5306921Y1246280D01*
X5305046Y1249092D01*
X5304109Y1252842D01*
Y1260341D01*
X5305046Y1262215D01*
X5305984Y1263153D01*
X5307859Y1264090D01*
X5311608D01*
X5313483Y1263153D01*
X5314420Y1262215D01*
X5315358Y1260341D01*
Y1255654D01*
X5314420Y1253779D01*
X5313483Y1252842D01*
X5311608Y1251904D01*
X5307859D01*
X5305984Y1252842D01*
X5305046Y1253779D01*
X5304109Y1255654D01*
X1707277Y460941D02*
X1696029D01*
X1701653Y441256D02*
Y460941D01*
X1689467Y441256D02*
Y460941D01*
X1681968D01*
X1680093Y460003D01*
X1679156Y459066D01*
X1678219Y457191D01*
Y454379D01*
X1679156Y452504D01*
X1680093Y451567D01*
X1681968Y450629D01*
X1689467D01*
X1659471Y441256D02*
X1670719D01*
X1665095D02*
Y460941D01*
X1666970Y458128D01*
X1668845Y456254D01*
X1670719Y455316D01*
X1642598Y460941D02*
X1646348D01*
X1648222Y460003D01*
X1649160Y459066D01*
X1651034Y456254D01*
X1651972Y452504D01*
Y445005D01*
X1651034Y443130D01*
X1650097Y442193D01*
X1648222Y441256D01*
X1644473D01*
X1642598Y442193D01*
X1641661Y443130D01*
X1640723Y445005D01*
Y449692D01*
X1641661Y451567D01*
X1642598Y452504D01*
X1644473Y453442D01*
X1648222D01*
X1650097Y452504D01*
X1651034Y451567D01*
X1651972Y449692D01*
X6341136Y1407791D02*
X6329887D01*
X6335511Y1388106D02*
Y1407791D01*
X6323325Y1388106D02*
Y1407791D01*
X6315826D01*
X6313952Y1406854D01*
X6313014Y1405916D01*
X6312077Y1404041D01*
Y1401229D01*
X6313014Y1399355D01*
X6313952Y1398417D01*
X6315826Y1397480D01*
X6323325D01*
X6304578Y1405916D02*
X6303640Y1406854D01*
X6301766Y1407791D01*
X6297079D01*
X6295204Y1406854D01*
X6294267Y1405916D01*
X6293329Y1404041D01*
Y1402167D01*
X6294267Y1399355D01*
X6305515Y1388106D01*
X6293329D01*
X6281143Y1407791D02*
X6279269D01*
X6277394Y1406854D01*
X6276456Y1405916D01*
X6275519Y1404041D01*
X6274581Y1400292D01*
Y1395605D01*
X6275519Y1391856D01*
X6276456Y1389981D01*
X6277394Y1389043D01*
X6279269Y1388106D01*
X6281143D01*
X6283018Y1389043D01*
X6283955Y1389981D01*
X6284893Y1391856D01*
X6285830Y1395605D01*
Y1400292D01*
X6284893Y1404041D01*
X6283955Y1405916D01*
X6283018Y1406854D01*
X6281143Y1407791D01*
X2635666Y634169D02*
X2624417D01*
X2630042Y614484D02*
Y634169D01*
X2617856Y614484D02*
Y634169D01*
X2610356D01*
X2608482Y633231D01*
X2607544Y632294D01*
X2606607Y630419D01*
Y627607D01*
X2607544Y625732D01*
X2608482Y624795D01*
X2610356Y623858D01*
X2617856D01*
X2587859Y614484D02*
X2599108D01*
X2593484D02*
Y634169D01*
X2595358Y631357D01*
X2597233Y629482D01*
X2599108Y628545D01*
X2580360Y632294D02*
X2579423Y633231D01*
X2577548Y634169D01*
X2572861D01*
X2570986Y633231D01*
X2570049Y632294D01*
X2569112Y630419D01*
Y628545D01*
X2570049Y625732D01*
X2581298Y614484D01*
X2569112D01*
X2941998Y2352673D02*
X2930750D01*
X2936374Y2332988D02*
Y2352673D01*
X2924188Y2332988D02*
Y2352673D01*
X2916689D01*
X2914814Y2351735D01*
X2913877Y2350798D01*
X2912939Y2348923D01*
Y2346111D01*
X2913877Y2344236D01*
X2914814Y2343299D01*
X2916689Y2342362D01*
X2924188D01*
X2905440Y2350798D02*
X2904503Y2351735D01*
X2902628Y2352673D01*
X2897941D01*
X2896066Y2351735D01*
X2895129Y2350798D01*
X2894192Y2348923D01*
Y2347049D01*
X2895129Y2344236D01*
X2906378Y2332988D01*
X2894192D01*
X1860821Y1766059D02*
X1849572D01*
X1855196Y1746374D02*
Y1766059D01*
X1843010Y1746374D02*
Y1766059D01*
X1835511D01*
X1833637Y1765121D01*
X1832699Y1764184D01*
X1831762Y1762309D01*
Y1759497D01*
X1832699Y1757622D01*
X1833637Y1756685D01*
X1835511Y1755747D01*
X1843010D01*
X1814889Y1759497D02*
Y1746374D01*
X1819576Y1766996D02*
X1824263Y1752935D01*
X1812077D01*
X1800828Y1766059D02*
X1798954D01*
X1797079Y1765121D01*
X1796141Y1764184D01*
X1795204Y1762309D01*
X1794267Y1758560D01*
Y1753873D01*
X1795204Y1750123D01*
X1796141Y1748248D01*
X1797079Y1747311D01*
X1798954Y1746374D01*
X1800828D01*
X1802703Y1747311D01*
X1803640Y1748248D01*
X1804578Y1750123D01*
X1805515Y1753873D01*
Y1758560D01*
X1804578Y1762309D01*
X1803640Y1764184D01*
X1802703Y1765121D01*
X1800828Y1766059D01*
X1691998Y573145D02*
X1680750D01*
X1686374Y553460D02*
Y573145D01*
X1674188Y553460D02*
Y573145D01*
X1666689D01*
X1664814Y572208D01*
X1663877Y571271D01*
X1662939Y569396D01*
Y566584D01*
X1663877Y564709D01*
X1664814Y563771D01*
X1666689Y562834D01*
X1674188D01*
X1651691Y564709D02*
X1653565Y565646D01*
X1654503Y566584D01*
X1655440Y568458D01*
Y569396D01*
X1654503Y571271D01*
X1653565Y572208D01*
X1651691Y573145D01*
X1647941D01*
X1646066Y572208D01*
X1645129Y571271D01*
X1644192Y569396D01*
Y568458D01*
X1645129Y566584D01*
X1646066Y565646D01*
X1647941Y564709D01*
X1651691D01*
X1653565Y563771D01*
X1654503Y562834D01*
X1655440Y560959D01*
Y557210D01*
X1654503Y555335D01*
X1653565Y554398D01*
X1651691Y553460D01*
X1647941D01*
X1646066Y554398D01*
X1645129Y555335D01*
X1644192Y557210D01*
Y560959D01*
X1645129Y562834D01*
X1646066Y563771D01*
X1647941Y564709D01*
X3772238Y1768027D02*
X3760989D01*
X3766614Y1748342D02*
Y1768027D01*
X3754428Y1748342D02*
Y1768027D01*
X3746929D01*
X3745054Y1767090D01*
X3744117Y1766152D01*
X3743179Y1764278D01*
Y1761466D01*
X3744117Y1759591D01*
X3745054Y1758653D01*
X3746929Y1757716D01*
X3754428D01*
X3735680Y1766152D02*
X3734743Y1767090D01*
X3732868Y1768027D01*
X3728181D01*
X3726306Y1767090D01*
X3725369Y1766152D01*
X3724431Y1764278D01*
Y1762403D01*
X3725369Y1759591D01*
X3736618Y1748342D01*
X3724431D01*
X3713183Y1759591D02*
X3715058Y1760528D01*
X3715995Y1761466D01*
X3716932Y1763340D01*
Y1764278D01*
X3715995Y1766152D01*
X3715058Y1767090D01*
X3713183Y1768027D01*
X3709433D01*
X3707559Y1767090D01*
X3706621Y1766152D01*
X3705684Y1764278D01*
Y1763340D01*
X3706621Y1761466D01*
X3707559Y1760528D01*
X3709433Y1759591D01*
X3713183D01*
X3715058Y1758653D01*
X3715995Y1757716D01*
X3716932Y1755841D01*
Y1752092D01*
X3715995Y1750217D01*
X3715058Y1749280D01*
X3713183Y1748342D01*
X3709433D01*
X3707559Y1749280D01*
X3706621Y1750217D01*
X3705684Y1752092D01*
Y1755841D01*
X3706621Y1757716D01*
X3707559Y1758653D01*
X3709433Y1759591D01*
X6169876Y2775901D02*
X6158627D01*
X6164252Y2756216D02*
Y2775901D01*
X6152066Y2756216D02*
Y2775901D01*
X6144567D01*
X6142692Y2774964D01*
X6141754Y2774026D01*
X6140817Y2772152D01*
Y2769340D01*
X6141754Y2767465D01*
X6142692Y2766527D01*
X6144567Y2765590D01*
X6152066D01*
X6133318Y2774026D02*
X6132381Y2774964D01*
X6130506Y2775901D01*
X6125819D01*
X6123944Y2774964D01*
X6123007Y2774026D01*
X6122069Y2772152D01*
Y2770277D01*
X6123007Y2767465D01*
X6134255Y2756216D01*
X6122069D01*
X6114570Y2774026D02*
X6113633Y2774964D01*
X6111758Y2775901D01*
X6107071D01*
X6105196Y2774964D01*
X6104259Y2774026D01*
X6103322Y2772152D01*
Y2770277D01*
X6104259Y2767465D01*
X6115508Y2756216D01*
X6103322D01*
X4423813Y1588893D02*
X4412564D01*
X4418189Y1569208D02*
Y1588893D01*
X4406003Y1569208D02*
Y1588893D01*
X4398504D01*
X4396629Y1587956D01*
X4395691Y1587019D01*
X4394754Y1585144D01*
Y1582332D01*
X4395691Y1580457D01*
X4396629Y1579519D01*
X4398504Y1578582D01*
X4406003D01*
X4388192Y1588893D02*
X4376006D01*
X4382568Y1581394D01*
X4379756D01*
X4377881Y1580457D01*
X4376944Y1579519D01*
X4376006Y1577645D01*
Y1572958D01*
X4376944Y1571083D01*
X4377881Y1570146D01*
X4379756Y1569208D01*
X4385380D01*
X4387255Y1570146D01*
X4388192Y1571083D01*
X4359133Y1588893D02*
X4362883D01*
X4364758Y1587956D01*
X4365695Y1587019D01*
X4367570Y1584206D01*
X4368507Y1580457D01*
Y1572958D01*
X4367570Y1571083D01*
X4366632Y1570146D01*
X4364758Y1569208D01*
X4361008D01*
X4359133Y1570146D01*
X4358196Y1571083D01*
X4357259Y1572958D01*
Y1577645D01*
X4358196Y1579519D01*
X4359133Y1580457D01*
X4361008Y1581394D01*
X4364758D01*
X4366632Y1580457D01*
X4367570Y1579519D01*
X4368507Y1577645D01*
X5556905Y2033618D02*
X5545656D01*
X5551280Y2013933D02*
Y2033618D01*
X5539094Y2013933D02*
Y2033618D01*
X5531595D01*
X5529720Y2032680D01*
X5528783Y2031743D01*
X5527846Y2029868D01*
Y2027056D01*
X5528783Y2025181D01*
X5529720Y2024244D01*
X5531595Y2023307D01*
X5539094D01*
X5520347Y2031743D02*
X5519409Y2032680D01*
X5517535Y2033618D01*
X5512848D01*
X5510973Y2032680D01*
X5510035Y2031743D01*
X5509098Y2029868D01*
Y2027994D01*
X5510035Y2025181D01*
X5521284Y2013933D01*
X5509098D01*
X5490350D02*
X5501599D01*
X5495975D02*
Y2033618D01*
X5497850Y2030806D01*
X5499724Y2028931D01*
X5501599Y2027994D01*
X2698608Y120389D02*
X2687360D01*
X2692984Y100704D02*
Y120389D01*
X2680798Y100704D02*
Y120389D01*
X2673299D01*
X2671424Y119452D01*
X2670487Y118515D01*
X2669550Y116640D01*
Y113828D01*
X2670487Y111953D01*
X2671424Y111016D01*
X2673299Y110078D01*
X2680798D01*
X2650802Y100704D02*
X2662050D01*
X2656426D02*
Y120389D01*
X2658301Y117577D01*
X2660176Y115702D01*
X2662050Y114765D01*
X2632054Y100704D02*
X2643303D01*
X2637679D02*
Y120389D01*
X2639553Y117577D01*
X2641428Y115702D01*
X2643303Y114765D01*
X1148222Y701098D02*
X1136974D01*
X1142598Y681413D02*
Y701098D01*
X1130412Y681413D02*
Y701098D01*
X1122913D01*
X1121038Y700161D01*
X1120101Y699223D01*
X1119163Y697349D01*
Y694536D01*
X1120101Y692662D01*
X1121038Y691724D01*
X1122913Y690787D01*
X1130412D01*
X1100416Y681413D02*
X1111664D01*
X1106040D02*
Y701098D01*
X1107915Y698286D01*
X1109790Y696411D01*
X1111664Y695474D01*
X1083543Y694536D02*
Y681413D01*
X1088230Y702035D02*
X1092917Y687975D01*
X1080731D01*
X3305703Y1467830D02*
X3294454D01*
X3300078Y1448145D02*
Y1467830D01*
X3287892Y1448145D02*
Y1467830D01*
X3280393D01*
X3278519Y1466893D01*
X3277581Y1465956D01*
X3276644Y1464081D01*
Y1461269D01*
X3277581Y1459394D01*
X3278519Y1458456D01*
X3280393Y1457519D01*
X3287892D01*
X3269145Y1465956D02*
X3268207Y1466893D01*
X3266333Y1467830D01*
X3261646D01*
X3259771Y1466893D01*
X3258833Y1465956D01*
X3257896Y1464081D01*
Y1462206D01*
X3258833Y1459394D01*
X3270082Y1448145D01*
X3257896D01*
X3248522D02*
X3244773D01*
X3242898Y1449083D01*
X3241961Y1450020D01*
X3240086Y1452832D01*
X3239148Y1456582D01*
Y1464081D01*
X3240086Y1465956D01*
X3241023Y1466893D01*
X3242898Y1467830D01*
X3246648D01*
X3248522Y1466893D01*
X3249460Y1465956D01*
X3250397Y1464081D01*
Y1459394D01*
X3249460Y1457519D01*
X3248522Y1456582D01*
X3246648Y1455644D01*
X3242898D01*
X3241023Y1456582D01*
X3240086Y1457519D01*
X3239148Y1459394D01*
X3644285Y1687319D02*
X3633037D01*
X3638661Y1667633D02*
Y1687319D01*
X3626475Y1667633D02*
Y1687319D01*
X3618976D01*
X3617101Y1686381D01*
X3616164Y1685444D01*
X3615226Y1683569D01*
Y1680757D01*
X3616164Y1678882D01*
X3617101Y1677945D01*
X3618976Y1677007D01*
X3626475D01*
X3608665Y1687319D02*
X3596479D01*
X3603040Y1679819D01*
X3600228D01*
X3598354Y1678882D01*
X3597416Y1677945D01*
X3596479Y1676070D01*
Y1671383D01*
X3597416Y1669508D01*
X3598354Y1668571D01*
X3600228Y1667633D01*
X3605853D01*
X3607727Y1668571D01*
X3608665Y1669508D01*
X3578669Y1687319D02*
X3588042D01*
X3588980Y1677945D01*
X3588042Y1678882D01*
X3586168Y1679819D01*
X3581481D01*
X3579606Y1678882D01*
X3578669Y1677945D01*
X3577731Y1676070D01*
Y1671383D01*
X3578669Y1669508D01*
X3579606Y1668571D01*
X3581481Y1667633D01*
X3586168D01*
X3588042Y1668571D01*
X3588980Y1669508D01*
X1744164Y1760153D02*
X1732915D01*
X1738540Y1740468D02*
Y1760153D01*
X1726354Y1740468D02*
Y1760153D01*
X1718855D01*
X1716980Y1759216D01*
X1716042Y1758278D01*
X1715105Y1756404D01*
Y1753592D01*
X1716042Y1751717D01*
X1716980Y1750779D01*
X1718855Y1749842D01*
X1726354D01*
X1708543Y1760153D02*
X1696357D01*
X1702919Y1752654D01*
X1700107D01*
X1698232Y1751717D01*
X1697295Y1750779D01*
X1696357Y1748905D01*
Y1744218D01*
X1697295Y1742343D01*
X1698232Y1741406D01*
X1700107Y1740468D01*
X1705731D01*
X1707606Y1741406D01*
X1708543Y1742343D01*
X1686984Y1740468D02*
X1683234D01*
X1681359Y1741406D01*
X1680422Y1742343D01*
X1678547Y1745155D01*
X1677610Y1748905D01*
Y1756404D01*
X1678547Y1758278D01*
X1679485Y1759216D01*
X1681359Y1760153D01*
X1685109D01*
X1686984Y1759216D01*
X1687921Y1758278D01*
X1688858Y1756404D01*
Y1751717D01*
X1687921Y1749842D01*
X1686984Y1748905D01*
X1685109Y1747967D01*
X1681359D01*
X1679485Y1748905D01*
X1678547Y1749842D01*
X1677610Y1751717D01*
X5776175Y1403854D02*
X5764926D01*
X5770551Y1384169D02*
Y1403854D01*
X5758365Y1384169D02*
Y1403854D01*
X5750866D01*
X5748991Y1402917D01*
X5748054Y1401979D01*
X5747116Y1400104D01*
Y1397292D01*
X5748054Y1395418D01*
X5748991Y1394480D01*
X5750866Y1393543D01*
X5758365D01*
X5730243Y1397292D02*
Y1384169D01*
X5734930Y1404791D02*
X5739617Y1390731D01*
X5727431D01*
X5721807Y1403854D02*
X5709621D01*
X5716183Y1396355D01*
X5713370D01*
X5711496Y1395418D01*
X5710558Y1394480D01*
X5709621Y1392605D01*
Y1387919D01*
X5710558Y1386044D01*
X5711496Y1385106D01*
X5713370Y1384169D01*
X5718995D01*
X5720869Y1385106D01*
X5721807Y1386044D01*
X3441806Y1672982D02*
X3430558D01*
X3436182Y1653297D02*
Y1672982D01*
X3423996Y1653297D02*
Y1672982D01*
X3416497D01*
X3414622Y1672044D01*
X3413685Y1671107D01*
X3412747Y1669232D01*
Y1666420D01*
X3413685Y1664545D01*
X3414622Y1663608D01*
X3416497Y1662671D01*
X3423996D01*
X3406186Y1672982D02*
X3394000D01*
X3400561Y1665483D01*
X3397749D01*
X3395875Y1664545D01*
X3394937Y1663608D01*
X3394000Y1661733D01*
Y1657046D01*
X3394937Y1655172D01*
X3395875Y1654234D01*
X3397749Y1653297D01*
X3403374D01*
X3405248Y1654234D01*
X3406186Y1655172D01*
X3381814Y1672982D02*
X3379939D01*
X3378064Y1672044D01*
X3377127Y1671107D01*
X3376189Y1669232D01*
X3375252Y1665483D01*
Y1660796D01*
X3376189Y1657046D01*
X3377127Y1655172D01*
X3378064Y1654234D01*
X3379939Y1653297D01*
X3381814D01*
X3383689Y1654234D01*
X3384626Y1655172D01*
X3385563Y1657046D01*
X3386501Y1660796D01*
Y1665483D01*
X3385563Y1669232D01*
X3384626Y1671107D01*
X3383689Y1672044D01*
X3381814Y1672982D01*
X6764364Y1474720D02*
X6753115D01*
X6758740Y1455035D02*
Y1474720D01*
X6746554Y1455035D02*
Y1474720D01*
X6739055D01*
X6737180Y1473783D01*
X6736243Y1472845D01*
X6735305Y1470971D01*
Y1468158D01*
X6736243Y1466284D01*
X6737180Y1465346D01*
X6739055Y1464409D01*
X6746554D01*
X6727806Y1472845D02*
X6726869Y1473783D01*
X6724994Y1474720D01*
X6720307D01*
X6718432Y1473783D01*
X6717495Y1472845D01*
X6716557Y1470971D01*
Y1469096D01*
X6717495Y1466284D01*
X6728744Y1455035D01*
X6716557D01*
X6699685Y1468158D02*
Y1455035D01*
X6704372Y1475657D02*
X6709058Y1461597D01*
X6696873D01*
X2104915Y1809366D02*
X2093667D01*
X2099291Y1789681D02*
Y1809366D01*
X2087105Y1789681D02*
Y1809366D01*
X2079606D01*
X2077731Y1808428D01*
X2076794Y1807491D01*
X2075856Y1805616D01*
Y1802804D01*
X2076794Y1800929D01*
X2077731Y1799992D01*
X2079606Y1799055D01*
X2087105D01*
X2069295Y1809366D02*
X2057109D01*
X2063670Y1801867D01*
X2060858D01*
X2058983Y1800929D01*
X2058046Y1799992D01*
X2057109Y1798117D01*
Y1793430D01*
X2058046Y1791556D01*
X2058983Y1790618D01*
X2060858Y1789681D01*
X2066482D01*
X2068357Y1790618D01*
X2069295Y1791556D01*
X2045860Y1800929D02*
X2047735Y1801867D01*
X2048672Y1802804D01*
X2049610Y1804679D01*
Y1805616D01*
X2048672Y1807491D01*
X2047735Y1808428D01*
X2045860Y1809366D01*
X2042111D01*
X2040236Y1808428D01*
X2039298Y1807491D01*
X2038361Y1805616D01*
Y1804679D01*
X2039298Y1802804D01*
X2040236Y1801867D01*
X2042111Y1800929D01*
X2045860D01*
X2047735Y1799992D01*
X2048672Y1799055D01*
X2049610Y1797180D01*
Y1793430D01*
X2048672Y1791556D01*
X2047735Y1790618D01*
X2045860Y1789681D01*
X2042111D01*
X2040236Y1790618D01*
X2039298Y1791556D01*
X2038361Y1793430D01*
Y1797180D01*
X2039298Y1799055D01*
X2040236Y1799992D01*
X2042111Y1800929D01*
X6303734Y1232594D02*
X6292486D01*
X6298110Y1212909D02*
Y1232594D01*
X6285924Y1212909D02*
Y1232594D01*
X6278425D01*
X6276550Y1231657D01*
X6275613Y1230719D01*
X6274675Y1228845D01*
Y1226032D01*
X6275613Y1224158D01*
X6276550Y1223220D01*
X6278425Y1222283D01*
X6285924D01*
X6267176Y1230719D02*
X6266239Y1231657D01*
X6264364Y1232594D01*
X6259677D01*
X6257802Y1231657D01*
X6256865Y1230719D01*
X6255928Y1228845D01*
Y1226970D01*
X6256865Y1224158D01*
X6268114Y1212909D01*
X6255928D01*
X6249366Y1232594D02*
X6237180D01*
X6243742Y1225095D01*
X6240930D01*
X6239055Y1224158D01*
X6238117Y1223220D01*
X6237180Y1221346D01*
Y1216659D01*
X6238117Y1214784D01*
X6239055Y1213846D01*
X6240930Y1212909D01*
X6246554D01*
X6248429Y1213846D01*
X6249366Y1214784D01*
X2581762Y2242437D02*
X2570513D01*
X2576138Y2222752D02*
Y2242437D01*
X2563952Y2222752D02*
Y2242437D01*
X2556453D01*
X2554578Y2241499D01*
X2553640Y2240562D01*
X2552703Y2238687D01*
Y2235875D01*
X2553640Y2234000D01*
X2554578Y2233063D01*
X2556453Y2232125D01*
X2563952D01*
X2546141Y2242437D02*
X2533955D01*
X2540517Y2234938D01*
X2537705D01*
X2535830Y2234000D01*
X2534893Y2233063D01*
X2533955Y2231188D01*
Y2226501D01*
X2534893Y2224626D01*
X2535830Y2223689D01*
X2537705Y2222752D01*
X2543329D01*
X2545204Y2223689D01*
X2546141Y2224626D01*
X2539955Y1112515D02*
X2528706D01*
X2534330Y1092830D02*
Y1112515D01*
X2522144Y1092830D02*
Y1112515D01*
X2514645D01*
X2512770Y1111578D01*
X2511833Y1110641D01*
X2510896Y1108766D01*
Y1105954D01*
X2511833Y1104079D01*
X2512770Y1103142D01*
X2514645Y1102204D01*
X2522144D01*
X2492148Y1092830D02*
X2503397D01*
X2497772D02*
Y1112515D01*
X2499647Y1109703D01*
X2501522Y1107828D01*
X2503397Y1106891D01*
X2485586Y1112515D02*
X2473400D01*
X2479962Y1105016D01*
X2477150D01*
X2475275Y1104079D01*
X2474338Y1103142D01*
X2473400Y1101267D01*
Y1096580D01*
X2474338Y1094705D01*
X2475275Y1093768D01*
X2477150Y1092830D01*
X2482774D01*
X2484649Y1093768D01*
X2485586Y1094705D01*
X1949872Y2279838D02*
X1938624D01*
X1944248Y2260153D02*
Y2279838D01*
X1932062Y2260153D02*
Y2279838D01*
X1924563D01*
X1922688Y2278901D01*
X1921751Y2277963D01*
X1920813Y2276089D01*
Y2273277D01*
X1921751Y2271402D01*
X1922688Y2270464D01*
X1924563Y2269527D01*
X1932062D01*
X1903940Y2273277D02*
Y2260153D01*
X1908627Y2280776D02*
X1913314Y2266715D01*
X1901128D01*
X2821895Y1160787D02*
X2821403Y1156284D01*
X2819952Y1151992D01*
X2817609Y1148114D01*
X2814484Y1144833D01*
X2810726Y1142304D01*
X2806510Y1140644D01*
X2802036Y1139933D01*
X2797513Y1140204D01*
X2793156Y1141444D01*
X2789168Y1143595D01*
X2785739Y1146555D01*
X2783028Y1150186D01*
X2781165Y1154315D01*
X2780236Y1158750D01*
X2780137Y1160787D01*
X2780628Y1165291D01*
X2782080Y1169583D01*
X2784423Y1173461D01*
X2787547Y1176741D01*
X2791306Y1179271D01*
X2795521Y1180931D01*
X2799996Y1181642D01*
X2804518Y1181371D01*
X2808876Y1180131D01*
X2812863Y1177980D01*
X2816293Y1175019D01*
X2819003Y1171389D01*
X2820866Y1167259D01*
X2821795Y1162825D01*
X2821895Y1160787D01*
X6272682Y1085394D02*
X6272191Y1080890D01*
X6270739Y1076598D01*
X6268396Y1072721D01*
X6265272Y1069440D01*
X6261513Y1066910D01*
X6257298Y1065250D01*
X6252823Y1064539D01*
X6248301Y1064810D01*
X6243943Y1066050D01*
X6239956Y1068201D01*
X6236526Y1071162D01*
X6233816Y1074792D01*
X6231952Y1078922D01*
X6231024Y1083356D01*
X6230924Y1085394D01*
X6231416Y1089898D01*
X6232867Y1094189D01*
X6235210Y1098067D01*
X6238334Y1101348D01*
X6242093Y1103877D01*
X6246309Y1105537D01*
X6250783Y1106248D01*
X6255306Y1105977D01*
X6259663Y1104737D01*
X6263650Y1102586D01*
X6267080Y1099626D01*
X6269790Y1095995D01*
X6271654Y1091866D01*
X6272583Y1087431D01*
X6272682Y1085394D01*
X2638824Y1613543D02*
X2638332Y1609039D01*
X2636881Y1604748D01*
X2634538Y1600870D01*
X2631414Y1597589D01*
X2627655Y1595060D01*
X2623439Y1593400D01*
X2618965Y1592689D01*
X2614443Y1592960D01*
X2610085Y1594200D01*
X2606098Y1596351D01*
X2602668Y1599311D01*
X2599958Y1602942D01*
X2598094Y1607071D01*
X2597165Y1611506D01*
X2597066Y1613543D01*
X2597557Y1618047D01*
X2599009Y1622339D01*
X2601352Y1626216D01*
X2604476Y1629497D01*
X2608235Y1632027D01*
X2612450Y1633687D01*
X2616925Y1634398D01*
X2621447Y1634127D01*
X2625805Y1632887D01*
X2629792Y1630736D01*
X2633222Y1627775D01*
X2635932Y1624145D01*
X2637796Y1620015D01*
X2638724Y1615581D01*
X2638824Y1613543D01*
X930163Y1162756D02*
X929671Y1158252D01*
X928220Y1153960D01*
X925876Y1150083D01*
X922752Y1146802D01*
X918994Y1144272D01*
X914778Y1142613D01*
X910304Y1141902D01*
X905781Y1142173D01*
X901424Y1143413D01*
X897436Y1145563D01*
X894006Y1148524D01*
X891296Y1152154D01*
X889433Y1156284D01*
X888504Y1160718D01*
X888404Y1162756D01*
X888896Y1167260D01*
X890347Y1171551D01*
X892690Y1175429D01*
X895815Y1178710D01*
X899573Y1181240D01*
X903789Y1182899D01*
X908263Y1183610D01*
X912786Y1183339D01*
X917143Y1182099D01*
X921131Y1179948D01*
X924560Y1176988D01*
X927271Y1173358D01*
X929134Y1169228D01*
X930063Y1164794D01*
X930163Y1162756D01*
X3709690Y1635197D02*
X3709199Y1630693D01*
X3707747Y1626401D01*
X3705404Y1622524D01*
X3702280Y1619243D01*
X3698521Y1616713D01*
X3694306Y1615054D01*
X3689831Y1614343D01*
X3685309Y1614614D01*
X3680951Y1615854D01*
X3676964Y1618004D01*
X3673534Y1620965D01*
X3670824Y1624595D01*
X3668960Y1628725D01*
X3668032Y1633159D01*
X3667932Y1635197D01*
X3668423Y1639701D01*
X3669875Y1643992D01*
X3672218Y1647870D01*
X3675342Y1651151D01*
X3679101Y1653681D01*
X3683317Y1655340D01*
X3687791Y1656051D01*
X3692313Y1655780D01*
X3696671Y1654540D01*
X3700658Y1652389D01*
X3704088Y1649429D01*
X3706798Y1645799D01*
X3708662Y1641669D01*
X3709590Y1637235D01*
X3709690Y1635197D01*
X1504966Y1066299D02*
X1504474Y1061795D01*
X1503023Y1057504D01*
X1500680Y1053626D01*
X1497555Y1050345D01*
X1493797Y1047815D01*
X1489581Y1046156D01*
X1485107Y1045445D01*
X1480584Y1045716D01*
X1476227Y1046956D01*
X1472239Y1049107D01*
X1468810Y1052067D01*
X1466099Y1055698D01*
X1464236Y1059827D01*
X1463307Y1064261D01*
X1463207Y1066299D01*
X1463699Y1070803D01*
X1465150Y1075095D01*
X1467494Y1078972D01*
X1470618Y1082253D01*
X1474376Y1084783D01*
X1478592Y1086442D01*
X1483067Y1087153D01*
X1487589Y1086882D01*
X1491946Y1085642D01*
X1495934Y1083492D01*
X1499364Y1080531D01*
X1502074Y1076901D01*
X1503937Y1072771D01*
X1504866Y1068337D01*
X1504966Y1066299D01*
X5698232Y1452126D02*
X5697740Y1447622D01*
X5696289Y1443330D01*
X5693946Y1439453D01*
X5690821Y1436172D01*
X5687063Y1433642D01*
X5682847Y1431983D01*
X5678373Y1431272D01*
X5673850Y1431543D01*
X5669493Y1432783D01*
X5665505Y1434934D01*
X5662076Y1437894D01*
X5659365Y1441524D01*
X5657502Y1445654D01*
X5656573Y1450088D01*
X5656474Y1452126D01*
X5656965Y1456630D01*
X5658417Y1460922D01*
X5660760Y1464799D01*
X5663884Y1468080D01*
X5667642Y1470610D01*
X5671858Y1472269D01*
X5676333Y1472980D01*
X5680855Y1472709D01*
X5685213Y1471469D01*
X5689200Y1469318D01*
X5692630Y1466358D01*
X5695340Y1462728D01*
X5697203Y1458598D01*
X5698132Y1454164D01*
X5698232Y1452126D01*
X4030556Y1542677D02*
X4030065Y1538173D01*
X4028613Y1533882D01*
X4026270Y1530004D01*
X4023146Y1526723D01*
X4019387Y1524193D01*
X4015172Y1522534D01*
X4010697Y1521823D01*
X4006175Y1522094D01*
X4001817Y1523334D01*
X3997830Y1525485D01*
X3994400Y1528445D01*
X3991690Y1532075D01*
X3989826Y1536205D01*
X3988898Y1540639D01*
X3988798Y1542677D01*
X3989290Y1547181D01*
X3990741Y1551473D01*
X3993084Y1555350D01*
X3996208Y1558631D01*
X3999967Y1561161D01*
X4004183Y1562820D01*
X4008657Y1563531D01*
X4013180Y1563260D01*
X4017537Y1562020D01*
X4021525Y1559870D01*
X4024954Y1556909D01*
X4027664Y1553279D01*
X4029528Y1549149D01*
X4030457Y1544715D01*
X4030556Y1542677D01*
X2022682Y1843366D02*
X2022191Y1838862D01*
X2020739Y1834571D01*
X2018396Y1830693D01*
X2015272Y1827412D01*
X2011513Y1824882D01*
X2007298Y1823223D01*
X2002823Y1822512D01*
X1998301Y1822783D01*
X1993943Y1824023D01*
X1989956Y1826174D01*
X1986526Y1829134D01*
X1983816Y1832764D01*
X1981952Y1836894D01*
X1981024Y1841328D01*
X1980924Y1843366D01*
X1981416Y1847870D01*
X1982867Y1852162D01*
X1985210Y1856039D01*
X1988334Y1859320D01*
X1992093Y1861850D01*
X1996309Y1863509D01*
X2000783Y1864220D01*
X2005306Y1863949D01*
X2009663Y1862709D01*
X2013650Y1860559D01*
X2017080Y1857598D01*
X2019790Y1853968D01*
X2021654Y1849838D01*
X2022583Y1845404D01*
X2022682Y1843366D01*
X6396698Y1085984D02*
X6396206Y1081480D01*
X6394755Y1077189D01*
X6392412Y1073311D01*
X6389288Y1070030D01*
X6385529Y1067500D01*
X6381313Y1065841D01*
X6376839Y1065130D01*
X6372317Y1065401D01*
X6367959Y1066641D01*
X6363972Y1068792D01*
X6360542Y1071752D01*
X6357832Y1075383D01*
X6355968Y1079512D01*
X6355039Y1083946D01*
X6354940Y1085984D01*
X6355431Y1090488D01*
X6356883Y1094780D01*
X6359226Y1098657D01*
X6362350Y1101938D01*
X6366109Y1104468D01*
X6370324Y1106127D01*
X6374799Y1106838D01*
X6379321Y1106568D01*
X6383679Y1105327D01*
X6387666Y1103177D01*
X6391096Y1100216D01*
X6393806Y1096586D01*
X6395670Y1092456D01*
X6396598Y1088022D01*
X6396698Y1085984D01*
X2930163Y145039D02*
X2929671Y140536D01*
X2928220Y136244D01*
X2925876Y132366D01*
X2922752Y129085D01*
X2918994Y126556D01*
X2914778Y124896D01*
X2910304Y124185D01*
X2905781Y124456D01*
X2901424Y125696D01*
X2897436Y127847D01*
X2894006Y130807D01*
X2891296Y134438D01*
X2889433Y138567D01*
X2888504Y143002D01*
X2888404Y145039D01*
X2888896Y149543D01*
X2890347Y153835D01*
X2892690Y157713D01*
X2895815Y160993D01*
X2899573Y163523D01*
X2903789Y165183D01*
X2908263Y165894D01*
X2912786Y165623D01*
X2917143Y164383D01*
X2921131Y162232D01*
X2924560Y159271D01*
X2927271Y155641D01*
X2929134Y151511D01*
X2930063Y147077D01*
X2930163Y145039D01*
X930163Y1074173D02*
X929671Y1069669D01*
X928220Y1065378D01*
X925876Y1061500D01*
X922752Y1058219D01*
X918994Y1055689D01*
X914778Y1054030D01*
X910304Y1053319D01*
X905781Y1053590D01*
X901424Y1054830D01*
X897436Y1056981D01*
X894006Y1059941D01*
X891296Y1063572D01*
X889433Y1067701D01*
X888504Y1072135D01*
X888404Y1074173D01*
X888896Y1078677D01*
X890347Y1082969D01*
X892690Y1086846D01*
X895815Y1090127D01*
X899573Y1092657D01*
X903789Y1094316D01*
X908263Y1095027D01*
X912786Y1094756D01*
X917143Y1093516D01*
X921131Y1091366D01*
X924560Y1088405D01*
X927271Y1084775D01*
X929134Y1080645D01*
X930063Y1076211D01*
X930163Y1074173D01*
X1875044Y257244D02*
X1874553Y252740D01*
X1873101Y248449D01*
X1870758Y244571D01*
X1867634Y241290D01*
X1863876Y238760D01*
X1859660Y237101D01*
X1855185Y236390D01*
X1850663Y236661D01*
X1846306Y237901D01*
X1842318Y240052D01*
X1838888Y243012D01*
X1836178Y246642D01*
X1834315Y250772D01*
X1833386Y255206D01*
X1833286Y257244D01*
X1833778Y261748D01*
X1835229Y266040D01*
X1837572Y269917D01*
X1840697Y273198D01*
X1844455Y275728D01*
X1848671Y277387D01*
X1853145Y278098D01*
X1857668Y277827D01*
X1862025Y276587D01*
X1866013Y274437D01*
X1869442Y271476D01*
X1872153Y267846D01*
X1874016Y263716D01*
X1874945Y259282D01*
X1875044Y257244D01*
X1398667Y580079D02*
X1398175Y575575D01*
X1396724Y571283D01*
X1394380Y567406D01*
X1391256Y564125D01*
X1387498Y561595D01*
X1383282Y559936D01*
X1378807Y559225D01*
X1374285Y559495D01*
X1369928Y560736D01*
X1365940Y562886D01*
X1362510Y565847D01*
X1359800Y569477D01*
X1357937Y573607D01*
X1357008Y578041D01*
X1356908Y580079D01*
X1357400Y584583D01*
X1358851Y588874D01*
X1361194Y592752D01*
X1364319Y596033D01*
X1368077Y598563D01*
X1372293Y600222D01*
X1376767Y600933D01*
X1381290Y600662D01*
X1385647Y599422D01*
X1389635Y597271D01*
X1393064Y594311D01*
X1395775Y590680D01*
X1397638Y586551D01*
X1398567Y582117D01*
X1398667Y580079D01*
X5646698Y1257244D02*
X5646206Y1252740D01*
X5644755Y1248449D01*
X5642412Y1244571D01*
X5639288Y1241290D01*
X5635529Y1238760D01*
X5631313Y1237101D01*
X5626839Y1236390D01*
X5622317Y1236661D01*
X5617959Y1237901D01*
X5613972Y1240052D01*
X5610542Y1243012D01*
X5607832Y1246642D01*
X5605968Y1250772D01*
X5605039Y1255206D01*
X5604940Y1257244D01*
X5605431Y1261748D01*
X5606883Y1266040D01*
X5609226Y1269917D01*
X5612350Y1273198D01*
X5616109Y1275728D01*
X5620324Y1277387D01*
X5624799Y1278098D01*
X5629321Y1277827D01*
X5633679Y1276587D01*
X5637666Y1274437D01*
X5641096Y1271476D01*
X5643806Y1267846D01*
X5645670Y1263716D01*
X5646598Y1259282D01*
X5646698Y1257244D01*
X5540399Y1259213D02*
X5539907Y1254709D01*
X5538456Y1250417D01*
X5536113Y1246539D01*
X5532988Y1243259D01*
X5529230Y1240729D01*
X5525014Y1239069D01*
X5520540Y1238358D01*
X5516017Y1238629D01*
X5511660Y1239869D01*
X5507672Y1242020D01*
X5504243Y1244981D01*
X5501532Y1248611D01*
X5499669Y1252741D01*
X5498740Y1257175D01*
X5498641Y1259213D01*
X5499132Y1263716D01*
X5500584Y1268008D01*
X5502927Y1271886D01*
X5506051Y1275167D01*
X5509809Y1277696D01*
X5514025Y1279356D01*
X5518500Y1280067D01*
X5523022Y1279796D01*
X5527380Y1278556D01*
X5531367Y1276405D01*
X5534797Y1273445D01*
X5537507Y1269814D01*
X5539370Y1265685D01*
X5540299Y1261250D01*
X5540399Y1259213D01*
X3550241Y1637165D02*
X3549750Y1632662D01*
X3548298Y1628370D01*
X3545955Y1624492D01*
X3542831Y1621211D01*
X3539072Y1618682D01*
X3534857Y1617022D01*
X3530382Y1616311D01*
X3525860Y1616582D01*
X3521502Y1617822D01*
X3517515Y1619973D01*
X3514085Y1622933D01*
X3511375Y1626564D01*
X3509512Y1630693D01*
X3508583Y1635128D01*
X3508483Y1637165D01*
X3508975Y1641669D01*
X3510426Y1645961D01*
X3512769Y1649838D01*
X3515894Y1653119D01*
X3519652Y1655649D01*
X3523868Y1657309D01*
X3528342Y1658020D01*
X3532865Y1657749D01*
X3537222Y1656509D01*
X3541210Y1654358D01*
X3544639Y1651397D01*
X3547350Y1647767D01*
X3549213Y1643637D01*
X3550142Y1639203D01*
X3550241Y1637165D01*
X4109296Y1398976D02*
X4108805Y1394473D01*
X4107353Y1390181D01*
X4105010Y1386303D01*
X4101886Y1383022D01*
X4098128Y1380493D01*
X4093912Y1378833D01*
X4089437Y1378122D01*
X4084915Y1378393D01*
X4080557Y1379633D01*
X4076570Y1381784D01*
X4073140Y1384744D01*
X4070430Y1388375D01*
X4068567Y1392504D01*
X4067638Y1396939D01*
X4067538Y1398976D01*
X4068030Y1403480D01*
X4069481Y1407772D01*
X4071824Y1411650D01*
X4074949Y1414930D01*
X4078707Y1417460D01*
X4082923Y1419120D01*
X4087397Y1419831D01*
X4091920Y1419560D01*
X4096277Y1418320D01*
X4100265Y1416169D01*
X4103694Y1413208D01*
X4106405Y1409578D01*
X4108268Y1405448D01*
X4109197Y1401014D01*
X4109296Y1398976D01*
X5424257Y1997402D02*
X5423766Y1992898D01*
X5422314Y1988606D01*
X5419971Y1984728D01*
X5416847Y1981448D01*
X5413088Y1978918D01*
X5408872Y1977258D01*
X5404398Y1976547D01*
X5399876Y1976818D01*
X5395518Y1978058D01*
X5391531Y1980209D01*
X5388101Y1983169D01*
X5385391Y1986800D01*
X5383527Y1990930D01*
X5382599Y1995364D01*
X5382499Y1997402D01*
X5382990Y2001905D01*
X5384442Y2006197D01*
X5386785Y2010075D01*
X5389909Y2013356D01*
X5393668Y2015885D01*
X5397883Y2017545D01*
X5402358Y2018256D01*
X5406880Y2017985D01*
X5411238Y2016745D01*
X5415225Y2014594D01*
X5418655Y2011634D01*
X5421365Y2008003D01*
X5423229Y2003874D01*
X5424157Y1999439D01*
X5424257Y1997402D01*
X2930163Y713937D02*
X2929671Y709433D01*
X2928220Y705141D01*
X2925876Y701264D01*
X2922752Y697983D01*
X2918994Y695453D01*
X2914778Y693794D01*
X2910304Y693083D01*
X2905781Y693354D01*
X2901424Y694594D01*
X2897436Y696745D01*
X2894006Y699705D01*
X2891296Y703335D01*
X2889433Y707465D01*
X2888504Y711899D01*
X2888404Y713937D01*
X2888896Y718441D01*
X2890347Y722733D01*
X2892690Y726610D01*
X2895815Y729891D01*
X2899573Y732421D01*
X2903789Y734080D01*
X2908263Y734791D01*
X2912786Y734520D01*
X2917143Y733280D01*
X2921131Y731129D01*
X2924560Y728169D01*
X2927271Y724539D01*
X2929134Y720409D01*
X2930063Y715975D01*
X2930163Y713937D01*
X5357328Y1215906D02*
X5356836Y1211402D01*
X5355385Y1207110D01*
X5353042Y1203232D01*
X5349918Y1199951D01*
X5346159Y1197422D01*
X5341943Y1195762D01*
X5337469Y1195051D01*
X5332946Y1195322D01*
X5328589Y1196562D01*
X5324601Y1198713D01*
X5321172Y1201673D01*
X5318462Y1205304D01*
X5316598Y1209433D01*
X5315669Y1213868D01*
X5315570Y1215906D01*
X5316061Y1220409D01*
X5317513Y1224701D01*
X5319856Y1228579D01*
X5322980Y1231860D01*
X5326739Y1234389D01*
X5330954Y1236049D01*
X5335429Y1236760D01*
X5339951Y1236489D01*
X5344309Y1235249D01*
X5348296Y1233098D01*
X5351726Y1230138D01*
X5354436Y1226507D01*
X5356300Y1222378D01*
X5357228Y1217943D01*
X5357328Y1215906D01*
X1693942Y414724D02*
X1693451Y410221D01*
X1691999Y405929D01*
X1689656Y402051D01*
X1686532Y398770D01*
X1682773Y396241D01*
X1678557Y394581D01*
X1674083Y393870D01*
X1669561Y394141D01*
X1665203Y395381D01*
X1661216Y397532D01*
X1657786Y400492D01*
X1655076Y404123D01*
X1653212Y408252D01*
X1652284Y412687D01*
X1652184Y414724D01*
X1652675Y419228D01*
X1654127Y423520D01*
X1656470Y427398D01*
X1659594Y430678D01*
X1663353Y433208D01*
X1667569Y434868D01*
X1672043Y435579D01*
X1676565Y435308D01*
X1680923Y434068D01*
X1684910Y431917D01*
X1688340Y428956D01*
X1691050Y425326D01*
X1692914Y421196D01*
X1693842Y416762D01*
X1693942Y414724D01*
X6327800Y1361575D02*
X6327309Y1357071D01*
X6325857Y1352779D01*
X6323514Y1348902D01*
X6320390Y1345621D01*
X6316631Y1343091D01*
X6312416Y1341432D01*
X6307941Y1340721D01*
X6303419Y1340992D01*
X6299061Y1342232D01*
X6295074Y1344382D01*
X6291644Y1347343D01*
X6288934Y1350973D01*
X6287071Y1355103D01*
X6286142Y1359537D01*
X6286042Y1361575D01*
X6286534Y1366079D01*
X6287985Y1370370D01*
X6290328Y1374248D01*
X6293453Y1377529D01*
X6297211Y1380059D01*
X6301427Y1381718D01*
X6305901Y1382429D01*
X6310424Y1382158D01*
X6314781Y1380918D01*
X6318769Y1378767D01*
X6322198Y1375807D01*
X6324909Y1372176D01*
X6326772Y1368047D01*
X6327701Y1363613D01*
X6327800Y1361575D01*
X2622331Y587953D02*
X2621839Y583449D01*
X2620388Y579157D01*
X2618044Y575280D01*
X2614920Y571999D01*
X2611162Y569469D01*
X2606946Y567810D01*
X2602471Y567099D01*
X2597949Y567369D01*
X2593592Y568610D01*
X2589604Y570760D01*
X2586174Y573721D01*
X2583464Y577351D01*
X2581601Y581481D01*
X2580672Y585915D01*
X2580572Y587953D01*
X2581064Y592457D01*
X2582515Y596748D01*
X2584858Y600626D01*
X2587983Y603907D01*
X2591741Y606437D01*
X2595957Y608096D01*
X2600431Y608807D01*
X2604954Y608536D01*
X2609311Y607296D01*
X2613299Y605145D01*
X2616728Y602185D01*
X2619439Y598554D01*
X2621302Y594425D01*
X2622231Y589991D01*
X2622331Y587953D01*
X2938037Y2308425D02*
X2937545Y2303921D01*
X2936094Y2299630D01*
X2933750Y2295752D01*
X2930626Y2292471D01*
X2926868Y2289941D01*
X2922652Y2288282D01*
X2918178Y2287571D01*
X2913655Y2287842D01*
X2909298Y2289082D01*
X2905310Y2291233D01*
X2901881Y2294193D01*
X2899170Y2297824D01*
X2897307Y2301953D01*
X2896378Y2306387D01*
X2896278Y2308425D01*
X2896770Y2312929D01*
X2898221Y2317221D01*
X2900564Y2321098D01*
X2903689Y2324379D01*
X2907447Y2326909D01*
X2911663Y2328568D01*
X2916137Y2329279D01*
X2920660Y2329008D01*
X2925017Y2327768D01*
X2929005Y2325618D01*
X2932434Y2322657D01*
X2935145Y2319027D01*
X2937008Y2314897D01*
X2937937Y2310463D01*
X2938037Y2308425D01*
X1847485Y1721811D02*
X1846994Y1717307D01*
X1845542Y1713015D01*
X1843199Y1709138D01*
X1840075Y1705857D01*
X1836317Y1703327D01*
X1832101Y1701668D01*
X1827626Y1700957D01*
X1823104Y1701228D01*
X1818746Y1702468D01*
X1814759Y1704619D01*
X1811329Y1707579D01*
X1808619Y1711209D01*
X1806756Y1715339D01*
X1805827Y1719773D01*
X1805727Y1721811D01*
X1806219Y1726315D01*
X1807670Y1730607D01*
X1810013Y1734484D01*
X1813138Y1737765D01*
X1816896Y1740295D01*
X1821112Y1741954D01*
X1825586Y1742665D01*
X1830109Y1742394D01*
X1834466Y1741154D01*
X1838454Y1739003D01*
X1841883Y1736043D01*
X1844594Y1732413D01*
X1846457Y1728283D01*
X1847386Y1723849D01*
X1847485Y1721811D01*
X1688037Y526929D02*
X1687545Y522425D01*
X1686094Y518134D01*
X1683750Y514256D01*
X1680626Y510975D01*
X1676868Y508445D01*
X1672652Y506786D01*
X1668178Y506075D01*
X1663655Y506346D01*
X1659298Y507586D01*
X1655310Y509737D01*
X1651881Y512697D01*
X1649170Y516327D01*
X1647307Y520457D01*
X1646378Y524891D01*
X1646278Y526929D01*
X1646770Y531433D01*
X1648221Y535725D01*
X1650564Y539602D01*
X1653689Y542883D01*
X1657447Y545413D01*
X1661663Y547072D01*
X1666137Y547783D01*
X1670660Y547512D01*
X1675017Y546272D01*
X1679005Y544122D01*
X1682434Y541161D01*
X1685145Y537531D01*
X1687008Y533401D01*
X1687937Y528967D01*
X1688037Y526929D01*
X3758903Y1717874D02*
X3758411Y1713370D01*
X3756960Y1709078D01*
X3754617Y1705201D01*
X3751492Y1701920D01*
X3747734Y1699390D01*
X3743518Y1697731D01*
X3739044Y1697020D01*
X3734521Y1697291D01*
X3730164Y1698531D01*
X3726176Y1700682D01*
X3722747Y1703642D01*
X3720036Y1707272D01*
X3718173Y1711402D01*
X3717244Y1715836D01*
X3717144Y1717874D01*
X3717636Y1722378D01*
X3719088Y1726670D01*
X3721431Y1730547D01*
X3724555Y1733828D01*
X3728313Y1736358D01*
X3732529Y1738017D01*
X3737004Y1738728D01*
X3741526Y1738457D01*
X3745883Y1737217D01*
X3749871Y1735066D01*
X3753301Y1732106D01*
X3756011Y1728476D01*
X3757874Y1724346D01*
X3758803Y1719912D01*
X3758903Y1717874D01*
X6156541Y2727717D02*
X6156049Y2723213D01*
X6154598Y2718921D01*
X6152254Y2715043D01*
X6149130Y2711763D01*
X6145372Y2709233D01*
X6141156Y2707573D01*
X6136681Y2706862D01*
X6132159Y2707133D01*
X6127802Y2708373D01*
X6123814Y2710524D01*
X6120384Y2713484D01*
X6117674Y2717115D01*
X6115811Y2721244D01*
X6114882Y2725679D01*
X6114782Y2727717D01*
X6115274Y2732220D01*
X6116725Y2736512D01*
X6119068Y2740390D01*
X6122193Y2743671D01*
X6125951Y2746200D01*
X6130167Y2747860D01*
X6134641Y2748571D01*
X6139164Y2748300D01*
X6143521Y2747060D01*
X6147509Y2744909D01*
X6150938Y2741949D01*
X6153649Y2738318D01*
X6155512Y2734189D01*
X6156441Y2729754D01*
X6156541Y2727717D01*
X4410478Y1538740D02*
X4409986Y1534236D01*
X4408535Y1529945D01*
X4406191Y1526067D01*
X4403067Y1522786D01*
X4399309Y1520256D01*
X4395093Y1518597D01*
X4390619Y1517886D01*
X4386096Y1518157D01*
X4381739Y1519397D01*
X4377751Y1521548D01*
X4374321Y1524508D01*
X4371611Y1528138D01*
X4369748Y1532268D01*
X4368819Y1536702D01*
X4368719Y1538740D01*
X4369211Y1543244D01*
X4370662Y1547536D01*
X4373005Y1551413D01*
X4376130Y1554694D01*
X4379888Y1557224D01*
X4384104Y1558883D01*
X4388578Y1559594D01*
X4393101Y1559323D01*
X4397458Y1558083D01*
X4401446Y1555933D01*
X4404875Y1552972D01*
X4407586Y1549342D01*
X4409449Y1545212D01*
X4410378Y1540778D01*
X4410478Y1538740D01*
X5543569Y1983465D02*
X5543078Y1978961D01*
X5541626Y1974669D01*
X5539283Y1970791D01*
X5536159Y1967511D01*
X5532400Y1964981D01*
X5528185Y1963321D01*
X5523710Y1962610D01*
X5519188Y1962881D01*
X5514830Y1964121D01*
X5510843Y1966272D01*
X5507413Y1969232D01*
X5504703Y1972863D01*
X5502839Y1976993D01*
X5501911Y1981427D01*
X5501811Y1983465D01*
X5502303Y1987968D01*
X5503754Y1992260D01*
X5506097Y1996138D01*
X5509221Y1999419D01*
X5512980Y2001948D01*
X5517196Y2003608D01*
X5521670Y2004319D01*
X5526193Y2004048D01*
X5530550Y2002808D01*
X5534538Y2000657D01*
X5537967Y1997697D01*
X5540677Y1994066D01*
X5542541Y1989937D01*
X5543470Y1985502D01*
X5543569Y1983465D01*
X2685273Y74173D02*
X2684782Y69669D01*
X2683330Y65378D01*
X2680987Y61500D01*
X2677863Y58219D01*
X2674104Y55689D01*
X2669888Y54030D01*
X2665414Y53319D01*
X2660892Y53590D01*
X2656534Y54830D01*
X2652547Y56981D01*
X2649117Y59941D01*
X2646407Y63572D01*
X2644543Y67701D01*
X2643615Y72135D01*
X2643515Y74173D01*
X2644006Y78677D01*
X2645458Y82969D01*
X2647801Y86846D01*
X2650925Y90127D01*
X2654684Y92657D01*
X2658900Y94316D01*
X2663374Y95027D01*
X2667896Y94756D01*
X2672254Y93516D01*
X2676241Y91366D01*
X2679671Y88405D01*
X2682381Y84775D01*
X2684245Y80645D01*
X2685173Y76211D01*
X2685273Y74173D01*
X1134887Y654882D02*
X1134395Y650378D01*
X1132944Y646086D01*
X1130601Y642209D01*
X1127477Y638928D01*
X1123718Y636398D01*
X1119502Y634739D01*
X1115028Y634028D01*
X1110506Y634299D01*
X1106148Y635539D01*
X1102161Y637689D01*
X1098731Y640650D01*
X1096021Y644280D01*
X1094157Y648410D01*
X1093228Y652844D01*
X1093129Y654882D01*
X1093620Y659386D01*
X1095072Y663677D01*
X1097415Y667555D01*
X1100539Y670836D01*
X1104298Y673366D01*
X1108513Y675025D01*
X1112988Y675736D01*
X1117510Y675465D01*
X1121868Y674225D01*
X1125855Y672074D01*
X1129285Y669114D01*
X1131995Y665484D01*
X1133859Y661354D01*
X1134787Y656920D01*
X1134887Y654882D01*
X3292367Y1417677D02*
X3291876Y1413173D01*
X3290424Y1408882D01*
X3288081Y1405004D01*
X3284957Y1401723D01*
X3281198Y1399193D01*
X3276983Y1397534D01*
X3272508Y1396823D01*
X3267986Y1397094D01*
X3263628Y1398334D01*
X3259641Y1400485D01*
X3256211Y1403445D01*
X3253501Y1407075D01*
X3251638Y1411205D01*
X3250709Y1415639D01*
X3250609Y1417677D01*
X3251101Y1422181D01*
X3252552Y1426473D01*
X3254895Y1430350D01*
X3258019Y1433631D01*
X3261778Y1436161D01*
X3265994Y1437820D01*
X3270468Y1438531D01*
X3274991Y1438260D01*
X3279348Y1437020D01*
X3283336Y1434870D01*
X3286765Y1431909D01*
X3289475Y1428279D01*
X3291339Y1424149D01*
X3292268Y1419715D01*
X3292367Y1417677D01*
X3630950Y1637165D02*
X3630458Y1632662D01*
X3629007Y1628370D01*
X3626664Y1624492D01*
X3623540Y1621211D01*
X3619781Y1618682D01*
X3615565Y1617022D01*
X3611091Y1616311D01*
X3606569Y1616582D01*
X3602211Y1617822D01*
X3598224Y1619973D01*
X3594794Y1622933D01*
X3592084Y1626564D01*
X3590220Y1630693D01*
X3589291Y1635128D01*
X3589192Y1637165D01*
X3589683Y1641669D01*
X3591135Y1645961D01*
X3593478Y1649838D01*
X3596602Y1653119D01*
X3600361Y1655649D01*
X3604576Y1657309D01*
X3609051Y1658020D01*
X3613573Y1657749D01*
X3617931Y1656509D01*
X3621918Y1654358D01*
X3625348Y1651397D01*
X3628058Y1647767D01*
X3629922Y1643637D01*
X3630850Y1639203D01*
X3630950Y1637165D01*
X1730829Y1715906D02*
X1730337Y1711402D01*
X1728886Y1707110D01*
X1726543Y1703232D01*
X1723418Y1699951D01*
X1719660Y1697422D01*
X1715444Y1695762D01*
X1710970Y1695051D01*
X1706447Y1695322D01*
X1702090Y1696562D01*
X1698102Y1698713D01*
X1694673Y1701673D01*
X1691962Y1705304D01*
X1690099Y1709433D01*
X1689170Y1713868D01*
X1689070Y1715906D01*
X1689562Y1720409D01*
X1691013Y1724701D01*
X1693356Y1728579D01*
X1696481Y1731860D01*
X1700239Y1734389D01*
X1704455Y1736049D01*
X1708929Y1736760D01*
X1713452Y1736489D01*
X1717809Y1735249D01*
X1721797Y1733098D01*
X1725226Y1730138D01*
X1727937Y1726507D01*
X1729800Y1722378D01*
X1730729Y1717943D01*
X1730829Y1715906D01*
X5762840Y1359606D02*
X5762348Y1355102D01*
X5760897Y1350811D01*
X5758554Y1346933D01*
X5755429Y1343652D01*
X5751671Y1341123D01*
X5747455Y1339463D01*
X5742981Y1338752D01*
X5738458Y1339023D01*
X5734101Y1340263D01*
X5730113Y1342414D01*
X5726684Y1345374D01*
X5723973Y1349005D01*
X5722110Y1353134D01*
X5721181Y1357569D01*
X5721081Y1359606D01*
X5721573Y1364110D01*
X5723025Y1368402D01*
X5725368Y1372279D01*
X5728492Y1375560D01*
X5732250Y1378090D01*
X5736466Y1379750D01*
X5740941Y1380461D01*
X5745463Y1380190D01*
X5749820Y1378950D01*
X5753808Y1376799D01*
X5757238Y1373838D01*
X5759948Y1370208D01*
X5761811Y1366078D01*
X5762740Y1361644D01*
X5762840Y1359606D01*
X3428471Y1622829D02*
X3427979Y1618325D01*
X3426528Y1614033D01*
X3424185Y1610156D01*
X3421061Y1606875D01*
X3417302Y1604345D01*
X3413086Y1602685D01*
X3408612Y1601974D01*
X3404089Y1602245D01*
X3399732Y1603485D01*
X3395744Y1605636D01*
X3392315Y1608597D01*
X3389605Y1612227D01*
X3387741Y1616357D01*
X3386812Y1620791D01*
X3386713Y1622829D01*
X3387204Y1627332D01*
X3388656Y1631624D01*
X3390999Y1635502D01*
X3394123Y1638783D01*
X3397882Y1641312D01*
X3402097Y1642972D01*
X3406572Y1643683D01*
X3411094Y1643412D01*
X3415452Y1642172D01*
X3419439Y1640021D01*
X3422869Y1637061D01*
X3425579Y1633430D01*
X3427443Y1629301D01*
X3428371Y1624866D01*
X3428471Y1622829D01*
X6751029Y1428504D02*
X6750537Y1424000D01*
X6749086Y1419708D01*
X6746743Y1415831D01*
X6743618Y1412550D01*
X6739860Y1410020D01*
X6735644Y1408361D01*
X6731170Y1407650D01*
X6726647Y1407921D01*
X6722290Y1409161D01*
X6718302Y1411312D01*
X6714873Y1414272D01*
X6712162Y1417902D01*
X6710299Y1422032D01*
X6709370Y1426466D01*
X6709270Y1428504D01*
X6709762Y1433008D01*
X6711213Y1437300D01*
X6713557Y1441177D01*
X6716681Y1444458D01*
X6720439Y1446988D01*
X6724655Y1448647D01*
X6729130Y1449358D01*
X6733652Y1449087D01*
X6738009Y1447847D01*
X6741997Y1445696D01*
X6745427Y1442736D01*
X6748137Y1439106D01*
X6750000Y1434976D01*
X6750929Y1430542D01*
X6751029Y1428504D01*
X2091580Y1837953D02*
X2091088Y1833449D01*
X2089637Y1829157D01*
X2087294Y1825280D01*
X2084169Y1821999D01*
X2080411Y1819469D01*
X2076195Y1817810D01*
X2071721Y1817099D01*
X2067198Y1817369D01*
X2062841Y1818610D01*
X2058853Y1820760D01*
X2055424Y1823721D01*
X2052713Y1827351D01*
X2050850Y1831481D01*
X2049921Y1835915D01*
X2049822Y1837953D01*
X2050313Y1842457D01*
X2051765Y1846748D01*
X2054108Y1850626D01*
X2057232Y1853907D01*
X2060991Y1856437D01*
X2065206Y1858096D01*
X2069681Y1858807D01*
X2074203Y1858536D01*
X2078561Y1857296D01*
X2082548Y1855145D01*
X2085978Y1852185D01*
X2088688Y1848554D01*
X2090551Y1844425D01*
X2091480Y1839991D01*
X2091580Y1837953D01*
X6290399Y1186378D02*
X6289907Y1181874D01*
X6288456Y1177582D01*
X6286113Y1173705D01*
X6282988Y1170424D01*
X6279230Y1167894D01*
X6275014Y1166235D01*
X6270540Y1165524D01*
X6266017Y1165795D01*
X6261660Y1167035D01*
X6257672Y1169186D01*
X6254243Y1172146D01*
X6251532Y1175776D01*
X6249669Y1179906D01*
X6248740Y1184340D01*
X6248641Y1186378D01*
X6249132Y1190882D01*
X6250584Y1195174D01*
X6252927Y1199051D01*
X6256051Y1202332D01*
X6259809Y1204862D01*
X6264025Y1206521D01*
X6268500Y1207232D01*
X6273022Y1206961D01*
X6277380Y1205721D01*
X6281367Y1203570D01*
X6284797Y1200610D01*
X6287507Y1196980D01*
X6289370Y1192850D01*
X6290299Y1188416D01*
X6290399Y1186378D01*
X2577800Y2198189D02*
X2577309Y2193685D01*
X2575857Y2189393D01*
X2573514Y2185516D01*
X2570390Y2182235D01*
X2566631Y2179705D01*
X2562416Y2178046D01*
X2557941Y2177335D01*
X2553419Y2177606D01*
X2549061Y2178846D01*
X2545074Y2180997D01*
X2541644Y2183957D01*
X2538934Y2187587D01*
X2537071Y2191717D01*
X2536142Y2196151D01*
X2536042Y2198189D01*
X2536534Y2202693D01*
X2537985Y2206985D01*
X2540328Y2210862D01*
X2543453Y2214143D01*
X2547211Y2216673D01*
X2551427Y2218332D01*
X2555901Y2219043D01*
X2560424Y2218772D01*
X2564781Y2217532D01*
X2568769Y2215381D01*
X2572198Y2212421D01*
X2574909Y2208791D01*
X2576772Y2204661D01*
X2577701Y2200227D01*
X2577800Y2198189D01*
X2526619Y1060394D02*
X2526128Y1055890D01*
X2524676Y1051598D01*
X2522333Y1047721D01*
X2519209Y1044440D01*
X2515450Y1041910D01*
X2511235Y1040250D01*
X2506760Y1039539D01*
X2502238Y1039810D01*
X2497880Y1041050D01*
X2493893Y1043201D01*
X2490463Y1046162D01*
X2487753Y1049792D01*
X2485889Y1053922D01*
X2484961Y1058356D01*
X2484861Y1060394D01*
X2485353Y1064898D01*
X2486804Y1069189D01*
X2489147Y1073067D01*
X2492271Y1076348D01*
X2496030Y1078877D01*
X2500246Y1080537D01*
X2504720Y1081248D01*
X2509243Y1080977D01*
X2513600Y1079737D01*
X2517588Y1077586D01*
X2521017Y1074626D01*
X2523727Y1070995D01*
X2525591Y1066866D01*
X2526520Y1062431D01*
X2526619Y1060394D01*
X1945911Y2306457D02*
X1945419Y2301953D01*
X1943968Y2297661D01*
X1941625Y2293784D01*
X1938500Y2290503D01*
X1934742Y2287973D01*
X1930526Y2286313D01*
X1926052Y2285602D01*
X1921529Y2285873D01*
X1917172Y2287113D01*
X1913184Y2289264D01*
X1909755Y2292225D01*
X1907044Y2295855D01*
X1905181Y2299985D01*
X1904252Y2304419D01*
X1904152Y2306457D01*
X1904644Y2310961D01*
X1906095Y2315252D01*
X1908438Y2319130D01*
X1911563Y2322411D01*
X1915321Y2324940D01*
X1919537Y2326600D01*
X1924011Y2327311D01*
X1928534Y2327040D01*
X1932891Y2325800D01*
X1936879Y2323649D01*
X1940308Y2320689D01*
X1943019Y2317058D01*
X1944882Y2312929D01*
X1945811Y2308494D01*
X1945911Y2306457D01*
M02*
