*
%FSLAX26Y26*%
%MOIN*%
%ADD10C,0.004500*%
%ADD11C,0.011811*%
%ADD12C,0.006024*%
%ADD13C,0.233512*%
%ADD14R,0.079917X0.079917*%
%ADD15C,0.010634*%
%ADD16C,0.208074*%
%ADD17C,0.065874*%
%ADD18C,0.241074*%
%ADD19C,0.078150*%
%ADD20R,0.078740X0.078740*%
%ADD21C,0.003754*%
%ADD22C,0.082087*%
%ADD23C,0.082096*%
%ADD24C,0.070285*%
%ADD25C,0.070276*%
%ADD26C,0.219874*%
%ADD27C,0.003764*%
%ADD28C,0.039274*%
%ADD29C,0.056074*%
%ADD30C,0.055674*%
%ADD31C,0.071474*%
%ADD32C,0.092674*%
%ADD33C,0.118674*%
%ADD34C,0.049946*%
%ADD35C,0.049846*%
%ADD36C,0.041874*%
%ADD37C,0.059674*%
%ADD38C,0.079274*%
%ADD39C,0.083474*%
%ADD40C,0.146474*%
%ADD41C,0.093074*%
%ADD42C,0.015748*%
%ADD43C,0.043307*%
%ADD44C,0.061024*%
%ADD45C,0.080709*%
%ADD46C,0.084646*%
%ADD47C,0.147638*%
%ADD48C,0.047244*%
%ADD49C,0.057087*%
%ADD50C,0.062992*%
%ADD51C,0.110236*%
%ADD52C,0.137795*%
%ADD53C,0.169291*%
%ADD54C,0.094488*%
%ADD55C,0.039409*%
%ADD56C,0.047283*%
%ADD57C,0.055157*%
%ADD58C,0.043346*%
%IPPOS*%
%LN37666-3475236.gbo*%
%LPD*%
G75*
G54D10*
X1001803Y1786780D02*
X1474244D01*
Y1471820D01*
X1001803D01*
Y1786780D01*
X2972276Y450166D02*
X3503772D01*
Y347804D01*
X2972276D01*
Y450166D01*
X1021488Y1767095D02*
X1454559D01*
Y1491505D01*
X1021488D01*
Y1767095D01*
X2287083Y4253370D02*
X2273960D01*
X2268336Y4232748D02*
X2287083D01*
Y4272118D01*
X2268336D01*
X2257087D02*
X2234590D01*
X2245838Y4232748D02*
Y4272118D01*
X2221466Y4232748D02*
Y4272118D01*
Y4253370D02*
X2198969D01*
Y4232748D02*
Y4272118D01*
X2180222Y4253370D02*
X2167098D01*
X2161474Y4232748D02*
X2180222D01*
Y4272118D01*
X2161474D01*
X2122104Y4232748D02*
X2135227Y4251496D01*
X2144601Y4232748D02*
Y4272118D01*
X2129603D01*
X2125853Y4270243D01*
X2123979Y4268369D01*
X2122104Y4264619D01*
Y4258995D01*
X2123979Y4255245D01*
X2125853Y4253370D01*
X2129603Y4251496D01*
X2144601D01*
X2105231Y4232748D02*
Y4272118D01*
X2082734Y4232748D01*
Y4272118D01*
X2063986Y4253370D02*
X2050863D01*
X2045238Y4232748D02*
X2063986D01*
Y4272118D01*
X2045238D01*
X2033990D02*
X2011493D01*
X2022741Y4232748D02*
Y4272118D01*
X785115D02*
Y4240247D01*
X783240Y4236498D01*
X781365Y4234623D01*
X777616Y4232748D01*
X770117D01*
X766367Y4234623D01*
X764492Y4236498D01*
X762618Y4240247D01*
Y4272118D01*
X745745Y4234623D02*
X740120Y4232748D01*
X730747D01*
X726997Y4234623D01*
X725122Y4236498D01*
X723248Y4240247D01*
Y4243997D01*
X725122Y4247746D01*
X726997Y4249621D01*
X730747Y4251496D01*
X738246Y4253370D01*
X741995Y4255245D01*
X743870Y4257120D01*
X745745Y4260870D01*
Y4264619D01*
X743870Y4268369D01*
X741995Y4270243D01*
X738246Y4272118D01*
X728872D01*
X723248Y4270243D01*
X693251Y4253370D02*
X687627Y4251496D01*
X685752Y4249621D01*
X683877Y4245871D01*
Y4240247D01*
X685752Y4236498D01*
X687627Y4234623D01*
X691376Y4232748D01*
X706375D01*
Y4272118D01*
X693251D01*
X689502Y4270243D01*
X687627Y4268369D01*
X685752Y4264619D01*
Y4260870D01*
X687627Y4257120D01*
X689502Y4255245D01*
X693251Y4253370D01*
X706375D01*
X670754Y4272118D02*
X646382D01*
X659506Y4257120D01*
X653881D01*
X650132Y4255245D01*
X648257Y4253370D01*
X646382Y4249621D01*
Y4240247D01*
X648257Y4236498D01*
X650132Y4234623D01*
X653881Y4232748D01*
X665130D01*
X668879Y4234623D01*
X670754Y4236498D01*
X638883Y4228999D02*
X608887D01*
X578891Y4232748D02*
X601388D01*
X590139D02*
Y4272118D01*
X593889Y4266494D01*
X597638Y4262744D01*
X601388Y4260870D01*
X335566Y1043776D02*
Y1021279D01*
Y1032528D02*
X374936D01*
X369312Y1028778D01*
X365562Y1025029D01*
X363688Y1021279D01*
X371187Y1058774D02*
X373061Y1060649D01*
X374936Y1064399D01*
Y1073772D01*
X373061Y1077522D01*
X371187Y1079397D01*
X367437Y1081271D01*
X363688D01*
X358063Y1079397D01*
X335566Y1056900D01*
Y1081271D01*
X374936Y1092520D02*
X335566Y1105643D01*
X374936Y1118767D01*
X335566Y1161886D02*
X374936D01*
X335566Y1180634D02*
X374936D01*
X335566Y1203131D01*
X374936D01*
X335566Y1221879D02*
X374936D01*
Y1236877D01*
X373061Y1240627D01*
X371187Y1242501D01*
X367437Y1244376D01*
X361813D01*
X358063Y1242501D01*
X356189Y1240627D01*
X354314Y1236877D01*
Y1221879D01*
X374936Y1261249D02*
X343065D01*
X339316Y1263124D01*
X337441Y1264999D01*
X335566Y1268748D01*
Y1276247D01*
X337441Y1279997D01*
X339316Y1281871D01*
X343065Y1283746D01*
X374936D01*
Y1296869D02*
Y1319367D01*
X335566Y1308118D02*
X374936D01*
G54D11*
X3455788Y481630D02*
X3483909D01*
Y540685D01*
X3410793Y481630D02*
Y512563D01*
X3413605Y518188D01*
X3419230Y521000D01*
X3430478D01*
X3436102Y518188D01*
X3410793Y484442D02*
X3416417Y481630D01*
X3430478D01*
X3436102Y484442D01*
X3438915Y490066D01*
Y495690D01*
X3436102Y501315D01*
X3430478Y504127D01*
X3416417D01*
X3410793Y506939D01*
X3388296Y521000D02*
X3374235Y481630D01*
X3360174Y521000D02*
X3374235Y481630D01*
X3379859Y467569D01*
X3382672Y464757D01*
X3388296Y461945D01*
X3315180Y484442D02*
X3320804Y481630D01*
X3332053D01*
X3337677Y484442D01*
X3340489Y490066D01*
Y512563D01*
X3337677Y518188D01*
X3332053Y521000D01*
X3320804D01*
X3315180Y518188D01*
X3312368Y512563D01*
Y506939D01*
X3340489Y501315D01*
X3287059Y481630D02*
Y521000D01*
Y509751D02*
X3284246Y515375D01*
X3281434Y518188D01*
X3275810Y521000D01*
X3270186D01*
X3208319Y484442D02*
X3199882Y481630D01*
X3185821D01*
X3180197Y484442D01*
X3177385Y487254D01*
X3174573Y492878D01*
Y498502D01*
X3177385Y504127D01*
X3180197Y506939D01*
X3185821Y509751D01*
X3197070Y512563D01*
X3202694Y515375D01*
X3205506Y518188D01*
X3208319Y523812D01*
Y529436D01*
X3205506Y535060D01*
X3202694Y537873D01*
X3197070Y540685D01*
X3183009D01*
X3174573Y537873D01*
X3157700Y521000D02*
X3135203D01*
X3149263Y540685D02*
Y490066D01*
X3146451Y484442D01*
X3140827Y481630D01*
X3135203D01*
X3090208D02*
Y512563D01*
X3093020Y518188D01*
X3098645Y521000D01*
X3109893D01*
X3115518Y518188D01*
X3090208Y484442D02*
X3095833Y481630D01*
X3109893D01*
X3115518Y484442D01*
X3118330Y490066D01*
Y495690D01*
X3115518Y501315D01*
X3109893Y504127D01*
X3095833D01*
X3090208Y506939D01*
X3036777Y484442D02*
X3042402Y481630D01*
X3053650D01*
X3059275Y484442D01*
X3062087Y487254D01*
X3064899Y492878D01*
Y509751D01*
X3062087Y515375D01*
X3059275Y518188D01*
X3053650Y521000D01*
X3042402D01*
X3036777Y518188D01*
X3011468Y481630D02*
Y540685D01*
X3005844Y504127D02*
X2988971Y481630D01*
Y521000D02*
X3011468Y498502D01*
G54D10*
X2987871Y4232748D02*
Y4272118D01*
Y4253370D02*
X2965374D01*
Y4232748D02*
Y4272118D01*
X2946626Y4232748D02*
Y4272118D01*
X2937252D01*
X2931628Y4270243D01*
X2927878Y4266494D01*
X2926003Y4262744D01*
X2924129Y4255245D01*
Y4249621D01*
X2926003Y4242122D01*
X2927878Y4238372D01*
X2931628Y4234623D01*
X2937252Y4232748D01*
X2946626D01*
X2907256D02*
Y4272118D01*
X2894132Y4243997D01*
X2881009Y4272118D01*
Y4232748D01*
X2862261D02*
Y4272118D01*
X335566Y1996626D02*
Y1977878D01*
X374936D01*
X335566Y2009749D02*
X374936D01*
X335566Y2028497D02*
X374936D01*
X335566Y2050994D01*
X374936D01*
X356189Y2069742D02*
Y2082865D01*
X335566Y2088489D02*
Y2069742D01*
X374936D01*
Y2088489D01*
Y2142857D02*
Y2150357D01*
X373061Y2154106D01*
X369312Y2157856D01*
X361813Y2159730D01*
X348690D01*
X341190Y2157856D01*
X337441Y2154106D01*
X335566Y2150357D01*
Y2142857D01*
X337441Y2139108D01*
X341190Y2135358D01*
X348690Y2133484D01*
X361813D01*
X369312Y2135358D01*
X373061Y2139108D01*
X374936Y2142857D01*
Y2176603D02*
X343065D01*
X339316Y2178478D01*
X337441Y2180353D01*
X335566Y2184102D01*
Y2191601D01*
X337441Y2195351D01*
X339316Y2197226D01*
X343065Y2199100D01*
X374936D01*
Y2212224D02*
Y2234721D01*
X335566Y2223472D02*
X374936D01*
X1491808Y4272118D02*
Y4240247D01*
X1489933Y4236498D01*
X1488058Y4234623D01*
X1484309Y4232748D01*
X1476810D01*
X1473060Y4234623D01*
X1471185Y4236498D01*
X1469311Y4240247D01*
Y4272118D01*
X1452438Y4234623D02*
X1446813Y4232748D01*
X1437439D01*
X1433690Y4234623D01*
X1431815Y4236498D01*
X1429940Y4240247D01*
Y4243997D01*
X1431815Y4247746D01*
X1433690Y4249621D01*
X1437439Y4251496D01*
X1444939Y4253370D01*
X1448688Y4255245D01*
X1450563Y4257120D01*
X1452438Y4260870D01*
Y4264619D01*
X1450563Y4268369D01*
X1448688Y4270243D01*
X1444939Y4272118D01*
X1435565D01*
X1429940Y4270243D01*
X1399944Y4253370D02*
X1394320Y4251496D01*
X1392445Y4249621D01*
X1390570Y4245871D01*
Y4240247D01*
X1392445Y4236498D01*
X1394320Y4234623D01*
X1398069Y4232748D01*
X1413068D01*
Y4272118D01*
X1399944D01*
X1396195Y4270243D01*
X1394320Y4268369D01*
X1392445Y4264619D01*
Y4260870D01*
X1394320Y4257120D01*
X1396195Y4255245D01*
X1399944Y4253370D01*
X1413068D01*
X1377447Y4272118D02*
X1353075D01*
X1366198Y4257120D01*
X1360574D01*
X1356825Y4255245D01*
X1354950Y4253370D01*
X1353075Y4249621D01*
Y4240247D01*
X1354950Y4236498D01*
X1356825Y4234623D01*
X1360574Y4232748D01*
X1371823D01*
X1375572Y4234623D01*
X1377447Y4236498D01*
X1345576Y4228999D02*
X1315580D01*
X1298707Y4272118D02*
X1294957D01*
X1291208Y4270243D01*
X1289333Y4268369D01*
X1287458Y4264619D01*
X1285583Y4257120D01*
Y4247746D01*
X1287458Y4240247D01*
X1289333Y4236498D01*
X1291208Y4234623D01*
X1294957Y4232748D01*
X1298707D01*
X1302456Y4234623D01*
X1304331Y4236498D01*
X1306206Y4240247D01*
X1308081Y4247746D01*
Y4257120D01*
X1306206Y4264619D01*
X1304331Y4268369D01*
X1302456Y4270243D01*
X1298707Y4272118D01*
X6819031Y2300713D02*
X6787160D01*
X6783410Y2302588D01*
X6781535Y2304462D01*
X6779661Y2308212D01*
Y2315711D01*
X6781535Y2319460D01*
X6783410Y2321335D01*
X6787160Y2323210D01*
X6819031D01*
X6781535Y2340083D02*
X6779661Y2345707D01*
Y2355081D01*
X6781535Y2358831D01*
X6783410Y2360705D01*
X6787160Y2362580D01*
X6790909D01*
X6794659Y2360705D01*
X6796534Y2358831D01*
X6798408Y2355081D01*
X6800283Y2347582D01*
X6802158Y2343832D01*
X6804033Y2341958D01*
X6807782Y2340083D01*
X6811532D01*
X6815281Y2341958D01*
X6817156Y2343832D01*
X6819031Y2347582D01*
Y2356956D01*
X6817156Y2362580D01*
X6800283Y2392576D02*
X6798408Y2398201D01*
X6796534Y2400075D01*
X6792784Y2401950D01*
X6787160D01*
X6783410Y2400075D01*
X6781535Y2398201D01*
X6779661Y2394451D01*
Y2379453D01*
X6819031D01*
Y2392576D01*
X6817156Y2396326D01*
X6815281Y2398201D01*
X6811532Y2400075D01*
X6807782D01*
X6804033Y2398201D01*
X6802158Y2396326D01*
X6800283Y2392576D01*
Y2379453D01*
X6794659Y2418823D02*
Y2448819D01*
X6783410Y2490064D02*
X6781535Y2488189D01*
X6779661Y2482565D01*
Y2478816D01*
X6781535Y2473191D01*
X6785285Y2469442D01*
X6789034Y2467567D01*
X6796534Y2465692D01*
X6802158D01*
X6809657Y2467567D01*
X6813406Y2469442D01*
X6817156Y2473191D01*
X6819031Y2478816D01*
Y2482565D01*
X6817156Y2488189D01*
X6815281Y2490064D01*
X6819031Y2544432D02*
Y2551931D01*
X6817156Y2555681D01*
X6813406Y2559430D01*
X6805907Y2561305D01*
X6792784D01*
X6785285Y2559430D01*
X6781535Y2555681D01*
X6779661Y2551931D01*
Y2544432D01*
X6781535Y2540683D01*
X6785285Y2536933D01*
X6792784Y2535058D01*
X6805907D01*
X6813406Y2536933D01*
X6817156Y2540683D01*
X6819031Y2544432D01*
Y2572554D02*
Y2595051D01*
X6779661Y2583802D02*
X6819031D01*
X6817156Y2628797D02*
X6819031Y2625047D01*
Y2619423D01*
X6817156Y2613799D01*
X6813406Y2610049D01*
X6809657Y2608174D01*
X6802158Y2606300D01*
X6796534D01*
X6789034Y2608174D01*
X6785285Y2610049D01*
X6781535Y2613799D01*
X6779661Y2619423D01*
Y2623172D01*
X6781535Y2628797D01*
X6783410Y2630672D01*
X6796534D01*
Y2623172D01*
X6379165Y594303D02*
Y633673D01*
X6366042Y605552D01*
X6352918Y633673D01*
Y594303D01*
X6334170D02*
Y620550D01*
Y633673D02*
X6336045Y631798D01*
X6334170Y629924D01*
X6332296Y631798D01*
X6334170Y633673D01*
Y629924D01*
X6315423Y594303D02*
Y633673D01*
X6311673Y609301D02*
X6300425Y594303D01*
Y620550D02*
X6315423Y605552D01*
X6283552Y594303D02*
Y620550D01*
Y613051D02*
X6281677Y616800D01*
X6279802Y618675D01*
X6276053Y620550D01*
X6272303D01*
X6253556Y594303D02*
X6257305Y596178D01*
X6259180Y598053D01*
X6261055Y601802D01*
Y613051D01*
X6259180Y616800D01*
X6257305Y618675D01*
X6253556Y620550D01*
X6247931D01*
X6244182Y618675D01*
X6242307Y616800D01*
X6240432Y613051D01*
Y601802D01*
X6242307Y598053D01*
X6244182Y596178D01*
X6247931Y594303D01*
X6253556D01*
X6210436Y614925D02*
X6204812Y613051D01*
X6202937Y611176D01*
X6201062Y607426D01*
Y601802D01*
X6202937Y598053D01*
X6204812Y596178D01*
X6208561Y594303D01*
X6223559D01*
Y633673D01*
X6210436D01*
X6206686Y631798D01*
X6204812Y629924D01*
X6202937Y626174D01*
Y622425D01*
X6204812Y618675D01*
X6206686Y616800D01*
X6210436Y614925D01*
X6223559D01*
X6167316Y620550D02*
Y594303D01*
X6184189Y620550D02*
Y599927D01*
X6182314Y596178D01*
X6178565Y594303D01*
X6172941D01*
X6169191Y596178D01*
X6167316Y598053D01*
X6150444Y596178D02*
X6146694Y594303D01*
X6139195D01*
X6135445Y596178D01*
X6133571Y599927D01*
Y601802D01*
X6135445Y605552D01*
X6139195Y607426D01*
X6144819D01*
X6148569Y609301D01*
X6150444Y613051D01*
Y614925D01*
X6148569Y618675D01*
X6144819Y620550D01*
X6139195D01*
X6135445Y618675D01*
G54D12*
X1408627Y1706472D02*
X1421751Y1725220D01*
X1431124Y1706472D02*
Y1745842D01*
X1416126D01*
X1412377Y1743967D01*
X1410502Y1742093D01*
X1408627Y1738343D01*
Y1732719D01*
X1410502Y1728969D01*
X1412377Y1727094D01*
X1416126Y1725220D01*
X1431124D01*
X1391754Y1706472D02*
Y1745842D01*
X1376756D01*
X1373007Y1743967D01*
X1371132Y1742093D01*
X1369257Y1738343D01*
Y1732719D01*
X1371132Y1728969D01*
X1373007Y1727094D01*
X1376756Y1725220D01*
X1391754D01*
X1352384Y1706472D02*
Y1745842D01*
X1281143Y1710222D02*
X1283018Y1708347D01*
X1288642Y1706472D01*
X1292392D01*
X1298016Y1708347D01*
X1301766Y1712096D01*
X1303640Y1715846D01*
X1305515Y1723345D01*
Y1728969D01*
X1303640Y1736468D01*
X1301766Y1740218D01*
X1298016Y1743967D01*
X1292392Y1745842D01*
X1288642D01*
X1283018Y1743967D01*
X1281143Y1742093D01*
X1264270Y1706472D02*
Y1745842D01*
X1251147Y1717721D01*
X1238024Y1745842D01*
Y1706472D01*
X1208027Y1693349D02*
X1217401D01*
Y1749592D01*
X1208027D01*
X1196779Y1706472D02*
X1176156Y1732719D01*
X1196779D02*
X1176156Y1706472D01*
X1164908Y1693349D02*
X1155534D01*
Y1749592D01*
X1164908D01*
X1082418Y1710222D02*
X1084293Y1708347D01*
X1089917Y1706472D01*
X1093667D01*
X1099291Y1708347D01*
X1103040Y1712096D01*
X1104915Y1715846D01*
X1106790Y1723345D01*
Y1728969D01*
X1104915Y1736468D01*
X1103040Y1740218D01*
X1099291Y1743967D01*
X1093667Y1745842D01*
X1089917D01*
X1084293Y1743967D01*
X1082418Y1742093D01*
X1052422Y1727094D02*
X1046797Y1725220D01*
X1044923Y1723345D01*
X1043048Y1719595D01*
Y1713971D01*
X1044923Y1710222D01*
X1046797Y1708347D01*
X1050547Y1706472D01*
X1065545D01*
Y1745842D01*
X1052422D01*
X1048672Y1743967D01*
X1046797Y1742093D01*
X1044923Y1738343D01*
Y1734594D01*
X1046797Y1730844D01*
X1048672Y1728969D01*
X1052422Y1727094D01*
X1065545D01*
X1375819Y1682458D02*
Y1654337D01*
X1377694Y1648713D01*
X1381443Y1644963D01*
X1387067Y1643088D01*
X1390817D01*
X1343948Y1663711D02*
X1357071D01*
Y1643088D02*
Y1682458D01*
X1338324D01*
X1310202Y1663711D02*
X1304578Y1661836D01*
X1302703Y1659961D01*
X1300828Y1656212D01*
Y1650588D01*
X1302703Y1646838D01*
X1304578Y1644963D01*
X1308327Y1643088D01*
X1323325D01*
Y1682458D01*
X1310202D01*
X1306453Y1680584D01*
X1304578Y1678709D01*
X1302703Y1674959D01*
Y1671210D01*
X1304578Y1667460D01*
X1306453Y1665586D01*
X1310202Y1663711D01*
X1323325D01*
X1282081Y1644963D02*
Y1643088D01*
X1283955Y1639339D01*
X1285830Y1637464D01*
X1235211Y1643088D02*
Y1682458D01*
X1220213D01*
X1216464Y1680584D01*
X1214589Y1678709D01*
X1212714Y1674959D01*
Y1669335D01*
X1214589Y1665586D01*
X1216464Y1663711D01*
X1220213Y1661836D01*
X1235211D01*
X1195841Y1646838D02*
X1193967Y1644963D01*
X1195841Y1643088D01*
X1197716Y1644963D01*
X1195841Y1646838D01*
Y1643088D01*
X1177094Y1663711D02*
X1163970D01*
X1158346Y1643088D02*
X1177094D01*
Y1682458D01*
X1158346D01*
X1141473Y1669335D02*
Y1643088D01*
Y1665586D02*
X1139598Y1667460D01*
X1135849Y1669335D01*
X1130225D01*
X1126475Y1667460D01*
X1124600Y1663711D01*
Y1643088D01*
X1088980Y1669335D02*
Y1637464D01*
X1090855Y1633715D01*
X1092729Y1631840D01*
X1096479Y1629965D01*
X1102103D01*
X1105853Y1631840D01*
X1088980Y1644963D02*
X1092729Y1643088D01*
X1100228D01*
X1103978Y1644963D01*
X1105853Y1646838D01*
X1107727Y1650588D01*
Y1661836D01*
X1105853Y1665586D01*
X1103978Y1667460D01*
X1100228Y1669335D01*
X1092729D01*
X1088980Y1667460D01*
X1367382Y1615325D02*
X1365508Y1617200D01*
X1361758Y1619075D01*
X1352384D01*
X1348635Y1617200D01*
X1346760Y1615325D01*
X1344885Y1611576D01*
Y1607826D01*
X1346760Y1602202D01*
X1369257Y1579705D01*
X1344885D01*
X1320513Y1619075D02*
X1316764D01*
X1313014Y1617200D01*
X1311139Y1615325D01*
X1309265Y1611576D01*
X1307390Y1604077D01*
Y1594703D01*
X1309265Y1587204D01*
X1311139Y1583454D01*
X1313014Y1581580D01*
X1316764Y1579705D01*
X1320513D01*
X1324263Y1581580D01*
X1326138Y1583454D01*
X1328012Y1587204D01*
X1329887Y1594703D01*
Y1604077D01*
X1328012Y1611576D01*
X1326138Y1615325D01*
X1324263Y1617200D01*
X1320513Y1619075D01*
X1292392Y1615325D02*
X1290517Y1617200D01*
X1286768Y1619075D01*
X1277394D01*
X1273644Y1617200D01*
X1271769Y1615325D01*
X1269895Y1611576D01*
Y1607826D01*
X1271769Y1602202D01*
X1294267Y1579705D01*
X1269895D01*
X1236149Y1619075D02*
X1243648D01*
X1247397Y1617200D01*
X1249272Y1615325D01*
X1253022Y1609701D01*
X1254896Y1602202D01*
Y1587204D01*
X1253022Y1583454D01*
X1251147Y1581580D01*
X1247397Y1579705D01*
X1239898D01*
X1236149Y1581580D01*
X1234274Y1583454D01*
X1232399Y1587204D01*
Y1596578D01*
X1234274Y1600327D01*
X1236149Y1602202D01*
X1239898Y1604077D01*
X1247397D01*
X1251147Y1602202D01*
X1253022Y1600327D01*
X1254896Y1596578D01*
X1215526Y1594703D02*
X1185530D01*
X1159283Y1619075D02*
X1155534D01*
X1151784Y1617200D01*
X1149910Y1615325D01*
X1148035Y1611576D01*
X1146160Y1604077D01*
Y1594703D01*
X1148035Y1587204D01*
X1149910Y1583454D01*
X1151784Y1581580D01*
X1155534Y1579705D01*
X1159283D01*
X1163033Y1581580D01*
X1164908Y1583454D01*
X1166782Y1587204D01*
X1168657Y1594703D01*
Y1604077D01*
X1166782Y1611576D01*
X1164908Y1615325D01*
X1163033Y1617200D01*
X1159283Y1619075D01*
X1133037D02*
X1108665D01*
X1121788Y1604077D01*
X1116164D01*
X1112414Y1602202D01*
X1110540Y1600327D01*
X1108665Y1596578D01*
Y1587204D01*
X1110540Y1583454D01*
X1112414Y1581580D01*
X1116164Y1579705D01*
X1127412D01*
X1131162Y1581580D01*
X1133037Y1583454D01*
X1432999Y1516321D02*
Y1555691D01*
X1418001D01*
X1414252Y1553816D01*
X1412377Y1551942D01*
X1410502Y1548192D01*
Y1542568D01*
X1412377Y1538818D01*
X1414252Y1536944D01*
X1418001Y1535069D01*
X1432999D01*
X1371132Y1520071D02*
X1373007Y1518196D01*
X1378631Y1516321D01*
X1382381D01*
X1388005Y1518196D01*
X1391754Y1521945D01*
X1393629Y1525695D01*
X1395504Y1533194D01*
Y1538818D01*
X1393629Y1546317D01*
X1391754Y1550067D01*
X1388005Y1553816D01*
X1382381Y1555691D01*
X1378631D01*
X1373007Y1553816D01*
X1371132Y1551942D01*
X1341136Y1536944D02*
X1335511Y1535069D01*
X1333637Y1533194D01*
X1331762Y1529444D01*
Y1523820D01*
X1333637Y1520071D01*
X1335511Y1518196D01*
X1339261Y1516321D01*
X1354259D01*
Y1555691D01*
X1341136D01*
X1337386Y1553816D01*
X1335511Y1551942D01*
X1333637Y1548192D01*
Y1544443D01*
X1335511Y1540693D01*
X1337386Y1538818D01*
X1341136Y1536944D01*
X1354259D01*
X1262396Y1516321D02*
X1275519Y1535069D01*
X1284893Y1516321D02*
Y1555691D01*
X1269895D01*
X1266145Y1553816D01*
X1264270Y1551942D01*
X1262396Y1548192D01*
Y1542568D01*
X1264270Y1538818D01*
X1266145Y1536944D01*
X1269895Y1535069D01*
X1284893D01*
X1230525Y1518196D02*
X1234274Y1516321D01*
X1241773D01*
X1245523Y1518196D01*
X1247397Y1521945D01*
Y1536944D01*
X1245523Y1540693D01*
X1241773Y1542568D01*
X1234274D01*
X1230525Y1540693D01*
X1228650Y1536944D01*
Y1533194D01*
X1247397Y1529444D01*
X1215526Y1542568D02*
X1206153Y1516321D01*
X1196779Y1542568D01*
X1131162Y1516321D02*
X1153659D01*
X1142411D02*
Y1555691D01*
X1146160Y1550067D01*
X1149910Y1546317D01*
X1153659Y1544443D01*
X1114289Y1520071D02*
X1112414Y1518196D01*
X1114289Y1516321D01*
X1116164Y1518196D01*
X1114289Y1520071D01*
Y1516321D01*
X1088042Y1555691D02*
X1084293D01*
X1080543Y1553816D01*
X1078669Y1551942D01*
X1076794Y1548192D01*
X1074919Y1540693D01*
Y1531319D01*
X1076794Y1523820D01*
X1078669Y1520071D01*
X1080543Y1518196D01*
X1084293Y1516321D01*
X1088042D01*
X1091792Y1518196D01*
X1093667Y1520071D01*
X1095541Y1523820D01*
X1097416Y1531319D01*
Y1540693D01*
X1095541Y1548192D01*
X1093667Y1551942D01*
X1091792Y1553816D01*
X1088042Y1555691D01*
X1059921Y1527570D02*
X1041173D01*
X1063670Y1516321D02*
X1050547Y1555691D01*
X1037424Y1516321D01*
G54D10*
X331817Y1500188D02*
X333691Y1496438D01*
X337441Y1492689D01*
X343065Y1487064D01*
X344940Y1483315D01*
Y1479565D01*
X335566Y1481440D02*
X337441Y1477691D01*
X341190Y1473941D01*
X348690Y1472066D01*
X361813D01*
X369312Y1473941D01*
X373061Y1477691D01*
X374936Y1481440D01*
Y1488939D01*
X373061Y1492689D01*
X369312Y1496438D01*
X361813Y1498313D01*
X348690D01*
X341190Y1496438D01*
X337441Y1492689D01*
X335566Y1488939D01*
Y1481440D01*
X374936Y1511436D02*
X335566Y1520810D01*
X363688Y1528309D01*
X335566Y1535808D01*
X374936Y1545182D01*
X335566Y1560180D02*
X374936D01*
X335566Y1578928D02*
X374936D01*
X339316Y1620173D02*
X337441Y1618298D01*
X335566Y1612674D01*
Y1608924D01*
X337441Y1603300D01*
X341190Y1599550D01*
X344940Y1597676D01*
X352439Y1595801D01*
X358063D01*
X365562Y1597676D01*
X369312Y1599550D01*
X373061Y1603300D01*
X374936Y1608924D01*
Y1612674D01*
X373061Y1618298D01*
X371187Y1620173D01*
X335566Y2428666D02*
X374936D01*
X356189D02*
Y2451163D01*
X335566D02*
X374936D01*
X356189Y2469910D02*
Y2483034D01*
X335566Y2488658D02*
Y2469910D01*
X374936D01*
Y2488658D01*
X346815Y2503656D02*
Y2522404D01*
X335566Y2499907D02*
X374936Y2513030D01*
X335566Y2526153D01*
Y2539277D02*
X374936D01*
Y2548651D01*
X373061Y2554275D01*
X369312Y2558024D01*
X365562Y2559899D01*
X358063Y2561774D01*
X352439D01*
X344940Y2559899D01*
X341190Y2558024D01*
X337441Y2554275D01*
X335566Y2548651D01*
Y2539277D01*
X374936Y2616142D02*
Y2623641D01*
X373061Y2627391D01*
X369312Y2631140D01*
X361813Y2633015D01*
X348690D01*
X341190Y2631140D01*
X337441Y2627391D01*
X335566Y2623641D01*
Y2616142D01*
X337441Y2612393D01*
X341190Y2608643D01*
X348690Y2606768D01*
X361813D01*
X369312Y2608643D01*
X373061Y2612393D01*
X374936Y2616142D01*
Y2649888D02*
X343065D01*
X339316Y2651763D01*
X337441Y2653637D01*
X335566Y2657387D01*
Y2664886D01*
X337441Y2668636D01*
X339316Y2670510D01*
X343065Y2672385D01*
X374936D01*
Y2685508D02*
Y2708006D01*
X335566Y2696757D02*
X374936D01*
X4763461Y1213063D02*
Y1252433D01*
X4748463D01*
X4744714Y1250558D01*
X4742839Y1248684D01*
X4740964Y1244934D01*
Y1239310D01*
X4742839Y1235560D01*
X4744714Y1233685D01*
X4748463Y1231811D01*
X4763461D01*
X4724091Y1213063D02*
Y1252433D01*
X4682846Y1216813D02*
X4684721Y1214938D01*
X4690345Y1213063D01*
X4694095D01*
X4699719Y1214938D01*
X4703469Y1218687D01*
X4705344Y1222437D01*
X4707218Y1229936D01*
Y1235560D01*
X4705344Y1243059D01*
X4703469Y1246809D01*
X4699719Y1250558D01*
X4694095Y1252433D01*
X4690345D01*
X4684721Y1250558D01*
X4682846Y1248684D01*
X4665973Y1213063D02*
Y1252433D01*
X4643476Y1213063D02*
X4660349Y1235560D01*
X4643476Y1252433D02*
X4665973Y1229936D01*
X4626603Y1213063D02*
Y1252433D01*
X4613480D02*
X4590983D01*
X4602231Y1213063D02*
Y1252433D01*
X4421785Y4258995D02*
Y4232748D01*
X4438658Y4258995D02*
Y4238372D01*
X4436783Y4234623D01*
X4433034Y4232748D01*
X4427409D01*
X4423660Y4234623D01*
X4421785Y4236498D01*
X4404912Y4234623D02*
X4399288Y4232748D01*
X4389914D01*
X4386165Y4234623D01*
X4384290Y4236498D01*
X4382415Y4240247D01*
Y4243997D01*
X4384290Y4247746D01*
X4386165Y4249621D01*
X4389914Y4251496D01*
X4397413Y4253370D01*
X4401163Y4255245D01*
X4403038Y4257120D01*
X4404912Y4260870D01*
Y4264619D01*
X4403038Y4268369D01*
X4401163Y4270243D01*
X4397413Y4272118D01*
X4388039D01*
X4382415Y4270243D01*
X4365542Y4232748D02*
Y4272118D01*
X4356168D01*
X4350544Y4270243D01*
X4346795Y4266494D01*
X4344920Y4262744D01*
X4343045Y4255245D01*
Y4249621D01*
X4344920Y4242122D01*
X4346795Y4238372D01*
X4350544Y4234623D01*
X4356168Y4232748D01*
X4365542D01*
X4273679Y4236498D02*
X4275553Y4234623D01*
X4281178Y4232748D01*
X4284927D01*
X4290552Y4234623D01*
X4294301Y4238372D01*
X4296176Y4242122D01*
X4298051Y4249621D01*
Y4255245D01*
X4296176Y4262744D01*
X4294301Y4266494D01*
X4290552Y4270243D01*
X4284927Y4272118D01*
X4281178D01*
X4275553Y4270243D01*
X4273679Y4268369D01*
X4258681Y4243997D02*
X4239933D01*
X4262430Y4232748D02*
X4249307Y4272118D01*
X4236183Y4232748D01*
X4200563D02*
X4213686Y4251496D01*
X4223060Y4232748D02*
Y4272118D01*
X4208062D01*
X4204312Y4270243D01*
X4202438Y4268369D01*
X4200563Y4264619D01*
Y4258995D01*
X4202438Y4255245D01*
X4204312Y4253370D01*
X4208062Y4251496D01*
X4223060D01*
X4183690Y4232748D02*
Y4272118D01*
X4174316D01*
X4168692Y4270243D01*
X4164942Y4266494D01*
X4163068Y4262744D01*
X4161193Y4255245D01*
Y4249621D01*
X4163068Y4242122D01*
X4164942Y4238372D01*
X4168692Y4234623D01*
X4174316Y4232748D01*
X4183690D01*
X3818579D02*
Y4272118D01*
X3805456Y4243997D01*
X3792333Y4272118D01*
Y4232748D01*
X3773585D02*
Y4272118D01*
X3754837Y4232748D02*
Y4272118D01*
X3739839D01*
X3736090Y4270243D01*
X3734215Y4268369D01*
X3732340Y4264619D01*
Y4258995D01*
X3734215Y4255245D01*
X3736090Y4253370D01*
X3739839Y4251496D01*
X3754837D01*
X3715467Y4232748D02*
Y4272118D01*
X3666723Y4253370D02*
X3653600D01*
X3647976Y4232748D02*
X3666723D01*
Y4272118D01*
X3647976D01*
X3634852D02*
X3608606Y4232748D01*
Y4272118D02*
X3634852Y4232748D01*
X3593607D02*
Y4272118D01*
X3578609D01*
X3574860Y4270243D01*
X3572985Y4268369D01*
X3571110Y4264619D01*
Y4258995D01*
X3572985Y4255245D01*
X3574860Y4253370D01*
X3578609Y4251496D01*
X3593607D01*
X3556112Y4243997D02*
X3537365D01*
X3559862Y4232748D02*
X3546738Y4272118D01*
X3533615Y4232748D01*
X3520492D02*
Y4272118D01*
X3497994Y4232748D01*
Y4272118D01*
X3479247Y4232748D02*
Y4272118D01*
X3469873D01*
X3464249Y4270243D01*
X3460499Y4266494D01*
X3458624Y4262744D01*
X3456750Y4255245D01*
Y4249621D01*
X3458624Y4242122D01*
X3460499Y4238372D01*
X3464249Y4234623D01*
X3469873Y4232748D01*
X3479247D01*
X335566Y1753469D02*
X374936D01*
X346815Y1766592D01*
X374936Y1779715D01*
X335566D01*
Y1798463D02*
X374936D01*
X339316Y1839708D02*
X337441Y1837833D01*
X335566Y1832209D01*
Y1828459D01*
X337441Y1822835D01*
X341190Y1819085D01*
X344940Y1817211D01*
X352439Y1815336D01*
X358063D01*
X365562Y1817211D01*
X369312Y1819085D01*
X373061Y1822835D01*
X374936Y1828459D01*
Y1832209D01*
X373061Y1837833D01*
X371187Y1839708D01*
X622152Y1272404D02*
Y1287402D01*
X850499Y1272404D02*
Y1287402D01*
X843000Y1279903D02*
X857998D01*
X2825856Y1545595D02*
X2814608D01*
X2820232Y1525910D02*
Y1545595D01*
X2808046Y1525910D02*
Y1545595D01*
X2800547D01*
X2798672Y1544657D01*
X2797735Y1543720D01*
X2796798Y1541845D01*
Y1539033D01*
X2797735Y1537158D01*
X2798672Y1536221D01*
X2800547Y1535284D01*
X2808046D01*
X2778987Y1545595D02*
X2788361D01*
X2789298Y1536221D01*
X2788361Y1537158D01*
X2786486Y1538096D01*
X2781799D01*
X2779925Y1537158D01*
X2778987Y1536221D01*
X2778050Y1534346D01*
Y1529659D01*
X2778987Y1527785D01*
X2779925Y1526847D01*
X2781799Y1525910D01*
X2786486D01*
X2788361Y1526847D01*
X2789298Y1527785D01*
X6286018Y1466855D02*
X6274769D01*
X6280393Y1447170D02*
Y1466855D01*
X6268207Y1447170D02*
Y1466855D01*
X6260708D01*
X6258833Y1465917D01*
X6257896Y1464980D01*
X6256959Y1463105D01*
Y1460293D01*
X6257896Y1458418D01*
X6258833Y1457481D01*
X6260708Y1456544D01*
X6268207D01*
X6249460Y1464980D02*
X6248522Y1465917D01*
X6246648Y1466855D01*
X6241961D01*
X6240086Y1465917D01*
X6239148Y1464980D01*
X6238211Y1463105D01*
Y1461231D01*
X6239148Y1458418D01*
X6250397Y1447170D01*
X6238211D01*
X6221338Y1466855D02*
X6225088D01*
X6226963Y1465917D01*
X6227900Y1464980D01*
X6229775Y1462168D01*
X6230712Y1458418D01*
Y1450919D01*
X6229775Y1449044D01*
X6228837Y1448107D01*
X6226963Y1447170D01*
X6223213D01*
X6221338Y1448107D01*
X6220401Y1449044D01*
X6219463Y1450919D01*
Y1455606D01*
X6220401Y1457481D01*
X6221338Y1458418D01*
X6223213Y1459356D01*
X6226963D01*
X6228837Y1458418D01*
X6229775Y1457481D01*
X6230712Y1455606D01*
X2642785Y1998351D02*
X2631537D01*
X2637161Y1978666D02*
Y1998351D01*
X2624975Y1978666D02*
Y1998351D01*
X2617476D01*
X2615601Y1997413D01*
X2614664Y1996476D01*
X2613727Y1994601D01*
Y1991789D01*
X2614664Y1989914D01*
X2615601Y1988977D01*
X2617476Y1988040D01*
X2624975D01*
X2594979Y1978666D02*
X2606228D01*
X2600603D02*
Y1998351D01*
X2602478Y1995539D01*
X2604353Y1993664D01*
X2606228Y1992727D01*
X934124Y1543626D02*
X922875D01*
X928500Y1523941D02*
Y1543626D01*
X916314Y1523941D02*
Y1543626D01*
X908815D01*
X906940Y1542689D01*
X906003Y1541752D01*
X905065Y1539877D01*
Y1537065D01*
X906003Y1535190D01*
X906940Y1534253D01*
X908815Y1533315D01*
X916314D01*
X895691Y1523941D02*
X891942D01*
X890067Y1524879D01*
X889130Y1525816D01*
X887255Y1528628D01*
X886318Y1532378D01*
Y1539877D01*
X887255Y1541752D01*
X888192Y1542689D01*
X890067Y1543626D01*
X893817D01*
X895691Y1542689D01*
X896629Y1541752D01*
X897566Y1539877D01*
Y1535190D01*
X896629Y1533315D01*
X895691Y1532378D01*
X893817Y1531440D01*
X890067D01*
X888192Y1532378D01*
X887255Y1533315D01*
X886318Y1535190D01*
X3723025Y2020004D02*
X3711777D01*
X3717401Y2000319D02*
Y2020004D01*
X3705215Y2000319D02*
Y2020004D01*
X3697716D01*
X3695841Y2019067D01*
X3694904Y2018130D01*
X3693967Y2016255D01*
Y2013443D01*
X3694904Y2011568D01*
X3695841Y2010631D01*
X3697716Y2009693D01*
X3705215D01*
X3687405Y2020004D02*
X3675219D01*
X3681781Y2012505D01*
X3678969D01*
X3677094Y2011568D01*
X3676156Y2010631D01*
X3675219Y2008756D01*
Y2004069D01*
X3676156Y2002194D01*
X3677094Y2001257D01*
X3678969Y2000319D01*
X3684593D01*
X3686468Y2001257D01*
X3687405Y2002194D01*
X3668657Y2020004D02*
X3656471D01*
X3663033Y2012505D01*
X3660221D01*
X3658346Y2011568D01*
X3657409Y2010631D01*
X3656471Y2008756D01*
Y2004069D01*
X3657409Y2002194D01*
X3658346Y2001257D01*
X3660221Y2000319D01*
X3665845D01*
X3667720Y2001257D01*
X3668657Y2002194D01*
X1518301Y1447170D02*
X1507052D01*
X1512677Y1427485D02*
Y1447170D01*
X1500491Y1427485D02*
Y1447170D01*
X1492992D01*
X1491117Y1446232D01*
X1490180Y1445295D01*
X1489242Y1443420D01*
Y1440608D01*
X1490180Y1438733D01*
X1491117Y1437796D01*
X1492992Y1436858D01*
X1500491D01*
X1470494Y1427485D02*
X1481743D01*
X1476119D02*
Y1447170D01*
X1477994Y1444358D01*
X1479868Y1442483D01*
X1481743Y1441545D01*
X1463933Y1447170D02*
X1450810D01*
X1459246Y1427485D01*
X5711567Y1831028D02*
X5700319D01*
X5705943Y1811343D02*
Y1831028D01*
X5693757Y1811343D02*
Y1831028D01*
X5686258D01*
X5684383Y1830091D01*
X5683446Y1829153D01*
X5682508Y1827278D01*
Y1824466D01*
X5683446Y1822592D01*
X5684383Y1821654D01*
X5686258Y1820717D01*
X5693757D01*
X5665635Y1824466D02*
Y1811343D01*
X5670322Y1831965D02*
X5675009Y1817905D01*
X5662823D01*
X5646888Y1824466D02*
Y1811343D01*
X5651575Y1831965D02*
X5656262Y1817905D01*
X5644076D01*
X4043892Y1927485D02*
X4032643D01*
X4038267Y1907800D02*
Y1927485D01*
X4026081Y1907800D02*
Y1927485D01*
X4018582D01*
X4016707Y1926547D01*
X4015770Y1925610D01*
X4014833Y1923735D01*
Y1920923D01*
X4015770Y1919048D01*
X4016707Y1918111D01*
X4018582Y1917173D01*
X4026081D01*
X4008271Y1927485D02*
X3996085D01*
X4002647Y1919986D01*
X3999835D01*
X3997960Y1919048D01*
X3997022Y1918111D01*
X3996085Y1916236D01*
Y1911549D01*
X3997022Y1909674D01*
X3997960Y1908737D01*
X3999835Y1907800D01*
X4005459D01*
X4007334Y1908737D01*
X4008271Y1909674D01*
X3988586Y1925610D02*
X3987649Y1926547D01*
X3985774Y1927485D01*
X3981087D01*
X3979212Y1926547D01*
X3978275Y1925610D01*
X3977337Y1923735D01*
Y1921860D01*
X3978275Y1919048D01*
X3989523Y1907800D01*
X3977337D01*
X1976962Y2189296D02*
X1965714D01*
X1971338Y2169611D02*
Y2189296D01*
X1959152Y2169611D02*
Y2189296D01*
X1951653D01*
X1949778Y2188358D01*
X1948841Y2187421D01*
X1947904Y2185546D01*
Y2182734D01*
X1948841Y2180859D01*
X1949778Y2179922D01*
X1951653Y2178984D01*
X1959152D01*
X1941342Y2189296D02*
X1929156D01*
X1935718Y2181797D01*
X1932906D01*
X1931031Y2180859D01*
X1930093Y2179922D01*
X1929156Y2178047D01*
Y2173360D01*
X1930093Y2171485D01*
X1931031Y2170548D01*
X1932906Y2169611D01*
X1938530D01*
X1940405Y2170548D01*
X1941342Y2171485D01*
X1922594Y2189296D02*
X1909471D01*
X1917907Y2169611D01*
X6410033Y1466855D02*
X6398785D01*
X6404409Y1447170D02*
Y1466855D01*
X6392223Y1447170D02*
Y1466855D01*
X6384724D01*
X6382849Y1465917D01*
X6381912Y1464980D01*
X6380975Y1463105D01*
Y1460293D01*
X6381912Y1458418D01*
X6382849Y1457481D01*
X6384724Y1456544D01*
X6392223D01*
X6373475Y1464980D02*
X6372538Y1465917D01*
X6370663Y1466855D01*
X6365976D01*
X6364102Y1465917D01*
X6363164Y1464980D01*
X6362227Y1463105D01*
Y1461231D01*
X6363164Y1458418D01*
X6374413Y1447170D01*
X6362227D01*
X6355665Y1466855D02*
X6342542D01*
X6350978Y1447170D01*
X2934124Y525910D02*
X2922875D01*
X2928500Y506225D02*
Y525910D01*
X2916314Y506225D02*
Y525910D01*
X2908815D01*
X2906940Y524972D01*
X2906003Y524035D01*
X2905065Y522160D01*
Y519348D01*
X2906003Y517473D01*
X2906940Y516536D01*
X2908815Y515599D01*
X2916314D01*
X2898504Y525910D02*
X2885380D01*
X2893817Y506225D01*
X943498Y1455044D02*
X932249D01*
X937874Y1435359D02*
Y1455044D01*
X925688Y1435359D02*
Y1455044D01*
X918189D01*
X916314Y1454106D01*
X915376Y1453169D01*
X914439Y1451294D01*
Y1448482D01*
X915376Y1446607D01*
X916314Y1445670D01*
X918189Y1444732D01*
X925688D01*
X895691Y1435359D02*
X906940D01*
X901316D02*
Y1455044D01*
X903190Y1452232D01*
X905065Y1450357D01*
X906940Y1449419D01*
X883505Y1455044D02*
X881631D01*
X879756Y1454106D01*
X878819Y1453169D01*
X877881Y1451294D01*
X876944Y1447545D01*
Y1442858D01*
X877881Y1439108D01*
X878819Y1437233D01*
X879756Y1436296D01*
X881631Y1435359D01*
X883505D01*
X885380Y1436296D01*
X886318Y1437233D01*
X887255Y1439108D01*
X888192Y1442858D01*
Y1447545D01*
X887255Y1451294D01*
X886318Y1453169D01*
X885380Y1454106D01*
X883505Y1455044D01*
X1888380Y638115D02*
X1877131D01*
X1882756Y618430D02*
Y638115D01*
X1870569Y618430D02*
Y638115D01*
X1863070D01*
X1861196Y637177D01*
X1860258Y636240D01*
X1859321Y634365D01*
Y631553D01*
X1860258Y629678D01*
X1861196Y628741D01*
X1863070Y627803D01*
X1870569D01*
X1840573Y618430D02*
X1851822D01*
X1846198D02*
Y638115D01*
X1848072Y635302D01*
X1849947Y633428D01*
X1851822Y632490D01*
X1822763Y638115D02*
X1832137D01*
X1833074Y628741D01*
X1832137Y629678D01*
X1830262Y630616D01*
X1825575D01*
X1823700Y629678D01*
X1822763Y628741D01*
X1821826Y626866D01*
Y622179D01*
X1822763Y620304D01*
X1823700Y619367D01*
X1825575Y618430D01*
X1830262D01*
X1832137Y619367D01*
X1833074Y620304D01*
X1412002Y960949D02*
X1400753D01*
X1406378Y941264D02*
Y960949D01*
X1394192Y941264D02*
Y960949D01*
X1386693D01*
X1384818Y960012D01*
X1383880Y959075D01*
X1382943Y957200D01*
Y954388D01*
X1383880Y952513D01*
X1384818Y951575D01*
X1386693Y950638D01*
X1394192D01*
X1364195Y941264D02*
X1375444D01*
X1369820D02*
Y960949D01*
X1371694Y958137D01*
X1373569Y956262D01*
X1375444Y955325D01*
X1352947Y952513D02*
X1354821Y953450D01*
X1355759Y954388D01*
X1356696Y956262D01*
Y957200D01*
X1355759Y959075D01*
X1354821Y960012D01*
X1352947Y960949D01*
X1349197D01*
X1347322Y960012D01*
X1346385Y959075D01*
X1345448Y957200D01*
Y956262D01*
X1346385Y954388D01*
X1347322Y953450D01*
X1349197Y952513D01*
X1352947D01*
X1354821Y951575D01*
X1355759Y950638D01*
X1356696Y948763D01*
Y945014D01*
X1355759Y943139D01*
X1354821Y942202D01*
X1352947Y941264D01*
X1349197D01*
X1347322Y942202D01*
X1346385Y943139D01*
X1345448Y945014D01*
Y948763D01*
X1346385Y950638D01*
X1347322Y951575D01*
X1349197Y952513D01*
X5660033Y1636146D02*
X5648785D01*
X5654409Y1616461D02*
Y1636146D01*
X5642223Y1616461D02*
Y1636146D01*
X5634724D01*
X5632849Y1635209D01*
X5631912Y1634271D01*
X5630975Y1632397D01*
Y1629584D01*
X5631912Y1627710D01*
X5632849Y1626772D01*
X5634724Y1625835D01*
X5642223D01*
X5614102Y1629584D02*
Y1616461D01*
X5618788Y1637083D02*
X5623475Y1623023D01*
X5611289D01*
X5604728Y1634271D02*
X5603790Y1635209D01*
X5601916Y1636146D01*
X5597229D01*
X5595354Y1635209D01*
X5594417Y1634271D01*
X5593479Y1632397D01*
Y1630522D01*
X5594417Y1627710D01*
X5605665Y1616461D01*
X5593479D01*
X5553734Y1638115D02*
X5542486D01*
X5548110Y1618430D02*
Y1638115D01*
X5535924Y1618430D02*
Y1638115D01*
X5528425D01*
X5526550Y1637177D01*
X5525613Y1636240D01*
X5524675Y1634365D01*
Y1631553D01*
X5525613Y1629678D01*
X5526550Y1628741D01*
X5528425Y1627803D01*
X5535924D01*
X5507802Y1631553D02*
Y1618430D01*
X5512489Y1639052D02*
X5517176Y1624991D01*
X5504990D01*
X5487180Y1618430D02*
X5498429D01*
X5492804D02*
Y1638115D01*
X5494679Y1635302D01*
X5496554Y1633428D01*
X5498429Y1632490D01*
X3563577Y2021973D02*
X3552328D01*
X3557952Y2002288D02*
Y2021973D01*
X3545766Y2002288D02*
Y2021973D01*
X3538267D01*
X3536393Y2021035D01*
X3535455Y2020098D01*
X3534518Y2018223D01*
Y2015411D01*
X3535455Y2013536D01*
X3536393Y2012599D01*
X3538267Y2011662D01*
X3545766D01*
X3527956Y2021973D02*
X3515770D01*
X3522332Y2014474D01*
X3519520D01*
X3517645Y2013536D01*
X3516707Y2012599D01*
X3515770Y2010724D01*
Y2006037D01*
X3516707Y2004163D01*
X3517645Y2003225D01*
X3519520Y2002288D01*
X3525144D01*
X3527019Y2003225D01*
X3527956Y2004163D01*
X3498897Y2015411D02*
Y2002288D01*
X3503584Y2022910D02*
X3508271Y2008850D01*
X3496085D01*
X4122632Y1783784D02*
X4111383D01*
X4117007Y1764099D02*
Y1783784D01*
X4104821Y1764099D02*
Y1783784D01*
X4097322D01*
X4095448Y1782846D01*
X4094510Y1781909D01*
X4093573Y1780034D01*
Y1777222D01*
X4094510Y1775347D01*
X4095448Y1774410D01*
X4097322Y1773473D01*
X4104821D01*
X4087011Y1783784D02*
X4074825D01*
X4081387Y1776285D01*
X4078575D01*
X4076700Y1775347D01*
X4075763Y1774410D01*
X4074825Y1772535D01*
Y1767848D01*
X4075763Y1765974D01*
X4076700Y1765036D01*
X4078575Y1764099D01*
X4084199D01*
X4086074Y1765036D01*
X4087011Y1765974D01*
X4056078Y1764099D02*
X4067326D01*
X4061702D02*
Y1783784D01*
X4063577Y1780972D01*
X4065451Y1779097D01*
X4067326Y1778160D01*
X5437592Y2382209D02*
X5426344D01*
X5431968Y2362524D02*
Y2382209D01*
X5419782Y2362524D02*
Y2382209D01*
X5412283D01*
X5410408Y2381272D01*
X5409471Y2380334D01*
X5408534Y2378460D01*
Y2375647D01*
X5409471Y2373773D01*
X5410408Y2372835D01*
X5412283Y2371898D01*
X5419782D01*
X5401034Y2380334D02*
X5400097Y2381272D01*
X5398222Y2382209D01*
X5393535D01*
X5391661Y2381272D01*
X5390723Y2380334D01*
X5389786Y2378460D01*
Y2376585D01*
X5390723Y2373773D01*
X5401972Y2362524D01*
X5389786D01*
X5371976Y2382209D02*
X5381349D01*
X5382287Y2372835D01*
X5381349Y2373773D01*
X5379475Y2374710D01*
X5374788D01*
X5372913Y2373773D01*
X5371976Y2372835D01*
X5371038Y2370961D01*
Y2366274D01*
X5371976Y2364399D01*
X5372913Y2363461D01*
X5374788Y2362524D01*
X5379475D01*
X5381349Y2363461D01*
X5382287Y2364399D01*
X2934124Y1098744D02*
X2922875D01*
X2928500Y1079059D02*
Y1098744D01*
X2916314Y1079059D02*
Y1098744D01*
X2908815D01*
X2906940Y1097807D01*
X2906003Y1096870D01*
X2905065Y1094995D01*
Y1092183D01*
X2906003Y1090308D01*
X2906940Y1089371D01*
X2908815Y1088433D01*
X2916314D01*
X2888192Y1098744D02*
X2891942D01*
X2893817Y1097807D01*
X2894754Y1096870D01*
X2896629Y1094058D01*
X2897566Y1090308D01*
Y1082809D01*
X2896629Y1080934D01*
X2895691Y1079997D01*
X2893817Y1079059D01*
X2890067D01*
X2888192Y1079997D01*
X2887255Y1080934D01*
X2886318Y1082809D01*
Y1087496D01*
X2887255Y1089371D01*
X2888192Y1090308D01*
X2890067Y1091245D01*
X2893817D01*
X2895691Y1090308D01*
X2896629Y1089371D01*
X2897566Y1087496D01*
X5370663Y1598744D02*
X5359415D01*
X5365039Y1579059D02*
Y1598744D01*
X5352853Y1579059D02*
Y1598744D01*
X5345354D01*
X5343479Y1597807D01*
X5342542Y1596870D01*
X5341604Y1594995D01*
Y1592183D01*
X5342542Y1590308D01*
X5343479Y1589371D01*
X5345354Y1588433D01*
X5352853D01*
X5322857Y1579059D02*
X5334105D01*
X5328481D02*
Y1598744D01*
X5330356Y1595932D01*
X5332231Y1594058D01*
X5334105Y1593120D01*
X5313483Y1579059D02*
X5309733D01*
X5307859Y1579997D01*
X5306921Y1580934D01*
X5305046Y1583746D01*
X5304109Y1587496D01*
Y1594995D01*
X5305046Y1596870D01*
X5305984Y1597807D01*
X5307859Y1598744D01*
X5311608D01*
X5313483Y1597807D01*
X5314420Y1596870D01*
X5315358Y1594995D01*
Y1590308D01*
X5314420Y1588433D01*
X5313483Y1587496D01*
X5311608Y1586559D01*
X5307859D01*
X5305984Y1587496D01*
X5305046Y1588433D01*
X5304109Y1590308D01*
X1707277Y795595D02*
X1696029D01*
X1701653Y775910D02*
Y795595D01*
X1689467Y775910D02*
Y795595D01*
X1681968D01*
X1680093Y794657D01*
X1679156Y793720D01*
X1678219Y791845D01*
Y789033D01*
X1679156Y787158D01*
X1680093Y786221D01*
X1681968Y785284D01*
X1689467D01*
X1659471Y775910D02*
X1670719D01*
X1665095D02*
Y795595D01*
X1666970Y792783D01*
X1668845Y790908D01*
X1670719Y789971D01*
X1642598Y795595D02*
X1646348D01*
X1648222Y794657D01*
X1649160Y793720D01*
X1651034Y790908D01*
X1651972Y787158D01*
Y779659D01*
X1651034Y777785D01*
X1650097Y776847D01*
X1648222Y775910D01*
X1644473D01*
X1642598Y776847D01*
X1641661Y777785D01*
X1640723Y779659D01*
Y784346D01*
X1641661Y786221D01*
X1642598Y787158D01*
X1644473Y788096D01*
X1648222D01*
X1650097Y787158D01*
X1651034Y786221D01*
X1651972Y784346D01*
X6341136Y1742445D02*
X6329887D01*
X6335511Y1722760D02*
Y1742445D01*
X6323325Y1722760D02*
Y1742445D01*
X6315826D01*
X6313952Y1741508D01*
X6313014Y1740571D01*
X6312077Y1738696D01*
Y1735884D01*
X6313014Y1734009D01*
X6313952Y1733071D01*
X6315826Y1732134D01*
X6323325D01*
X6304578Y1740571D02*
X6303640Y1741508D01*
X6301766Y1742445D01*
X6297079D01*
X6295204Y1741508D01*
X6294267Y1740571D01*
X6293329Y1738696D01*
Y1736821D01*
X6294267Y1734009D01*
X6305515Y1722760D01*
X6293329D01*
X6281143Y1742445D02*
X6279269D01*
X6277394Y1741508D01*
X6276456Y1740571D01*
X6275519Y1738696D01*
X6274581Y1734946D01*
Y1730259D01*
X6275519Y1726510D01*
X6276456Y1724635D01*
X6277394Y1723698D01*
X6279269Y1722760D01*
X6281143D01*
X6283018Y1723698D01*
X6283955Y1724635D01*
X6284893Y1726510D01*
X6285830Y1730259D01*
Y1734946D01*
X6284893Y1738696D01*
X6283955Y1740571D01*
X6283018Y1741508D01*
X6281143Y1742445D01*
X2635666Y968823D02*
X2624417D01*
X2630042Y949138D02*
Y968823D01*
X2617856Y949138D02*
Y968823D01*
X2610356D01*
X2608482Y967886D01*
X2607544Y966949D01*
X2606607Y965074D01*
Y962262D01*
X2607544Y960387D01*
X2608482Y959449D01*
X2610356Y958512D01*
X2617856D01*
X2587859Y949138D02*
X2599108D01*
X2593484D02*
Y968823D01*
X2595358Y966011D01*
X2597233Y964136D01*
X2599108Y963199D01*
X2580360Y966949D02*
X2579423Y967886D01*
X2577548Y968823D01*
X2572861D01*
X2570986Y967886D01*
X2570049Y966949D01*
X2569112Y965074D01*
Y963199D01*
X2570049Y960387D01*
X2581298Y949138D01*
X2569112D01*
X2941998Y2687327D02*
X2930750D01*
X2936374Y2667642D02*
Y2687327D01*
X2924188Y2667642D02*
Y2687327D01*
X2916689D01*
X2914814Y2686390D01*
X2913877Y2685452D01*
X2912939Y2683578D01*
Y2680766D01*
X2913877Y2678891D01*
X2914814Y2677953D01*
X2916689Y2677016D01*
X2924188D01*
X2905440Y2685452D02*
X2904503Y2686390D01*
X2902628Y2687327D01*
X2897941D01*
X2896066Y2686390D01*
X2895129Y2685452D01*
X2894192Y2683578D01*
Y2681703D01*
X2895129Y2678891D01*
X2906378Y2667642D01*
X2894192D01*
X1860821Y2100713D02*
X1849572D01*
X1855196Y2081028D02*
Y2100713D01*
X1843010Y2081028D02*
Y2100713D01*
X1835511D01*
X1833637Y2099776D01*
X1832699Y2098838D01*
X1831762Y2096963D01*
Y2094151D01*
X1832699Y2092277D01*
X1833637Y2091339D01*
X1835511Y2090402D01*
X1843010D01*
X1814889Y2094151D02*
Y2081028D01*
X1819576Y2101650D02*
X1824263Y2087590D01*
X1812077D01*
X1800828Y2100713D02*
X1798954D01*
X1797079Y2099776D01*
X1796141Y2098838D01*
X1795204Y2096963D01*
X1794267Y2093214D01*
Y2088527D01*
X1795204Y2084778D01*
X1796141Y2082903D01*
X1797079Y2081965D01*
X1798954Y2081028D01*
X1800828D01*
X1802703Y2081965D01*
X1803640Y2082903D01*
X1804578Y2084778D01*
X1805515Y2088527D01*
Y2093214D01*
X1804578Y2096963D01*
X1803640Y2098838D01*
X1802703Y2099776D01*
X1800828Y2100713D01*
X1691998Y907800D02*
X1680750D01*
X1686374Y888115D02*
Y907800D01*
X1674188Y888115D02*
Y907800D01*
X1666689D01*
X1664814Y906862D01*
X1663877Y905925D01*
X1662939Y904050D01*
Y901238D01*
X1663877Y899363D01*
X1664814Y898426D01*
X1666689Y897488D01*
X1674188D01*
X1651691Y899363D02*
X1653565Y900301D01*
X1654503Y901238D01*
X1655440Y903113D01*
Y904050D01*
X1654503Y905925D01*
X1653565Y906862D01*
X1651691Y907800D01*
X1647941D01*
X1646066Y906862D01*
X1645129Y905925D01*
X1644192Y904050D01*
Y903113D01*
X1645129Y901238D01*
X1646066Y900301D01*
X1647941Y899363D01*
X1651691D01*
X1653565Y898426D01*
X1654503Y897488D01*
X1655440Y895614D01*
Y891864D01*
X1654503Y889989D01*
X1653565Y889052D01*
X1651691Y888115D01*
X1647941D01*
X1646066Y889052D01*
X1645129Y889989D01*
X1644192Y891864D01*
Y895614D01*
X1645129Y897488D01*
X1646066Y898426D01*
X1647941Y899363D01*
X3772238Y2102681D02*
X3760989D01*
X3766614Y2082996D02*
Y2102681D01*
X3754428Y2082996D02*
Y2102681D01*
X3746929D01*
X3745054Y2101744D01*
X3744117Y2100807D01*
X3743179Y2098932D01*
Y2096120D01*
X3744117Y2094245D01*
X3745054Y2093308D01*
X3746929Y2092370D01*
X3754428D01*
X3735680Y2100807D02*
X3734743Y2101744D01*
X3732868Y2102681D01*
X3728181D01*
X3726306Y2101744D01*
X3725369Y2100807D01*
X3724431Y2098932D01*
Y2097057D01*
X3725369Y2094245D01*
X3736618Y2082996D01*
X3724431D01*
X3713183Y2094245D02*
X3715058Y2095182D01*
X3715995Y2096120D01*
X3716932Y2097995D01*
Y2098932D01*
X3715995Y2100807D01*
X3715058Y2101744D01*
X3713183Y2102681D01*
X3709433D01*
X3707559Y2101744D01*
X3706621Y2100807D01*
X3705684Y2098932D01*
Y2097995D01*
X3706621Y2096120D01*
X3707559Y2095182D01*
X3709433Y2094245D01*
X3713183D01*
X3715058Y2093308D01*
X3715995Y2092370D01*
X3716932Y2090496D01*
Y2086746D01*
X3715995Y2084871D01*
X3715058Y2083934D01*
X3713183Y2082996D01*
X3709433D01*
X3707559Y2083934D01*
X3706621Y2084871D01*
X3705684Y2086746D01*
Y2090496D01*
X3706621Y2092370D01*
X3707559Y2093308D01*
X3709433Y2094245D01*
X6169876Y3110556D02*
X6158627D01*
X6164252Y3090870D02*
Y3110556D01*
X6152066Y3090870D02*
Y3110556D01*
X6144567D01*
X6142692Y3109618D01*
X6141754Y3108681D01*
X6140817Y3106806D01*
Y3103994D01*
X6141754Y3102119D01*
X6142692Y3101182D01*
X6144567Y3100244D01*
X6152066D01*
X6133318Y3108681D02*
X6132381Y3109618D01*
X6130506Y3110556D01*
X6125819D01*
X6123944Y3109618D01*
X6123007Y3108681D01*
X6122069Y3106806D01*
Y3104931D01*
X6123007Y3102119D01*
X6134255Y3090870D01*
X6122069D01*
X6114570Y3108681D02*
X6113633Y3109618D01*
X6111758Y3110556D01*
X6107071D01*
X6105196Y3109618D01*
X6104259Y3108681D01*
X6103322Y3106806D01*
Y3104931D01*
X6104259Y3102119D01*
X6115508Y3090870D01*
X6103322D01*
X4423813Y1923548D02*
X4412564D01*
X4418189Y1903863D02*
Y1923548D01*
X4406003Y1903863D02*
Y1923548D01*
X4398504D01*
X4396629Y1922610D01*
X4395691Y1921673D01*
X4394754Y1919798D01*
Y1916986D01*
X4395691Y1915111D01*
X4396629Y1914174D01*
X4398504Y1913236D01*
X4406003D01*
X4388192Y1923548D02*
X4376006D01*
X4382568Y1916049D01*
X4379756D01*
X4377881Y1915111D01*
X4376944Y1914174D01*
X4376006Y1912299D01*
Y1907612D01*
X4376944Y1905737D01*
X4377881Y1904800D01*
X4379756Y1903863D01*
X4385380D01*
X4387255Y1904800D01*
X4388192Y1905737D01*
X4359133Y1923548D02*
X4362883D01*
X4364758Y1922610D01*
X4365695Y1921673D01*
X4367570Y1918861D01*
X4368507Y1915111D01*
Y1907612D01*
X4367570Y1905737D01*
X4366632Y1904800D01*
X4364758Y1903863D01*
X4361008D01*
X4359133Y1904800D01*
X4358196Y1905737D01*
X4357259Y1907612D01*
Y1912299D01*
X4358196Y1914174D01*
X4359133Y1915111D01*
X4361008Y1916049D01*
X4364758D01*
X4366632Y1915111D01*
X4367570Y1914174D01*
X4368507Y1912299D01*
X5556905Y2368272D02*
X5545656D01*
X5551280Y2348587D02*
Y2368272D01*
X5539094Y2348587D02*
Y2368272D01*
X5531595D01*
X5529720Y2367335D01*
X5528783Y2366397D01*
X5527846Y2364523D01*
Y2361710D01*
X5528783Y2359836D01*
X5529720Y2358898D01*
X5531595Y2357961D01*
X5539094D01*
X5520347Y2366397D02*
X5519409Y2367335D01*
X5517535Y2368272D01*
X5512848D01*
X5510973Y2367335D01*
X5510035Y2366397D01*
X5509098Y2364523D01*
Y2362648D01*
X5510035Y2359836D01*
X5521284Y2348587D01*
X5509098D01*
X5490350D02*
X5501599D01*
X5495975D02*
Y2368272D01*
X5497850Y2365460D01*
X5499724Y2363585D01*
X5501599Y2362648D01*
X2698608Y455044D02*
X2687360D01*
X2692984Y435359D02*
Y455044D01*
X2680798Y435359D02*
Y455044D01*
X2673299D01*
X2671424Y454106D01*
X2670487Y453169D01*
X2669550Y451294D01*
Y448482D01*
X2670487Y446607D01*
X2671424Y445670D01*
X2673299Y444732D01*
X2680798D01*
X2650802Y435359D02*
X2662050D01*
X2656426D02*
Y455044D01*
X2658301Y452232D01*
X2660176Y450357D01*
X2662050Y449419D01*
X2632054Y435359D02*
X2643303D01*
X2637679D02*
Y455044D01*
X2639553Y452232D01*
X2641428Y450357D01*
X2643303Y449419D01*
X1148222Y1035752D02*
X1136974D01*
X1142598Y1016067D02*
Y1035752D01*
X1130412Y1016067D02*
Y1035752D01*
X1122913D01*
X1121038Y1034815D01*
X1120101Y1033878D01*
X1119163Y1032003D01*
Y1029191D01*
X1120101Y1027316D01*
X1121038Y1026379D01*
X1122913Y1025441D01*
X1130412D01*
X1100416Y1016067D02*
X1111664D01*
X1106040D02*
Y1035752D01*
X1107915Y1032940D01*
X1109790Y1031065D01*
X1111664Y1030128D01*
X1083543Y1029191D02*
Y1016067D01*
X1088230Y1036690D02*
X1092917Y1022629D01*
X1080731D01*
X3305703Y1802485D02*
X3294454D01*
X3300078Y1782800D02*
Y1802485D01*
X3287892Y1782800D02*
Y1802485D01*
X3280393D01*
X3278519Y1801547D01*
X3277581Y1800610D01*
X3276644Y1798735D01*
Y1795923D01*
X3277581Y1794048D01*
X3278519Y1793111D01*
X3280393Y1792173D01*
X3287892D01*
X3269145Y1800610D02*
X3268207Y1801547D01*
X3266333Y1802485D01*
X3261646D01*
X3259771Y1801547D01*
X3258833Y1800610D01*
X3257896Y1798735D01*
Y1796860D01*
X3258833Y1794048D01*
X3270082Y1782800D01*
X3257896D01*
X3248522D02*
X3244773D01*
X3242898Y1783737D01*
X3241961Y1784674D01*
X3240086Y1787487D01*
X3239148Y1791236D01*
Y1798735D01*
X3240086Y1800610D01*
X3241023Y1801547D01*
X3242898Y1802485D01*
X3246648D01*
X3248522Y1801547D01*
X3249460Y1800610D01*
X3250397Y1798735D01*
Y1794048D01*
X3249460Y1792173D01*
X3248522Y1791236D01*
X3246648Y1790299D01*
X3242898D01*
X3241023Y1791236D01*
X3240086Y1792173D01*
X3239148Y1794048D01*
X3644285Y2021973D02*
X3633037D01*
X3638661Y2002288D02*
Y2021973D01*
X3626475Y2002288D02*
Y2021973D01*
X3618976D01*
X3617101Y2021035D01*
X3616164Y2020098D01*
X3615226Y2018223D01*
Y2015411D01*
X3616164Y2013536D01*
X3617101Y2012599D01*
X3618976Y2011662D01*
X3626475D01*
X3608665Y2021973D02*
X3596479D01*
X3603040Y2014474D01*
X3600228D01*
X3598354Y2013536D01*
X3597416Y2012599D01*
X3596479Y2010724D01*
Y2006037D01*
X3597416Y2004163D01*
X3598354Y2003225D01*
X3600228Y2002288D01*
X3605853D01*
X3607727Y2003225D01*
X3608665Y2004163D01*
X3578669Y2021973D02*
X3588042D01*
X3588980Y2012599D01*
X3588042Y2013536D01*
X3586168Y2014474D01*
X3581481D01*
X3579606Y2013536D01*
X3578669Y2012599D01*
X3577731Y2010724D01*
Y2006037D01*
X3578669Y2004163D01*
X3579606Y2003225D01*
X3581481Y2002288D01*
X3586168D01*
X3588042Y2003225D01*
X3588980Y2004163D01*
X1744164Y2094807D02*
X1732915D01*
X1738540Y2075122D02*
Y2094807D01*
X1726354Y2075122D02*
Y2094807D01*
X1718855D01*
X1716980Y2093870D01*
X1716042Y2092933D01*
X1715105Y2091058D01*
Y2088246D01*
X1716042Y2086371D01*
X1716980Y2085434D01*
X1718855Y2084496D01*
X1726354D01*
X1708543Y2094807D02*
X1696357D01*
X1702919Y2087308D01*
X1700107D01*
X1698232Y2086371D01*
X1697295Y2085434D01*
X1696357Y2083559D01*
Y2078872D01*
X1697295Y2076997D01*
X1698232Y2076060D01*
X1700107Y2075122D01*
X1705731D01*
X1707606Y2076060D01*
X1708543Y2076997D01*
X1686984Y2075122D02*
X1683234D01*
X1681359Y2076060D01*
X1680422Y2076997D01*
X1678547Y2079809D01*
X1677610Y2083559D01*
Y2091058D01*
X1678547Y2092933D01*
X1679485Y2093870D01*
X1681359Y2094807D01*
X1685109D01*
X1686984Y2093870D01*
X1687921Y2092933D01*
X1688858Y2091058D01*
Y2086371D01*
X1687921Y2084496D01*
X1686984Y2083559D01*
X1685109Y2082622D01*
X1681359D01*
X1679485Y2083559D01*
X1678547Y2084496D01*
X1677610Y2086371D01*
X5776175Y1738508D02*
X5764926D01*
X5770551Y1718823D02*
Y1738508D01*
X5758365Y1718823D02*
Y1738508D01*
X5750866D01*
X5748991Y1737571D01*
X5748054Y1736634D01*
X5747116Y1734759D01*
Y1731947D01*
X5748054Y1730072D01*
X5748991Y1729134D01*
X5750866Y1728197D01*
X5758365D01*
X5730243Y1731947D02*
Y1718823D01*
X5734930Y1739446D02*
X5739617Y1725385D01*
X5727431D01*
X5721807Y1738508D02*
X5709621D01*
X5716183Y1731009D01*
X5713370D01*
X5711496Y1730072D01*
X5710558Y1729134D01*
X5709621Y1727260D01*
Y1722573D01*
X5710558Y1720698D01*
X5711496Y1719761D01*
X5713370Y1718823D01*
X5718995D01*
X5720869Y1719761D01*
X5721807Y1720698D01*
X3441806Y2007636D02*
X3430558D01*
X3436182Y1987951D02*
Y2007636D01*
X3423996Y1987951D02*
Y2007636D01*
X3416497D01*
X3414622Y2006699D01*
X3413685Y2005761D01*
X3412747Y2003887D01*
Y2001074D01*
X3413685Y1999200D01*
X3414622Y1998262D01*
X3416497Y1997325D01*
X3423996D01*
X3406186Y2007636D02*
X3394000D01*
X3400561Y2000137D01*
X3397749D01*
X3395875Y1999200D01*
X3394937Y1998262D01*
X3394000Y1996388D01*
Y1991701D01*
X3394937Y1989826D01*
X3395875Y1988888D01*
X3397749Y1987951D01*
X3403374D01*
X3405248Y1988888D01*
X3406186Y1989826D01*
X3381814Y2007636D02*
X3379939D01*
X3378064Y2006699D01*
X3377127Y2005761D01*
X3376189Y2003887D01*
X3375252Y2000137D01*
Y1995450D01*
X3376189Y1991701D01*
X3377127Y1989826D01*
X3378064Y1988888D01*
X3379939Y1987951D01*
X3381814D01*
X3383689Y1988888D01*
X3384626Y1989826D01*
X3385563Y1991701D01*
X3386501Y1995450D01*
Y2000137D01*
X3385563Y2003887D01*
X3384626Y2005761D01*
X3383689Y2006699D01*
X3381814Y2007636D01*
X6764364Y1809374D02*
X6753115D01*
X6758740Y1789689D02*
Y1809374D01*
X6746554Y1789689D02*
Y1809374D01*
X6739055D01*
X6737180Y1808437D01*
X6736243Y1807500D01*
X6735305Y1805625D01*
Y1802813D01*
X6736243Y1800938D01*
X6737180Y1800001D01*
X6739055Y1799063D01*
X6746554D01*
X6727806Y1807500D02*
X6726869Y1808437D01*
X6724994Y1809374D01*
X6720307D01*
X6718432Y1808437D01*
X6717495Y1807500D01*
X6716557Y1805625D01*
Y1803750D01*
X6717495Y1800938D01*
X6728744Y1789689D01*
X6716557D01*
X6699685Y1802813D02*
Y1789689D01*
X6704372Y1810312D02*
X6709058Y1796251D01*
X6696873D01*
X2104915Y2144020D02*
X2093667D01*
X2099291Y2124335D02*
Y2144020D01*
X2087105Y2124335D02*
Y2144020D01*
X2079606D01*
X2077731Y2143083D01*
X2076794Y2142145D01*
X2075856Y2140271D01*
Y2137458D01*
X2076794Y2135584D01*
X2077731Y2134646D01*
X2079606Y2133709D01*
X2087105D01*
X2069295Y2144020D02*
X2057109D01*
X2063670Y2136521D01*
X2060858D01*
X2058983Y2135584D01*
X2058046Y2134646D01*
X2057109Y2132772D01*
Y2128085D01*
X2058046Y2126210D01*
X2058983Y2125272D01*
X2060858Y2124335D01*
X2066482D01*
X2068357Y2125272D01*
X2069295Y2126210D01*
X2045860Y2135584D02*
X2047735Y2136521D01*
X2048672Y2137458D01*
X2049610Y2139333D01*
Y2140271D01*
X2048672Y2142145D01*
X2047735Y2143083D01*
X2045860Y2144020D01*
X2042111D01*
X2040236Y2143083D01*
X2039298Y2142145D01*
X2038361Y2140271D01*
Y2139333D01*
X2039298Y2137458D01*
X2040236Y2136521D01*
X2042111Y2135584D01*
X2045860D01*
X2047735Y2134646D01*
X2048672Y2133709D01*
X2049610Y2131834D01*
Y2128085D01*
X2048672Y2126210D01*
X2047735Y2125272D01*
X2045860Y2124335D01*
X2042111D01*
X2040236Y2125272D01*
X2039298Y2126210D01*
X2038361Y2128085D01*
Y2131834D01*
X2039298Y2133709D01*
X2040236Y2134646D01*
X2042111Y2135584D01*
X6303734Y1567248D02*
X6292486D01*
X6298110Y1547563D02*
Y1567248D01*
X6285924Y1547563D02*
Y1567248D01*
X6278425D01*
X6276550Y1566311D01*
X6275613Y1565374D01*
X6274675Y1563499D01*
Y1560687D01*
X6275613Y1558812D01*
X6276550Y1557875D01*
X6278425Y1556937D01*
X6285924D01*
X6267176Y1565374D02*
X6266239Y1566311D01*
X6264364Y1567248D01*
X6259677D01*
X6257802Y1566311D01*
X6256865Y1565374D01*
X6255928Y1563499D01*
Y1561624D01*
X6256865Y1558812D01*
X6268114Y1547563D01*
X6255928D01*
X6249366Y1567248D02*
X6237180D01*
X6243742Y1559749D01*
X6240930D01*
X6239055Y1558812D01*
X6238117Y1557875D01*
X6237180Y1556000D01*
Y1551313D01*
X6238117Y1549438D01*
X6239055Y1548501D01*
X6240930Y1547563D01*
X6246554D01*
X6248429Y1548501D01*
X6249366Y1549438D01*
X2581762Y2577091D02*
X2570513D01*
X2576138Y2557406D02*
Y2577091D01*
X2563952Y2557406D02*
Y2577091D01*
X2556453D01*
X2554578Y2576154D01*
X2553640Y2575216D01*
X2552703Y2573341D01*
Y2570529D01*
X2553640Y2568655D01*
X2554578Y2567717D01*
X2556453Y2566780D01*
X2563952D01*
X2546141Y2577091D02*
X2533955D01*
X2540517Y2569592D01*
X2537705D01*
X2535830Y2568655D01*
X2534893Y2567717D01*
X2533955Y2565842D01*
Y2561156D01*
X2534893Y2559281D01*
X2535830Y2558343D01*
X2537705Y2557406D01*
X2543329D01*
X2545204Y2558343D01*
X2546141Y2559281D01*
X2539955Y1447170D02*
X2528706D01*
X2534330Y1427485D02*
Y1447170D01*
X2522144Y1427485D02*
Y1447170D01*
X2514645D01*
X2512770Y1446232D01*
X2511833Y1445295D01*
X2510896Y1443420D01*
Y1440608D01*
X2511833Y1438733D01*
X2512770Y1437796D01*
X2514645Y1436858D01*
X2522144D01*
X2492148Y1427485D02*
X2503397D01*
X2497772D02*
Y1447170D01*
X2499647Y1444358D01*
X2501522Y1442483D01*
X2503397Y1441545D01*
X2485586Y1447170D02*
X2473400D01*
X2479962Y1439671D01*
X2477150D01*
X2475275Y1438733D01*
X2474338Y1437796D01*
X2473400Y1435921D01*
Y1431234D01*
X2474338Y1429359D01*
X2475275Y1428422D01*
X2477150Y1427485D01*
X2482774D01*
X2484649Y1428422D01*
X2485586Y1429359D01*
X1949872Y2614493D02*
X1938624D01*
X1944248Y2594807D02*
Y2614493D01*
X1932062Y2594807D02*
Y2614493D01*
X1924563D01*
X1922688Y2613555D01*
X1921751Y2612618D01*
X1920813Y2610743D01*
Y2607931D01*
X1921751Y2606056D01*
X1922688Y2605119D01*
X1924563Y2604181D01*
X1932062D01*
X1903940Y2607931D02*
Y2594807D01*
X1908627Y2615430D02*
X1913314Y2601369D01*
X1901128D01*
X2823001Y1495442D02*
X2822510Y1490818D01*
X2821057Y1486402D01*
X2818708Y1482389D01*
X2815567Y1478961D01*
X2811776Y1476269D01*
X2807503Y1474435D01*
X2802941Y1473540D01*
X2798292Y1473625D01*
X2793765Y1474686D01*
X2789563Y1476675D01*
X2785872Y1479503D01*
X2782859Y1483044D01*
X2780658Y1487140D01*
X2779367Y1491606D01*
X2779030Y1495442D01*
X2779522Y1500065D01*
X2780975Y1504482D01*
X2783324Y1508494D01*
X2786464Y1511923D01*
X2790256Y1514614D01*
X2794528Y1516448D01*
X2799091Y1517343D01*
X2803739Y1517258D01*
X2808266Y1516197D01*
X2812469Y1514209D01*
X2816159Y1511380D01*
X2819173Y1507839D01*
X2821374Y1503744D01*
X2822664Y1499277D01*
X2823001Y1495442D01*
X6273789Y1420048D02*
X6273297Y1415425D01*
X6271844Y1411008D01*
X6269495Y1406996D01*
X6266355Y1403567D01*
X6262563Y1400875D01*
X6258291Y1399041D01*
X6253728Y1398147D01*
X6249080Y1398232D01*
X6244553Y1399292D01*
X6240350Y1401281D01*
X6236659Y1404109D01*
X6233646Y1407650D01*
X6231445Y1411746D01*
X6230155Y1416213D01*
X6229817Y1420048D01*
X6230309Y1424671D01*
X6231762Y1429088D01*
X6234111Y1433100D01*
X6237252Y1436529D01*
X6241043Y1439221D01*
X6245315Y1441055D01*
X6249878Y1441949D01*
X6254527Y1441864D01*
X6259054Y1440804D01*
X6263256Y1438815D01*
X6266947Y1435987D01*
X6269960Y1432446D01*
X6272161Y1428350D01*
X6273452Y1423883D01*
X6273789Y1420048D01*
X2639931Y1948198D02*
X2639439Y1943574D01*
X2637986Y1939157D01*
X2635637Y1935145D01*
X2632496Y1931717D01*
X2628705Y1929025D01*
X2624433Y1927191D01*
X2619870Y1926296D01*
X2615221Y1926381D01*
X2610694Y1927442D01*
X2606492Y1929431D01*
X2602801Y1932259D01*
X2599788Y1935800D01*
X2597587Y1939895D01*
X2596296Y1944362D01*
X2595959Y1948198D01*
X2596451Y1952821D01*
X2597904Y1957238D01*
X2600253Y1961250D01*
X2603393Y1964679D01*
X2607185Y1967370D01*
X2611457Y1969204D01*
X2616020Y1970099D01*
X2620669Y1970014D01*
X2625195Y1968953D01*
X2629398Y1966964D01*
X2633089Y1964136D01*
X2636102Y1960595D01*
X2638303Y1956500D01*
X2639594Y1952033D01*
X2639931Y1948198D01*
X931269Y1497410D02*
X930778Y1492787D01*
X929325Y1488370D01*
X926975Y1484358D01*
X923835Y1480929D01*
X920044Y1478238D01*
X915771Y1476404D01*
X911209Y1475509D01*
X906560Y1475594D01*
X902033Y1476655D01*
X897830Y1478643D01*
X894140Y1481472D01*
X891127Y1485013D01*
X888925Y1489108D01*
X887635Y1493575D01*
X887298Y1497410D01*
X887789Y1502034D01*
X889242Y1506450D01*
X891592Y1510463D01*
X894732Y1513891D01*
X898523Y1516583D01*
X902796Y1518417D01*
X907358Y1519312D01*
X912007Y1519227D01*
X916534Y1518166D01*
X920737Y1516177D01*
X924427Y1513349D01*
X927440Y1509808D01*
X929641Y1505712D01*
X930932Y1501246D01*
X931269Y1497410D01*
X3710797Y1969851D02*
X3710305Y1965228D01*
X3708852Y1960811D01*
X3706503Y1956799D01*
X3703363Y1953370D01*
X3699571Y1950679D01*
X3695299Y1948844D01*
X3690736Y1947950D01*
X3686087Y1948035D01*
X3681560Y1949095D01*
X3677358Y1951084D01*
X3673667Y1953913D01*
X3670654Y1957454D01*
X3668453Y1961549D01*
X3667162Y1966016D01*
X3666825Y1969851D01*
X3667317Y1974475D01*
X3668770Y1978891D01*
X3671119Y1982904D01*
X3674260Y1986332D01*
X3678051Y1989024D01*
X3682323Y1990858D01*
X3686886Y1991752D01*
X3691535Y1991668D01*
X3696062Y1990607D01*
X3700264Y1988618D01*
X3703955Y1985790D01*
X3706968Y1982249D01*
X3709169Y1978153D01*
X3710460Y1973687D01*
X3710797Y1969851D01*
X1506072Y1400954D02*
X1505581Y1396330D01*
X1504128Y1391913D01*
X1501779Y1387901D01*
X1498638Y1384472D01*
X1494847Y1381781D01*
X1490574Y1379947D01*
X1486012Y1379052D01*
X1481363Y1379137D01*
X1476836Y1380198D01*
X1472633Y1382187D01*
X1468943Y1385015D01*
X1465930Y1388556D01*
X1463729Y1392651D01*
X1462438Y1397118D01*
X1462101Y1400954D01*
X1462593Y1405577D01*
X1464045Y1409994D01*
X1466395Y1414006D01*
X1469535Y1417435D01*
X1473326Y1420126D01*
X1477599Y1421960D01*
X1482162Y1422855D01*
X1486810Y1422770D01*
X1491337Y1421709D01*
X1495540Y1419720D01*
X1499230Y1416892D01*
X1502244Y1413351D01*
X1504445Y1409256D01*
X1505735Y1404789D01*
X1506072Y1400954D01*
X5699338Y1786780D02*
X5698847Y1782157D01*
X5697394Y1777740D01*
X5695045Y1773728D01*
X5691904Y1770299D01*
X5688113Y1767608D01*
X5683840Y1765774D01*
X5679278Y1764879D01*
X5674629Y1764964D01*
X5670102Y1766025D01*
X5665899Y1768013D01*
X5662209Y1770842D01*
X5659196Y1774383D01*
X5656995Y1778478D01*
X5655704Y1782945D01*
X5655367Y1786780D01*
X5655859Y1791404D01*
X5657312Y1795820D01*
X5659661Y1799833D01*
X5662801Y1803261D01*
X5666592Y1805953D01*
X5670865Y1807787D01*
X5675428Y1808682D01*
X5680076Y1808597D01*
X5684603Y1807536D01*
X5688806Y1805547D01*
X5692496Y1802719D01*
X5695510Y1799178D01*
X5697711Y1795082D01*
X5699001Y1790616D01*
X5699338Y1786780D01*
X4031663Y1877331D02*
X4031171Y1872708D01*
X4029718Y1868291D01*
X4027369Y1864279D01*
X4024229Y1860850D01*
X4020437Y1858159D01*
X4016165Y1856325D01*
X4011602Y1855430D01*
X4006954Y1855515D01*
X4002427Y1856576D01*
X3998224Y1858565D01*
X3994533Y1861393D01*
X3991520Y1864934D01*
X3989319Y1869029D01*
X3988029Y1873496D01*
X3987691Y1877331D01*
X3988183Y1881955D01*
X3989636Y1886372D01*
X3991985Y1890384D01*
X3995126Y1893813D01*
X3998917Y1896504D01*
X4003189Y1898338D01*
X4007752Y1899233D01*
X4012401Y1899148D01*
X4016928Y1898087D01*
X4021130Y1896098D01*
X4024821Y1893270D01*
X4027834Y1889729D01*
X4030035Y1885634D01*
X4031326Y1881167D01*
X4031663Y1877331D01*
X2023789Y2178020D02*
X2023297Y2173397D01*
X2021844Y2168980D01*
X2019495Y2164968D01*
X2016355Y2161539D01*
X2012563Y2158848D01*
X2008291Y2157014D01*
X2003728Y2156119D01*
X1999080Y2156204D01*
X1994553Y2157265D01*
X1990350Y2159254D01*
X1986659Y2162082D01*
X1983646Y2165623D01*
X1981445Y2169718D01*
X1980155Y2174185D01*
X1979817Y2178020D01*
X1980309Y2182644D01*
X1981762Y2187061D01*
X1984111Y2191073D01*
X1987252Y2194502D01*
X1991043Y2197193D01*
X1995315Y2199027D01*
X1999878Y2199922D01*
X2004527Y2199837D01*
X2009054Y2198776D01*
X2013256Y2196787D01*
X2016947Y2193959D01*
X2019960Y2190418D01*
X2022161Y2186323D01*
X2023452Y2181856D01*
X2023789Y2178020D01*
X6397805Y1420639D02*
X6397313Y1416015D01*
X6395860Y1411598D01*
X6393511Y1407586D01*
X6390370Y1404157D01*
X6386579Y1401466D01*
X6382307Y1399632D01*
X6377744Y1398737D01*
X6373095Y1398822D01*
X6368568Y1399883D01*
X6364366Y1401872D01*
X6360675Y1404700D01*
X6357662Y1408241D01*
X6355461Y1412336D01*
X6354170Y1416803D01*
X6353833Y1420639D01*
X6354325Y1425262D01*
X6355778Y1429679D01*
X6358127Y1433691D01*
X6361267Y1437120D01*
X6365059Y1439811D01*
X6369331Y1441645D01*
X6373894Y1442540D01*
X6378543Y1442455D01*
X6383069Y1441394D01*
X6387272Y1439405D01*
X6390963Y1436577D01*
X6393976Y1433036D01*
X6396177Y1428941D01*
X6397468Y1424474D01*
X6397805Y1420639D01*
X2931269Y479694D02*
X2930778Y475070D01*
X2929325Y470654D01*
X2926975Y466641D01*
X2923835Y463213D01*
X2920044Y460521D01*
X2915771Y458687D01*
X2911209Y457792D01*
X2906560Y457877D01*
X2902033Y458938D01*
X2897830Y460927D01*
X2894140Y463755D01*
X2891127Y467296D01*
X2888925Y471392D01*
X2887635Y475858D01*
X2887298Y479694D01*
X2887789Y484317D01*
X2889242Y488734D01*
X2891592Y492746D01*
X2894732Y496175D01*
X2898523Y498866D01*
X2902796Y500700D01*
X2907358Y501595D01*
X2912007Y501510D01*
X2916534Y500449D01*
X2920737Y498461D01*
X2924427Y495632D01*
X2927440Y492091D01*
X2929641Y487996D01*
X2930932Y483529D01*
X2931269Y479694D01*
X931269Y1408828D02*
X930778Y1404204D01*
X929325Y1399787D01*
X926975Y1395775D01*
X923835Y1392346D01*
X920044Y1389655D01*
X915771Y1387821D01*
X911209Y1386926D01*
X906560Y1387011D01*
X902033Y1388072D01*
X897830Y1390061D01*
X894140Y1392889D01*
X891127Y1396430D01*
X888925Y1400525D01*
X887635Y1404992D01*
X887298Y1408828D01*
X887789Y1413451D01*
X889242Y1417868D01*
X891592Y1421880D01*
X894732Y1425309D01*
X898523Y1428000D01*
X902796Y1429834D01*
X907358Y1430729D01*
X912007Y1430644D01*
X916534Y1429583D01*
X920737Y1427594D01*
X924427Y1424766D01*
X927440Y1421225D01*
X929641Y1417130D01*
X930932Y1412663D01*
X931269Y1408828D01*
X1876151Y591898D02*
X1875659Y587275D01*
X1874206Y582858D01*
X1871857Y578846D01*
X1868717Y575417D01*
X1864926Y572726D01*
X1860653Y570892D01*
X1856090Y569997D01*
X1851442Y570082D01*
X1846915Y571143D01*
X1842712Y573132D01*
X1839022Y575960D01*
X1836008Y579501D01*
X1833807Y583596D01*
X1832517Y588063D01*
X1832180Y591898D01*
X1832671Y596522D01*
X1834124Y600939D01*
X1836473Y604951D01*
X1839614Y608380D01*
X1843405Y611071D01*
X1847678Y612905D01*
X1852240Y613800D01*
X1856889Y613715D01*
X1861416Y612654D01*
X1865619Y610665D01*
X1869309Y607837D01*
X1872322Y604296D01*
X1874523Y600201D01*
X1875814Y595734D01*
X1876151Y591898D01*
X1399773Y914733D02*
X1399281Y910110D01*
X1397829Y905693D01*
X1395479Y901681D01*
X1392339Y898252D01*
X1388548Y895560D01*
X1384275Y893726D01*
X1379713Y892832D01*
X1375064Y892917D01*
X1370537Y893977D01*
X1366334Y895966D01*
X1362644Y898794D01*
X1359631Y902335D01*
X1357429Y906431D01*
X1356139Y910898D01*
X1355802Y914733D01*
X1356293Y919356D01*
X1357746Y923773D01*
X1360095Y927786D01*
X1363236Y931214D01*
X1367027Y933906D01*
X1371300Y935740D01*
X1375862Y936634D01*
X1380511Y936549D01*
X1385038Y935489D01*
X1389241Y933500D01*
X1392931Y930672D01*
X1395944Y927131D01*
X1398145Y923035D01*
X1399436Y918568D01*
X1399773Y914733D01*
X5647805Y1591898D02*
X5647313Y1587275D01*
X5645860Y1582858D01*
X5643511Y1578846D01*
X5640370Y1575417D01*
X5636579Y1572726D01*
X5632307Y1570892D01*
X5627744Y1569997D01*
X5623095Y1570082D01*
X5618568Y1571143D01*
X5614366Y1573132D01*
X5610675Y1575960D01*
X5607662Y1579501D01*
X5605461Y1583596D01*
X5604170Y1588063D01*
X5603833Y1591898D01*
X5604325Y1596522D01*
X5605778Y1600939D01*
X5608127Y1604951D01*
X5611267Y1608380D01*
X5615059Y1611071D01*
X5619331Y1612905D01*
X5623894Y1613800D01*
X5628543Y1613715D01*
X5633069Y1612654D01*
X5637272Y1610665D01*
X5640963Y1607837D01*
X5643976Y1604296D01*
X5646177Y1600201D01*
X5647468Y1595734D01*
X5647805Y1591898D01*
X5541505Y1593867D02*
X5541014Y1589244D01*
X5539561Y1584827D01*
X5537212Y1580814D01*
X5534071Y1577386D01*
X5530280Y1574694D01*
X5526007Y1572860D01*
X5521445Y1571966D01*
X5516796Y1572051D01*
X5512269Y1573111D01*
X5508066Y1575100D01*
X5504376Y1577928D01*
X5501363Y1581469D01*
X5499162Y1585565D01*
X5497871Y1590032D01*
X5497534Y1593867D01*
X5498026Y1598490D01*
X5499479Y1602907D01*
X5501828Y1606919D01*
X5504968Y1610348D01*
X5508759Y1613040D01*
X5513032Y1614874D01*
X5517595Y1615768D01*
X5522243Y1615683D01*
X5526770Y1614623D01*
X5530973Y1612634D01*
X5534663Y1609806D01*
X5537677Y1606265D01*
X5539878Y1602169D01*
X5541168Y1597702D01*
X5541505Y1593867D01*
X3551348Y1971820D02*
X3550856Y1967196D01*
X3549403Y1962780D01*
X3547054Y1958767D01*
X3543914Y1955339D01*
X3540122Y1952647D01*
X3535850Y1950813D01*
X3531287Y1949918D01*
X3526639Y1950003D01*
X3522112Y1951064D01*
X3517909Y1953053D01*
X3514219Y1955881D01*
X3511205Y1959422D01*
X3509004Y1963518D01*
X3507714Y1967984D01*
X3507376Y1971820D01*
X3507868Y1976443D01*
X3509321Y1980860D01*
X3511670Y1984872D01*
X3514811Y1988301D01*
X3518602Y1990992D01*
X3522875Y1992826D01*
X3527437Y1993721D01*
X3532086Y1993636D01*
X3536613Y1992575D01*
X3540815Y1990587D01*
X3544506Y1987758D01*
X3547519Y1984217D01*
X3549720Y1980122D01*
X3551011Y1975655D01*
X3551348Y1971820D01*
X4110403Y1733631D02*
X4109911Y1729007D01*
X4108458Y1724591D01*
X4106109Y1720578D01*
X4102969Y1717150D01*
X4099178Y1714458D01*
X4094905Y1712624D01*
X4090342Y1711729D01*
X4085694Y1711814D01*
X4081167Y1712875D01*
X4076964Y1714864D01*
X4073274Y1717692D01*
X4070260Y1721233D01*
X4068059Y1725329D01*
X4066769Y1729795D01*
X4066432Y1733631D01*
X4066923Y1738254D01*
X4068376Y1742671D01*
X4070725Y1746683D01*
X4073866Y1750112D01*
X4077657Y1752803D01*
X4081930Y1754637D01*
X4086492Y1755532D01*
X4091141Y1755447D01*
X4095668Y1754386D01*
X4099871Y1752398D01*
X4103561Y1749569D01*
X4106574Y1746028D01*
X4108775Y1741933D01*
X4110066Y1737466D01*
X4110403Y1733631D01*
X5425364Y2332056D02*
X5424872Y2327432D01*
X5423419Y2323016D01*
X5421070Y2319003D01*
X5417929Y2315575D01*
X5414138Y2312883D01*
X5409866Y2311049D01*
X5405303Y2310155D01*
X5400654Y2310240D01*
X5396127Y2311300D01*
X5391925Y2313289D01*
X5388234Y2316117D01*
X5385221Y2319658D01*
X5383020Y2323754D01*
X5381729Y2328221D01*
X5381392Y2332056D01*
X5381884Y2336679D01*
X5383337Y2341096D01*
X5385686Y2345108D01*
X5388826Y2348537D01*
X5392618Y2351229D01*
X5396890Y2353063D01*
X5401453Y2353957D01*
X5406102Y2353872D01*
X5410629Y2352812D01*
X5414831Y2350823D01*
X5418522Y2347995D01*
X5421535Y2344454D01*
X5423736Y2340358D01*
X5425027Y2335891D01*
X5425364Y2332056D01*
X2931269Y1048591D02*
X2930778Y1043968D01*
X2929325Y1039551D01*
X2926975Y1035539D01*
X2923835Y1032110D01*
X2920044Y1029419D01*
X2915771Y1027585D01*
X2911209Y1026690D01*
X2906560Y1026775D01*
X2902033Y1027836D01*
X2897830Y1029825D01*
X2894140Y1032653D01*
X2891127Y1036194D01*
X2888925Y1040289D01*
X2887635Y1044756D01*
X2887298Y1048591D01*
X2887789Y1053215D01*
X2889242Y1057631D01*
X2891592Y1061644D01*
X2894732Y1065072D01*
X2898523Y1067764D01*
X2902796Y1069598D01*
X2907358Y1070493D01*
X2912007Y1070408D01*
X2916534Y1069347D01*
X2920737Y1067358D01*
X2924427Y1064530D01*
X2927440Y1060989D01*
X2929641Y1056894D01*
X2930932Y1052427D01*
X2931269Y1048591D01*
X5358435Y1550560D02*
X5357943Y1545936D01*
X5356490Y1541520D01*
X5354141Y1537507D01*
X5351000Y1534079D01*
X5347209Y1531387D01*
X5342937Y1529553D01*
X5338374Y1528659D01*
X5333725Y1528744D01*
X5329198Y1529804D01*
X5324996Y1531793D01*
X5321305Y1534621D01*
X5318292Y1538162D01*
X5316091Y1542258D01*
X5314800Y1546725D01*
X5314463Y1550560D01*
X5314955Y1555183D01*
X5316408Y1559600D01*
X5318757Y1563612D01*
X5321897Y1567041D01*
X5325689Y1569732D01*
X5329961Y1571567D01*
X5334524Y1572461D01*
X5339172Y1572376D01*
X5343699Y1571316D01*
X5347902Y1569327D01*
X5351593Y1566499D01*
X5354606Y1562957D01*
X5356807Y1558862D01*
X5358097Y1554395D01*
X5358435Y1550560D01*
X1695049Y749379D02*
X1694557Y744755D01*
X1693104Y740339D01*
X1690755Y736326D01*
X1687614Y732898D01*
X1683823Y730206D01*
X1679551Y728372D01*
X1674988Y727477D01*
X1670339Y727562D01*
X1665812Y728623D01*
X1661610Y730612D01*
X1657919Y733440D01*
X1654906Y736981D01*
X1652705Y741077D01*
X1651414Y745543D01*
X1651077Y749379D01*
X1651569Y754002D01*
X1653022Y758419D01*
X1655371Y762431D01*
X1658512Y765860D01*
X1662303Y768551D01*
X1666575Y770385D01*
X1671138Y771280D01*
X1675787Y771195D01*
X1680314Y770134D01*
X1684516Y768146D01*
X1688207Y765317D01*
X1691220Y761776D01*
X1693421Y757681D01*
X1694712Y753214D01*
X1695049Y749379D01*
X6328907Y1696229D02*
X6328415Y1691606D01*
X6326962Y1687189D01*
X6324613Y1683177D01*
X6321473Y1679748D01*
X6317681Y1677056D01*
X6313409Y1675222D01*
X6308846Y1674328D01*
X6304198Y1674413D01*
X6299671Y1675473D01*
X6295468Y1677462D01*
X6291778Y1680290D01*
X6288764Y1683831D01*
X6286563Y1687927D01*
X6285273Y1692394D01*
X6284936Y1696229D01*
X6285427Y1700853D01*
X6286880Y1705269D01*
X6289229Y1709282D01*
X6292370Y1712710D01*
X6296161Y1715402D01*
X6300434Y1717236D01*
X6304996Y1718130D01*
X6309645Y1718045D01*
X6314172Y1716985D01*
X6318375Y1714996D01*
X6322065Y1712168D01*
X6325078Y1708627D01*
X6327279Y1704531D01*
X6328570Y1700064D01*
X6328907Y1696229D01*
X2623437Y922607D02*
X2622945Y917984D01*
X2621493Y913567D01*
X2619143Y909555D01*
X2616003Y906126D01*
X2612212Y903434D01*
X2607939Y901600D01*
X2603376Y900706D01*
X2598728Y900791D01*
X2594201Y901851D01*
X2589998Y903840D01*
X2586308Y906668D01*
X2583294Y910209D01*
X2581093Y914305D01*
X2579803Y918772D01*
X2579466Y922607D01*
X2579957Y927231D01*
X2581410Y931647D01*
X2583759Y935660D01*
X2586900Y939088D01*
X2590691Y941780D01*
X2594964Y943614D01*
X2599526Y944508D01*
X2604175Y944423D01*
X2608702Y943363D01*
X2612905Y941374D01*
X2616595Y938546D01*
X2619608Y935005D01*
X2621809Y930909D01*
X2623100Y926442D01*
X2623437Y922607D01*
X2939143Y2643080D02*
X2938652Y2638456D01*
X2937199Y2634039D01*
X2934849Y2630027D01*
X2931709Y2626598D01*
X2927918Y2623907D01*
X2923645Y2622073D01*
X2919083Y2621178D01*
X2914434Y2621263D01*
X2909907Y2622324D01*
X2905704Y2624313D01*
X2902014Y2627141D01*
X2899001Y2630682D01*
X2896800Y2634777D01*
X2895509Y2639244D01*
X2895172Y2643080D01*
X2895663Y2647703D01*
X2897116Y2652120D01*
X2899466Y2656132D01*
X2902606Y2659561D01*
X2906397Y2662252D01*
X2910670Y2664086D01*
X2915232Y2664981D01*
X2919881Y2664896D01*
X2924408Y2663835D01*
X2928611Y2661846D01*
X2932301Y2659018D01*
X2935314Y2655477D01*
X2937515Y2651382D01*
X2938806Y2646915D01*
X2939143Y2643080D01*
X1848592Y2056465D02*
X1848100Y2051842D01*
X1846647Y2047425D01*
X1844298Y2043413D01*
X1841158Y2039984D01*
X1837367Y2037293D01*
X1833094Y2035459D01*
X1828531Y2034564D01*
X1823883Y2034649D01*
X1819356Y2035710D01*
X1815153Y2037699D01*
X1811463Y2040527D01*
X1808449Y2044068D01*
X1806248Y2048163D01*
X1804958Y2052630D01*
X1804621Y2056465D01*
X1805112Y2061089D01*
X1806565Y2065506D01*
X1808914Y2069518D01*
X1812055Y2072946D01*
X1815846Y2075638D01*
X1820119Y2077472D01*
X1824681Y2078367D01*
X1829330Y2078282D01*
X1833857Y2077221D01*
X1838060Y2075232D01*
X1841750Y2072404D01*
X1844763Y2068863D01*
X1846964Y2064768D01*
X1848255Y2060301D01*
X1848592Y2056465D01*
X1689143Y861583D02*
X1688652Y856960D01*
X1687199Y852543D01*
X1684849Y848531D01*
X1681709Y845102D01*
X1677918Y842411D01*
X1673645Y840577D01*
X1669083Y839682D01*
X1664434Y839767D01*
X1659907Y840828D01*
X1655704Y842817D01*
X1652014Y845645D01*
X1649001Y849186D01*
X1646800Y853281D01*
X1645509Y857748D01*
X1645172Y861583D01*
X1645663Y866207D01*
X1647116Y870624D01*
X1649466Y874636D01*
X1652606Y878065D01*
X1656397Y880756D01*
X1660670Y882590D01*
X1665232Y883485D01*
X1669881Y883400D01*
X1674408Y882339D01*
X1678611Y880350D01*
X1682301Y877522D01*
X1685314Y873981D01*
X1687515Y869886D01*
X1688806Y865419D01*
X1689143Y861583D01*
X3760009Y2052528D02*
X3759518Y2047905D01*
X3758065Y2043488D01*
X3755716Y2039476D01*
X3752575Y2036047D01*
X3748784Y2033356D01*
X3744511Y2031522D01*
X3739949Y2030627D01*
X3735300Y2030712D01*
X3730773Y2031773D01*
X3726570Y2033762D01*
X3722880Y2036590D01*
X3719867Y2040131D01*
X3717666Y2044226D01*
X3716375Y2048693D01*
X3716038Y2052528D01*
X3716530Y2057152D01*
X3717982Y2061569D01*
X3720332Y2065581D01*
X3723472Y2069009D01*
X3727263Y2071701D01*
X3731536Y2073535D01*
X3736099Y2074430D01*
X3740747Y2074345D01*
X3745274Y2073284D01*
X3749477Y2071295D01*
X3753167Y2068467D01*
X3756181Y2064926D01*
X3758382Y2060831D01*
X3759672Y2056364D01*
X3760009Y2052528D01*
X6157647Y3062371D02*
X6157156Y3057747D01*
X6155703Y3053331D01*
X6153353Y3049318D01*
X6150213Y3045890D01*
X6146422Y3043198D01*
X6142149Y3041364D01*
X6137587Y3040470D01*
X6132938Y3040555D01*
X6128411Y3041615D01*
X6124208Y3043604D01*
X6120518Y3046432D01*
X6117505Y3049973D01*
X6115303Y3054069D01*
X6114013Y3058536D01*
X6113676Y3062371D01*
X6114167Y3066994D01*
X6115620Y3071411D01*
X6117969Y3075423D01*
X6121110Y3078852D01*
X6124901Y3081544D01*
X6129174Y3083378D01*
X6133736Y3084272D01*
X6138385Y3084187D01*
X6142912Y3083127D01*
X6147115Y3081138D01*
X6150805Y3078310D01*
X6153818Y3074769D01*
X6156019Y3070673D01*
X6157310Y3066206D01*
X6157647Y3062371D01*
X4411584Y1873394D02*
X4411093Y1868771D01*
X4409640Y1864354D01*
X4407290Y1860342D01*
X4404150Y1856913D01*
X4400359Y1854222D01*
X4396086Y1852388D01*
X4391524Y1851493D01*
X4386875Y1851578D01*
X4382348Y1852639D01*
X4378145Y1854628D01*
X4374455Y1857456D01*
X4371442Y1860997D01*
X4369240Y1865092D01*
X4367950Y1869559D01*
X4367613Y1873394D01*
X4368104Y1878018D01*
X4369557Y1882435D01*
X4371906Y1886447D01*
X4375047Y1889876D01*
X4378838Y1892567D01*
X4383111Y1894401D01*
X4387673Y1895296D01*
X4392322Y1895211D01*
X4396849Y1894150D01*
X4401052Y1892161D01*
X4404742Y1889333D01*
X4407755Y1885792D01*
X4409956Y1881697D01*
X4411247Y1877230D01*
X4411584Y1873394D01*
X5544676Y2318119D02*
X5544184Y2313495D01*
X5542731Y2309079D01*
X5540382Y2305066D01*
X5537242Y2301638D01*
X5533450Y2298946D01*
X5529178Y2297112D01*
X5524615Y2296218D01*
X5519967Y2296303D01*
X5515440Y2297363D01*
X5511237Y2299352D01*
X5507546Y2302180D01*
X5504533Y2305721D01*
X5502332Y2309817D01*
X5501042Y2314284D01*
X5500704Y2318119D01*
X5501196Y2322742D01*
X5502649Y2327159D01*
X5504998Y2331171D01*
X5508139Y2334600D01*
X5511930Y2337292D01*
X5516202Y2339126D01*
X5520765Y2340020D01*
X5525414Y2339935D01*
X5529941Y2338875D01*
X5534143Y2336886D01*
X5537834Y2334058D01*
X5540847Y2330517D01*
X5543048Y2326421D01*
X5544339Y2321954D01*
X5544676Y2318119D01*
X2686380Y408828D02*
X2685888Y404204D01*
X2684435Y399787D01*
X2682086Y395775D01*
X2678945Y392346D01*
X2675154Y389655D01*
X2670882Y387821D01*
X2666319Y386926D01*
X2661670Y387011D01*
X2657143Y388072D01*
X2652941Y390061D01*
X2649250Y392889D01*
X2646237Y396430D01*
X2644036Y400525D01*
X2642745Y404992D01*
X2642408Y408828D01*
X2642900Y413451D01*
X2644353Y417868D01*
X2646702Y421880D01*
X2649843Y425309D01*
X2653634Y428000D01*
X2657906Y429834D01*
X2662469Y430729D01*
X2667118Y430644D01*
X2671645Y429583D01*
X2675847Y427594D01*
X2679538Y424766D01*
X2682551Y421225D01*
X2684752Y417130D01*
X2686043Y412663D01*
X2686380Y408828D01*
X1135994Y989536D02*
X1135502Y984913D01*
X1134049Y980496D01*
X1131700Y976484D01*
X1128559Y973055D01*
X1124768Y970364D01*
X1120496Y968530D01*
X1115933Y967635D01*
X1111284Y967720D01*
X1106757Y968781D01*
X1102555Y970769D01*
X1098864Y973598D01*
X1095851Y977139D01*
X1093650Y981234D01*
X1092359Y985701D01*
X1092022Y989536D01*
X1092514Y994160D01*
X1093967Y998576D01*
X1096316Y1002589D01*
X1099456Y1006017D01*
X1103248Y1008709D01*
X1107520Y1010543D01*
X1112083Y1011438D01*
X1116731Y1011353D01*
X1121258Y1010292D01*
X1125461Y1008303D01*
X1129152Y1005475D01*
X1132165Y1001934D01*
X1134366Y997838D01*
X1135656Y993372D01*
X1135994Y989536D01*
X3293474Y1752331D02*
X3292982Y1747708D01*
X3291529Y1743291D01*
X3289180Y1739279D01*
X3286040Y1735850D01*
X3282248Y1733159D01*
X3277976Y1731325D01*
X3273413Y1730430D01*
X3268765Y1730515D01*
X3264238Y1731576D01*
X3260035Y1733565D01*
X3256344Y1736393D01*
X3253331Y1739934D01*
X3251130Y1744029D01*
X3249840Y1748496D01*
X3249502Y1752331D01*
X3249994Y1756955D01*
X3251447Y1761372D01*
X3253796Y1765384D01*
X3256937Y1768813D01*
X3260728Y1771504D01*
X3265000Y1773338D01*
X3269563Y1774233D01*
X3274212Y1774148D01*
X3278739Y1773087D01*
X3282941Y1771098D01*
X3286632Y1768270D01*
X3289645Y1764729D01*
X3291846Y1760634D01*
X3293137Y1756167D01*
X3293474Y1752331D01*
X3632057Y1971820D02*
X3631565Y1967196D01*
X3630112Y1962780D01*
X3627763Y1958767D01*
X3624622Y1955339D01*
X3620831Y1952647D01*
X3616559Y1950813D01*
X3611996Y1949918D01*
X3607347Y1950003D01*
X3602820Y1951064D01*
X3598618Y1953053D01*
X3594927Y1955881D01*
X3591914Y1959422D01*
X3589713Y1963518D01*
X3588422Y1967984D01*
X3588085Y1971820D01*
X3588577Y1976443D01*
X3590030Y1980860D01*
X3592379Y1984872D01*
X3595519Y1988301D01*
X3599311Y1990992D01*
X3603583Y1992826D01*
X3608146Y1993721D01*
X3612794Y1993636D01*
X3617321Y1992575D01*
X3621524Y1990587D01*
X3625215Y1987758D01*
X3628228Y1984217D01*
X3630429Y1980122D01*
X3631719Y1975655D01*
X3632057Y1971820D01*
X1731935Y2050560D02*
X1731444Y2045936D01*
X1729991Y2041520D01*
X1727641Y2037507D01*
X1724501Y2034079D01*
X1720710Y2031387D01*
X1716437Y2029553D01*
X1711875Y2028659D01*
X1707226Y2028744D01*
X1702699Y2029804D01*
X1698496Y2031793D01*
X1694806Y2034621D01*
X1691793Y2038162D01*
X1689592Y2042258D01*
X1688301Y2046725D01*
X1687964Y2050560D01*
X1688455Y2055183D01*
X1689908Y2059600D01*
X1692258Y2063612D01*
X1695398Y2067041D01*
X1699189Y2069732D01*
X1703462Y2071567D01*
X1708024Y2072461D01*
X1712673Y2072376D01*
X1717200Y2071316D01*
X1721403Y2069327D01*
X1725093Y2066499D01*
X1728106Y2062957D01*
X1730307Y2058862D01*
X1731598Y2054395D01*
X1731935Y2050560D01*
X5763946Y1694261D02*
X5763455Y1689637D01*
X5762002Y1685220D01*
X5759653Y1681208D01*
X5756512Y1677780D01*
X5752721Y1675088D01*
X5748448Y1673254D01*
X5743886Y1672359D01*
X5739237Y1672444D01*
X5734710Y1673505D01*
X5730507Y1675494D01*
X5726817Y1678322D01*
X5723804Y1681863D01*
X5721603Y1685958D01*
X5720312Y1690425D01*
X5719975Y1694261D01*
X5720467Y1698884D01*
X5721919Y1703301D01*
X5724269Y1707313D01*
X5727409Y1710742D01*
X5731200Y1713433D01*
X5735473Y1715267D01*
X5740036Y1716162D01*
X5744684Y1716077D01*
X5749211Y1715016D01*
X5753414Y1713027D01*
X5757104Y1710199D01*
X5760118Y1706658D01*
X5762319Y1702563D01*
X5763609Y1698096D01*
X5763946Y1694261D01*
X3429578Y1957483D02*
X3429086Y1952860D01*
X3427633Y1948443D01*
X3425284Y1944431D01*
X3422143Y1941002D01*
X3418352Y1938310D01*
X3414080Y1936476D01*
X3409517Y1935582D01*
X3404868Y1935667D01*
X3400341Y1936727D01*
X3396139Y1938716D01*
X3392448Y1941544D01*
X3389435Y1945085D01*
X3387234Y1949181D01*
X3385943Y1953648D01*
X3385606Y1957483D01*
X3386098Y1962106D01*
X3387551Y1966523D01*
X3389900Y1970535D01*
X3393040Y1973964D01*
X3396832Y1976656D01*
X3401104Y1978490D01*
X3405667Y1979384D01*
X3410315Y1979299D01*
X3414842Y1978239D01*
X3419045Y1976250D01*
X3422736Y1973422D01*
X3425749Y1969881D01*
X3427950Y1965785D01*
X3429240Y1961318D01*
X3429578Y1957483D01*
X6752135Y1763158D02*
X6751644Y1758535D01*
X6750191Y1754118D01*
X6747842Y1750106D01*
X6744701Y1746677D01*
X6740910Y1743986D01*
X6736637Y1742152D01*
X6732075Y1741257D01*
X6727426Y1741342D01*
X6722899Y1742403D01*
X6718696Y1744391D01*
X6715006Y1747220D01*
X6711993Y1750761D01*
X6709792Y1754856D01*
X6708501Y1759323D01*
X6708164Y1763158D01*
X6708656Y1767782D01*
X6710108Y1772198D01*
X6712458Y1776211D01*
X6715598Y1779639D01*
X6719389Y1782331D01*
X6723662Y1784165D01*
X6728225Y1785060D01*
X6732873Y1784975D01*
X6737400Y1783914D01*
X6741603Y1781925D01*
X6745293Y1779097D01*
X6748306Y1775556D01*
X6750508Y1771460D01*
X6751798Y1766994D01*
X6752135Y1763158D01*
X2092687Y2172607D02*
X2092195Y2167984D01*
X2090742Y2163567D01*
X2088393Y2159555D01*
X2085252Y2156126D01*
X2081461Y2153434D01*
X2077188Y2151600D01*
X2072626Y2150706D01*
X2067977Y2150791D01*
X2063450Y2151851D01*
X2059248Y2153840D01*
X2055557Y2156668D01*
X2052544Y2160209D01*
X2050343Y2164305D01*
X2049052Y2168772D01*
X2048715Y2172607D01*
X2049207Y2177231D01*
X2050660Y2181647D01*
X2053009Y2185660D01*
X2056149Y2189088D01*
X2059941Y2191780D01*
X2064213Y2193614D01*
X2068776Y2194508D01*
X2073424Y2194423D01*
X2077951Y2193363D01*
X2082154Y2191374D01*
X2085844Y2188546D01*
X2088858Y2185005D01*
X2091059Y2180909D01*
X2092349Y2176442D01*
X2092687Y2172607D01*
X6291505Y1521032D02*
X6291014Y1516409D01*
X6289561Y1511992D01*
X6287212Y1507980D01*
X6284071Y1504551D01*
X6280280Y1501860D01*
X6276007Y1500026D01*
X6271445Y1499131D01*
X6266796Y1499216D01*
X6262269Y1500277D01*
X6258066Y1502265D01*
X6254376Y1505094D01*
X6251363Y1508635D01*
X6249162Y1512730D01*
X6247871Y1517197D01*
X6247534Y1521032D01*
X6248026Y1525656D01*
X6249479Y1530072D01*
X6251828Y1534085D01*
X6254968Y1537513D01*
X6258759Y1540205D01*
X6263032Y1542039D01*
X6267595Y1542934D01*
X6272243Y1542849D01*
X6276770Y1541788D01*
X6280973Y1539799D01*
X6284663Y1536971D01*
X6287677Y1533430D01*
X6289878Y1529334D01*
X6291168Y1524868D01*
X6291505Y1521032D01*
X2578907Y2532843D02*
X2578415Y2528220D01*
X2576962Y2523803D01*
X2574613Y2519791D01*
X2571473Y2516362D01*
X2567681Y2513671D01*
X2563409Y2511837D01*
X2558846Y2510942D01*
X2554198Y2511027D01*
X2549671Y2512088D01*
X2545468Y2514076D01*
X2541778Y2516905D01*
X2538764Y2520446D01*
X2536563Y2524541D01*
X2535273Y2529008D01*
X2534936Y2532843D01*
X2535427Y2537467D01*
X2536880Y2541883D01*
X2539229Y2545896D01*
X2542370Y2549324D01*
X2546161Y2552016D01*
X2550434Y2553850D01*
X2554996Y2554745D01*
X2559645Y2554660D01*
X2564172Y2553599D01*
X2568375Y2551610D01*
X2572065Y2548782D01*
X2575078Y2545241D01*
X2577279Y2541145D01*
X2578570Y2536679D01*
X2578907Y2532843D01*
X2527726Y1395048D02*
X2527234Y1390425D01*
X2525781Y1386008D01*
X2523432Y1381996D01*
X2520292Y1378567D01*
X2516500Y1375875D01*
X2512228Y1374041D01*
X2507665Y1373147D01*
X2503017Y1373232D01*
X2498490Y1374292D01*
X2494287Y1376281D01*
X2490596Y1379109D01*
X2487583Y1382650D01*
X2485382Y1386746D01*
X2484092Y1391213D01*
X2483754Y1395048D01*
X2484246Y1399671D01*
X2485699Y1404088D01*
X2488048Y1408100D01*
X2491189Y1411529D01*
X2494980Y1414221D01*
X2499252Y1416055D01*
X2503815Y1416949D01*
X2508464Y1416864D01*
X2512991Y1415804D01*
X2517193Y1413815D01*
X2520884Y1410987D01*
X2523897Y1407446D01*
X2526098Y1403350D01*
X2527389Y1398883D01*
X2527726Y1395048D01*
X1947017Y2641111D02*
X1946526Y2636488D01*
X1945073Y2632071D01*
X1942723Y2628059D01*
X1939583Y2624630D01*
X1935792Y2621938D01*
X1931519Y2620104D01*
X1926957Y2619210D01*
X1922308Y2619295D01*
X1917781Y2620355D01*
X1913578Y2622344D01*
X1909888Y2625172D01*
X1906875Y2628713D01*
X1904674Y2632809D01*
X1903383Y2637276D01*
X1903046Y2641111D01*
X1903537Y2645734D01*
X1904990Y2650151D01*
X1907340Y2654163D01*
X1910480Y2657592D01*
X1914271Y2660284D01*
X1918544Y2662118D01*
X1923106Y2663012D01*
X1927755Y2662927D01*
X1932282Y2661867D01*
X1936485Y2659878D01*
X1940175Y2657050D01*
X1943188Y2653509D01*
X1945389Y2649413D01*
X1946680Y2644946D01*
X1947017Y2641111D01*
%LPC*%
G75*
X1947017Y2641111D02*
G54D13*
X3369126Y1314044D02*
X4156527D01*
X2089599Y1898001D02*
X2306134D01*
G54D14*
X3018140Y398985D02*
X3457908D01*
G54D15*
X2983498Y438944D02*
X3492549D01*
X2983498Y359026D02*
X3492549D01*
G54D16*
X6995898Y3802528D03*
Y825363D03*
X149441Y3802528D03*
Y825363D03*
G54D17*
X1954165Y3360009D03*
X2034087D03*
X2114008D03*
X2194323D03*
X2274244D03*
X2354165D03*
X1914008Y3260009D03*
X1993929D03*
X2073850D03*
X2234480D03*
X2314402D03*
X2394323D03*
G54D18*
X4800228Y4150560D03*
X6689992D03*
G54D19*
X850228Y1123394D02*
Y1221820D01*
X621882Y1131269D02*
Y1213946D01*
X692748Y983631D02*
X775425D01*
G54D20*
X6016590Y2084965D02*
Y2108404D01*
G54D21*
X5977220Y2047472D02*
Y2145897D01*
X6055960Y2047472D02*
Y2145897D01*
G54D22*
X6116590Y2086842D02*
Y2106527D01*
G54D23*
X6216590Y2086842D02*
Y2106527D01*
G54D24*
X2633693Y3845048D02*
Y3915914D01*
G54D25*
X3204559Y3845048D02*
Y3915914D01*
G54D24*
X2633693Y4099379D02*
Y4130875D01*
X3204559Y4099379D02*
Y4130875D01*
G54D18*
X4800228Y2851347D03*
X6689992D03*
G54D26*
X4060071Y804497D03*
X3587630D03*
X2878969D03*
G54D20*
X4922276Y1393171D02*
Y1416610D01*
G54D21*
X4882906Y1355678D02*
Y1454103D01*
X4961646Y1355678D02*
Y1454103D01*
G54D22*
X4822276Y1395048D02*
Y1414733D01*
G54D23*
X4722276Y1395048D02*
Y1414733D01*
G54D22*
X4622275Y1395048D02*
Y1414733D01*
X4522276Y1395048D02*
Y1414733D01*
X4422276Y1395048D02*
Y1414733D01*
G54D20*
X5784173Y1261190D02*
X5807622D01*
G54D27*
X5746685Y1300560D02*
X5845110D01*
X5746685Y1221820D02*
X5845110D01*
G54D22*
X5786055Y1161190D02*
X5805740D01*
X5786055Y1061190D02*
X5805740D01*
X5786055Y961190D02*
X5805740D01*
X5786055Y861190D02*
X5805740D01*
X5786055Y761190D02*
X5805740D01*
X5786055Y661190D02*
X5805740D01*
G54D23*
X5786055Y561190D02*
X5805740D01*
X6686055D02*
X6705740D01*
G54D22*
X6686055Y661190D02*
X6705740D01*
X6686055Y761190D02*
X6705740D01*
X6686055Y861190D02*
X6705740D01*
X6686055Y961190D02*
X6705740D01*
X6686055Y1061190D02*
X6705740D01*
X6686055Y1161190D02*
X6705740D01*
G54D20*
X6684178Y1261190D02*
X6707617D01*
G54D21*
X6646685Y1300560D02*
X6745110D01*
X6646685Y1221820D02*
X6745110D01*
G54D20*
X6016370Y2196321D02*
Y2219760D01*
G54D21*
X5977000Y2158828D02*
Y2257253D01*
X6055740Y2158828D02*
Y2257253D01*
G54D22*
X6116370Y2198198D02*
Y2217883D01*
G54D23*
X6216370Y2198198D02*
Y2217883D01*
G54D28*
X2801016Y1495442D03*
X6251803Y1420048D03*
X2617945Y1948198D03*
X909283Y1497410D03*
X3688811Y1969851D03*
X1484087Y1400954D03*
X5677353Y1786780D03*
X4009677Y1877331D03*
X2001803Y2178020D03*
X6375819Y1420639D03*
X2909283Y479694D03*
X909283Y1408828D03*
X1854165Y591898D03*
X1377787Y914733D03*
X5625819Y1591898D03*
X5519520Y1593867D03*
X3529362Y1971820D03*
X4088417Y1733631D03*
X5403378Y2332056D03*
X2909283Y1048591D03*
X5336449Y1550560D03*
X1673063Y749379D03*
X6306921Y1696229D03*
X2601451Y922607D03*
X2917157Y2643080D03*
X1826606Y2056465D03*
X1667157Y861583D03*
X3738024Y2052528D03*
X6135661Y3062371D03*
X4389598Y1873394D03*
X5522690Y2318119D03*
X2664394Y408828D03*
X1114008Y989536D03*
X3271488Y1752331D03*
X3610071Y1971820D03*
X1709950Y2050560D03*
X5741961Y1694261D03*
X3407592Y1957483D03*
X6730150Y1763158D03*
X2070701Y2172607D03*
X6269520Y1521032D03*
X2556921Y2532843D03*
X2505740Y1395048D03*
X1925031Y2641111D03*
G54D29*
X539402Y3688355D03*
G54D30*
X559087Y3747410D03*
G54D29*
X618142Y3688355D03*
X657512Y3747410D03*
G54D30*
X696882Y3688355D03*
G54D29*
X736252Y3747410D03*
X775622Y3688355D03*
X834677Y3747410D03*
X854362Y3688355D03*
X1248063D03*
G54D30*
X1267748Y3747410D03*
G54D29*
X1326803Y3688355D03*
X1366173Y3747410D03*
G54D30*
X1405543Y3688355D03*
G54D29*
X1444913Y3747410D03*
X1484283Y3688355D03*
X1543339Y3747410D03*
X1563024Y3688355D03*
G54D31*
X1914008Y3160009D03*
X2014008D03*
X2294323D03*
X2394323D03*
G54D32*
X1836843Y4084812D03*
X2471882D03*
G54D33*
X438220Y3826150D03*
X955543D03*
X1146882D03*
X1664205D03*
G54D34*
X6496007Y2630875D02*
X6519607D01*
X6496007Y2305678D02*
X6519607D01*
G54D35*
X6730259Y2645048D02*
X6753859D01*
X6730259Y2291505D02*
X6753859D01*
G54D36*
X6458575Y2326544D03*
G54D37*
X5172276Y1198198D03*
G54D38*
Y410796D03*
G54D39*
X549047Y2107646D03*
Y2558434D03*
X824638Y2107646D03*
Y2558434D03*
G54D40*
X1904165Y3960009D03*
X2404165D03*
G54D41*
X1904165D03*
X2404165D03*
G54D42*
X6913267Y3961418D02*
X6904454Y3961961D01*
X6895756Y3963484D01*
X6887283Y3965966D01*
X6879138Y3969378D01*
X6871425Y3973677D01*
X6864240Y3978809D01*
X6857671Y3984710D01*
X6851801Y3991306D01*
X6846703Y3998516D01*
X6842441Y4006249D01*
X6839067Y4014409D01*
X6836624Y4022894D01*
X6835142Y4031599D01*
X6834640Y4040414D01*
X6834646Y4041498D01*
X7149607Y3725198D02*
Y3882677D01*
X78732Y668473D02*
X69932Y668973D01*
X61243Y670452D01*
X52774Y672892D01*
X44630Y676263D01*
X36914Y680523D01*
X29721Y685618D01*
X23143Y691484D01*
X17261Y698048D01*
X12148Y705228D01*
X7870Y712934D01*
X4479Y721069D01*
X2018Y729533D01*
X518Y738218D01*
X-3Y746836D01*
X7149607Y3725198D02*
X7149111Y3716398D01*
X7147636Y3707708D01*
X7145199Y3699238D01*
X7141832Y3691093D01*
X7137576Y3683375D01*
X7132485Y3676180D01*
X7126621Y3669599D01*
X7120060Y3663714D01*
X7112882Y3658599D01*
X7105178Y3654318D01*
X7097044Y3650923D01*
X7088582Y3648459D01*
X7079898Y3646955D01*
X7071100Y3646430D01*
X7070858Y3646429D01*
Y668473D02*
X6913893D01*
X78740Y3646457D02*
X69943Y3646950D01*
X61256Y3648423D01*
X52788Y3650857D01*
X44645Y3654222D01*
X36929Y3658475D01*
X29736Y3663564D01*
X23157Y3669425D01*
X17274Y3675984D01*
X12160Y3683159D01*
X7880Y3690861D01*
X4488Y3698993D01*
X2025Y3707452D01*
X523Y3716134D01*
X0Y3724788D01*
X393701Y334646D02*
X384903Y335139D01*
X376215Y336613D01*
X367746Y339047D01*
X359602Y342412D01*
X351885Y346666D01*
X344692Y351756D01*
X338112Y357617D01*
X332228Y364176D01*
X327114Y371352D01*
X322833Y379055D01*
X319439Y387187D01*
X316976Y395647D01*
X315473Y404330D01*
X314949Y413126D01*
X314949Y413788D01*
X1Y904725D02*
X494Y913522D01*
X1966Y922209D01*
X4400Y930677D01*
X7765Y938820D01*
X12019Y946536D01*
X17108Y953729D01*
X22969Y960308D01*
X29528Y966191D01*
X36703Y971304D01*
X44405Y975584D01*
X52536Y978977D01*
X60996Y981439D01*
X69678Y982942D01*
X78473Y983464D01*
X78740Y983465D01*
X6834638Y589891D02*
X6835199Y598709D01*
X6836739Y607411D01*
X6839239Y615886D01*
X6842668Y624031D01*
X6846983Y631742D01*
X6852130Y638925D01*
X6858044Y645490D01*
X6864654Y651355D01*
X6871876Y656448D01*
X6879620Y660704D01*
X6887790Y664071D01*
X6896284Y666506D01*
X6904997Y667981D01*
X6913693Y668475D01*
X6755906Y4295276D02*
X6764703Y4294783D01*
X6773390Y4293310D01*
X6781858Y4290876D01*
X6790001Y4287511D01*
X6797717Y4283258D01*
X6804909Y4278169D01*
X6811488Y4272308D01*
X6817371Y4265749D01*
X6822485Y4258573D01*
X6826764Y4250872D01*
X6830157Y4242740D01*
X6832620Y4234280D01*
X6834122Y4225599D01*
X6834645Y4216803D01*
X6834645Y4216536D01*
X7070866Y3961418D02*
X7079663Y3960925D01*
X7088350Y3959452D01*
X7096818Y3957018D01*
X7104961Y3953653D01*
X7112677Y3949399D01*
X7119870Y3944310D01*
X7126449Y3938450D01*
X7132332Y3931890D01*
X7137445Y3924715D01*
X7141725Y3917013D01*
X7145118Y3908882D01*
X7147580Y3900422D01*
X7149082Y3891740D01*
X7149605Y3882945D01*
X7149606Y3882677D01*
X7070866Y983465D02*
X7079663Y982972D01*
X7088350Y981499D01*
X7096818Y979065D01*
X7104961Y975700D01*
X7112677Y971447D01*
X7119870Y966358D01*
X7126449Y960497D01*
X7132332Y953938D01*
X7137445Y946762D01*
X7141725Y939061D01*
X7145118Y930929D01*
X7147580Y922469D01*
X7149082Y913788D01*
X7149605Y904992D01*
X7149606Y904725D01*
X6834646Y1063369D02*
Y3562299D01*
X6755906Y4295276D02*
X395669D01*
X1Y3882678D02*
Y3724788D01*
Y3882678D02*
X494Y3891475D01*
X1966Y3900162D01*
X4400Y3908630D01*
X7765Y3916773D01*
X12019Y3924489D01*
X17108Y3931682D01*
X22969Y3938261D01*
X29528Y3944144D01*
X36703Y3949257D01*
X44405Y3953537D01*
X52536Y3956929D01*
X60996Y3959392D01*
X69678Y3960894D01*
X78473Y3961417D01*
X78740Y3961418D01*
X6834646Y3562299D02*
X6834565Y3571124D01*
X6835469Y3579904D01*
X6837346Y3588527D01*
X6840173Y3596888D01*
X6843915Y3604880D01*
X6848526Y3612406D01*
X6853947Y3619370D01*
X6860111Y3625687D01*
X6866941Y3631276D01*
X6874352Y3636069D01*
X6882251Y3640005D01*
X6890540Y3643035D01*
X6899115Y3645122D01*
X6907870Y3646240D01*
X6911921Y3646424D01*
X7070866Y983465D02*
X6908470D01*
X314953Y413788D02*
Y586962D01*
X235622Y3646426D02*
X244453Y3645910D01*
X253171Y3644414D01*
X261669Y3641957D01*
X269840Y3638570D01*
X277584Y3634295D01*
X284804Y3629184D01*
X291410Y3623302D01*
X297321Y3616721D01*
X302463Y3609523D01*
X306771Y3601798D01*
X310194Y3593641D01*
X312687Y3585154D01*
X314220Y3576442D01*
X314774Y3567613D01*
X314734Y3564487D01*
X7070858Y3646426D02*
X6912037D01*
X314961Y4214568D02*
Y4040599D01*
X235780Y983465D02*
X78740D01*
X314961Y4040599D02*
X314468Y4031777D01*
X312995Y4023065D01*
X310561Y4014572D01*
X307196Y4006402D01*
X302941Y3998658D01*
X297850Y3991437D01*
X291987Y3984827D01*
X285423Y3978912D01*
X278241Y3973765D01*
X270531Y3969451D01*
X262388Y3966022D01*
X253913Y3963522D01*
X245213Y3961981D01*
X236395Y3961420D01*
X235780Y3961418D01*
X235623Y3646426D02*
X78740D01*
X6908470Y983465D02*
X6899706Y984542D01*
X6891117Y986590D01*
X6882809Y989582D01*
X6874887Y993482D01*
X6867449Y998240D01*
X6860588Y1003799D01*
X6854390Y1010087D01*
X6848931Y1017028D01*
X6844280Y1024533D01*
X6840494Y1032511D01*
X6837622Y1040860D01*
X6835698Y1049478D01*
X6834747Y1058257D01*
X6834646Y1063369D01*
X6834638Y413363D02*
Y589891D01*
X7149607Y747245D02*
Y904725D01*
Y747245D02*
X7149111Y738445D01*
X7147636Y729756D01*
X7145199Y721285D01*
X7141832Y713140D01*
X7137576Y705422D01*
X7132485Y698227D01*
X7126621Y691647D01*
X7120060Y685762D01*
X7112882Y680646D01*
X7105178Y676365D01*
X7097044Y672971D01*
X7088582Y670506D01*
X7079898Y669002D01*
X7071100Y668477D01*
X7070858Y668477D01*
X235780Y3961418D02*
X78740D01*
X78732Y668473D02*
X235937D01*
X244756Y667970D01*
X253464Y666488D01*
X261953Y664044D01*
X270116Y660669D01*
X277852Y656406D01*
X285066Y651306D01*
X291666Y645435D01*
X297570Y638865D01*
X302706Y631678D01*
X307008Y623964D01*
X310425Y615818D01*
X312912Y607342D01*
X314439Y598641D01*
X314987Y589825D01*
X314954Y586991D01*
X6834646Y4041498D02*
Y4216536D01*
X314734Y3564487D02*
Y1056658D01*
X314961Y4214568D02*
X315454Y4223475D01*
X316927Y4232273D01*
X319362Y4240854D01*
X322729Y4249115D01*
X326987Y4256953D01*
X332084Y4264274D01*
X337958Y4270988D01*
X344537Y4277012D01*
X351741Y4282274D01*
X359481Y4286708D01*
X367663Y4290261D01*
X376188Y4292889D01*
X384950Y4294561D01*
X393844Y4295255D01*
X395669Y4295276D01*
X6834638Y413363D02*
X6834145Y404567D01*
X6832672Y395881D01*
X6830238Y387414D01*
X6826873Y379272D01*
X6822620Y371557D01*
X6817531Y364366D01*
X6811670Y357788D01*
X6805111Y351907D01*
X6797936Y346795D01*
X6790235Y342517D01*
X6782104Y339126D01*
X6773645Y336665D01*
X6764964Y335164D01*
X6756643Y334646D01*
X314734Y1056658D02*
X313575Y1047899D01*
X311448Y1039323D01*
X308378Y1031038D01*
X304405Y1023146D01*
X299577Y1015746D01*
X293954Y1008931D01*
X287607Y1002784D01*
X280615Y997382D01*
X273065Y992793D01*
X265050Y989074D01*
X256671Y986271D01*
X248032Y984419D01*
X239240Y983541D01*
X235780Y983465D01*
X7070866Y3961418D02*
X6913267D01*
X1Y746836D02*
Y904725D01*
X393701Y334646D02*
X6756643D01*
X2306134Y1996446D02*
X2315974Y1995953D01*
X2325716Y1994478D01*
X2335262Y1992038D01*
X2344516Y1988655D01*
X2353386Y1984364D01*
X2361782Y1979208D01*
X2369621Y1973239D01*
X2376824Y1966516D01*
X2383319Y1959107D01*
X2389040Y1951085D01*
X2393931Y1942532D01*
X2397943Y1933533D01*
X2401035Y1924177D01*
X2403176Y1914560D01*
X2404345Y1904777D01*
X2404531Y1894925D01*
X2403731Y1885105D01*
X2401953Y1875414D01*
X2399215Y1865949D01*
X2395545Y1856805D01*
X2390979Y1848074D01*
X2385563Y1839843D01*
X2379352Y1832194D01*
X2372407Y1825205D01*
X2364799Y1818945D01*
X2356602Y1813477D01*
X2347901Y1808855D01*
X2338780Y1805127D01*
X2329333Y1802329D01*
X2319654Y1800489D01*
X2309838Y1799626D01*
X2306134Y1799556D01*
G54D43*
X6458575Y2326544D03*
G54D44*
X5172276Y1198198D03*
G54D45*
Y410796D03*
G54D46*
X549047Y2107646D03*
Y2558434D03*
X824638Y2107646D03*
Y2558434D03*
G54D47*
X1904165Y3960009D03*
X2404165D03*
G54D48*
X539402Y3688355D03*
X559087Y3747410D03*
X618142Y3688355D03*
X657512Y3747410D03*
X696882Y3688355D03*
X736252Y3747410D03*
X775622Y3688355D03*
X834677Y3747410D03*
X854362Y3688355D03*
X1248063D03*
X1267748Y3747410D03*
X1326803Y3688355D03*
X1366173Y3747410D03*
X1405543Y3688355D03*
X1444913Y3747410D03*
X1484283Y3688355D03*
X1543339Y3747410D03*
X1563024Y3688355D03*
G54D49*
X1914008Y3260009D03*
X1954165Y3360009D03*
X1993929Y3260009D03*
X2034087Y3360009D03*
X2073850Y3260009D03*
X2114008Y3360009D03*
X2194323D03*
X2234480Y3260009D03*
X2274244Y3360009D03*
X2314402Y3260009D03*
X2354165Y3360009D03*
X2394323Y3260009D03*
G54D50*
X1914008Y3160009D03*
X2014008D03*
X2294323D03*
X2394323D03*
X4422276Y1404891D03*
X4522276D03*
X4622276D03*
X4722276D03*
X4822276D03*
X4922276D03*
X5795898Y1261190D03*
Y1161190D03*
Y1061190D03*
Y961190D03*
Y861190D03*
Y761190D03*
Y661190D03*
Y561190D03*
X6016370Y2208040D03*
X6016606Y2096702D03*
X6116370Y2208040D03*
X6116606Y2096702D03*
X6216370Y2208040D03*
X6216606Y2096702D03*
X6695898Y1261190D03*
Y1161190D03*
Y1061190D03*
Y961190D03*
Y861190D03*
Y761190D03*
Y661190D03*
Y561190D03*
G54D45*
X1836843Y4084812D03*
X2471882D03*
G54D51*
X438220Y3826150D03*
X955543D03*
X1146882D03*
X1664205D03*
G54D52*
X149441Y3802528D03*
Y825363D03*
X2878969Y804497D03*
X3587630D03*
X4060071D03*
X6995898Y3802528D03*
Y825363D03*
G54D53*
X4800228Y4150560D03*
Y2851347D03*
X6689992Y4150560D03*
Y2851347D03*
G54D54*
X4800228Y4150560D03*
Y2851347D03*
X6689992Y4150560D03*
Y2851347D03*
G54D55*
X6495000Y2630875D02*
X6520591D01*
X6495000Y2305678D02*
X6520591D01*
X6729291Y2645048D02*
X6754843D01*
X6729291Y2291505D02*
X6754843D01*
G54D56*
X621882Y1131269D02*
Y1213946D01*
X692748Y983631D02*
X775425D01*
X850228Y1123394D02*
Y1221820D01*
G54D57*
X2633693Y4098394D02*
Y4131859D01*
Y3845048D02*
Y3915914D01*
X3204559Y4098394D02*
Y4131859D01*
Y3845048D02*
Y3915914D01*
G54D58*
X6458583Y2603119D02*
Y2616898D01*
M02*
