*
%FSLAX26Y26*%
%MOIN*%
%ADD10C,0.007874*%
%ADD11C,0.013780*%
%ADD12C,0.031496*%
%ADD13C,0.041339*%
%ADD14C,0.047244*%
%ADD15C,0.064961*%
%ADD16C,0.094488*%
%ADD17C,0.122047*%
%ADD18C,0.153543*%
%ADD19C,0.027559*%
%ADD20C,0.045276*%
%ADD21C,0.068898*%
%ADD22C,0.131890*%
%ADD23C,0.023661*%
%ADD24C,0.031535*%
%ADD25C,0.039409*%
%ADD26C,0.031614*%
%ADD27C,0.027598*%
%ADD28C,0.015866*%
%ADD29C,0.078740*%
%ADD30C,0.080709*%
%ADD31C,0.019685*%
%IPPOS*%
%LN37666-3475236.drl*%
%LPD*%
G75*
G54D10*
X346685Y1869418D03*
Y1721780D03*
X352197Y3601741D03*
Y3562371D03*
Y3523001D03*
Y3483631D03*
Y3444261D03*
Y3404891D03*
Y3365520D03*
Y3326150D03*
Y3286780D03*
Y3247410D03*
Y3208040D03*
Y3168670D03*
Y3129300D03*
Y3089930D03*
Y2932450D03*
Y2893080D03*
Y2853709D03*
Y2814339D03*
Y2774969D03*
Y2735599D03*
Y2696229D03*
Y2656859D03*
Y2617489D03*
Y2578119D03*
Y2538749D03*
Y2499379D03*
Y2460009D03*
Y2420639D03*
Y2381269D03*
Y2341898D03*
Y2302528D03*
Y2263158D03*
Y2223788D03*
Y2184418D03*
Y2145048D03*
Y2105678D03*
Y2066308D03*
Y2026938D03*
Y1987568D03*
Y1948198D03*
Y1908828D03*
Y1357646D03*
Y1318276D03*
Y1278906D03*
Y1239536D03*
Y1200166D03*
Y1160796D03*
Y1121426D03*
Y1082056D03*
Y1042686D03*
Y1003316D03*
Y609615D03*
Y570245D03*
Y530875D03*
Y491505D03*
Y452135D03*
Y412765D03*
Y373394D03*
X391567D03*
X430937D03*
X442748Y1961977D03*
X448654Y585993D03*
X470307Y373394D03*
X496882Y3234615D03*
X499835Y3461977D03*
X509677Y373394D03*
X521488Y402922D03*
X524441Y3247410D03*
X524638Y3448198D03*
X550031Y3247410D03*
X550228Y3448198D03*
X566764Y1961977D03*
X570898Y1603709D03*
Y1566308D03*
X572669Y1708040D03*
X574638Y3461977D03*
X577591Y3260206D03*
X578575Y1741505D03*
X596291Y3036780D03*
Y2989536D03*
X619913Y3233631D03*
X621882Y3465914D03*
X635661Y1688355D03*
X637630Y2893080D03*
X637827Y1500363D03*
X646488Y3247410D03*
X646685Y3448198D03*
X672079Y3247410D03*
X672276Y3448198D03*
X675031Y3513158D03*
X677000Y3072213D03*
X696685Y3465914D03*
X698654Y3261190D03*
X712433Y2989536D03*
X722276Y3513158D03*
X724441Y1624379D03*
X736055Y2895048D03*
X741961Y3233631D03*
X747866Y3469851D03*
X755937Y1505284D03*
X768535Y3247410D03*
X768614Y3448198D03*
X793142Y3093867D03*
X794126Y3247410D03*
X794205Y3448198D03*
X801213Y1550560D03*
X812827Y3469851D03*
X820701Y3262174D03*
Y3091898D03*
X824835Y1464930D03*
X850228Y2895048D03*
X856134Y3003316D03*
X875819Y3058434D03*
X927000Y816308D03*
X928969Y688355D03*
X948654Y2893080D03*
X995898Y3290717D03*
X1041173Y3463946D03*
X1045110Y3570442D03*
X1051016Y3711977D03*
X1082512Y2883237D03*
X1106134Y2723788D03*
X1112039Y1148985D03*
X1114008Y942292D03*
X1117945Y2766111D03*
X1119913Y2560402D03*
X1121882Y2883237D03*
X1133693Y2745442D03*
X1143535Y2954103D03*
X1144520Y2572213D03*
X1147472Y2805481D03*
Y2779891D03*
X1151409Y942292D03*
X1152197Y2980481D03*
X1161252Y2830796D03*
X1163220Y2877331D03*
X1170110Y2572213D03*
X1170307Y2998591D03*
X1175031Y2068276D03*
Y1954103D03*
X1178969Y2168670D03*
X1182906Y3024969D03*
Y1117489D03*
X1192748Y2587961D03*
X1204559Y3005284D03*
Y2936387D03*
X1206528Y875363D03*
X1210465Y3243473D03*
X1212433Y2572213D03*
X1220307Y3467883D03*
Y1060402D03*
X1224441Y963749D03*
X1226213Y826150D03*
X1236055Y767095D03*
X1240976Y3243473D03*
X1241134Y3447371D03*
X1251803Y2534812D03*
X1257709Y1223788D03*
X1266567Y3243473D03*
X1266724Y3447371D03*
X1267551Y3072213D03*
X1271488Y2593867D03*
X1279362Y2664733D03*
Y2497410D03*
X1281331Y3093867D03*
X1283299Y3009221D03*
Y580087D03*
X1287236Y3467883D03*
X1289205Y2938355D03*
X1297079Y3243473D03*
X1301685Y3114221D03*
X1305386Y2656426D03*
X1312827Y2471820D03*
X1315386Y2950757D03*
X1318732Y1184418D03*
X1319756Y3132292D03*
X1323496Y2638316D03*
X1328575Y2611583D03*
X1332512Y3245442D03*
X1333457Y2968828D03*
X1334480Y914733D03*
X1338417Y3463946D03*
Y2997410D03*
X1348260Y3141111D03*
X1363024Y3449339D03*
Y3245442D03*
X1375819Y3511190D03*
X1388614Y3449339D03*
Y3245442D03*
X1393535Y2495442D03*
X1395504Y2456072D03*
X1399441Y828119D03*
X1409283Y708040D03*
X1413220Y412765D03*
X1415189Y3467883D03*
X1417157Y3017095D03*
X1419126Y3245442D03*
X1423063Y3511190D03*
X1424835Y3044457D03*
X1425031Y1072213D03*
X1428969Y2324182D03*
X1430937Y1219851D03*
X1438811Y3087961D03*
X1442945Y3062568D03*
X1446685Y3119457D03*
X1454559Y3245442D03*
X1466370Y3471820D03*
X1470307Y963946D03*
X1478181Y2280875D03*
X1482118Y940324D03*
X1484283Y1259221D03*
X1485071Y3449339D03*
Y3245442D03*
X1495898Y2534812D03*
X1501803Y2501347D03*
X1510661Y3449339D03*
Y3245442D03*
X1515583Y2381269D03*
X1521488Y2521032D03*
Y1170639D03*
X1537236Y1889143D03*
X1539205Y2979694D03*
Y2611583D03*
X1540189Y3253316D03*
Y2640127D03*
X1541173Y3456072D03*
Y2003316D03*
X1543890Y2951426D03*
X1545110Y2499379D03*
X1552000Y2662765D03*
X1554953Y2318276D03*
X1558890Y704103D03*
X1561961Y2933316D03*
X1564795Y2637174D03*
X1577591Y2664733D03*
X1578575Y3087961D03*
X1580543Y3139143D03*
X1581528Y2688355D03*
X1592354Y2930481D03*
Y1889143D03*
X1610071Y3056465D03*
X1614008Y1654891D03*
X1615976Y1615520D03*
X1621882Y1889143D03*
Y749379D03*
X1625819Y824182D03*
X1627787Y2865520D03*
X1631724Y1495442D03*
X1633693Y3024969D03*
X1639598Y1568276D03*
X1651409Y2765127D03*
Y373394D03*
X1655346Y3129300D03*
Y560402D03*
Y521032D03*
X1657315Y2395048D03*
Y2367489D03*
Y631269D03*
X1661252Y2328119D03*
X1663220Y3001347D03*
Y2595835D03*
Y1377331D03*
X1665189Y2294654D03*
X1669126Y2702135D03*
X1671094Y2784812D03*
X1673063Y3177528D03*
Y3151938D03*
Y471820D03*
X1688811Y3202135D03*
X1691173Y373394D03*
X1696685Y2686387D03*
Y2629300D03*
X1700622Y2794654D03*
X1704559Y2294654D03*
X1706528Y2465914D03*
X1720307Y1023001D03*
X1728181Y2942292D03*
X1730150Y2794654D03*
Y373394D03*
X1732118Y2832056D03*
X1739992Y2686387D03*
Y2625363D03*
X1745898Y1985599D03*
X1747866Y2021032D03*
X1751803Y895048D03*
X1753772Y3200166D03*
X1755740Y3357646D03*
X1757709Y1121426D03*
X1759677Y3464143D03*
Y2906859D03*
Y2774969D03*
X1761646Y452135D03*
X1763614Y3570442D03*
X1769520Y2971820D03*
Y2932450D03*
Y2706072D03*
Y373394D03*
X1775425Y540717D03*
X1777394Y723552D03*
X1779362Y2863552D03*
X1780346Y655875D03*
X1785268Y2141111D03*
X1785465Y2168473D03*
X1787236Y1893080D03*
Y611583D03*
X1795110Y2282843D03*
X1799047Y2774969D03*
Y2706072D03*
X1804953Y2017095D03*
X1808890Y2971820D03*
Y373394D03*
X1814795Y1631269D03*
X1814992Y2670442D03*
X1828575Y2715914D03*
Y666702D03*
X1830543Y1105678D03*
X1838417Y2178513D03*
X1848260Y2971820D03*
Y373394D03*
X1858102Y2774969D03*
Y2745442D03*
X1864008Y2993473D03*
X1869913Y1377331D03*
X1873850Y2178513D03*
X1887630Y2971820D03*
Y2863552D03*
Y373394D03*
X1891567Y2782843D03*
X1897472Y2932450D03*
Y2893080D03*
X1913220Y2991505D03*
X1921094Y2704103D03*
Y2678513D03*
Y2133237D03*
Y2087961D03*
X1927000Y373394D03*
X1930937Y1893080D03*
X1936843Y2881269D03*
X1938811Y2759221D03*
X1946685Y895048D03*
X1952591Y2704103D03*
Y2678513D03*
Y1660796D03*
X1958496Y2316308D03*
X1966764Y373394D03*
X1977984Y2757253D03*
X1978181Y2885206D03*
X1991961Y2692292D03*
X1993929Y2961977D03*
X2001803Y2521032D03*
X2005740Y373394D03*
X2009677Y1391111D03*
X2010661Y2995442D03*
X2021685Y2961977D03*
X2037236Y1178513D03*
X2045110Y373394D03*
X2047276Y2961977D03*
X2070701Y2979694D03*
Y2946229D03*
X2078575Y2591898D03*
X2084480Y373394D03*
X2091370Y2622410D03*
X2095307Y2961977D03*
X2096291Y908828D03*
X2098260Y692292D03*
X2104165Y2200166D03*
X2120898Y2961977D03*
X2123850Y373394D03*
X2135661Y1284812D03*
X2141567Y2782843D03*
X2149441Y2961977D03*
X2155346Y428513D03*
X2163220Y373394D03*
X2194717Y2961977D03*
X2202591Y373394D03*
X2206528Y2389143D03*
X2216370Y2743473D03*
Y2684418D03*
X2222276Y2213946D03*
X2223260Y2961977D03*
X2242354Y373394D03*
X2245898Y2389143D03*
X2248850Y2961977D03*
X2269520Y2985599D03*
Y2942292D03*
X2281331Y373394D03*
X2289402Y2961977D03*
X2301016Y2213946D03*
X2314992Y2961977D03*
X2320701Y373394D03*
X2325622Y2996426D03*
X2340386Y2877331D03*
X2342354Y2961977D03*
X2360071Y373394D03*
X2367945Y2532843D03*
X2385661Y2577135D03*
Y2551544D03*
Y1499379D03*
X2391567Y1664733D03*
Y1334024D03*
X2399441Y373394D03*
X2401409Y2597804D03*
X2413220Y2855678D03*
Y2790717D03*
X2415189Y2735599D03*
Y2680481D03*
X2436843Y2379300D03*
X2438811Y373394D03*
X2440780Y2517095D03*
X2450622Y1395048D03*
Y1357646D03*
X2456528Y2318276D03*
X2474244Y2981662D03*
Y2668670D03*
X2478181Y2467883D03*
Y1186387D03*
Y1019064D03*
Y851741D03*
Y373394D03*
X2488024Y2034812D03*
X2489992Y1961977D03*
X2513614Y2668670D03*
X2517551Y373394D03*
X2519520Y2259221D03*
Y2219851D03*
Y1841898D03*
X2537236Y708040D03*
Y540717D03*
X2545110Y922607D03*
Y885206D03*
X2547079Y2485599D03*
X2549047Y2668670D03*
Y1948198D03*
X2554953Y1771032D03*
X2556921Y373394D03*
X2562827Y2038749D03*
X2564795Y3288749D03*
Y3188355D03*
X2586449Y2028906D03*
X2596291Y373394D03*
X2600228Y450166D03*
Y412765D03*
X2606134Y3688355D03*
Y1633237D03*
X2615976Y2139143D03*
X2617945Y1771032D03*
X2629756Y1521032D03*
Y1495442D03*
X2645504Y2735599D03*
X2649441Y1822213D03*
X2657315Y1521032D03*
Y1495442D03*
X2659283Y1623394D03*
X2667157Y2371426D03*
X2669126Y1393080D03*
Y1353709D03*
X2673063Y3430481D03*
X2682906Y1769064D03*
X2684874Y2967883D03*
Y1521032D03*
Y1495442D03*
X2694717Y2469851D03*
X2700622Y1160796D03*
X2702591Y3430481D03*
X2704559Y1623394D03*
X2712433Y1841898D03*
Y1521032D03*
Y1495442D03*
X2714402Y948198D03*
X2726213Y3593867D03*
Y1024969D03*
X2728181Y3430481D03*
X2739992Y1521032D03*
Y1495442D03*
Y1048591D03*
X2741961Y2028906D03*
X2743929Y2676544D03*
X2745898Y3526938D03*
X2751803Y3450166D03*
Y3410796D03*
X2753772Y1152922D03*
Y1024969D03*
X2757709Y692292D03*
X2761646Y3784812D03*
X2767551Y1048591D03*
X2775425Y3430481D03*
X2781331Y2210009D03*
Y1024969D03*
Y2235599D03*
X2783299Y485599D03*
X2789205Y554497D03*
X2793142Y971820D03*
Y373394D03*
X2795110Y1048591D03*
X2801016Y3430481D03*
X2802984Y2322213D03*
Y578119D03*
X2808890Y1024969D03*
X2812827Y678513D03*
X2816764Y554497D03*
X2820701Y3784812D03*
X2822669Y1048591D03*
X2824638Y3450166D03*
Y3410796D03*
X2830543Y578119D03*
X2832512Y373394D03*
X2836449Y1024969D03*
X2838417Y3630284D03*
X2842354Y2446229D03*
X2844323Y554497D03*
X2848260Y3430481D03*
X2850228Y1048591D03*
X2858102Y578119D03*
X2871882Y554497D03*
Y373394D03*
X2873850Y3430481D03*
X2879756Y3784812D03*
X2885661Y578119D03*
X2897472Y3450166D03*
Y3410796D03*
X2899441Y554497D03*
X2911252Y373394D03*
X2913220Y578119D03*
X2917157Y2453119D03*
X2921094Y3430481D03*
X2936843Y2259221D03*
X2938811Y3784812D03*
X2946685Y3430481D03*
X2950622Y373394D03*
X2966370Y2259221D03*
X2970307Y1534812D03*
X2972276Y3580087D03*
X2974244Y3528906D03*
X2976213Y3430481D03*
X2997866Y2259221D03*
X3009677Y1534812D03*
X3019520Y2369457D03*
X3031331Y2692292D03*
X3033299Y2444261D03*
X3037236Y3523001D03*
Y2662765D03*
X3041173Y2904891D03*
X3043142Y2946229D03*
X3056921Y3784812D03*
Y3631269D03*
Y3580087D03*
Y3436387D03*
X3058890Y2219851D03*
X3062827Y1635206D03*
X3067748Y2601741D03*
X3072669Y3526938D03*
X3082512Y3580087D03*
X3088417Y2519064D03*
X3098260Y3627331D03*
X3104165Y1635206D03*
X3110071Y3526938D03*
X3137630Y2379300D03*
Y2219851D03*
X3155346Y2499379D03*
Y2458040D03*
X3163220Y2379300D03*
X3169126Y1619457D03*
X3171291Y2526938D03*
X3183102Y2879300D03*
X3186843Y1198198D03*
X3220307Y3692292D03*
X3226213Y1895048D03*
X3246882Y2688355D03*
X3247866Y2658828D03*
X3257709Y3629300D03*
X3261646Y3030875D03*
X3261843Y2877331D03*
X3279362Y2076150D03*
X3293142Y3603709D03*
X3302000Y2670639D03*
X3306921Y2066308D03*
X3308890Y1773001D03*
X3320701Y2938355D03*
X3324638Y1918670D03*
X3328575Y3523001D03*
X3344323Y4271032D03*
Y1995442D03*
X3348260Y4040717D03*
X3380740Y2902922D03*
X3383693Y4271032D03*
X3385661Y3861583D03*
X3391567Y2068276D03*
X3399441Y2924576D03*
X3403378Y1918670D03*
X3410268Y3877331D03*
X3423063Y4271032D03*
Y1584024D03*
X3430937Y4044654D03*
X3431921Y2879300D03*
Y2656859D03*
X3434874Y1930481D03*
X3435858Y3877331D03*
X3436843Y3738552D03*
X3450622Y3845835D03*
X3454559Y2068276D03*
X3458496Y3893080D03*
X3462433Y4271032D03*
X3464402Y1930481D03*
X3470307Y1879300D03*
X3476213Y3725757D03*
X3489992Y4043276D03*
Y1956072D03*
X3495898Y1765127D03*
X3501803Y4271032D03*
Y1584024D03*
X3511646Y2538749D03*
X3521488Y3832056D03*
Y1765127D03*
X3529362Y2087961D03*
Y2017095D03*
X3536252Y3859615D03*
X3541173Y4271032D03*
Y1879300D03*
Y373394D03*
X3543142Y3147017D03*
X3547079Y3353513D03*
X3549047Y4043276D03*
Y3914733D03*
Y1765127D03*
X3561843Y3859615D03*
X3564795Y2257253D03*
X3574638Y1763158D03*
X3576606Y1954103D03*
X3580543Y4271032D03*
Y1584024D03*
Y373394D03*
X3586449Y3843867D03*
Y3794654D03*
X3589402Y2544654D03*
X3602197Y2257253D03*
X3604165Y2505284D03*
X3608102Y4043276D03*
Y2087961D03*
Y2017095D03*
X3608299Y3349772D03*
X3611055Y3861583D03*
X3612039Y1879300D03*
X3614008Y2865520D03*
Y1763158D03*
X3619913Y4271032D03*
Y373394D03*
X3636646Y3861583D03*
X3639598Y2879300D03*
X3647472Y1954103D03*
X3649441Y2378316D03*
X3651409Y3587961D03*
X3655346Y3148985D03*
X3659283Y4271032D03*
Y1584024D03*
Y373394D03*
X3662039Y3893080D03*
X3667157Y4043276D03*
X3667945Y3861977D03*
X3673063Y2873394D03*
Y1763158D03*
X3682709Y3031072D03*
X3682906Y2983631D03*
X3684874Y2233631D03*
X3686843Y2087961D03*
Y2017095D03*
X3687630Y3893080D03*
X3694717Y3834024D03*
X3694913Y3351741D03*
X3698654Y4271032D03*
Y373394D03*
X3712433Y3589930D03*
X3715386Y3880284D03*
X3717276Y2495442D03*
X3718339Y2867489D03*
Y2379300D03*
X3720307Y2898985D03*
X3722276Y2233631D03*
X3726213Y4044654D03*
X3732118Y1763158D03*
X3738024Y4271032D03*
Y373394D03*
X3745898Y1889143D03*
X3757709Y4044654D03*
X3758693Y3825166D03*
X3770504Y2627331D03*
X3776409Y3849772D03*
X3777394Y4271032D03*
Y373394D03*
X3779165Y2194457D03*
X3785268Y4044654D03*
X3787236Y3898985D03*
X3791173Y1763158D03*
X3793142Y2721820D03*
Y1889143D03*
X3802000Y3849772D03*
Y2385206D03*
X3802984Y3820245D03*
X3816764Y4271032D03*
Y1584024D03*
Y373394D03*
X3826606Y3904891D03*
X3830543Y3452135D03*
X3832512Y2855678D03*
X3842354Y3961977D03*
X3844323Y3570245D03*
X3850228Y1763158D03*
X3856134Y4271032D03*
Y373394D03*
X3865976Y2467883D03*
X3873850Y3839930D03*
X3887630Y1887174D03*
X3895504Y4271032D03*
Y3570245D03*
Y373394D03*
X3909283Y1763158D03*
X3913220Y3371426D03*
Y3343867D03*
X3915189Y3643080D03*
X3921094Y3589930D03*
X3923063Y3550560D03*
Y2337961D03*
X3934874Y4271032D03*
Y1887174D03*
Y373394D03*
X3939795Y2524969D03*
X3955543Y2577135D03*
Y2551544D03*
X3968339Y1763158D03*
X3970307Y4011190D03*
Y3963946D03*
X3971291Y2601741D03*
X3974244Y4271032D03*
Y1584024D03*
Y373394D03*
X4005740Y3902922D03*
X4013614Y373394D03*
X4019520Y3339930D03*
X4021488Y1918670D03*
X4027394Y3847804D03*
Y1763158D03*
X4029362Y3804497D03*
Y2487568D03*
X4047079Y2263158D03*
Y1902922D03*
X4052984Y373394D03*
X4056921Y2550560D03*
X4060858Y2223788D03*
X4068732Y2339930D03*
X4088417Y1774969D03*
X4092354Y1891111D03*
Y373394D03*
X4100228Y2221820D03*
X4125819Y1774969D03*
X4131724Y4271032D03*
Y1584024D03*
Y373394D03*
X4139598Y1891111D03*
X4145504Y2521032D03*
X4151409Y3570245D03*
X4167157Y2271032D03*
X4171094Y4271032D03*
Y373394D03*
X4193339Y2617489D03*
X4196685Y1745442D03*
X4198654Y1084024D03*
X4208850Y4271269D03*
X4210465Y373394D03*
X4214402Y2371426D03*
X4227197Y2501347D03*
X4249835Y4271032D03*
Y1741505D03*
Y373394D03*
X4267551Y2436387D03*
X4269520Y2648001D03*
X4289205Y4271032D03*
Y373394D03*
X4302984Y2877331D03*
X4326961Y4271269D03*
X4328575Y373394D03*
X4338417Y2467883D03*
X4348260Y3454103D03*
Y1867489D03*
X4354165Y3593867D03*
X4360071Y2867489D03*
X4365976Y2755284D03*
X4367945Y4271032D03*
Y2312371D03*
Y373394D03*
X4369913Y2395048D03*
X4373850Y2354694D03*
X4382709Y2446229D03*
X4387630Y1706072D03*
X4389598Y2782843D03*
X4399441Y3467883D03*
Y2424576D03*
Y2395048D03*
Y2365520D03*
Y2335993D03*
Y2306465D03*
X4407315Y4271032D03*
Y373394D03*
X4411252Y2847804D03*
X4423063Y1293670D03*
X4427000Y3601741D03*
X4430937Y2265127D03*
X4437827Y1246426D03*
X4442748Y2885206D03*
X4445071Y4271269D03*
X4446685Y373394D03*
X4454559Y1747410D03*
X4466370Y2589930D03*
X4474244Y2916702D03*
Y2404891D03*
Y2385206D03*
Y2365520D03*
Y2345835D03*
Y2326150D03*
X4486055Y4271032D03*
Y1727725D03*
Y373394D03*
X4499835Y2599772D03*
X4511646Y2757253D03*
X4513614Y2402922D03*
Y1727725D03*
X4519520Y1324182D03*
X4529362Y460009D03*
X4539205Y2402922D03*
X4541173Y4257253D03*
Y4223788D03*
Y4192292D03*
X4543142Y2757253D03*
X4547079Y1684418D03*
X4549047Y1869457D03*
X4564795Y1271032D03*
X4572669Y1717883D03*
X4594323Y3404891D03*
X4596291Y2255284D03*
X4600228Y2723788D03*
X4615976Y3451150D03*
Y3425560D03*
X4619913Y2416702D03*
Y1774969D03*
X4633693Y2290717D03*
Y1576150D03*
X4637630Y3471820D03*
X4643535Y4271032D03*
X4651409Y2251347D03*
Y2215914D03*
X4665189Y1556465D03*
X4681291Y4271269D03*
X4688811Y3605678D03*
Y2601741D03*
Y2552528D03*
Y1574182D03*
X4694717Y1743473D03*
X4695701Y1656859D03*
X4704559Y1928513D03*
Y1826150D03*
X4712433Y1556465D03*
X4715071Y2149654D03*
X4757709Y2391111D03*
Y2341898D03*
Y2294654D03*
X4761646Y3585993D03*
Y373394D03*
X4771488Y3345835D03*
X4781331Y3448198D03*
X4793142Y515127D03*
X4800031Y3343867D03*
X4801016Y373394D03*
X4816764Y656859D03*
X4824638Y2243473D03*
Y1999379D03*
X4825622Y3343867D03*
X4832512Y1135206D03*
X4836449Y505284D03*
X4840386Y373394D03*
X4842354Y656859D03*
X4848181Y1680127D03*
X4848260Y1767095D03*
Y1591898D03*
X4854165Y3347804D03*
X4858102Y3465914D03*
X4867945Y2288749D03*
X4871882Y2050560D03*
Y1999379D03*
Y1879300D03*
Y1024969D03*
X4877787Y505284D03*
X4879756Y373394D03*
X4883693Y708040D03*
X4895504Y1135206D03*
X4903378Y950166D03*
X4917157Y619457D03*
X4917512Y4271269D03*
X4919126Y647017D03*
Y408828D03*
Y373394D03*
X4928772Y3394851D03*
X4928969Y717883D03*
Y694261D03*
Y670639D03*
X4938811Y1103709D03*
Y1066308D03*
X4946685Y1215914D03*
X4950622Y950166D03*
X4958496Y4271032D03*
Y373394D03*
X4966370Y408828D03*
X4984087Y3603709D03*
X4989992Y2121426D03*
X4991961Y2310402D03*
X4993929Y2076150D03*
Y1971820D03*
Y1934418D03*
X4995898Y2042686D03*
X4997866Y4271032D03*
Y1215914D03*
Y950166D03*
Y373394D03*
X5009677Y4176544D03*
X5013614Y408828D03*
X5019520Y1080087D03*
X5023457Y3402922D03*
X5035622Y4271269D03*
X5037236Y373394D03*
X5052984Y1469851D03*
X5064323Y2161308D03*
X5064598Y2239733D03*
X5064795Y2391111D03*
X5066764Y2032843D03*
X5076606Y4271032D03*
Y373394D03*
X5084480Y1702135D03*
Y1497410D03*
X5106134Y4251347D03*
Y4150954D03*
X5112039Y4202135D03*
X5115976Y373394D03*
X5123850Y1721820D03*
X5135661Y1495442D03*
X5164992Y1721820D03*
X5169126Y1597804D03*
X5190780Y3932450D03*
Y3906859D03*
Y3813355D03*
Y3787765D03*
X5202591Y1546623D03*
X5210465Y2276938D03*
X5212433Y3831072D03*
X5213417Y3951150D03*
Y3887174D03*
X5214402Y3770048D03*
Y3708040D03*
X5234087Y373394D03*
X5238024Y1483631D03*
X5239008Y3992489D03*
Y3966898D03*
Y3870442D03*
Y3844851D03*
Y3752331D03*
Y3726741D03*
X5247866Y2276938D03*
X5262630Y4009221D03*
X5267551Y2463946D03*
X5273457Y373394D03*
X5279362Y2237568D03*
X5281331Y2265127D03*
X5299047Y1778906D03*
Y1753316D03*
Y1721820D03*
Y1507253D03*
X5302000Y3057450D03*
Y2912765D03*
Y2859615D03*
Y2787765D03*
Y2716898D03*
X5303969Y2985599D03*
X5304953Y1363552D03*
X5318732Y4251544D03*
X5320701Y2836977D03*
Y2811387D03*
X5321685Y3035796D03*
Y3010206D03*
Y2960993D03*
Y2935402D03*
Y2763158D03*
Y2737568D03*
X5322669Y2274969D03*
X5325583Y971820D03*
X5325622Y1030875D03*
X5325701Y1089930D03*
X5326606Y676544D03*
Y617489D03*
X5326921Y912765D03*
X5327551Y479694D03*
X5327591Y794654D03*
Y460009D03*
Y440324D03*
X5328260Y853709D03*
X5328535Y1148985D03*
X5328575Y1168670D03*
Y735599D03*
X5332512Y2357646D03*
X5340386Y2985599D03*
Y2787765D03*
Y1509221D03*
X5350228Y2274969D03*
X5365976Y1704103D03*
X5375819Y4200166D03*
X5377787Y1745442D03*
X5391567Y4271032D03*
X5395504Y2680481D03*
Y2652922D03*
Y2623394D03*
X5397472Y4117489D03*
Y2210009D03*
X5421094Y1708040D03*
X5425031Y2284812D03*
Y1546623D03*
X5429323Y4271269D03*
X5430937Y373394D03*
X5431921Y4118473D03*
X5432906Y1168670D03*
Y1147017D03*
Y1089930D03*
Y1030875D03*
Y971820D03*
Y912765D03*
Y853709D03*
Y794654D03*
Y735599D03*
Y676544D03*
Y617489D03*
Y479694D03*
Y460009D03*
Y440324D03*
X5434874Y1572213D03*
X5442748Y1597804D03*
X5448654Y989536D03*
X5456528Y2357646D03*
X5457512Y2918670D03*
X5457709Y2744497D03*
X5470307Y4271032D03*
Y373394D03*
X5471291Y1007253D03*
X5473260Y4162765D03*
X5483102Y2277922D03*
X5489992Y3473788D03*
X5491961Y3639143D03*
X5495504Y1961977D03*
X5496882Y1007253D03*
X5501803Y2204103D03*
X5503772Y4068276D03*
X5504756Y4188749D03*
Y4152528D03*
Y2849182D03*
Y2813355D03*
X5505740Y2119457D03*
X5507709Y936387D03*
X5509677Y4271032D03*
Y373394D03*
X5513614Y1030875D03*
X5515780Y4170639D03*
Y3652922D03*
X5518339Y3473788D03*
X5521488Y1776938D03*
Y838473D03*
X5532315Y954103D03*
X5537236Y4068276D03*
X5541370Y4170639D03*
Y3652922D03*
X5543929Y3473788D03*
X5547079Y1950363D03*
X5547433Y4271269D03*
X5552000Y4188355D03*
Y4152528D03*
Y2849182D03*
Y2813355D03*
X5557906Y954103D03*
X5563024Y4170639D03*
X5564795Y3668670D03*
X5566764Y1593867D03*
Y993473D03*
X5568732Y3097804D03*
Y838473D03*
X5572669Y3475757D03*
X5578575Y975757D03*
X5588417Y4271032D03*
X5588614Y4170639D03*
X5593339Y1007253D03*
X5594323Y2461977D03*
X5598260Y3227725D03*
Y373394D03*
X5599244Y4188355D03*
Y4151938D03*
X5602197Y1981662D03*
X5608102Y1523001D03*
X5610268Y4170639D03*
X5614992Y2849182D03*
X5615976Y2436387D03*
X5618929Y1007253D03*
X5621882Y2731662D03*
X5623850Y3097804D03*
X5625819Y1629300D03*
X5627787Y4271032D03*
Y373394D03*
X5627984Y2581741D03*
X5630740Y2813355D03*
X5633693Y3473788D03*
X5635858Y4170639D03*
X5639598Y3639143D03*
Y1028906D03*
X5643535Y2267095D03*
X5646488Y4188355D03*
Y4151938D03*
X5657512Y4170639D03*
X5662039Y3473788D03*
X5663220Y2367489D03*
X5664205Y3652922D03*
X5665189Y3097804D03*
X5665543Y4271269D03*
X5667157Y373394D03*
X5683102Y4170639D03*
X5684874Y2172607D03*
Y2121426D03*
Y1991505D03*
X5686843Y1916702D03*
Y1877331D03*
X5687630Y3473788D03*
X5688811Y2687371D03*
Y2464930D03*
X5689795Y3652922D03*
X5692748Y1702135D03*
X5693732Y4188355D03*
Y4151938D03*
Y2849182D03*
X5704756Y4170639D03*
X5706528Y4271032D03*
Y373394D03*
X5708496Y2938355D03*
X5709480Y2813355D03*
X5712433Y3670639D03*
Y1774969D03*
Y1733631D03*
X5716370Y3475757D03*
Y3245442D03*
X5722276Y2432450D03*
X5730346Y4170639D03*
X5738024Y3224772D03*
Y3199182D03*
Y3085993D03*
X5738220Y2985599D03*
X5740976Y4188355D03*
Y4151938D03*
X5741961Y1595835D03*
X5745898Y4271032D03*
X5745937Y373394D03*
X5751803Y3979694D03*
X5752000Y4170639D03*
X5755740Y2023001D03*
Y1900954D03*
X5757709Y3176544D03*
X5761646Y1965914D03*
X5769520Y2684418D03*
X5772472Y2849182D03*
X5773457Y3475757D03*
Y2223788D03*
X5775425Y3639143D03*
X5777591Y4170639D03*
X5781331Y3979694D03*
X5783654Y4271269D03*
X5785268Y3095835D03*
Y373394D03*
X5788220Y4188355D03*
Y2813355D03*
X5789205Y2729694D03*
X5795110Y2965914D03*
X5800031Y3652922D03*
X5801803Y3475757D03*
X5806921Y3979694D03*
X5810858Y2357646D03*
X5816764Y2547607D03*
Y2426544D03*
Y2395048D03*
X5822669Y1446229D03*
Y1420639D03*
Y1389143D03*
Y1359615D03*
X5824638Y4271032D03*
Y373394D03*
X5825622Y3652922D03*
X5827394Y3475757D03*
X5827591Y4003316D03*
Y3956072D03*
X5830543Y4076150D03*
X5835465Y4188355D03*
X5840386Y2341898D03*
X5848260Y3979694D03*
Y3670639D03*
X5851213Y2849182D03*
X5852197Y1790717D03*
X5856134Y3477725D03*
X5864008Y4271032D03*
Y3245442D03*
Y3178513D03*
Y373394D03*
X5866961Y2813355D03*
X5867157Y4076150D03*
X5873850Y3979694D03*
X5879559Y2965717D03*
X5879756Y2932450D03*
X5882709Y4188355D03*
Y4151938D03*
X5885661Y3224772D03*
Y3199182D03*
X5894520Y4003316D03*
Y3956072D03*
X5901764Y4271269D03*
X5903378Y373394D03*
X5909283Y3637174D03*
X5911252Y2580087D03*
X5913220Y1523001D03*
X5914205Y2850166D03*
Y2813355D03*
X5915189Y3979694D03*
Y552528D03*
X5923063Y1887174D03*
X5925031Y1119457D03*
X5929953Y4188355D03*
Y4151938D03*
X5930937Y2733631D03*
X5932906Y2706072D03*
X5934874Y1597804D03*
X5938811Y2831072D03*
X5940780Y3979694D03*
X5942748Y4271032D03*
Y3637174D03*
Y373394D03*
X5949638Y3246426D03*
X5950622Y2979694D03*
X5958496Y1857646D03*
X5961449Y2850166D03*
Y2813355D03*
X5962433Y2717883D03*
Y1093867D03*
X5963417Y3219851D03*
Y3194261D03*
X5968339Y3109615D03*
X5969323Y3991505D03*
X5974244Y1601741D03*
X5977197Y4188355D03*
Y4151938D03*
X5978181Y515127D03*
X5979165Y3169654D03*
X5982118Y4271032D03*
Y373394D03*
X5984087Y2694261D03*
X5988024Y3411780D03*
X5988220Y4170639D03*
X5991961Y1889143D03*
X5993929Y1395048D03*
X6002787Y2486583D03*
X6003772Y3103709D03*
X6005740Y3141111D03*
Y2580087D03*
X6008693Y2813355D03*
X6013614Y2554497D03*
X6013811Y4170639D03*
X6018535Y3411780D03*
X6019874Y4271269D03*
X6021488Y2733631D03*
Y373394D03*
X6024441Y4188355D03*
Y4151938D03*
Y2850166D03*
X6027394Y1859615D03*
X6029362Y1568276D03*
X6035465Y4170639D03*
X6041173Y3023985D03*
Y672607D03*
X6043142Y3137174D03*
X6044126Y3411780D03*
X6047079Y2672607D03*
Y2625363D03*
X6056921Y515127D03*
X6060858Y4271032D03*
X6061055Y4170639D03*
X6062827Y1719851D03*
X6063614Y373709D03*
X6071685Y4188355D03*
Y4151938D03*
X6072669Y3411780D03*
X6073654Y3488552D03*
X6076606Y672607D03*
X6078575Y2977725D03*
X6082709Y4170639D03*
X6092354Y3227725D03*
X6097079Y2287607D03*
X6100228Y4271032D03*
Y373394D03*
X6102197Y3488552D03*
X6108299Y4170639D03*
X6110071Y2942292D03*
X6112039Y2410796D03*
X6118929Y4188355D03*
Y4151938D03*
X6119913Y1839930D03*
X6127787Y3488552D03*
X6129953Y4170639D03*
X6137984Y4271269D03*
X6139598Y373394D03*
X6143535Y2410796D03*
X6155543Y4170639D03*
X6158299Y3558434D03*
Y3488552D03*
X6166173Y4188355D03*
Y4151938D03*
X6175031Y2410796D03*
X6178969Y373394D03*
X6186843Y3558434D03*
X6192748Y1731662D03*
X6212433Y3558434D03*
Y1574182D03*
X6213417Y4188355D03*
Y4151938D03*
X6214402Y1521032D03*
X6218339Y2843867D03*
Y373394D03*
X6220307Y1454103D03*
X6222276Y1345835D03*
X6234087Y3011190D03*
Y2822213D03*
X6238024Y3137174D03*
X6239992Y2704103D03*
Y2672607D03*
Y2625363D03*
X6241961Y2733631D03*
Y1682450D03*
X6242945Y3558434D03*
X6243929Y3628316D03*
X6247866Y4118276D03*
X6248850Y4161780D03*
X6253772Y3286780D03*
X6257709Y1948198D03*
Y373394D03*
X6261646Y1751347D03*
Y1656859D03*
X6263614Y2523001D03*
X6267551Y2623394D03*
Y2475757D03*
X6269520Y2554497D03*
Y1910796D03*
X6273654Y3628316D03*
X6281331Y3074182D03*
X6291173Y2361583D03*
Y2314339D03*
X6293142Y3286780D03*
X6294126Y2523001D03*
X6297079Y1420639D03*
Y373394D03*
X6299244Y3628316D03*
X6306921Y1210009D03*
X6312827Y2845835D03*
X6316764Y2692292D03*
X6319717Y2523001D03*
X6324638Y1420639D03*
X6328575Y3698198D03*
Y3628316D03*
X6332512Y4271032D03*
X6336449Y373394D03*
X6344323Y2845835D03*
X6348260Y3241505D03*
X6350228Y2523001D03*
X6356134Y934418D03*
X6358102Y3698198D03*
X6360071Y2040717D03*
X6367945Y2985599D03*
Y1021032D03*
X6371882Y2820245D03*
X6374205Y4271269D03*
X6375819Y373394D03*
X6377787Y1115520D03*
X6383693Y3698198D03*
X6389795Y2739733D03*
X6391567Y2926544D03*
Y2778906D03*
X6397472Y2314339D03*
X6401409Y2587961D03*
X6407315Y3328119D03*
X6413220Y3698198D03*
Y3404891D03*
X6415189Y4271032D03*
Y1345835D03*
Y1062371D03*
Y373394D03*
X6417157Y672607D03*
X6428969Y2105678D03*
X6430937Y1521032D03*
Y1416702D03*
X6434874Y2229694D03*
Y517095D03*
X6448654Y1733631D03*
X6452591Y672607D03*
X6454559Y4271032D03*
Y373394D03*
X6462433Y2975757D03*
X6464402Y2495442D03*
X6466370Y2444261D03*
X6480150Y2023001D03*
Y1983631D03*
X6492315Y4271269D03*
X6493929Y373394D03*
X6501803Y2975757D03*
X6513614Y517095D03*
X6523457Y2042686D03*
Y1979694D03*
X6525425Y893080D03*
Y794654D03*
X6531331Y2467883D03*
X6533299Y4271032D03*
Y2566308D03*
Y2349772D03*
Y373394D03*
X6572669D03*
X6576606Y552528D03*
X6604165Y1617489D03*
Y1538749D03*
X6612039Y373394D03*
X6643535Y1578119D03*
X6651409Y373394D03*
X6682906Y1617489D03*
Y1538749D03*
X6690780Y373394D03*
X6730150D03*
X6756921Y3802922D03*
X6761646Y2011190D03*
X6769520Y373394D03*
X6775425Y2210009D03*
Y1763158D03*
X6789205Y1814339D03*
X6797079Y865520D03*
X6808890Y4034812D03*
Y3986150D03*
Y3944261D03*
Y3904891D03*
Y3865520D03*
Y3722371D03*
Y3680481D03*
Y3641111D03*
Y3601741D03*
Y3092450D03*
Y3050560D03*
Y3011190D03*
Y2971820D03*
Y2735599D03*
Y2696229D03*
Y2656859D03*
Y2617489D03*
Y2578119D03*
Y2538749D03*
Y2499379D03*
Y2460009D03*
Y2420639D03*
Y2381269D03*
Y2341898D03*
Y2302528D03*
Y2263158D03*
Y2223788D03*
Y2184418D03*
Y2145048D03*
Y2105678D03*
Y1711977D03*
Y1672607D03*
Y1633237D03*
Y1593867D03*
Y1554497D03*
Y1515127D03*
Y1475757D03*
Y1436387D03*
Y1397017D03*
Y1357646D03*
Y1318276D03*
Y1278906D03*
Y1239536D03*
Y1200166D03*
Y1160796D03*
Y1121426D03*
Y1082056D03*
Y1042686D03*
Y1003316D03*
Y963946D03*
Y924576D03*
Y767095D03*
Y727725D03*
Y688355D03*
Y648985D03*
Y609615D03*
Y570245D03*
Y530875D03*
Y491505D03*
Y452135D03*
Y412765D03*
X6810858Y1792686D03*
Y1753316D03*
X767354Y2949182D03*
X818535D03*
X1336449Y2794654D03*
X1433890Y2892095D03*
Y2794654D03*
Y2697213D03*
X1531331Y2794654D03*
X1602197Y2192292D03*
Y2124969D03*
X1635858Y2158631D03*
X1669520Y2192292D03*
Y2124969D03*
X1818732Y2480678D03*
Y2429497D03*
X1869913Y2480678D03*
Y2429497D03*
X1877787Y1524969D03*
Y1473788D03*
X1928969Y1524969D03*
Y1473788D03*
X1964402Y1042686D03*
Y991505D03*
X2015583Y1042686D03*
Y991505D03*
X2023457Y562371D03*
Y511190D03*
X2074638Y562371D03*
Y511190D03*
X4429953Y1830087D03*
Y1786780D03*
G54D11*
X3540189Y2702135D03*
Y2741505D03*
Y2662765D03*
X3601213Y2741505D03*
Y2702135D03*
Y2662765D03*
X3662236Y2741505D03*
Y2662765D03*
Y2702135D03*
X5194717Y2085993D03*
Y2038749D03*
Y1991505D03*
Y1944261D03*
Y1897017D03*
X5241961Y2085993D03*
Y2038749D03*
Y1991505D03*
Y1944261D03*
Y1897017D03*
X5289205Y2085993D03*
Y2038749D03*
Y1991505D03*
Y1944261D03*
Y1897017D03*
X5336449Y2085993D03*
Y2038749D03*
Y1991505D03*
Y1942292D03*
Y1897017D03*
X5383693Y2085993D03*
Y2038749D03*
Y1991505D03*
Y1942292D03*
Y1897017D03*
G54D12*
X539402Y3688355D03*
X559087Y3747410D03*
X618142Y3688355D03*
X657512Y3747410D03*
X696882Y3688355D03*
X736252Y3747410D03*
X775622Y3688355D03*
X834677Y3747410D03*
X854362Y3688355D03*
X1248063D03*
X1267748Y3747410D03*
X1326803Y3688355D03*
X1366173Y3747410D03*
X1405543Y3688355D03*
X1444913Y3747410D03*
X1484283Y3688355D03*
X1543339Y3747410D03*
X1563024Y3688355D03*
G54D13*
X1914008Y3260009D03*
X1954165Y3360009D03*
X1993929Y3260009D03*
X2034087Y3360009D03*
X2073850Y3260009D03*
X2114008Y3360009D03*
X2194323D03*
X2234480Y3260009D03*
X2274244Y3360009D03*
X2314402Y3260009D03*
X2354165Y3360009D03*
X2394323Y3260009D03*
G54D14*
X1914008Y3160009D03*
X2014008D03*
X2294323D03*
X2394323D03*
X4422276Y1404891D03*
X4522276D03*
X4622276D03*
X4722276D03*
X4822276D03*
X4922276D03*
X5795898Y1261190D03*
Y1161190D03*
Y1061190D03*
Y961190D03*
Y861190D03*
Y761190D03*
Y661190D03*
Y561190D03*
X6016370Y2208040D03*
X6016606Y2096702D03*
X6116370Y2208040D03*
X6116606Y2096702D03*
X6216370Y2208040D03*
X6216606Y2096702D03*
X6695898Y1261190D03*
Y1161190D03*
Y1061190D03*
Y961190D03*
Y861190D03*
Y761190D03*
Y661190D03*
Y561190D03*
G54D15*
X1836843Y4084812D03*
X2471882D03*
G54D16*
X438220Y3826150D03*
X955543D03*
X1146882D03*
X1664205D03*
G54D17*
X149441Y3802528D03*
Y825363D03*
X2878969Y804497D03*
X3587630D03*
X4060071D03*
X6995898Y3802528D03*
Y825363D03*
G54D18*
X4800228Y4150560D03*
Y2851347D03*
X6689992Y4150560D03*
Y2851347D03*
G54D19*
X6458575Y2326544D03*
G54D20*
X5172276Y1198198D03*
G54D15*
Y410796D03*
G54D21*
X549047Y2107646D03*
Y2558434D03*
X824638Y2107646D03*
Y2558434D03*
G54D22*
X1904165Y3960009D03*
X2404165D03*
G54D23*
X6495000Y2630875D02*
X6520591D01*
X6495000Y2305678D02*
X6520591D01*
X6729291Y2645048D02*
X6754843D01*
X6729291Y2291505D02*
X6754843D01*
G54D24*
X621882Y1131269D02*
Y1213946D01*
X692748Y983631D02*
X775425D01*
X850228Y1123394D02*
Y1221820D01*
G54D25*
X2633693Y4098394D02*
Y4131859D01*
G54D26*
Y4094497D03*
Y4135757D03*
G54D25*
Y3845048D02*
Y3915914D01*
X3204559Y4098394D02*
Y4131859D01*
G54D26*
Y4094497D03*
Y4135757D03*
G54D25*
Y3845048D02*
Y3915914D01*
G54D27*
X6458583Y2603119D02*
Y2616898D01*
G54D28*
Y2597253D03*
Y2622765D03*
G54D29*
X4800228Y4150560D03*
Y2851347D03*
X6689992Y4150560D03*
Y2851347D03*
X1904165Y3960009D03*
X2404165D03*
G54D30*
X275591Y98425D03*
X6874016D03*
X6755906Y4531496D03*
X393701D03*
G54D31*
X760149Y324803D03*
X793613D03*
X827078D03*
X860542D03*
X894007D03*
X768161Y4305118D03*
X801625D03*
X835090D03*
X868554D03*
X902019D03*
X3594794Y324803D03*
X3628259D03*
X3661723D03*
X3695188D03*
X3728652D03*
X3602806Y4305118D03*
X3636271D03*
X3669736D03*
X3703200D03*
X3736665D03*
X6429440Y324803D03*
X6462904D03*
X6496369D03*
X6529834D03*
X6563298D03*
X6437452Y4305118D03*
X6470917D03*
X6504381D03*
X6537846D03*
X6571310D03*
M02*
