*
%FSLAX26Y26*%
%MOIN*%
%ADD10C,0.007874*%
%ADD11C,0.012992*%
%ADD12C,0.027559*%
%ADD13C,0.037402*%
%ADD14C,0.043307*%
%ADD15C,0.061811*%
%ADD16C,0.090551*%
%ADD17C,0.118110*%
%ADD18C,0.149606*%
%ADD19C,0.019685*%
%ADD20C,0.035433*%
%ADD21C,0.025591*%
%ADD22C,0.062992*%
%ADD23C,0.066929*%
%ADD24C,0.129921*%
%ADD25C,0.196850*%
%IPPOS*%
%LN37666-3475236.drl*%
%LPD*%
G75*
G54D10*
X346685Y1534764D03*
Y1387126D03*
X352197Y3267087D03*
Y3227717D03*
Y3188346D03*
Y3148976D03*
Y3109606D03*
Y3070236D03*
Y3030866D03*
Y2991496D03*
Y2952126D03*
Y2912756D03*
Y2873386D03*
Y2834016D03*
Y2794646D03*
Y2755276D03*
Y2597795D03*
Y2558425D03*
Y2519055D03*
Y2479685D03*
Y2440315D03*
Y2400945D03*
Y2361575D03*
Y2322205D03*
Y2282835D03*
Y2243465D03*
Y2204094D03*
Y2164724D03*
Y2125354D03*
Y2085984D03*
Y2046614D03*
Y2007244D03*
Y1967874D03*
Y1928504D03*
Y1889134D03*
Y1849764D03*
Y1810394D03*
Y1771024D03*
Y1731654D03*
Y1692283D03*
Y1652913D03*
Y1613543D03*
Y1574173D03*
Y1022992D03*
Y983622D03*
Y944252D03*
Y904882D03*
Y865512D03*
Y826142D03*
Y786772D03*
Y747402D03*
Y708031D03*
Y668661D03*
Y274961D03*
Y235591D03*
Y196220D03*
Y156850D03*
Y117480D03*
Y78110D03*
Y38740D03*
X391567D03*
X430937D03*
X442748Y1627323D03*
X448654Y251339D03*
X470307Y38740D03*
X496882Y2899961D03*
X499835Y3127323D03*
X509677Y38740D03*
X521488Y68268D03*
X524441Y2912756D03*
X524638Y3113543D03*
X550031Y2912756D03*
X550228Y3113543D03*
X566764Y1627323D03*
X570898Y1269055D03*
Y1231654D03*
X572669Y1373386D03*
X574638Y3127323D03*
X577591Y2925551D03*
X578575Y1406850D03*
X596291Y2702126D03*
Y2654882D03*
X619913Y2898976D03*
X621882Y3131260D03*
X635661Y1353701D03*
X637630Y2558425D03*
X637827Y1165709D03*
X646488Y2912756D03*
X646685Y3113543D03*
X672079Y2912756D03*
X672276Y3113543D03*
X675031Y3178504D03*
X677000Y2737559D03*
X696685Y3131260D03*
X698654Y2926535D03*
X712433Y2654882D03*
X722276Y3178504D03*
X724441Y1289724D03*
X736055Y2560394D03*
X741961Y2898976D03*
X747866Y3135197D03*
X755937Y1170630D03*
X768535Y2912756D03*
X768614Y3113543D03*
X793142Y2759213D03*
X794126Y2912756D03*
X794205Y3113543D03*
X801213Y1215906D03*
X812827Y3135197D03*
X820701Y2927520D03*
Y2757244D03*
X824835Y1130276D03*
X850228Y2560394D03*
X856134Y2668661D03*
X875819Y2723780D03*
X927000Y481654D03*
X928969Y353701D03*
X948654Y2558425D03*
X995898Y2956063D03*
X1041173Y3129291D03*
X1045110Y3235787D03*
X1051016Y3377323D03*
X1082512Y2548583D03*
X1106134Y2389134D03*
X1112039Y814331D03*
X1114008Y607638D03*
X1117945Y2431457D03*
X1119913Y2225748D03*
X1121882Y2548583D03*
X1133693Y2410787D03*
X1143535Y2619449D03*
X1144520Y2237559D03*
X1147472Y2470827D03*
Y2445236D03*
X1151409Y607638D03*
X1152197Y2645827D03*
X1161252Y2496142D03*
X1163220Y2542677D03*
X1170110Y2237559D03*
X1170307Y2663937D03*
X1175031Y1733622D03*
Y1619449D03*
X1178969Y1834016D03*
X1182906Y2690315D03*
Y782835D03*
X1192748Y2253307D03*
X1204559Y2670630D03*
Y2601732D03*
X1206528Y540709D03*
X1210465Y2908819D03*
X1212433Y2237559D03*
X1220307Y3133228D03*
Y725748D03*
X1224441Y629094D03*
X1226213Y491496D03*
X1236055Y432441D03*
X1240976Y2908819D03*
X1241134Y3112717D03*
X1251803Y2200157D03*
X1257709Y889134D03*
X1266567Y2908819D03*
X1266724Y3112717D03*
X1267551Y2737559D03*
X1271488Y2259213D03*
X1279362Y2330079D03*
Y2162756D03*
X1281331Y2759213D03*
X1283299Y2674567D03*
Y245433D03*
X1287236Y3133228D03*
X1289205Y2603701D03*
X1297079Y2908819D03*
X1301685Y2779567D03*
X1305386Y2321772D03*
X1312827Y2137165D03*
X1315386Y2616102D03*
X1318732Y849764D03*
X1319756Y2797638D03*
X1323496Y2303661D03*
X1328575Y2276929D03*
X1332512Y2910787D03*
X1333457Y2634173D03*
X1334480Y580079D03*
X1338417Y3129291D03*
Y2662756D03*
X1348260Y2806457D03*
X1363024Y3114685D03*
Y2910787D03*
X1375819Y3176535D03*
X1388614Y3114685D03*
Y2910787D03*
X1393535Y2160787D03*
X1395504Y2121417D03*
X1399441Y493465D03*
X1409283Y373386D03*
X1413220Y78110D03*
X1415189Y3133228D03*
X1417157Y2682441D03*
X1419126Y2910787D03*
X1423063Y3176535D03*
X1424835Y2709803D03*
X1425031Y737559D03*
X1428969Y1989528D03*
X1430937Y885197D03*
X1438811Y2753307D03*
X1442945Y2727913D03*
X1446685Y2784803D03*
X1454559Y2910787D03*
X1466370Y3137165D03*
X1470307Y629291D03*
X1478181Y1946220D03*
X1482118Y605669D03*
X1484283Y924567D03*
X1485071Y3114685D03*
Y2910787D03*
X1495898Y2200157D03*
X1501803Y2166693D03*
X1510661Y3114685D03*
Y2910787D03*
X1515583Y2046614D03*
X1521488Y2186378D03*
Y835984D03*
X1537236Y1554488D03*
X1539205Y2645039D03*
Y2276929D03*
X1540189Y2918661D03*
Y2305472D03*
X1541173Y3121417D03*
Y1668661D03*
X1543890Y2616772D03*
X1545110Y2164724D03*
X1552000Y2328110D03*
X1554953Y1983622D03*
X1558890Y369449D03*
X1561961Y2598661D03*
X1564795Y2302520D03*
X1577591Y2330079D03*
X1578575Y2753307D03*
X1580543Y2804488D03*
X1581528Y2353701D03*
X1592354Y2595827D03*
Y1554488D03*
X1610071Y2721811D03*
X1614008Y1320236D03*
X1615976Y1280866D03*
X1621882Y1554488D03*
Y414724D03*
X1625819Y489528D03*
X1627787Y2530866D03*
X1631724Y1160787D03*
X1633693Y2690315D03*
X1639598Y1233622D03*
X1651409Y2430472D03*
Y38740D03*
X1655346Y2794646D03*
Y225748D03*
Y186378D03*
X1657315Y2060394D03*
Y2032835D03*
Y296614D03*
X1661252Y1993465D03*
X1663220Y2666693D03*
Y2261181D03*
Y1042677D03*
X1665189Y1960000D03*
X1669126Y2367480D03*
X1671094Y2450157D03*
X1673063Y2842874D03*
Y2817283D03*
Y137165D03*
X1688811Y2867480D03*
X1691173Y38740D03*
X1696685Y2351732D03*
Y2294646D03*
X1700622Y2460000D03*
X1704559Y1960000D03*
X1706528Y2131260D03*
X1720307Y688346D03*
X1728181Y2607638D03*
X1730150Y2460000D03*
Y38740D03*
X1732118Y2497402D03*
X1739992Y2351732D03*
Y2290709D03*
X1745898Y1650945D03*
X1747866Y1686378D03*
X1751803Y560394D03*
X1753772Y2865512D03*
X1755740Y3022992D03*
X1757709Y786772D03*
X1759677Y3129488D03*
Y2572205D03*
Y2440315D03*
X1761646Y117480D03*
X1763614Y3235787D03*
X1769520Y2637165D03*
Y2597795D03*
Y2371417D03*
Y38740D03*
X1775425Y206063D03*
X1777394Y388898D03*
X1779362Y2528898D03*
X1780346Y321220D03*
X1785268Y1806457D03*
X1785465Y1833819D03*
X1787236Y1558425D03*
Y276929D03*
X1795110Y1948189D03*
X1799047Y2440315D03*
Y2371417D03*
X1804953Y1682441D03*
X1808890Y2637165D03*
Y38740D03*
X1814795Y1296614D03*
X1814992Y2335787D03*
X1828575Y2381260D03*
Y332047D03*
X1830543Y771024D03*
X1838417Y1843858D03*
X1848260Y2637165D03*
Y38740D03*
X1858102Y2440315D03*
Y2410787D03*
X1864008Y2658819D03*
X1869913Y1042677D03*
X1873850Y1843858D03*
X1887630Y2637165D03*
Y2528898D03*
Y38740D03*
X1891567Y2448189D03*
X1897472Y2597795D03*
Y2558425D03*
X1913220Y2656850D03*
X1921094Y2369449D03*
Y2343858D03*
Y1798583D03*
Y1753307D03*
X1927000Y38740D03*
X1930937Y1558425D03*
X1936843Y2546614D03*
X1938811Y2424567D03*
X1946685Y560394D03*
X1952591Y2369449D03*
Y2343858D03*
Y1326142D03*
X1958496Y1981654D03*
X1966764Y38740D03*
X1977984Y2422598D03*
X1978181Y2550551D03*
X1991961Y2357638D03*
X1993929Y2627323D03*
X2001803Y2186378D03*
X2005740Y38740D03*
X2009677Y1056457D03*
X2010661Y2660787D03*
X2021685Y2627323D03*
X2037236Y843858D03*
X2045110Y38740D03*
X2047276Y2627323D03*
X2070701Y2645039D03*
Y2611575D03*
X2078575Y2257244D03*
X2084480Y38740D03*
X2091370Y2287756D03*
X2095307Y2627323D03*
X2096291Y574173D03*
X2098260Y357638D03*
X2104165Y1865512D03*
X2120898Y2627323D03*
X2123850Y38740D03*
X2135661Y950157D03*
X2141567Y2448189D03*
X2149441Y2627323D03*
X2155346Y93858D03*
X2163220Y38740D03*
X2194717Y2627323D03*
X2202591Y38740D03*
X2206528Y2054488D03*
X2216370Y2408819D03*
Y2349764D03*
X2222276Y1879291D03*
X2223260Y2627323D03*
X2242354Y38740D03*
X2245898Y2054488D03*
X2248850Y2627323D03*
X2269520Y2650945D03*
Y2607638D03*
X2281331Y38740D03*
X2289402Y2627323D03*
X2301016Y1879291D03*
X2314992Y2627323D03*
X2320701Y38740D03*
X2325622Y2661772D03*
X2340386Y2542677D03*
X2342354Y2627323D03*
X2360071Y38740D03*
X2367945Y2198189D03*
X2385661Y2242480D03*
Y2216890D03*
Y1164724D03*
X2391567Y1330079D03*
Y999370D03*
X2399441Y38740D03*
X2401409Y2263150D03*
X2413220Y2521024D03*
Y2456063D03*
X2415189Y2400945D03*
Y2345827D03*
X2436843Y2044646D03*
X2438811Y38740D03*
X2440780Y2182441D03*
X2450622Y1060394D03*
Y1022992D03*
X2456528Y1983622D03*
X2474244Y2647008D03*
Y2334016D03*
X2478181Y2133228D03*
Y851732D03*
Y684409D03*
Y517087D03*
Y38740D03*
X2488024Y1700157D03*
X2489992Y1627323D03*
X2513614Y2334016D03*
X2517551Y38740D03*
X2519520Y1924567D03*
Y1885197D03*
Y1507244D03*
X2537236Y373386D03*
Y206063D03*
X2545110Y587953D03*
Y550551D03*
X2547079Y2150945D03*
X2549047Y2334016D03*
Y1613543D03*
X2554953Y1436378D03*
X2556921Y38740D03*
X2562827Y1704094D03*
X2564795Y2954094D03*
Y2853701D03*
X2586449Y1694252D03*
X2596291Y38740D03*
X2600228Y115512D03*
Y78110D03*
X2606134Y3353701D03*
Y1298583D03*
X2615976Y1804488D03*
X2617945Y1436378D03*
X2629756Y1186378D03*
Y1160787D03*
X2645504Y2400945D03*
X2649441Y1487559D03*
X2657315Y1186378D03*
Y1160787D03*
X2659283Y1288740D03*
X2667157Y2036772D03*
X2669126Y1058425D03*
Y1019055D03*
X2673063Y3095827D03*
X2682906Y1434409D03*
X2684874Y2633228D03*
Y1186378D03*
Y1160787D03*
X2694717Y2135197D03*
X2700622Y826142D03*
X2702591Y3095827D03*
X2704559Y1288740D03*
X2712433Y1507244D03*
Y1186378D03*
Y1160787D03*
X2714402Y613543D03*
X2726213Y3259213D03*
Y690315D03*
X2728181Y3095827D03*
X2739992Y1186378D03*
Y1160787D03*
Y713937D03*
X2741961Y1694252D03*
X2743929Y2341890D03*
X2745898Y3192283D03*
X2751803Y3115512D03*
Y3076142D03*
X2753772Y818268D03*
Y690315D03*
X2757709Y357638D03*
X2761646Y3450157D03*
X2767551Y713937D03*
X2775425Y3095827D03*
X2781331Y1875354D03*
Y690315D03*
Y1900945D03*
X2783299Y150945D03*
X2789205Y219843D03*
X2793142Y637165D03*
Y38740D03*
X2795110Y713937D03*
X2801016Y3095827D03*
X2802984Y1987559D03*
Y243465D03*
X2808890Y690315D03*
X2812827Y343858D03*
X2816764Y219843D03*
X2820701Y3450157D03*
X2822669Y713937D03*
X2824638Y3115512D03*
Y3076142D03*
X2830543Y243465D03*
X2832512Y38740D03*
X2836449Y690315D03*
X2838417Y3295630D03*
X2842354Y2111575D03*
X2844323Y219843D03*
X2848260Y3095827D03*
X2850228Y713937D03*
X2858102Y243465D03*
X2871882Y219843D03*
Y38740D03*
X2873850Y3095827D03*
X2879756Y3450157D03*
X2885661Y243465D03*
X2897472Y3115512D03*
Y3076142D03*
X2899441Y219843D03*
X2911252Y38740D03*
X2913220Y243465D03*
X2917157Y2118465D03*
X2921094Y3095827D03*
X2936843Y1924567D03*
X2938811Y3450157D03*
X2946685Y3095827D03*
X2950622Y38740D03*
X2966370Y1924567D03*
X2970307Y1200157D03*
X2972276Y3245433D03*
X2974244Y3194252D03*
X2976213Y3095827D03*
X2997866Y1924567D03*
X3009677Y1200157D03*
X3019520Y2034803D03*
X3031331Y2357638D03*
X3033299Y2109606D03*
X3037236Y3188346D03*
Y2328110D03*
X3041173Y2570236D03*
X3043142Y2611575D03*
X3056921Y3450157D03*
Y3296614D03*
Y3245433D03*
Y3101732D03*
X3058890Y1885197D03*
X3062827Y1300551D03*
X3067748Y2267087D03*
X3072669Y3192283D03*
X3082512Y3245433D03*
X3088417Y2184409D03*
X3098260Y3292677D03*
X3104165Y1300551D03*
X3110071Y3192283D03*
X3137630Y2044646D03*
Y1885197D03*
X3155346Y2164724D03*
Y2123386D03*
X3163220Y2044646D03*
X3169126Y1284803D03*
X3171291Y2192283D03*
X3183102Y2544646D03*
X3186843Y863543D03*
X3220307Y3357638D03*
X3226213Y1560394D03*
X3246882Y2353701D03*
X3247866Y2324173D03*
X3257709Y3294646D03*
X3261646Y2696220D03*
X3261843Y2542677D03*
X3279362Y1741496D03*
X3293142Y3269055D03*
X3302000Y2335984D03*
X3306921Y1731654D03*
X3308890Y1438346D03*
X3320701Y2603701D03*
X3324638Y1584016D03*
X3328575Y3188346D03*
X3344323Y3936378D03*
Y1660787D03*
X3348260Y3706063D03*
X3380740Y2568268D03*
X3383693Y3936378D03*
X3385661Y3526929D03*
X3391567Y1733622D03*
X3399441Y2589921D03*
X3403378Y1584016D03*
X3410268Y3542677D03*
X3423063Y3936378D03*
Y1249370D03*
X3430937Y3710000D03*
X3431921Y2544646D03*
Y2322205D03*
X3434874Y1595827D03*
X3435858Y3542677D03*
X3436843Y3403898D03*
X3450622Y3511181D03*
X3454559Y1733622D03*
X3458496Y3558425D03*
X3462433Y3936378D03*
X3464402Y1595827D03*
X3470307Y1544646D03*
X3476213Y3391102D03*
X3489992Y3708622D03*
Y1621417D03*
X3495898Y1430472D03*
X3501803Y3936378D03*
Y1249370D03*
X3511646Y2204094D03*
X3521488Y3497402D03*
Y1430472D03*
X3529362Y1753307D03*
Y1682441D03*
X3536252Y3524961D03*
X3541173Y3936378D03*
Y1544646D03*
Y38740D03*
X3543142Y2812362D03*
X3547079Y3018858D03*
X3549047Y3708622D03*
Y3580079D03*
Y1430472D03*
X3561843Y3524961D03*
X3564795Y1922598D03*
X3574638Y1428504D03*
X3576606Y1619449D03*
X3580543Y3936378D03*
Y1249370D03*
Y38740D03*
X3586449Y3509213D03*
Y3460000D03*
X3589402Y2210000D03*
X3602197Y1922598D03*
X3604165Y2170630D03*
X3608102Y3708622D03*
Y1753307D03*
Y1682441D03*
X3608299Y3015118D03*
X3611055Y3526929D03*
X3612039Y1544646D03*
X3614008Y2530866D03*
Y1428504D03*
X3619913Y3936378D03*
Y38740D03*
X3636646Y3526929D03*
X3639598Y2544646D03*
X3647472Y1619449D03*
X3649441Y2043661D03*
X3651409Y3253307D03*
X3655346Y2814331D03*
X3659283Y3936378D03*
Y1249370D03*
Y38740D03*
X3662039Y3558425D03*
X3667157Y3708622D03*
X3667945Y3527323D03*
X3673063Y2538740D03*
Y1428504D03*
X3682709Y2696417D03*
X3682906Y2648976D03*
X3684874Y1898976D03*
X3686843Y1753307D03*
Y1682441D03*
X3687630Y3558425D03*
X3694717Y3499370D03*
X3694913Y3017087D03*
X3698654Y3936378D03*
Y38740D03*
X3712433Y3255276D03*
X3715386Y3545630D03*
X3717276Y2160787D03*
X3718339Y2532835D03*
Y2044646D03*
X3720307Y2564331D03*
X3722276Y1898976D03*
X3726213Y3710000D03*
X3732118Y1428504D03*
X3738024Y3936378D03*
Y38740D03*
X3745898Y1554488D03*
X3757709Y3710000D03*
X3758693Y3490512D03*
X3770504Y2292677D03*
X3776409Y3515118D03*
X3777394Y3936378D03*
Y38740D03*
X3779165Y1859803D03*
X3785268Y3710000D03*
X3787236Y3564331D03*
X3791173Y1428504D03*
X3793142Y2387165D03*
Y1554488D03*
X3802000Y3515118D03*
Y2050551D03*
X3802984Y3485591D03*
X3816764Y3936378D03*
Y1249370D03*
Y38740D03*
X3826606Y3570236D03*
X3830543Y3117480D03*
X3832512Y2521024D03*
X3842354Y3627323D03*
X3844323Y3235591D03*
X3850228Y1428504D03*
X3856134Y3936378D03*
Y38740D03*
X3865976Y2133228D03*
X3873850Y3505276D03*
X3887630Y1552520D03*
X3895504Y3936378D03*
Y3235591D03*
Y38740D03*
X3909283Y1428504D03*
X3913220Y3036772D03*
Y3009213D03*
X3915189Y3308425D03*
X3921094Y3255276D03*
X3923063Y3215906D03*
Y2003307D03*
X3934874Y3936378D03*
Y1552520D03*
Y38740D03*
X3939795Y2190315D03*
X3955543Y2242480D03*
Y2216890D03*
X3968339Y1428504D03*
X3970307Y3676535D03*
Y3629291D03*
X3971291Y2267087D03*
X3974244Y3936378D03*
Y1249370D03*
Y38740D03*
X4005740Y3568268D03*
X4013614Y38740D03*
X4019520Y3005276D03*
X4021488Y1584016D03*
X4027394Y3513150D03*
Y1428504D03*
X4029362Y3469843D03*
Y2152913D03*
X4047079Y1928504D03*
Y1568268D03*
X4052984Y38740D03*
X4056921Y2215906D03*
X4060858Y1889134D03*
X4068732Y2005276D03*
X4088417Y1440315D03*
X4092354Y1556457D03*
Y38740D03*
X4100228Y1887165D03*
X4125819Y1440315D03*
X4131724Y3936378D03*
Y1249370D03*
Y38740D03*
X4139598Y1556457D03*
X4145504Y2186378D03*
X4151409Y3235591D03*
X4167157Y1936378D03*
X4171094Y3936378D03*
Y38740D03*
X4193339Y2282835D03*
X4196685Y1410787D03*
X4198654Y749370D03*
X4208850Y3936614D03*
X4210465Y38740D03*
X4214402Y2036772D03*
X4227197Y2166693D03*
X4249835Y3936378D03*
Y1406850D03*
Y38740D03*
X4267551Y2101732D03*
X4269520Y2313346D03*
X4289205Y3936378D03*
Y38740D03*
X4302984Y2542677D03*
X4326961Y3936614D03*
X4328575Y38740D03*
X4338417Y2133228D03*
X4348260Y3119449D03*
Y1532835D03*
X4354165Y3259213D03*
X4360071Y2532835D03*
X4365976Y2420630D03*
X4367945Y3936378D03*
Y1977717D03*
Y38740D03*
X4369913Y2060394D03*
X4373850Y2020039D03*
X4382709Y2111575D03*
X4387630Y1371417D03*
X4389598Y2448189D03*
X4399441Y3133228D03*
Y2089921D03*
Y2060394D03*
Y2030866D03*
Y2001339D03*
Y1971811D03*
X4407315Y3936378D03*
Y38740D03*
X4411252Y2513150D03*
X4423063Y959016D03*
X4427000Y3267087D03*
X4430937Y1930472D03*
X4437827Y911772D03*
X4442748Y2550551D03*
X4445071Y3936614D03*
X4446685Y38740D03*
X4454559Y1412756D03*
X4466370Y2255276D03*
X4474244Y2582047D03*
Y2070236D03*
Y2050551D03*
Y2030866D03*
Y2011181D03*
Y1991496D03*
X4486055Y3936378D03*
Y1393071D03*
Y38740D03*
X4499835Y2265118D03*
X4511646Y2422598D03*
X4513614Y2068268D03*
Y1393071D03*
X4519520Y989528D03*
X4529362Y125354D03*
X4539205Y2068268D03*
X4541173Y3922598D03*
Y3889134D03*
Y3857638D03*
X4543142Y2422598D03*
X4547079Y1349764D03*
X4549047Y1534803D03*
X4564795Y936378D03*
X4572669Y1383228D03*
X4594323Y3070236D03*
X4596291Y1920630D03*
X4600228Y2389134D03*
X4615976Y3116496D03*
Y3090906D03*
X4619913Y2082047D03*
Y1440315D03*
X4633693Y1956063D03*
Y1241496D03*
X4637630Y3137165D03*
X4643535Y3936378D03*
X4651409Y1916693D03*
Y1881260D03*
X4665189Y1221811D03*
X4681291Y3936614D03*
X4688811Y3271024D03*
Y2267087D03*
Y2217874D03*
Y1239528D03*
X4694717Y1408819D03*
X4695701Y1322205D03*
X4704559Y1593858D03*
Y1491496D03*
X4712433Y1221811D03*
X4715071Y1815000D03*
X4757709Y2056457D03*
Y2007244D03*
Y1960000D03*
X4761646Y3251339D03*
Y38740D03*
X4771488Y3011181D03*
X4781331Y3113543D03*
X4793142Y180472D03*
X4800031Y3009213D03*
X4801016Y38740D03*
X4816764Y322205D03*
X4824638Y1908819D03*
Y1664724D03*
X4825622Y3009213D03*
X4832512Y800551D03*
X4836449Y170630D03*
X4840386Y38740D03*
X4842354Y322205D03*
X4848181Y1345472D03*
X4848260Y1432441D03*
Y1257244D03*
X4854165Y3013150D03*
X4858102Y3131260D03*
X4867945Y1954094D03*
X4871882Y1715906D03*
Y1664724D03*
Y1544646D03*
Y690315D03*
X4877787Y170630D03*
X4879756Y38740D03*
X4883693Y373386D03*
X4895504Y800551D03*
X4903378Y615512D03*
X4917157Y284803D03*
X4917512Y3936614D03*
X4919126Y312362D03*
Y74173D03*
Y38740D03*
X4928772Y3060197D03*
X4928969Y383228D03*
Y359606D03*
Y335984D03*
X4938811Y769055D03*
Y731654D03*
X4946685Y881260D03*
X4950622Y615512D03*
X4958496Y3936378D03*
Y38740D03*
X4966370Y74173D03*
X4984087Y3269055D03*
X4989992Y1786772D03*
X4991961Y1975748D03*
X4993929Y1741496D03*
Y1637165D03*
Y1599764D03*
X4995898Y1708031D03*
X4997866Y3936378D03*
Y881260D03*
Y615512D03*
Y38740D03*
X5009677Y3841890D03*
X5013614Y74173D03*
X5019520Y745433D03*
X5023457Y3068268D03*
X5035622Y3936614D03*
X5037236Y38740D03*
X5052984Y1135197D03*
X5064323Y1826654D03*
X5064598Y1905079D03*
X5064795Y2056457D03*
X5066764Y1698189D03*
X5076606Y3936378D03*
Y38740D03*
X5084480Y1367480D03*
Y1162756D03*
X5106134Y3916693D03*
Y3816299D03*
X5112039Y3867480D03*
X5115976Y38740D03*
X5123850Y1387165D03*
X5135661Y1160787D03*
X5164992Y1387165D03*
X5169126Y1263150D03*
X5190780Y3597795D03*
Y3572205D03*
Y3478701D03*
Y3453110D03*
X5202591Y1211969D03*
X5210465Y1942283D03*
X5212433Y3496417D03*
X5213417Y3616496D03*
Y3552520D03*
X5214402Y3435394D03*
Y3373386D03*
X5234087Y38740D03*
X5238024Y1148976D03*
X5239008Y3657835D03*
Y3632244D03*
Y3535787D03*
Y3510197D03*
Y3417677D03*
Y3392087D03*
X5247866Y1942283D03*
X5262630Y3674567D03*
X5267551Y2129291D03*
X5273457Y38740D03*
X5279362Y1902913D03*
X5281331Y1930472D03*
X5299047Y1444252D03*
Y1418661D03*
Y1387165D03*
Y1172598D03*
X5302000Y2722795D03*
Y2578110D03*
Y2524961D03*
Y2453110D03*
Y2382244D03*
X5303969Y2650945D03*
X5304953Y1028898D03*
X5318732Y3916890D03*
X5320701Y2502323D03*
Y2476732D03*
X5321685Y2701142D03*
Y2675551D03*
Y2626339D03*
Y2600748D03*
Y2428504D03*
Y2402913D03*
X5322669Y1940315D03*
X5325583Y637165D03*
X5325622Y696220D03*
X5325701Y755276D03*
X5326606Y341890D03*
Y282835D03*
X5326921Y578110D03*
X5327551Y145039D03*
X5327591Y460000D03*
Y125354D03*
Y105669D03*
X5328260Y519055D03*
X5328535Y814331D03*
X5328575Y834016D03*
Y400945D03*
X5332512Y2022992D03*
X5340386Y2650945D03*
Y2453110D03*
Y1174567D03*
X5350228Y1940315D03*
X5365976Y1369449D03*
X5375819Y3865512D03*
X5377787Y1410787D03*
X5391567Y3936378D03*
X5395504Y2345827D03*
Y2318268D03*
Y2288740D03*
X5397472Y3782835D03*
Y1875354D03*
X5421094Y1373386D03*
X5425031Y1950157D03*
Y1211969D03*
X5429323Y3936614D03*
X5430937Y38740D03*
X5431921Y3783819D03*
X5432906Y834016D03*
Y812362D03*
Y755276D03*
Y696220D03*
Y637165D03*
Y578110D03*
Y519055D03*
Y460000D03*
Y400945D03*
Y341890D03*
Y282835D03*
Y145039D03*
Y125354D03*
Y105669D03*
X5434874Y1237559D03*
X5442748Y1263150D03*
X5448654Y654882D03*
X5456528Y2022992D03*
X5457512Y2584016D03*
X5457709Y2409843D03*
X5470307Y3936378D03*
Y38740D03*
X5471291Y672598D03*
X5473260Y3828110D03*
X5483102Y1943268D03*
X5489992Y3139134D03*
X5491961Y3304488D03*
X5495504Y1627323D03*
X5496882Y672598D03*
X5501803Y1869449D03*
X5503772Y3733622D03*
X5504756Y3854094D03*
Y3817874D03*
Y2514528D03*
Y2478701D03*
X5505740Y1784803D03*
X5507709Y601732D03*
X5509677Y3936378D03*
Y38740D03*
X5513614Y696220D03*
X5515780Y3835984D03*
Y3318268D03*
X5518339Y3139134D03*
X5521488Y1442283D03*
Y503819D03*
X5532315Y619449D03*
X5537236Y3733622D03*
X5541370Y3835984D03*
Y3318268D03*
X5543929Y3139134D03*
X5547079Y1615709D03*
X5547433Y3936614D03*
X5552000Y3853701D03*
Y3817874D03*
Y2514528D03*
Y2478701D03*
X5557906Y619449D03*
X5563024Y3835984D03*
X5564795Y3334016D03*
X5566764Y1259213D03*
Y658819D03*
X5568732Y2763150D03*
Y503819D03*
X5572669Y3141102D03*
X5578575Y641102D03*
X5588417Y3936378D03*
X5588614Y3835984D03*
X5593339Y672598D03*
X5594323Y2127323D03*
X5598260Y2893071D03*
Y38740D03*
X5599244Y3853701D03*
Y3817283D03*
X5602197Y1647008D03*
X5608102Y1188346D03*
X5610268Y3835984D03*
X5614992Y2514528D03*
X5615976Y2101732D03*
X5618929Y672598D03*
X5621882Y2397008D03*
X5623850Y2763150D03*
X5625819Y1294646D03*
X5627787Y3936378D03*
Y38740D03*
X5627984Y2247087D03*
X5630740Y2478701D03*
X5633693Y3139134D03*
X5635858Y3835984D03*
X5639598Y3304488D03*
Y694252D03*
X5643535Y1932441D03*
X5646488Y3853701D03*
Y3817283D03*
X5657512Y3835984D03*
X5662039Y3139134D03*
X5663220Y2032835D03*
X5664205Y3318268D03*
X5665189Y2763150D03*
X5665543Y3936614D03*
X5667157Y38740D03*
X5683102Y3835984D03*
X5684874Y1837953D03*
Y1786772D03*
Y1656850D03*
X5686843Y1582047D03*
Y1542677D03*
X5687630Y3139134D03*
X5688811Y2352717D03*
Y2130276D03*
X5689795Y3318268D03*
X5692748Y1367480D03*
X5693732Y3853701D03*
Y3817283D03*
Y2514528D03*
X5704756Y3835984D03*
X5706528Y3936378D03*
Y38740D03*
X5708496Y2603701D03*
X5709480Y2478701D03*
X5712433Y3335984D03*
Y1440315D03*
Y1398976D03*
X5716370Y3141102D03*
Y2910787D03*
X5722276Y2097795D03*
X5730346Y3835984D03*
X5738024Y2890118D03*
Y2864528D03*
Y2751339D03*
X5738220Y2650945D03*
X5740976Y3853701D03*
Y3817283D03*
X5741961Y1261181D03*
X5745898Y3936378D03*
X5745937Y38740D03*
X5751803Y3645039D03*
X5752000Y3835984D03*
X5755740Y1688346D03*
Y1566299D03*
X5757709Y2841890D03*
X5761646Y1631260D03*
X5769520Y2349764D03*
X5772472Y2514528D03*
X5773457Y3141102D03*
Y1889134D03*
X5775425Y3304488D03*
X5777591Y3835984D03*
X5781331Y3645039D03*
X5783654Y3936614D03*
X5785268Y2761181D03*
Y38740D03*
X5788220Y3853701D03*
Y2478701D03*
X5789205Y2395039D03*
X5795110Y2631260D03*
X5800031Y3318268D03*
X5801803Y3141102D03*
X5806921Y3645039D03*
X5810858Y2022992D03*
X5816764Y2212953D03*
Y2091890D03*
Y2060394D03*
X5822669Y1111575D03*
Y1085984D03*
Y1054488D03*
Y1024961D03*
X5824638Y3936378D03*
Y38740D03*
X5825622Y3318268D03*
X5827394Y3141102D03*
X5827591Y3668661D03*
Y3621417D03*
X5830543Y3741496D03*
X5835465Y3853701D03*
X5840386Y2007244D03*
X5848260Y3645039D03*
Y3335984D03*
X5851213Y2514528D03*
X5852197Y1456063D03*
X5856134Y3143071D03*
X5864008Y3936378D03*
Y2910787D03*
Y2843858D03*
Y38740D03*
X5866961Y2478701D03*
X5867157Y3741496D03*
X5873850Y3645039D03*
X5879559Y2631063D03*
X5879756Y2597795D03*
X5882709Y3853701D03*
Y3817283D03*
X5885661Y2890118D03*
Y2864528D03*
X5894520Y3668661D03*
Y3621417D03*
X5901764Y3936614D03*
X5903378Y38740D03*
X5909283Y3302520D03*
X5911252Y2245433D03*
X5913220Y1188346D03*
X5914205Y2515512D03*
Y2478701D03*
X5915189Y3645039D03*
Y217874D03*
X5923063Y1552520D03*
X5925031Y784803D03*
X5929953Y3853701D03*
Y3817283D03*
X5930937Y2398976D03*
X5932906Y2371417D03*
X5934874Y1263150D03*
X5938811Y2496417D03*
X5940780Y3645039D03*
X5942748Y3936378D03*
Y3302520D03*
Y38740D03*
X5949638Y2911772D03*
X5950622Y2645039D03*
X5958496Y1522992D03*
X5961449Y2515512D03*
Y2478701D03*
X5962433Y2383228D03*
Y759213D03*
X5963417Y2885197D03*
Y2859606D03*
X5968339Y2774961D03*
X5969323Y3656850D03*
X5974244Y1267087D03*
X5977197Y3853701D03*
Y3817283D03*
X5978181Y180472D03*
X5979165Y2835000D03*
X5982118Y3936378D03*
Y38740D03*
X5984087Y2359606D03*
X5988024Y3077126D03*
X5988220Y3835984D03*
X5991961Y1554488D03*
X5993929Y1060394D03*
X6002787Y2151929D03*
X6003772Y2769055D03*
X6005740Y2806457D03*
Y2245433D03*
X6008693Y2478701D03*
X6013614Y2219843D03*
X6013811Y3835984D03*
X6018535Y3077126D03*
X6019874Y3936614D03*
X6021488Y2398976D03*
Y38740D03*
X6024441Y3853701D03*
Y3817283D03*
Y2515512D03*
X6027394Y1524961D03*
X6029362Y1233622D03*
X6035465Y3835984D03*
X6041173Y2689331D03*
Y337953D03*
X6043142Y2802520D03*
X6044126Y3077126D03*
X6047079Y2337953D03*
Y2290709D03*
X6056921Y180472D03*
X6060858Y3936378D03*
X6061055Y3835984D03*
X6062827Y1385197D03*
X6063614Y39055D03*
X6071685Y3853701D03*
Y3817283D03*
X6072669Y3077126D03*
X6073654Y3153898D03*
X6076606Y337953D03*
X6078575Y2643071D03*
X6082709Y3835984D03*
X6092354Y2893071D03*
X6097079Y1952953D03*
X6100228Y3936378D03*
Y38740D03*
X6102197Y3153898D03*
X6108299Y3835984D03*
X6110071Y2607638D03*
X6112039Y2076142D03*
X6118929Y3853701D03*
Y3817283D03*
X6119913Y1505276D03*
X6127787Y3153898D03*
X6129953Y3835984D03*
X6137984Y3936614D03*
X6139598Y38740D03*
X6143535Y2076142D03*
X6155543Y3835984D03*
X6158299Y3223780D03*
Y3153898D03*
X6166173Y3853701D03*
Y3817283D03*
X6175031Y2076142D03*
X6178969Y38740D03*
X6186843Y3223780D03*
X6192748Y1397008D03*
X6212433Y3223780D03*
Y1239528D03*
X6213417Y3853701D03*
Y3817283D03*
X6214402Y1186378D03*
X6218339Y2509213D03*
Y38740D03*
X6220307Y1119449D03*
X6222276Y1011181D03*
X6234087Y2676535D03*
Y2487559D03*
X6238024Y2802520D03*
X6239992Y2369449D03*
Y2337953D03*
Y2290709D03*
X6241961Y2398976D03*
Y1347795D03*
X6242945Y3223780D03*
X6243929Y3293661D03*
X6247866Y3783622D03*
X6248850Y3827126D03*
X6253772Y2952126D03*
X6257709Y1613543D03*
Y38740D03*
X6261646Y1416693D03*
Y1322205D03*
X6263614Y2188346D03*
X6267551Y2288740D03*
Y2141102D03*
X6269520Y2219843D03*
Y1576142D03*
X6273654Y3293661D03*
X6281331Y2739528D03*
X6291173Y2026929D03*
Y1979685D03*
X6293142Y2952126D03*
X6294126Y2188346D03*
X6297079Y1085984D03*
Y38740D03*
X6299244Y3293661D03*
X6306921Y875354D03*
X6312827Y2511181D03*
X6316764Y2357638D03*
X6319717Y2188346D03*
X6324638Y1085984D03*
X6328575Y3363543D03*
Y3293661D03*
X6332512Y3936378D03*
X6336449Y38740D03*
X6344323Y2511181D03*
X6348260Y2906850D03*
X6350228Y2188346D03*
X6356134Y599764D03*
X6358102Y3363543D03*
X6360071Y1706063D03*
X6367945Y2650945D03*
Y686378D03*
X6371882Y2485591D03*
X6374205Y3936614D03*
X6375819Y38740D03*
X6377787Y780866D03*
X6383693Y3363543D03*
X6389795Y2405079D03*
X6391567Y2591890D03*
Y2444252D03*
X6397472Y1979685D03*
X6401409Y2253307D03*
X6407315Y2993465D03*
X6413220Y3363543D03*
Y3070236D03*
X6415189Y3936378D03*
Y1011181D03*
Y727717D03*
Y38740D03*
X6417157Y337953D03*
X6428969Y1771024D03*
X6430937Y1186378D03*
Y1082047D03*
X6434874Y1895039D03*
Y182441D03*
X6448654Y1398976D03*
X6452591Y337953D03*
X6454559Y3936378D03*
Y38740D03*
X6462433Y2641102D03*
X6464402Y2160787D03*
X6466370Y2109606D03*
X6480150Y1688346D03*
Y1648976D03*
X6492315Y3936614D03*
X6493929Y38740D03*
X6501803Y2641102D03*
X6513614Y182441D03*
X6523457Y1708031D03*
Y1645039D03*
X6525425Y558425D03*
Y460000D03*
X6531331Y2133228D03*
X6533299Y3936378D03*
Y2231654D03*
Y2015118D03*
Y38740D03*
X6572669D03*
X6576606Y217874D03*
X6604165Y1282835D03*
Y1204094D03*
X6612039Y38740D03*
X6643535Y1243465D03*
X6651409Y38740D03*
X6682906Y1282835D03*
Y1204094D03*
X6690780Y38740D03*
X6730150D03*
X6756921Y3468268D03*
X6761646Y1676535D03*
X6769520Y38740D03*
X6775425Y1875354D03*
Y1428504D03*
X6789205Y1479685D03*
X6797079Y530866D03*
X6808890Y3700157D03*
Y3651496D03*
Y3609606D03*
Y3570236D03*
Y3530866D03*
Y3387717D03*
Y3345827D03*
Y3306457D03*
Y3267087D03*
Y2757795D03*
Y2715906D03*
Y2676535D03*
Y2637165D03*
Y2400945D03*
Y2361575D03*
Y2322205D03*
Y2282835D03*
Y2243465D03*
Y2204094D03*
Y2164724D03*
Y2125354D03*
Y2085984D03*
Y2046614D03*
Y2007244D03*
Y1967874D03*
Y1928504D03*
Y1889134D03*
Y1849764D03*
Y1810394D03*
Y1771024D03*
Y1377323D03*
Y1337953D03*
Y1298583D03*
Y1259213D03*
Y1219843D03*
Y1180472D03*
Y1141102D03*
Y1101732D03*
Y1062362D03*
Y1022992D03*
Y983622D03*
Y944252D03*
Y904882D03*
Y865512D03*
Y826142D03*
Y786772D03*
Y747402D03*
Y708031D03*
Y668661D03*
Y629291D03*
Y589921D03*
Y432441D03*
Y393071D03*
Y353701D03*
Y314331D03*
Y274961D03*
Y235591D03*
Y196220D03*
Y156850D03*
Y117480D03*
Y78110D03*
X6810858Y1458031D03*
Y1418661D03*
X767354Y2614528D03*
X818535D03*
X1336449Y2460000D03*
X1433890Y2557441D03*
Y2460000D03*
Y2362559D03*
X1531331Y2460000D03*
X1602197Y1857638D03*
Y1790315D03*
X1635858Y1823976D03*
X1669520Y1857638D03*
Y1790315D03*
X1818732Y2146024D03*
Y2094843D03*
X1869913Y2146024D03*
Y2094843D03*
X1877787Y1190315D03*
Y1139134D03*
X1928969Y1190315D03*
Y1139134D03*
X1964402Y708031D03*
Y656850D03*
X2015583Y708031D03*
Y656850D03*
X2023457Y227717D03*
Y176535D03*
X2074638Y227717D03*
Y176535D03*
X4429953Y1495433D03*
Y1452126D03*
G54D11*
X3540189Y2367480D03*
Y2406850D03*
Y2328110D03*
X3601213Y2406850D03*
Y2367480D03*
Y2328110D03*
X3662236Y2406850D03*
Y2328110D03*
Y2367480D03*
X5194717Y1751339D03*
Y1704094D03*
Y1656850D03*
Y1609606D03*
Y1562362D03*
X5241961Y1751339D03*
Y1704094D03*
Y1656850D03*
Y1609606D03*
Y1562362D03*
X5289205Y1751339D03*
Y1704094D03*
Y1656850D03*
Y1609606D03*
Y1562362D03*
X5336449Y1751339D03*
Y1704094D03*
Y1656850D03*
Y1607638D03*
Y1562362D03*
X5383693Y1751339D03*
Y1704094D03*
Y1656850D03*
Y1607638D03*
Y1562362D03*
G54D12*
X539402Y3353701D03*
X559087Y3412756D03*
X618142Y3353701D03*
X657512Y3412756D03*
X696882Y3353701D03*
X736252Y3412756D03*
X775622Y3353701D03*
X834677Y3412756D03*
X854362Y3353701D03*
X1248063D03*
X1267748Y3412756D03*
X1326803Y3353701D03*
X1366173Y3412756D03*
X1405543Y3353701D03*
X1444913Y3412756D03*
X1484283Y3353701D03*
X1543339Y3412756D03*
X1563024Y3353701D03*
G54D13*
X1914008Y2925354D03*
X1954165Y3025354D03*
X1993929Y2925354D03*
X2034087Y3025354D03*
X2073850Y2925354D03*
X2114008Y3025354D03*
X2194323D03*
X2234480Y2925354D03*
X2274244Y3025354D03*
X2314402Y2925354D03*
X2354165Y3025354D03*
X2394323Y2925354D03*
G54D14*
X1914008Y2825354D03*
X2014008D03*
X2294323D03*
X2394323D03*
X4422276Y1070236D03*
X4522276D03*
X4622276D03*
X4722276D03*
X4822276D03*
X4922276D03*
X5795898Y926535D03*
Y826535D03*
Y726535D03*
Y626535D03*
Y526535D03*
Y426535D03*
Y326535D03*
Y226535D03*
X6016370Y1873386D03*
X6016606Y1762047D03*
X6116370Y1873386D03*
X6116606Y1762047D03*
X6216370Y1873386D03*
X6216606Y1762047D03*
X6695898Y926535D03*
Y826535D03*
Y726535D03*
Y626535D03*
Y526535D03*
Y426535D03*
Y326535D03*
Y226535D03*
G54D15*
X1836843Y3750157D03*
X2471882D03*
G54D16*
X438220Y3491496D03*
X955543D03*
X1146882D03*
X1664205D03*
G54D17*
X149441Y3467874D03*
Y490709D03*
X2878969Y469843D03*
X3587630D03*
X4060071D03*
X6995898Y3467874D03*
Y490709D03*
G54D18*
X4800228Y3815906D03*
Y2516693D03*
X6689992Y3815906D03*
Y2516693D03*
G54D19*
X6519598Y2296220D02*
X6495976D01*
X6519598Y1971024D02*
X6495976D01*
X6753850Y2310394D02*
X6730268D01*
X6753850Y1956850D02*
X6730268D01*
G54D12*
X621882Y879291D02*
Y796614D01*
X775425Y648976D02*
X692748D01*
X850228Y887165D02*
Y788740D01*
G54D20*
X2633693Y3764724D02*
Y3796220D01*
Y3510394D02*
Y3581260D01*
X3204559Y3764724D02*
Y3796220D01*
Y3510394D02*
Y3581260D01*
G54D21*
X6458575Y1991890D03*
G54D14*
X5172276Y863543D03*
G54D22*
Y76142D03*
G54D23*
X549047Y1772992D03*
Y2223780D03*
X824638Y1772992D03*
Y2223780D03*
G54D24*
X1904165Y3625354D03*
X2404165D03*
G54D21*
X6458575Y2269449D02*
Y2281260D01*
G54D25*
X2089598Y1563346D02*
X2306134D01*
X3369126Y979409D02*
X4156528D01*
M02*
