*
%FSLAX26Y26*%
%MOIN*%
%ADD10C,0.196850*%
%ADD11C,0.062598*%
%ADD12C,0.067717*%
%ADD13C,0.089370*%
%ADD14C,0.249921*%
%ADD15C,0.237638*%
%ADD16C,0.047244*%
%ADD17C,0.110236*%
%ADD18C,0.033465*%
%ADD19C,0.086614*%
%ADD20C,0.074803*%
%ADD21R,0.070866X0.070866*%
%ADD22C,0.007874*%
%ADD23C,0.078740*%
%ADD24C,0.066929*%
%ADD25C,0.051181*%
%ADD26C,0.070866*%
%ADD27C,0.228661*%
%ADD28C,0.031929*%
%ADD29R,0.072043X0.072043*%
%ADD30C,0.010634*%
%IPPOS*%
%LN37666-3475236.gbs*%
%LPD*%
G75*
G54D10*
X6995898Y3467874D03*
Y490709D03*
X149441Y3467874D03*
Y490709D03*
G54D11*
X1954165Y3025354D03*
X2034087D03*
X2114008D03*
X2194323D03*
X2274244D03*
X2354165D03*
X1914008Y2925354D03*
X1993929D03*
X2073850D03*
X2234480D03*
X2314402D03*
X2394323D03*
G54D12*
X1914008Y2825354D03*
X2014008D03*
X2294323D03*
X2394323D03*
G54D13*
X1836843Y3750157D03*
X2471882D03*
G54D14*
X4800228Y3815906D03*
X6689992D03*
G54D15*
X3369126Y979390D02*
X4156528D01*
G54D16*
X1543339Y3412756D03*
X1444913D03*
X1366173D03*
X1267748D03*
X1248063Y3353701D03*
X1326803D03*
X1405543D03*
X1484283D03*
X1563024D03*
G54D17*
X1664205Y3491496D03*
X1146882D03*
G54D18*
X6730248Y1956850D02*
X6753870D01*
X6495996Y1971024D02*
X6519618D01*
X6495996Y2296220D02*
X6519618D01*
X6730248Y2310394D02*
X6753870D01*
G54D15*
X2089598Y1563346D02*
X2306134D01*
G54D19*
X850228Y788740D02*
Y887165D01*
X621882Y796614D02*
Y879291D01*
X692748Y648976D02*
X775425D01*
G54D20*
X824638Y2223780D03*
X549047D03*
G54D21*
X6016590Y1748251D02*
Y1775810D01*
G54D22*
X5981157Y1716755D02*
Y1807306D01*
X6052023Y1716755D02*
Y1807306D01*
G54D23*
X6116590Y1752188D02*
Y1771873D01*
X6216590Y1752188D02*
Y1771873D01*
G54D24*
X2633693Y3510394D02*
Y3581260D01*
X3204559Y3510394D02*
Y3581260D01*
X2633693Y3764724D02*
Y3796220D01*
X3204559Y3764724D02*
Y3796220D01*
G54D16*
X834677Y3412756D03*
X736252D03*
X657512D03*
X559087D03*
X539402Y3353701D03*
X618142D03*
X696882D03*
X775622D03*
X854362D03*
G54D17*
X955543Y3491496D03*
X438220D03*
G54D14*
X4800228Y2516693D03*
X6689992D03*
G54D25*
X5172276Y863543D03*
G54D26*
Y76142D03*
G54D27*
X4060071Y469843D03*
X3587630D03*
X2878969D03*
G54D20*
X824638Y1772992D03*
X549047D03*
G54D21*
X4922276Y1056457D02*
Y1084016D01*
G54D22*
X4886843Y1024961D02*
Y1115512D01*
X4957709Y1024961D02*
Y1115512D01*
G54D23*
X4822276Y1060394D02*
Y1080079D01*
X4722276Y1060394D02*
Y1080079D01*
X4622275Y1060394D02*
Y1080079D01*
X4522276Y1060394D02*
Y1080079D01*
X4422276Y1060394D02*
Y1080079D01*
G54D21*
X5782118Y926535D02*
X5809677D01*
G54D22*
X5750622Y961969D02*
X5841173D01*
X5750622Y891102D02*
X5841173D01*
G54D23*
X5786055Y826535D02*
X5805740D01*
X5786055Y726535D02*
X5805740D01*
X5786055Y626535D02*
X5805740D01*
X5786055Y526535D02*
X5805740D01*
X5786055Y426535D02*
X5805740D01*
X5786055Y326535D02*
X5805740D01*
X5786055Y226535D02*
X5805740D01*
X6686055D02*
X6705740D01*
X6686055Y326535D02*
X6705740D01*
X6686055Y426535D02*
X6705740D01*
X6686055Y526535D02*
X6705740D01*
X6686055Y626535D02*
X6705740D01*
X6686055Y726535D02*
X6705740D01*
X6686055Y826535D02*
X6705740D01*
G54D21*
X6682118Y926535D02*
X6709677D01*
G54D22*
X6650622Y961969D02*
X6741173D01*
X6650622Y891102D02*
X6741173D01*
G54D21*
X6016370Y1859606D02*
Y1887165D01*
G54D22*
X5980937Y1828110D02*
Y1918661D01*
X6051803Y1828110D02*
Y1918661D01*
G54D23*
X6116370Y1863543D02*
Y1883228D01*
X6216370Y1863543D02*
Y1883228D01*
G54D28*
X2801016Y1160787D03*
X6251803Y1085394D03*
X2617945Y1613543D03*
X909283Y1162756D03*
X3688811Y1635197D03*
X1484087Y1066299D03*
X5677353Y1452126D03*
X4009677Y1542677D03*
X2001803Y1843366D03*
X6375819Y1085984D03*
X2909283Y145039D03*
X909283Y1074173D03*
X1854165Y257244D03*
X1377787Y580079D03*
X5625819Y1257244D03*
X5519520Y1259213D03*
X3529362Y1637165D03*
X4088417Y1398976D03*
X5403378Y1997402D03*
X2909283Y713937D03*
X5336449Y1215906D03*
X1673063Y414724D03*
X6306921Y1361575D03*
X2601451Y587953D03*
X2917157Y2308425D03*
X1826606Y1721811D03*
X1667157Y526929D03*
X3738024Y1717874D03*
X6135661Y2727717D03*
X4389598Y1538740D03*
X5522690Y1983465D03*
X2664394Y74173D03*
X1114008Y654882D03*
X3271488Y1417677D03*
X3610071Y1637165D03*
X1709950Y1715906D03*
X5741961Y1359606D03*
X3407592Y1622829D03*
X6730150Y1428504D03*
X2070701Y1837953D03*
X6269520Y1186378D03*
X2556921Y2198189D03*
X2505740Y1060394D03*
X1925031Y2306457D03*
G54D29*
X3018140Y64331D02*
X3457908D01*
G54D30*
X2987435Y100352D02*
X3488612D01*
X2987435Y28309D02*
X3488612D01*
M02*
